<svg width="449" height="192" viewBox="0 0 449 192" fill="none" xmlns="http://www.w3.org/2000/svg">
<g clip-path="url(#clip0_0_968)">
<rect width="64" height="64" fill="white"/>
<rect width="64" height="64" rx="32" fill="#1A3594"/>
<rect x="16.0001" y="6" width="39" height="53" rx="2.66859" fill="url(#paint0_linear_0_968)"/>
<rect x="16.0001" y="6" width="39" height="53" rx="2.66859" fill="url(#paint1_linear_0_968)"/>
<path fill-rule="evenodd" clip-rule="evenodd" d="M17.9586 6C16.877 6 16.0001 6.87686 16.0001 7.95853V57.0415C16.0001 58.1231 16.877 59 17.9586 59H53.0416C54.1233 59 55.0001 58.1231 55.0001 57.0415V26H55.3315C56.8054 26 58.0001 24.8052 58.0001 23.3314V7.95853C58.0001 6.87686 57.1233 6 56.0416 6H53.0416H50.0001L17.9586 6Z" fill="url(#paint2_linear_0_968)"/>
<path fill-rule="evenodd" clip-rule="evenodd" d="M17.9586 6C16.877 6 16.0001 6.87686 16.0001 7.95853V57.0415C16.0001 58.1231 16.877 59 17.9586 59H53.0416C54.1233 59 55.0001 58.1231 55.0001 57.0415V26H55.3315C56.8054 26 58.0001 24.8052 58.0001 23.3314V7.95853C58.0001 6.87686 57.1233 6 56.0416 6H53.0416H50.0001L17.9586 6Z" fill="url(#paint3_linear_0_968)"/>
<rect x="18.0381" y="11.2545" width="14.0101" height="17.3458" rx="2.66859" fill="#DBE2F1"/>
<rect x="33.3824" y="11.2545" width="14.3437" height="1.33429" rx="0.667147" fill="#DBE2F1"/>
<rect x="15.0001" y="8" width="36" height="48" rx="1.95853" fill="#E6ECF8"/>
<rect x="15.0001" y="8" width="36" height="48" rx="1.95853" fill="url(#paint4_linear_0_968)"/>
<rect x="18.038" y="11.2545" width="14.0101" height="17.3458" rx="2.66859" fill="#DBE2F1"/>
<rect x="33.0001" y="12" width="15" height="2" rx="1" fill="#DBE2F1"/>
<rect x="33.3828" y="14.2566" width="14.3437" height="1.33429" rx="0.667147" fill="#DBE2F1"/>
<rect x="33.3823" y="17.2588" width="14.3437" height="1.33429" rx="0.667147" fill="#DBE2F1"/>
<rect x="33.3823" y="20.2609" width="14.3437" height="1.33429" rx="0.667147" fill="#DBE2F1"/>
<rect x="33.3823" y="23.2632" width="14.3437" height="1.33429" rx="0.667147" fill="#DBE2F1"/>
<rect x="33.3823" y="26.2653" width="14.3437" height="1.33429" rx="0.667147" fill="#DBE2F1"/>
<rect x="33.3823" y="29.2675" width="14.3437" height="1.33429" rx="0.667147" fill="#DBE2F1"/>
<rect x="33.3823" y="32.2696" width="14.3437" height="1.33429" rx="0.667147" fill="#DBE2F1"/>
<rect x="33.3823" y="35.2718" width="14.3437" height="1.33429" rx="0.667147" fill="#DBE2F1"/>
<rect x="33.3823" y="38.274" width="14.3437" height="1.33429" rx="0.667147" fill="#DBE2F1"/>
<rect x="33.3823" y="41.2761" width="14.3437" height="1.33429" rx="0.667147" fill="#DBE2F1"/>
<rect x="33.3823" y="44.2784" width="14.3437" height="1.33429" rx="0.667147" fill="#DBE2F1"/>
<rect x="33.3823" y="47.2805" width="14.3437" height="1.33429" rx="0.667147" fill="#DBE2F1"/>
<g filter="url(#filter0_d_0_968)">
<g filter="url(#filter1_f_0_968)">
<path d="M30.7883 7.11188C31.0828 6.54722 31.5695 6.10649 32.1605 5.8693L33.8595 5.18744C34.12 5.08289 34.3954 5.0201 34.6755 5.00138L38.9673 4.71449C40.4914 4.61262 41.7898 5.80833 41.8136 7.33558L42.4446 47.8502C42.4678 49.3401 41.2664 50.5603 39.7763 50.5603H12.5302C10.5264 50.5603 9.23747 48.4344 10.164 46.6577L30.7883 7.11188Z" fill="#A5ACBB" fill-opacity="0.5"/>
</g>
<rect x="7.00012" y="4.00006" width="35" height="47" rx="1.95853" fill="#E6ECF8"/>
<rect x="7.00012" y="4.00006" width="35" height="47" rx="1.95853" fill="url(#paint5_linear_0_968)"/>
<rect x="9.69873" y="6.91806" width="14.0101" height="17.3458" rx="2.66859" fill="#DBE2F1"/>
<rect x="25.0001" y="7.00006" width="14" height="2" rx="1" fill="#DBE2F1"/>
<rect x="25" y="10" width="14" height="2" rx="1" fill="#DBE2F1"/>
<rect x="25.0428" y="12.9225" width="14.3437" height="1.33429" rx="0.667147" fill="#DBE2F1"/>
<rect x="25.0428" y="15.9247" width="14.3437" height="1.33429" rx="0.667147" fill="#DBE2F1"/>
<rect x="25.0428" y="18.9269" width="14.3437" height="1.33429" rx="0.667147" fill="#DBE2F1"/>
<rect x="25.0428" y="21.929" width="14.3437" height="1.33429" rx="0.667147" fill="#DBE2F1"/>
<rect x="25.0428" y="24.9312" width="14.3437" height="1.33429" rx="0.667147" fill="#DBE2F1"/>
<rect x="10" y="27" width="29" height="2" rx="1" fill="#DBE2F1"/>
<rect x="10" y="31" width="29" height="2" rx="1" fill="#DBE2F1"/>
<rect x="10" y="35" width="29" height="2" rx="1" fill="#DBE2F1"/>
<rect x="10" y="39" width="29" height="2" rx="1" fill="#DBE2F1"/>
</g>
<g filter="url(#filter2_f_0_968)">
<path d="M49.9915 57.3092V14.509C49.9915 13.1265 48.8708 12.0057 47.4883 12.0057H24.3064L12.1309 19.8447V59.0284C12.1309 60.478 13.3583 61.6245 14.8045 61.5259L26.8082 60.7075L47.5962 59.8102C48.9355 59.7524 49.9915 58.6498 49.9915 57.3092Z" fill="#636C95" fill-opacity="0.15"/>
</g>
<path d="M49.0001 59.0415V14.9585C49.0001 13.8769 48.1232 13 47.0415 13H14.9586C13.8769 13 13.0001 13.8769 13.0001 14.9585V20.3846V59.0415C13.0001 60.1231 13.8769 61 14.9586 61H47.0415C48.1232 61 49.0001 60.1231 49.0001 59.0415Z" fill="#F7F9FB"/>
<path d="M18.5001 16H31.5001C32.3285 16 33.0001 16.6715 33.0001 17.5C33.0001 18.3284 32.3285 19 31.5001 19H18.5001C17.6717 19 17.0001 18.3284 17.0001 17.5C17.0001 16.6715 17.6717 16 18.5001 16Z" fill="#E6ECF8"/>
<path d="M18.0002 21L44.0002 21C44.5525 21 45.0002 21.4477 45.0002 22C45.0002 22.5523 44.5525 23 44.0002 23L18.0002 23C17.4479 23 17.0002 22.5523 17.0002 22C17.0002 21.4477 17.4479 21 18.0002 21Z" fill="#E6ECF8"/>
<path d="M18.0002 25L44.0002 25C44.5525 25 45.0002 25.4477 45.0002 26C45.0002 26.5523 44.5525 27 44.0002 27L18.0002 27C17.4479 27 17.0002 26.5523 17.0002 26C17.0002 25.4477 17.4479 25 18.0002 25Z" fill="#E6ECF8"/>
<path d="M18.0002 29L44.0002 29C44.5525 29 45.0002 29.4477 45.0002 30C45.0002 30.5523 44.5525 31 44.0002 31L18.0002 31C17.4479 31 17.0002 30.5523 17.0002 30C17.0002 29.4477 17.4479 29 18.0002 29Z" fill="#E6ECF8"/>
<path d="M18.0002 33L44.0002 33C44.5525 33 45.0002 33.4477 45.0002 34C45.0002 34.5523 44.5525 35 44.0002 35L18.0002 35C17.4479 35 17.0002 34.5523 17.0002 34C17.0002 33.4477 17.4479 33 18.0002 33Z" fill="#E6ECF8"/>
<path d="M18.0002 37L44.0002 37C44.5525 37 45.0002 37.4477 45.0002 38C45.0002 38.5523 44.5525 39 44.0002 39L18.0002 39C17.4479 39 17.0002 38.5523 17.0002 38C17.0002 37.4477 17.4479 37 18.0002 37Z" fill="#E6ECF8"/>
<path d="M18.0002 41L44.0002 41C44.5525 41 45.0002 41.4477 45.0002 42C45.0002 42.5523 44.5525 43 44.0002 43L18.0002 43C17.4479 43 17.0002 42.5523 17.0002 42C17.0002 41.4477 17.4479 41 18.0002 41Z" fill="#E6ECF8"/>
<path d="M18.0002 41L44.0002 41C44.5525 41 45.0002 41.4477 45.0002 42C45.0002 42.5523 44.5525 43 44.0002 43L18.0002 43C17.4479 43 17.0002 42.5523 17.0002 42C17.0002 41.4477 17.4479 41 18.0002 41Z" fill="#E6ECF8"/>
<path d="M34.0001 48L44.0001 48C44.5524 48 45.0001 48.4477 45.0001 49C45.0001 49.5523 44.5524 50 44.0001 50L34.0001 50C33.4478 50 33.0001 49.5523 33.0001 49C33.0001 48.4477 33.4478 48 34.0001 48Z" fill="#E6ECF8"/>
<path d="M34.0001 51L44.0001 51C44.5524 51 45.0001 51.4477 45.0001 52C45.0001 52.5523 44.5524 53 44.0001 53L34.0001 53C33.4478 53 33.0001 52.5523 33.0001 52C33.0001 51.4477 33.4478 51 34.0001 51Z" fill="#E6ECF8"/>
<path d="M18.0002 48L27.0002 48C27.5525 48 28.0002 48.4477 28.0002 49C28.0002 49.5523 27.5525 50 27.0002 50L18.0002 50C17.4479 50 17.0002 49.5523 17.0002 49C17.0002 48.4477 17.4479 48 18.0002 48Z" fill="#E6ECF8"/>
<path fill-rule="evenodd" clip-rule="evenodd" d="M23.0001 48.7692C20.6635 48.7692 18.7693 50.6634 18.7693 53C18.7693 55.3366 20.6635 57.2308 23.0001 57.2308C25.3367 57.2308 27.2308 55.3366 27.2308 53C27.2308 50.6634 25.3367 48.7692 23.0001 48.7692ZM18.0001 53C18.0001 50.2386 20.2386 48 23.0001 48C25.7615 48 28.0001 50.2386 28.0001 53C28.0001 55.7614 25.7615 58 23.0001 58C20.2386 58 18.0001 55.7614 18.0001 53Z" fill="#91A1E6"/>
<path fill-rule="evenodd" clip-rule="evenodd" d="M22.9998 50.3075C21.5129 50.3075 20.3075 51.5129 20.3075 52.9998C20.3075 54.4867 21.5129 55.6921 22.9998 55.6921C24.4867 55.6921 25.6921 54.4867 25.6921 52.9998C25.6921 51.5129 24.4867 50.3075 22.9998 50.3075ZM19.5383 52.9998C19.5383 51.088 21.0881 49.5382 22.9998 49.5382C24.9116 49.5382 26.4613 51.088 26.4613 52.9998C26.4613 54.9115 24.9116 56.4613 22.9998 56.4613C21.0881 56.4613 19.5383 54.9115 19.5383 52.9998Z" fill="#91A1E6"/>
<path d="M21.0769 52.2308C21.0769 52.0184 21.2491 51.8462 21.4615 51.8462H24.5384C24.7509 51.8462 24.9231 52.0184 24.9231 52.2308C24.9231 52.4432 24.7509 52.6154 24.5384 52.6154H21.4615C21.2491 52.6154 21.0769 52.4432 21.0769 52.2308Z" fill="#91A1E6"/>
<path d="M21.0769 53.769C21.0769 53.5566 21.2491 53.3844 21.4615 53.3844H24.5384C24.7509 53.3844 24.9231 53.5566 24.9231 53.769C24.9231 53.9815 24.7509 54.1537 24.5384 54.1537H21.4615C21.2491 54.1537 21.0769 53.9815 21.0769 53.769Z" fill="#91A1E6"/>
<path fill-rule="evenodd" clip-rule="evenodd" d="M37.9326 38.4508C37.9334 38.5931 37.9209 38.7456 37.8962 38.8772C37.5862 40.5338 36.9831 42.1461 36.3968 43.7136C36.3537 43.8288 36.3108 43.9436 36.268 44.0583C36.1518 44.3698 36.033 44.6804 35.9122 44.9902C35.897 45.0716 35.8817 45.1527 35.866 45.2335C35.8416 45.3599 35.8171 45.4862 35.7927 45.6124C35.5244 46.9961 35.2571 48.3744 35.0981 49.7647C35.0942 49.7993 35.0851 49.8616 35.0732 49.9427C35.0331 50.2159 34.9618 50.7025 34.9518 51.0607C34.9508 51.0975 34.9504 51.1318 34.9508 51.1633C34.993 51.096 35.0428 51.0078 35.1009 50.8945L35.128 50.8416C35.6652 49.7945 36.1999 48.7523 36.8279 47.7371C36.8229 47.7452 37.0817 47.2438 37.3143 46.9181C37.3749 46.8334 37.4389 46.7524 37.5023 46.6882C37.5594 46.6304 37.6403 46.5605 37.7365 46.5381C37.7918 46.5252 37.8582 46.5269 37.9217 46.5617C37.9824 46.5949 38.0198 46.6471 38.0427 46.6954C38.0857 46.786 38.0993 46.9086 38.0993 47.0474C38.0993 47.7823 37.9969 48.5171 37.8976 49.2279C37.8914 49.2717 37.8342 49.776 37.7871 50.2652C37.7719 50.4227 37.758 50.5773 37.7471 50.7135C37.8014 50.642 37.8576 50.564 37.9151 50.4822C37.9701 50.404 38.0267 50.3216 38.0835 50.2389C38.2072 50.0588 38.332 49.8771 38.4434 49.7338C38.5245 49.6295 38.6082 49.5326 38.6885 49.4671C38.7283 49.4347 38.7775 49.4014 38.8338 49.3829C38.894 49.3631 38.973 49.3577 39.0491 49.4009C39.1197 49.4411 39.1578 49.5066 39.179 49.562C39.2007 49.6186 39.2125 49.6844 39.2188 49.7546C39.2315 49.8955 39.2245 50.089 39.1983 50.3415C39.1658 50.6555 39.1672 50.8652 39.1887 50.9957C39.1985 51.0552 39.2102 51.087 39.2182 51.103C39.2387 51.0951 39.2693 51.0782 39.3103 51.0468C39.3955 50.9817 39.4988 50.8749 39.6145 50.7345C39.9794 50.2918 40.3952 49.6077 40.6639 49.1657C40.7383 49.0434 40.8014 48.9395 40.8491 48.8645C40.9021 48.781 41.0127 48.7563 41.0962 48.8093C41.1797 48.8623 41.2044 48.973 41.1514 49.0565C41.1093 49.1227 41.0513 49.2183 40.9813 49.3334C40.7146 49.7725 40.2749 50.4964 39.8909 50.9623C39.7689 51.1102 39.6453 51.2414 39.5279 51.3313C39.4692 51.3762 39.4054 51.4159 39.3385 51.4403C39.2712 51.4649 39.1893 51.4778 39.1051 51.4515C38.9289 51.3964 38.8621 51.2168 38.8353 51.0537C38.8061 50.876 38.8085 50.6287 38.8421 50.3045C38.867 50.0643 38.8715 49.8997 38.8627 49.7932C38.824 49.8328 38.7784 49.8864 38.7261 49.9537C38.6212 50.0885 38.507 50.2548 38.387 50.4296C38.3286 50.5147 38.2689 50.6017 38.2081 50.6881C38.1172 50.8174 38.0251 50.9437 37.9362 51.0523C37.8489 51.1591 37.7575 51.2577 37.6674 51.3251C37.6434 51.3429 37.5955 51.3689 37.5319 51.3599C37.4688 51.3509 37.4305 51.3131 37.413 51.2905C37.3845 51.2538 37.3767 51.2144 37.3749 51.205L37.3747 51.2042C37.369 51.1757 37.3677 51.1434 37.3673 51.1184C37.3665 51.0631 37.3696 50.9857 37.375 50.8972C37.3858 50.7184 37.407 50.4759 37.4306 50.2309C37.4777 49.7418 37.5356 49.2306 37.5429 49.1783C37.6428 48.4636 37.7412 47.7533 37.7412 47.0474C37.7412 47.013 37.7401 46.9839 37.7384 46.9595C37.6984 47.0027 37.6535 47.0594 37.6058 47.1263C37.4242 47.3805 37.2547 47.6981 37.1755 47.8466C37.154 47.8869 37.1392 47.9147 37.1325 47.9255C36.5121 48.9284 35.983 49.9596 35.4439 51.0105L35.4195 51.058C35.3159 51.2601 35.2269 51.4071 35.1494 51.5033C35.1112 51.5509 35.0685 51.5951 35.0207 51.6262C34.9733 51.657 34.8976 51.6891 34.8101 51.6645C34.7239 51.6403 34.6772 51.5753 34.6541 51.5302C34.6304 51.4838 34.6174 51.432 34.6094 51.3854C34.5932 51.2908 34.5904 51.1727 34.5938 51.0507C34.6046 50.6648 34.6846 50.1212 34.723 49.8604C34.7327 49.7945 34.7397 49.7467 34.7423 49.7241C34.8576 48.7158 35.0292 47.7143 35.2159 46.7186C34.8903 47.5056 34.5567 48.289 34.2229 49.0713C34.197 49.132 34.1711 49.1927 34.1452 49.2533C33.4631 50.8516 32.7827 52.4459 32.1676 54.0636C32.1325 54.156 32.029 54.2025 31.9366 54.1673C31.8441 54.1322 31.7977 54.0287 31.8328 53.9363C32.4505 52.3117 33.1335 50.7115 33.8148 49.1151C33.841 49.0536 33.8673 48.9922 33.8935 48.9307C34.4666 47.5877 35.0367 46.2467 35.5661 44.8917C35.6417 44.483 35.7126 44.063 35.7846 43.6369C36.0906 41.825 36.4156 39.9008 37.1983 38.2451C37.2471 38.142 37.2942 38.0585 37.3407 37.9947C37.3841 37.9352 37.4406 37.8737 37.5143 37.8421C37.5546 37.8249 37.6027 37.8156 37.6543 37.824C37.7058 37.8325 37.7474 37.8564 37.7786 37.884C37.8356 37.9344 37.8653 38.0034 37.8824 38.0559C37.9184 38.1664 37.9318 38.3118 37.9326 38.4508ZM36.2366 43.1187C36.5165 41.4897 36.8392 39.8428 37.5221 38.3982C37.5383 38.364 37.5534 38.334 37.5675 38.3078C37.5717 38.3509 37.5742 38.3997 37.5745 38.4527C37.5751 38.5751 37.5642 38.7047 37.5442 38.8113C37.2707 40.2725 36.764 41.701 36.2366 43.1187Z" fill="#6776B8"/>
</g>
<g clip-path="url(#clip1_0_968)">
<rect width="128" height="128" transform="translate(100)" fill="white"/>
<rect x="100" width="128" height="128" rx="64" fill="#1A3594"/>
<rect x="133.633" y="8.4064" width="79.0278" height="109.685" rx="5.45019" fill="url(#paint6_linear_0_968)"/>
<rect x="133.633" y="8.4064" width="79.0278" height="109.685" rx="5.45019" fill="url(#paint7_linear_0_968)"/>
<path fill-rule="evenodd" clip-rule="evenodd" d="M137.633 8.4064C135.424 8.4064 133.633 10.1973 133.633 12.4064V114.092C133.633 116.301 135.424 118.092 137.633 118.092H208.661C210.87 118.092 212.661 116.301 212.661 114.092V50.6033C215.349 50.2681 217.43 47.9746 217.43 45.1952V12.4064C217.43 10.1973 215.639 8.40643 213.43 8.40643H208.675C208.67 8.40641 208.665 8.4064 208.661 8.4064L137.633 8.4064Z" fill="url(#paint8_linear_0_968)"/>
<path fill-rule="evenodd" clip-rule="evenodd" d="M137.633 8.4064C135.424 8.4064 133.633 10.1973 133.633 12.4064V114.092C133.633 116.301 135.424 118.092 137.633 118.092H208.661C210.87 118.092 212.661 116.301 212.661 114.092V50.6033C215.349 50.2681 217.43 47.9746 217.43 45.1952V12.4064C217.43 10.1973 215.639 8.40643 213.43 8.40643H208.675C208.67 8.40641 208.665 8.4064 208.661 8.4064L137.633 8.4064Z" fill="url(#paint9_linear_0_968)"/>
<rect x="136.84" y="19.8163" width="28.6135" height="35.4263" rx="5.45019" fill="#DBE2F1"/>
<rect x="168.179" y="19.8163" width="29.2948" height="2.7251" rx="1.36255" fill="#DBE2F1"/>
<rect x="131.589" y="13.1753" width="72.2151" height="97.4222" rx="4" fill="#E6ECF8"/>
<rect x="131.589" y="13.1753" width="72.2151" height="97.4222" rx="4" fill="url(#paint10_linear_0_968)"/>
<rect x="136.84" y="19.8162" width="28.6135" height="35.4263" rx="5.45019" fill="#DBE2F1"/>
<rect x="168.178" y="19.8162" width="29.2948" height="2.7251" rx="1.36255" fill="#DBE2F1"/>
<rect x="168.179" y="25.9476" width="29.2948" height="2.7251" rx="1.36255" fill="#DBE2F1"/>
<rect x="168.178" y="32.0792" width="29.2948" height="2.7251" rx="1.36255" fill="#DBE2F1"/>
<rect x="168.178" y="38.2106" width="29.2948" height="2.7251" rx="1.36255" fill="#DBE2F1"/>
<rect x="168.178" y="44.3421" width="29.2948" height="2.7251" rx="1.36255" fill="#DBE2F1"/>
<rect x="168.178" y="50.4735" width="29.2948" height="2.7251" rx="1.36255" fill="#DBE2F1"/>
<rect x="168.178" y="56.6051" width="29.2948" height="2.7251" rx="1.36255" fill="#DBE2F1"/>
<rect x="168.178" y="62.7365" width="29.2948" height="2.7251" rx="1.36255" fill="#DBE2F1"/>
<rect x="168.178" y="68.868" width="29.2948" height="2.7251" rx="1.36255" fill="#DBE2F1"/>
<rect x="168.178" y="74.9994" width="29.2948" height="2.7251" rx="1.36255" fill="#DBE2F1"/>
<rect x="168.178" y="81.131" width="29.2948" height="2.7251" rx="1.36255" fill="#DBE2F1"/>
<rect x="168.178" y="87.2624" width="29.2948" height="2.7251" rx="1.36255" fill="#DBE2F1"/>
<rect x="168.178" y="93.3939" width="29.2948" height="2.7251" rx="1.36255" fill="#DBE2F1"/>
<g filter="url(#filter3_d_0_968)">
<g filter="url(#filter4_f_0_968)">
<path d="M162.88 11.3553C163.481 10.2021 164.475 9.30199 165.682 8.81756L169.152 7.42497C169.684 7.21145 170.247 7.0832 170.819 7.04497L179.584 6.45904C182.697 6.25098 185.349 8.69304 185.397 11.8122L186.686 94.5572C186.733 97.6001 184.28 100.092 181.237 100.092H125.59C121.498 100.092 118.865 95.7504 120.758 92.1218L162.88 11.3553Z" fill="#A5ACBB" fill-opacity="0.5"/>
</g>
<rect x="114.557" y="4.31876" width="72.2151" height="97.4222" rx="4" fill="#E6ECF8"/>
<rect x="114.557" y="4.31876" width="72.2151" height="97.4222" rx="4" fill="url(#paint11_linear_0_968)"/>
<rect x="119.808" y="10.9597" width="28.6135" height="35.4263" rx="5.45019" fill="#DBE2F1"/>
<rect x="151.146" y="10.9597" width="29.2948" height="2.7251" rx="1.36255" fill="#DBE2F1"/>
<rect x="151.146" y="17.0912" width="29.2948" height="2.7251" rx="1.36255" fill="#DBE2F1"/>
<rect x="151.146" y="23.2227" width="29.2948" height="2.7251" rx="1.36255" fill="#DBE2F1"/>
<rect x="151.146" y="29.3541" width="29.2948" height="2.7251" rx="1.36255" fill="#DBE2F1"/>
<rect x="151.146" y="35.4857" width="29.2948" height="2.7251" rx="1.36255" fill="#DBE2F1"/>
<rect x="151.146" y="41.6171" width="29.2948" height="2.7251" rx="1.36255" fill="#DBE2F1"/>
<rect x="151.146" y="47.7486" width="29.2948" height="2.7251" rx="1.36255" fill="#DBE2F1"/>
<rect x="120.007" y="54.0518" width="60.6334" height="2.7251" rx="1.36255" fill="#DBE2F1"/>
<rect x="120.007" y="60.1833" width="60.6334" height="2.7251" rx="1.36255" fill="#DBE2F1"/>
<rect x="120.007" y="66.3148" width="60.6334" height="2.7251" rx="1.36255" fill="#DBE2F1"/>
<rect x="120.007" y="72.4462" width="60.6334" height="2.7251" rx="1.36255" fill="#DBE2F1"/>
<rect x="120.007" y="78.5778" width="60.6334" height="2.7251" rx="1.36255" fill="#DBE2F1"/>
<rect x="120.007" y="84.7092" width="60.6334" height="2.7251" rx="1.36255" fill="#DBE2F1"/>
</g>
<g filter="url(#filter5_f_0_968)">
<path d="M202.101 113.876V26.4632C202.101 23.6396 199.812 21.3506 196.988 21.3506H149.643L124.776 37.3605V117.387C124.776 120.348 127.283 122.69 130.237 122.488L154.752 120.817L197.209 118.984C199.944 118.866 202.101 116.614 202.101 113.876Z" fill="#636C95" fill-opacity="0.15"/>
</g>
<path d="M199.376 116.817V27.3943C199.376 25.1852 197.585 23.3943 195.376 23.3943H131.16C128.951 23.3943 127.16 25.1852 127.16 27.3943V38.3824V116.817C127.16 119.026 128.951 120.817 131.16 120.817H195.376C197.585 120.817 199.376 119.026 199.376 116.817Z" fill="#F7F9FB"/>
<path d="M137.5 30H164.5C166.433 30 168 31.567 168 33.5C168 35.433 166.433 37 164.5 37H137.5C135.567 37 134 35.433 134 33.5C134 31.567 135.567 30 137.5 30Z" fill="#E6ECF8"/>
<path fill-rule="evenodd" clip-rule="evenodd" d="M134 47.5C134 46.6716 134.541 46 135.208 46L190.792 46C191.459 46 192 46.6716 192 47.5C192 48.3284 191.459 49 190.792 49L135.208 49C134.541 49 134 48.3284 134 47.5Z" fill="#E6ECF8"/>
<path fill-rule="evenodd" clip-rule="evenodd" d="M134 41.5C134 40.6716 134.541 40 135.208 40L190.792 40C191.459 40 192 40.6716 192 41.5C192 42.3284 191.459 43 190.792 43L135.208 43C134.541 43 134 42.3284 134 41.5Z" fill="#E6ECF8"/>
<path fill-rule="evenodd" clip-rule="evenodd" d="M134 53.5C134 52.6716 134.541 52 135.208 52L190.792 52C191.459 52 192 52.6716 192 53.5C192 54.3284 191.459 55 190.792 55L135.208 55C134.541 55 134 54.3284 134 53.5Z" fill="#E6ECF8"/>
<path fill-rule="evenodd" clip-rule="evenodd" d="M134 59.5C134 58.6716 134.541 58 135.208 58L190.792 58C191.459 58 192 58.6716 192 59.5C192 60.3284 191.459 61 190.792 61L135.208 61C134.541 61 134 60.3284 134 59.5Z" fill="#E6ECF8"/>
<path fill-rule="evenodd" clip-rule="evenodd" d="M134 65.5C134 64.6716 134.541 64 135.208 64L190.792 64C191.459 64 192 64.6716 192 65.5C192 66.3284 191.459 67 190.792 67L135.208 67C134.541 67 134 66.3284 134 65.5Z" fill="#E6ECF8"/>
<path fill-rule="evenodd" clip-rule="evenodd" d="M134 71.5C134 70.6716 134.541 70 135.208 70L190.792 70C191.459 70 192 70.6716 192 71.5C192 72.3284 191.459 73 190.792 73L135.208 73C134.541 73 134 72.3284 134 71.5Z" fill="#E6ECF8"/>
<path fill-rule="evenodd" clip-rule="evenodd" d="M134 77.5C134 76.6716 134.541 76 135.208 76L190.792 76C191.459 76 192 76.6716 192 77.5C192 78.3284 191.459 79 190.792 79L135.208 79C134.541 79 134 78.3284 134 77.5Z" fill="#E6ECF8"/>
<path fill-rule="evenodd" clip-rule="evenodd" d="M134 83.5C134 82.6716 134.541 82 135.208 82L190.792 82C191.459 82 192 82.6716 192 83.5C192 84.3284 191.459 85 190.792 85L135.208 85C134.541 85 134 84.3284 134 83.5Z" fill="#E6ECF8"/>
<path d="M168.5 96L189.5 96C190.328 96 191 96.6716 191 97.5C191 98.3284 190.328 99 189.5 99L168.5 99C167.671 99 167 98.3284 167 97.5C167 96.6716 167.671 96 168.5 96Z" fill="#E6ECF8"/>
<path d="M168.5 102L189.5 102C190.328 102 191 102.672 191 103.5C191 104.328 190.328 105 189.5 105L168.5 105C167.671 105 167 104.328 167 103.5C167 102.672 167.671 102 168.5 102Z" fill="#E6ECF8"/>
<path d="M135.5 96L156.5 96C157.328 96 158 96.6716 158 97.5C158 98.3284 157.328 99 156.5 99L135.5 99C134.671 99 134 98.3284 134 97.5C134 96.6716 134.671 96 135.5 96Z" fill="#E6ECF8"/>
<path fill-rule="evenodd" clip-rule="evenodd" d="M146.918 101.06C142.779 101.06 139.424 104.415 139.424 108.554C139.424 112.693 142.779 116.048 146.918 116.048C151.056 116.048 154.412 112.693 154.412 108.554C154.412 104.415 151.056 101.06 146.918 101.06ZM138.061 108.554C138.061 103.662 142.026 99.6971 146.918 99.6971C151.809 99.6971 155.774 103.662 155.774 108.554C155.774 113.445 151.809 117.41 146.918 117.41C142.026 117.41 138.061 113.445 138.061 108.554Z" fill="#91A1E6"/>
<path fill-rule="evenodd" clip-rule="evenodd" d="M146.918 103.785C144.284 103.785 142.149 105.92 142.149 108.554C142.149 111.187 144.284 113.323 146.918 113.323C149.551 113.323 151.687 111.187 151.687 108.554C151.687 105.92 149.551 103.785 146.918 103.785ZM140.786 108.554C140.786 105.167 143.531 102.422 146.918 102.422C150.304 102.422 153.049 105.167 153.049 108.554C153.049 111.94 150.304 114.685 146.918 114.685C143.531 114.685 140.786 111.94 140.786 108.554Z" fill="#91A1E6"/>
<path d="M143.511 107.191C143.511 106.815 143.816 106.51 144.193 106.51H149.643C150.019 106.51 150.324 106.815 150.324 107.191C150.324 107.567 150.019 107.872 149.643 107.872H144.193C143.816 107.872 143.511 107.567 143.511 107.191Z" fill="#91A1E6"/>
<path d="M143.511 109.916C143.511 109.54 143.816 109.235 144.193 109.235H149.643C150.019 109.235 150.324 109.54 150.324 109.916C150.324 110.293 150.019 110.598 149.643 110.598H144.193C143.816 110.598 143.511 110.293 143.511 109.916Z" fill="#91A1E6"/>
<path fill-rule="evenodd" clip-rule="evenodd" d="M173.563 86.7027C173.596 86.5114 173.613 86.2913 173.612 86.0863C173.611 85.8878 173.594 85.6724 173.542 85.5033C173.519 85.4258 173.473 85.3059 173.375 85.2133C173.321 85.1615 173.243 85.1118 173.142 85.0941C173.039 85.0761 172.946 85.0965 172.873 85.1303C172.742 85.1904 172.652 85.3011 172.592 85.3884C172.526 85.4857 172.461 85.6098 172.396 85.7577C171.363 88.0981 170.934 90.8207 170.533 93.3692C170.439 93.9626 170.347 94.5467 170.249 95.1142C169.557 97.0139 168.81 98.8946 168.06 100.779L167.956 101.039C167.063 103.282 166.166 105.533 165.356 107.818C165.288 108.009 165.388 108.218 165.578 108.285C165.768 108.353 165.977 108.253 166.045 108.063C166.851 105.791 167.743 103.552 168.638 101.305L168.739 101.05C169.02 100.346 169.3 99.6404 169.578 98.9335C169.417 99.9244 169.273 100.92 169.167 101.921C169.163 101.95 169.155 102.013 169.143 102.102L169.143 102.102C169.093 102.464 168.986 103.243 168.971 103.793C168.967 103.966 168.97 104.139 168.993 104.281C169.004 104.351 169.023 104.434 169.06 104.512C169.095 104.585 169.176 104.716 169.344 104.766C169.52 104.819 169.666 104.747 169.743 104.693C169.822 104.638 169.887 104.564 169.94 104.494C170.049 104.349 170.169 104.134 170.306 103.849L170.337 103.784C171.045 102.306 171.737 100.859 172.549 99.4536C172.561 99.433 172.584 99.3861 172.617 99.3206C172.714 99.1261 172.893 98.7674 173.096 98.4441C173.076 99.3386 172.959 100.24 172.84 101.152C172.83 101.227 172.754 101.947 172.692 102.635C172.661 102.979 172.634 103.321 172.619 103.574C172.612 103.699 172.608 103.811 172.609 103.892C172.61 103.928 172.611 103.98 172.62 104.029L172.621 104.031C172.623 104.046 172.637 104.121 172.689 104.193C172.721 104.236 172.798 104.322 172.934 104.342C173.073 104.364 173.175 104.302 173.221 104.265C173.352 104.161 173.479 104.012 173.595 103.86C173.714 103.704 173.837 103.524 173.956 103.342C174.038 103.218 174.117 103.094 174.194 102.974L174.194 102.974C174.327 102.767 174.452 102.571 174.57 102.403C174.565 102.499 174.556 102.611 174.544 102.738C174.5 103.196 174.495 103.553 174.536 103.814C174.556 103.945 174.59 104.074 174.651 104.185C174.714 104.3 174.817 104.413 174.973 104.465C175.126 104.517 175.27 104.489 175.378 104.447C175.484 104.406 175.58 104.34 175.663 104.273C175.828 104.137 175.997 103.944 176.158 103.734C176.43 103.381 176.723 102.923 176.99 102.48C176.988 102.583 176.992 102.684 177.003 102.779C177.023 102.953 177.071 103.138 177.177 103.294C177.281 103.446 177.438 103.488 177.544 103.495C177.646 103.502 177.745 103.481 177.824 103.458C177.986 103.411 178.175 103.322 178.368 103.218C178.76 103.007 179.25 102.687 179.735 102.356C180.135 102.082 180.539 101.794 180.891 101.543L180.891 101.543L181.111 101.387C181.311 101.245 181.485 101.122 181.624 101.028C181.771 100.928 181.857 100.875 181.89 100.858C182.379 100.619 182.875 100.39 183.374 100.161C184.56 99.6163 185.76 99.0647 186.909 98.3334C187.08 98.2249 187.13 97.9989 187.022 97.8285C186.913 97.6581 186.687 97.6078 186.517 97.7163C185.411 98.4198 184.283 98.9379 183.118 99.473L183.118 99.473C182.609 99.707 182.092 99.9443 181.568 100.202C181.48 100.245 181.35 100.329 181.213 100.423C181.067 100.522 180.887 100.649 180.688 100.79L180.465 100.949C180.113 101.199 179.715 101.482 179.321 101.752C178.84 102.082 178.376 102.383 178.021 102.575C177.905 102.637 177.809 102.684 177.732 102.715L177.73 102.695C177.717 102.585 177.718 102.446 177.734 102.278C177.765 101.941 177.851 101.535 177.962 101.114C178.072 100.695 178.201 100.275 178.315 99.9116L178.35 99.7999C178.446 99.4924 178.532 99.2195 178.57 99.0502C178.615 98.8533 178.492 98.6573 178.295 98.6126C178.098 98.5678 177.902 98.6912 177.857 98.8881C177.826 99.0265 177.75 99.2687 177.648 99.5919L177.648 99.592L177.617 99.6931C177.539 99.9423 177.451 100.225 177.367 100.519C177.295 100.548 177.233 100.6 177.19 100.671C177.126 100.78 177.042 100.928 176.943 101.102L176.943 101.102C176.59 101.724 176.052 102.673 175.579 103.288C175.454 103.45 175.344 103.575 175.253 103.66C175.232 103.485 175.233 103.212 175.272 102.808C175.306 102.451 175.316 102.173 175.299 101.966C175.29 101.863 175.274 101.761 175.241 101.67C175.21 101.584 175.149 101.462 175.02 101.383C174.875 101.295 174.723 101.308 174.615 101.346C174.517 101.38 174.438 101.44 174.381 101.489C174.264 101.591 174.148 101.737 174.041 101.884C173.893 102.088 173.726 102.349 173.562 102.603L173.562 102.603C173.51 102.685 173.459 102.765 173.408 102.843L173.421 102.7C173.483 102.013 173.558 101.306 173.565 101.246C173.696 100.248 173.831 99.2091 173.831 98.169C173.831 97.9718 173.813 97.782 173.748 97.6341C173.713 97.5554 173.651 97.4571 173.539 97.3917C173.419 97.321 173.291 97.3179 173.189 97.3435C173.019 97.3858 172.89 97.5118 172.815 97.5931C172.726 97.69 172.638 97.8095 172.557 97.9308C172.252 98.3893 171.899 99.1169 171.915 99.0879C171.108 100.487 170.418 101.921 169.73 103.359C169.764 102.958 169.822 102.535 169.86 102.259L169.86 102.259C169.876 102.141 169.888 102.05 169.894 101.998C170.102 100.048 170.452 98.1143 170.804 96.1689L170.9 95.6369C170.92 95.5259 170.94 95.4145 170.959 95.3028C171.117 94.8699 171.272 94.4357 171.423 94.0002C171.48 93.8386 171.536 93.6767 171.593 93.5144L171.593 93.5144C172.361 91.3127 173.155 89.0393 173.563 86.7027ZM172.839 86.5962C172.574 88.1079 172.142 89.595 171.656 91.0723C171.937 89.5244 172.288 88.0014 172.839 86.5962ZM173.223 85.7666C173.223 85.7667 173.222 85.7669 173.222 85.7671L173.223 85.7663C173.223 85.7663 173.223 85.7664 173.223 85.7666ZM172.835 85.6962C172.835 85.6962 172.836 85.6972 172.837 85.6995C172.835 85.6975 172.835 85.6963 172.835 85.6962Z" fill="#6776B8"/>
</g>
<g clip-path="url(#clip2_0_968)">
<rect width="192" height="192" transform="translate(257)" fill="white"/>
<rect x="257" width="192" height="192" rx="96" fill="#1A3594"/>
<rect x="310" y="17" width="116" height="161" rx="8" fill="url(#paint12_linear_0_968)"/>
<rect x="310" y="17" width="116" height="161" rx="8" fill="url(#paint13_linear_0_968)"/>
<path fill-rule="evenodd" clip-rule="evenodd" d="M318 17C313.582 17 310 20.5817 310 25V170C310 174.418 313.582 178 318 178H418C422.418 178 426 174.418 426 170V78.9381C429.946 78.446 433 75.0796 433 71V25C433 20.5817 429.418 17 425 17H418H410L318 17Z" fill="url(#paint14_linear_0_968)"/>
<path fill-rule="evenodd" clip-rule="evenodd" d="M318 17C313.582 17 310 20.5817 310 25V170C310 174.418 313.582 178 318 178H418C422.418 178 426 174.418 426 170V78.9381C429.946 78.446 433 75.0796 433 71V25C433 20.5817 429.418 17 425 17H418H410L318 17Z" fill="url(#paint15_linear_0_968)"/>
<rect x="314.707" y="33.7478" width="42" height="52" rx="8" fill="#DBE2F1"/>
<rect x="360.707" y="33.7478" width="43" height="4" rx="2" fill="#DBE2F1"/>
<rect x="307" y="24" width="106" height="143" rx="8" fill="#E6ECF8"/>
<rect x="307" y="24" width="106" height="143" rx="8" fill="url(#paint16_linear_0_968)"/>
<rect x="314.707" y="33.7478" width="42" height="52" rx="8" fill="#DBE2F1"/>
<rect x="360.707" y="33.7478" width="43" height="4" rx="2" fill="#DBE2F1"/>
<rect x="360.707" y="42.7478" width="43" height="4" rx="2" fill="#DBE2F1"/>
<rect x="360.707" y="51.7478" width="43" height="4" rx="2" fill="#DBE2F1"/>
<rect x="360.707" y="60.7478" width="43" height="4" rx="2" fill="#DBE2F1"/>
<rect x="360.707" y="69.7478" width="43" height="4" rx="2" fill="#DBE2F1"/>
<rect x="360.707" y="78.7478" width="43" height="4" rx="2" fill="#DBE2F1"/>
<rect x="360.707" y="87.7478" width="43" height="4" rx="2" fill="#DBE2F1"/>
<rect x="360.707" y="96.7478" width="43" height="4" rx="2" fill="#DBE2F1"/>
<rect x="360.707" y="105.748" width="43" height="4" rx="2" fill="#DBE2F1"/>
<rect x="360.707" y="114.748" width="43" height="4" rx="2" fill="#DBE2F1"/>
<rect x="360.707" y="123.748" width="43" height="4" rx="2" fill="#DBE2F1"/>
<rect x="360.707" y="132.748" width="43" height="4" rx="2" fill="#DBE2F1"/>
<rect x="360.707" y="141.748" width="43" height="4" rx="2" fill="#DBE2F1"/>
<g filter="url(#filter6_d_0_968)">
<g filter="url(#filter7_f_0_968)">
<path d="M352.93 21.3286C353.813 19.6359 355.272 18.3147 357.043 17.6036L362.137 15.5595C362.918 15.2461 363.743 15.0578 364.583 15.0017L377.449 14.1417C382.018 13.8363 385.91 17.4208 385.982 21.9993L387.873 143.455C387.943 147.922 384.341 151.58 379.874 151.58H298.195C292.188 151.58 288.324 145.207 291.102 139.881L352.93 21.3286Z" fill="#A5ACBB" fill-opacity="0.5"/>
</g>
<rect x="282" y="11" width="106" height="143" rx="8" fill="#E6ECF8"/>
<rect x="282" y="11" width="106" height="143" rx="8" fill="url(#paint17_linear_0_968)"/>
<rect x="289.707" y="20.7478" width="42" height="52" rx="8" fill="#DBE2F1"/>
<rect x="335.707" y="20.7478" width="43" height="4" rx="2" fill="#DBE2F1"/>
<rect x="335.707" y="29.7478" width="43" height="4" rx="2" fill="#DBE2F1"/>
<rect x="335.707" y="38.7478" width="43" height="4" rx="2" fill="#DBE2F1"/>
<rect x="335.707" y="47.7478" width="43" height="4" rx="2" fill="#DBE2F1"/>
<rect x="335.707" y="56.7478" width="43" height="4" rx="2" fill="#DBE2F1"/>
<rect x="335.707" y="65.7478" width="43" height="4" rx="2" fill="#DBE2F1"/>
<rect x="335.707" y="74.7478" width="43" height="4" rx="2" fill="#DBE2F1"/>
<rect x="290" y="84" width="89" height="4" rx="2" fill="#DBE2F1"/>
<rect x="290" y="93" width="89" height="4" rx="2" fill="#DBE2F1"/>
<rect x="290" y="102" width="89" height="4" rx="2" fill="#DBE2F1"/>
<rect x="290" y="111" width="89" height="4" rx="2" fill="#DBE2F1"/>
<rect x="290" y="120" width="89" height="4" rx="2" fill="#DBE2F1"/>
<rect x="290" y="129" width="89" height="4" rx="2" fill="#DBE2F1"/>
</g>
<g filter="url(#filter8_f_0_968)">
<path d="M410.5 171.813V43.5044C410.5 39.3598 407.14 36 402.996 36H333.5L297 59.5V176.966C297 181.312 300.679 184.749 305.015 184.454L341 182L403.319 179.31C407.334 179.137 410.5 175.831 410.5 171.813Z" fill="#636C95" fill-opacity="0.15"/>
</g>
<path d="M406.5 174V47C406.5 42.5817 402.918 39 398.5 39H308.5C304.082 39 300.5 42.5817 300.5 47V61V174C300.5 178.418 304.082 182 308.5 182H398.5C402.918 182 406.5 178.418 406.5 174Z" fill="#F7F9FB"/>
<path d="M315.5 49H355.5C358.261 49 360.5 51.2386 360.5 54C360.5 56.7614 358.261 59 355.5 59H315.5C312.739 59 310.5 56.7614 310.5 54C310.5 51.2386 312.739 49 315.5 49Z" fill="#E6ECF8"/>
<path fill-rule="evenodd" clip-rule="evenodd" d="M310.5 75C310.5 73.8954 311.293 73 312.271 73L393.729 73C394.707 73 395.5 73.8954 395.5 75C395.5 76.1046 394.707 77 393.729 77L312.271 77C311.293 77 310.5 76.1046 310.5 75Z" fill="#E6ECF8"/>
<path fill-rule="evenodd" clip-rule="evenodd" d="M310.5 66C310.5 64.8954 311.293 64 312.271 64L393.729 64C394.707 64 395.5 64.8954 395.5 66C395.5 67.1046 394.707 68 393.729 68L312.271 68C311.293 68 310.5 67.1046 310.5 66Z" fill="#E6ECF8"/>
<path fill-rule="evenodd" clip-rule="evenodd" d="M310.819 83.9935C310.819 82.8889 311.608 81.9935 312.583 81.9935L393.736 81.9935C394.71 81.9935 395.5 82.8889 395.5 83.9935C395.5 85.098 394.71 85.9935 393.736 85.9935L312.583 85.9935C311.608 85.9935 310.819 85.098 310.819 83.9935Z" fill="#E6ECF8"/>
<path fill-rule="evenodd" clip-rule="evenodd" d="M310.819 93C310.819 91.8954 311.608 91 312.583 91L393.736 91C394.71 91 395.5 91.8954 395.5 93C395.5 94.1046 394.71 95 393.736 95L312.583 95C311.608 95 310.819 94.1046 310.819 93Z" fill="#E6ECF8"/>
<path fill-rule="evenodd" clip-rule="evenodd" d="M310.819 102C310.819 100.895 311.608 100 312.583 100L393.736 100C394.71 100 395.5 100.895 395.5 102C395.5 103.105 394.71 104 393.736 104L312.583 104C311.608 104 310.819 103.105 310.819 102Z" fill="#E6ECF8"/>
<path fill-rule="evenodd" clip-rule="evenodd" d="M310.819 110.993C310.819 109.888 311.608 108.993 312.583 108.993L393.736 108.993C394.71 108.993 395.5 109.888 395.5 110.993C395.5 112.098 394.71 112.993 393.736 112.993L312.583 112.993C311.608 112.993 310.819 112.098 310.819 110.993Z" fill="#E6ECF8"/>
<path fill-rule="evenodd" clip-rule="evenodd" d="M310.819 120C310.819 118.895 311.608 118 312.583 118L393.736 118C394.71 118 395.5 118.895 395.5 120C395.5 121.105 394.71 122 393.736 122L312.583 122C311.608 122 310.819 121.105 310.819 120Z" fill="#E6ECF8"/>
<path fill-rule="evenodd" clip-rule="evenodd" d="M310.819 128.993C310.819 127.888 311.608 126.993 312.583 126.993L393.736 126.993C394.71 126.993 395.5 127.888 395.5 128.993C395.5 130.098 394.71 130.993 393.736 130.993L312.583 130.993C311.608 130.993 310.819 130.098 310.819 128.993Z" fill="#E6ECF8"/>
<path d="M361.5 145L392.5 145C393.605 145 394.5 145.895 394.5 147C394.5 148.105 393.605 149 392.5 149L361.5 149C360.395 149 359.5 148.105 359.5 147C359.5 145.895 360.395 145 361.5 145Z" fill="#E6ECF8"/>
<path d="M361.5 154L392.5 154C393.605 154 394.5 154.895 394.5 156C394.5 157.105 393.605 158 392.5 158L361.5 158C360.395 158 359.5 157.105 359.5 156C359.5 154.895 360.395 154 361.5 154Z" fill="#E6ECF8"/>
<path d="M312.5 145L343.5 145C344.605 145 345.5 145.895 345.5 147C345.5 148.105 344.605 149 343.5 149L312.5 149C311.395 149 310.5 148.105 310.5 147C310.5 145.895 311.395 145 312.5 145Z" fill="#E6ECF8"/>
<path fill-rule="evenodd" clip-rule="evenodd" d="M329.5 153C323.425 153 318.5 157.925 318.5 164C318.5 170.075 323.425 175 329.5 175C335.575 175 340.5 170.075 340.5 164C340.5 157.925 335.575 153 329.5 153ZM316.5 164C316.5 156.82 322.32 151 329.5 151C336.68 151 342.5 156.82 342.5 164C342.5 171.18 336.68 177 329.5 177C322.32 177 316.5 171.18 316.5 164Z" fill="#91A1E6"/>
<path fill-rule="evenodd" clip-rule="evenodd" d="M329.5 157C325.634 157 322.5 160.134 322.5 164C322.5 167.866 325.634 171 329.5 171C333.366 171 336.5 167.866 336.5 164C336.5 160.134 333.366 157 329.5 157ZM320.5 164C320.5 159.029 324.529 155 329.5 155C334.47 155 338.5 159.029 338.5 164C338.5 168.971 334.47 173 329.5 173C324.529 173 320.5 168.971 320.5 164Z" fill="#91A1E6"/>
<path d="M324.5 162C324.5 161.448 324.948 161 325.5 161H333.5C334.052 161 334.5 161.448 334.5 162C334.5 162.552 334.052 163 333.5 163H325.5C324.948 163 324.5 162.552 324.5 162Z" fill="#91A1E6"/>
<path d="M324.5 166C324.5 165.448 324.948 165 325.5 165H333.5C334.052 165 334.5 165.448 334.5 166C334.5 166.552 334.052 167 333.5 167H325.5C324.948 167 324.5 166.552 324.5 166Z" fill="#91A1E6"/>
<path fill-rule="evenodd" clip-rule="evenodd" d="M367.801 138.891C367.847 138.63 367.87 138.329 367.869 138.049C367.867 137.777 367.843 137.483 367.773 137.252C367.74 137.146 367.678 136.982 367.545 136.855C367.47 136.784 367.364 136.716 367.225 136.692C367.086 136.668 366.958 136.695 366.858 136.742C366.678 136.824 366.556 136.975 366.474 137.095C366.384 137.228 366.295 137.397 366.206 137.599C364.794 140.799 364.208 144.521 363.659 148.006C363.531 148.817 363.405 149.615 363.271 150.391C362.324 152.988 361.304 155.56 360.278 158.136L360.136 158.492L360.136 158.492C358.915 161.558 357.689 164.636 356.581 167.76C356.488 168.02 356.624 168.306 356.885 168.398C357.145 168.49 357.431 168.354 357.523 168.094C358.625 164.988 359.844 161.927 361.068 158.856L361.068 158.856L361.207 158.506C361.59 157.543 361.974 156.579 362.353 155.613C362.133 156.968 361.937 158.329 361.791 159.697C361.786 159.737 361.775 159.823 361.758 159.944L361.758 159.944C361.69 160.439 361.543 161.505 361.524 162.257C361.518 162.493 361.522 162.73 361.553 162.924C361.569 163.019 361.594 163.133 361.645 163.24C361.693 163.339 361.804 163.518 362.033 163.587C362.273 163.659 362.473 163.561 362.579 163.488C362.687 163.412 362.776 163.311 362.849 163.214C362.997 163.017 363.162 162.723 363.349 162.333L363.391 162.244C364.359 160.223 365.305 158.246 366.415 156.324C366.431 156.296 366.463 156.232 366.508 156.142L366.508 156.142C366.64 155.876 366.885 155.386 367.163 154.944C367.135 156.167 366.976 157.398 366.813 158.645C366.8 158.749 366.696 159.733 366.611 160.673C366.569 161.144 366.531 161.612 366.511 161.958C366.501 162.128 366.496 162.281 366.497 162.392C366.498 162.441 366.5 162.512 366.513 162.579L366.513 162.581C366.517 162.602 366.535 162.705 366.607 162.803C366.65 162.862 366.755 162.979 366.941 163.008C367.131 163.037 367.271 162.953 367.334 162.902C367.513 162.759 367.687 162.556 367.845 162.349C368.008 162.135 368.176 161.889 368.339 161.64C368.45 161.47 368.559 161.301 368.664 161.136L368.664 161.136C368.845 160.854 369.017 160.586 369.178 160.356C369.171 160.488 369.159 160.64 369.142 160.814C369.082 161.44 369.076 161.928 369.131 162.286C369.158 162.465 369.205 162.64 369.288 162.792C369.375 162.949 369.515 163.104 369.729 163.176C369.938 163.246 370.135 163.209 370.283 163.151C370.428 163.094 370.56 163.005 370.672 162.912C370.898 162.727 371.129 162.463 371.35 162.176C371.721 161.694 372.121 161.068 372.486 160.462C372.484 160.603 372.489 160.74 372.504 160.87C372.532 161.108 372.596 161.361 372.742 161.574C372.884 161.782 373.099 161.839 373.244 161.849C373.384 161.858 373.519 161.83 373.627 161.799C373.848 161.735 374.106 161.613 374.37 161.471C374.906 161.182 375.576 160.745 376.238 160.291C376.785 159.917 377.338 159.523 377.819 159.181L377.82 159.181L378.121 158.967C378.393 158.773 378.632 158.605 378.822 158.476C379.022 158.34 379.139 158.267 379.185 158.244C379.853 157.916 380.532 157.605 381.215 157.291L381.215 157.291C382.835 156.546 384.476 155.792 386.047 154.792C386.28 154.644 386.349 154.335 386.201 154.102C386.053 153.869 385.744 153.8 385.511 153.949C383.999 154.91 382.457 155.619 380.865 156.35C380.168 156.67 379.462 156.995 378.745 157.347C378.624 157.406 378.447 157.521 378.259 157.649C378.06 157.785 377.814 157.958 377.542 158.151L377.237 158.368L377.237 158.368C376.756 158.71 376.212 159.097 375.673 159.466C375.015 159.917 374.381 160.328 373.895 160.591C373.737 160.676 373.606 160.74 373.501 160.783C373.5 160.774 373.499 160.764 373.497 160.755C373.48 160.605 373.481 160.414 373.503 160.185C373.546 159.725 373.664 159.17 373.815 158.594C373.965 158.021 374.142 157.446 374.297 156.95L374.345 156.797L374.345 156.797C374.477 156.377 374.594 156.004 374.647 155.772C374.708 155.503 374.539 155.235 374.27 155.174C374.001 155.113 373.733 155.281 373.671 155.551C373.628 155.74 373.525 156.071 373.386 156.513L373.386 156.513L373.343 156.651C373.236 156.992 373.116 157.379 373.001 157.781C372.904 157.821 372.818 157.891 372.76 157.989C372.673 158.137 372.558 158.34 372.423 158.578L372.422 158.578L372.422 158.578C371.94 159.428 371.204 160.726 370.557 161.566C370.387 161.788 370.236 161.959 370.111 162.075C370.083 161.836 370.084 161.462 370.138 160.91C370.185 160.422 370.198 160.041 370.175 159.759C370.163 159.618 370.14 159.479 370.096 159.354C370.053 159.236 369.969 159.069 369.793 158.962C369.595 158.841 369.388 158.859 369.24 158.911C369.106 158.958 368.997 159.039 368.919 159.107C368.76 159.246 368.601 159.445 368.454 159.647C368.252 159.926 368.024 160.282 367.801 160.63C367.73 160.741 367.659 160.851 367.59 160.958L367.607 160.762C367.692 159.822 367.794 158.856 367.805 158.775C367.983 157.41 368.167 155.99 368.167 154.568C368.167 154.298 368.144 154.039 368.054 153.836C368.007 153.729 367.921 153.594 367.769 153.505C367.604 153.408 367.43 153.404 367.29 153.439C367.058 153.497 366.882 153.669 366.779 153.78C366.657 153.913 366.537 154.076 366.426 154.242C366.008 154.869 365.526 155.864 365.549 155.824C364.445 157.736 363.502 159.697 362.561 161.663C362.608 161.115 362.687 160.537 362.739 160.159C362.761 159.998 362.778 159.874 362.785 159.803C363.07 157.137 363.548 154.493 364.029 151.833L364.161 151.106C364.188 150.954 364.215 150.802 364.242 150.649C364.457 150.057 364.669 149.464 364.876 148.868C364.953 148.648 365.03 148.427 365.107 148.205L365.108 148.204L365.108 148.204C366.158 145.194 367.243 142.086 367.801 138.891ZM366.812 138.746C366.449 140.813 365.859 142.846 365.194 144.865C365.578 142.749 366.058 140.667 366.812 138.746ZM367.335 137.612C367.336 137.612 367.336 137.611 367.336 137.611L367.335 137.612ZM366.806 137.515C366.806 137.515 366.807 137.517 366.808 137.52C366.807 137.517 366.806 137.515 366.806 137.515Z" fill="#6776B8"/>
</g>
<defs>
<filter id="filter0_d_0_968" x="7.00012" y="4.00006" width="38.1134" height="49.6686" filterUnits="userSpaceOnUse" color-interpolation-filters="sRGB">
<feFlood flood-opacity="0" result="BackgroundImageFix"/>
<feColorMatrix in="SourceAlpha" type="matrix" values="0 0 0 0 0 0 0 0 0 0 0 0 0 0 0 0 0 0 127 0" result="hardAlpha"/>
<feOffset dx="1.33429" dy="1.33429"/>
<feGaussianBlur stdDeviation="0.667147"/>
<feColorMatrix type="matrix" values="0 0 0 0 0.474375 0 0 0 0 0.5267 0 0 0 0 0.575 0 0 0 0.25 0"/>
<feBlend mode="normal" in2="BackgroundImageFix" result="effect1_dropShadow_0_968"/>
<feBlend mode="normal" in="SourceGraphic" in2="effect1_dropShadow_0_968" result="shape"/>
</filter>
<filter id="filter1_f_0_968" x="8.52368" y="3.37414" width="35.2556" height="48.5205" filterUnits="userSpaceOnUse" color-interpolation-filters="sRGB">
<feFlood flood-opacity="0" result="BackgroundImageFix"/>
<feBlend mode="normal" in="SourceGraphic" in2="BackgroundImageFix" result="shape"/>
<feGaussianBlur stdDeviation="0.667147" result="effect1_foregroundBlur_0_968"/>
</filter>
<filter id="filter2_f_0_968" x="10.7966" y="10.6714" width="40.5292" height="52.1947" filterUnits="userSpaceOnUse" color-interpolation-filters="sRGB">
<feFlood flood-opacity="0" result="BackgroundImageFix"/>
<feBlend mode="normal" in="SourceGraphic" in2="BackgroundImageFix" result="shape"/>
<feGaussianBlur stdDeviation="0.667147" result="effect1_foregroundBlur_0_968"/>
</filter>
<filter id="filter3_d_0_968" x="114.557" y="4.31876" width="77.6653" height="102.872" filterUnits="userSpaceOnUse" color-interpolation-filters="sRGB">
<feFlood flood-opacity="0" result="BackgroundImageFix"/>
<feColorMatrix in="SourceAlpha" type="matrix" values="0 0 0 0 0 0 0 0 0 0 0 0 0 0 0 0 0 0 127 0" result="hardAlpha"/>
<feOffset dx="2.7251" dy="2.7251"/>
<feGaussianBlur stdDeviation="1.36255"/>
<feColorMatrix type="matrix" values="0 0 0 0 0.474375 0 0 0 0 0.5267 0 0 0 0 0.575 0 0 0 0.25 0"/>
<feBlend mode="normal" in2="BackgroundImageFix" result="effect1_dropShadow_0_968"/>
<feBlend mode="normal" in="SourceGraphic" in2="effect1_dropShadow_0_968" result="shape"/>
</filter>
<filter id="filter4_f_0_968" x="117.408" y="3.72156" width="72.0041" height="99.0958" filterUnits="userSpaceOnUse" color-interpolation-filters="sRGB">
<feFlood flood-opacity="0" result="BackgroundImageFix"/>
<feBlend mode="normal" in="SourceGraphic" in2="BackgroundImageFix" result="shape"/>
<feGaussianBlur stdDeviation="1.36255" result="effect1_foregroundBlur_0_968"/>
</filter>
<filter id="filter5_f_0_968" x="122.051" y="18.6255" width="82.7748" height="106.6" filterUnits="userSpaceOnUse" color-interpolation-filters="sRGB">
<feFlood flood-opacity="0" result="BackgroundImageFix"/>
<feBlend mode="normal" in="SourceGraphic" in2="BackgroundImageFix" result="shape"/>
<feGaussianBlur stdDeviation="1.36255" result="effect1_foregroundBlur_0_968"/>
</filter>
<filter id="filter6_d_0_968" x="282" y="11" width="114" height="151" filterUnits="userSpaceOnUse" color-interpolation-filters="sRGB">
<feFlood flood-opacity="0" result="BackgroundImageFix"/>
<feColorMatrix in="SourceAlpha" type="matrix" values="0 0 0 0 0 0 0 0 0 0 0 0 0 0 0 0 0 0 127 0" result="hardAlpha"/>
<feOffset dx="4" dy="4"/>
<feGaussianBlur stdDeviation="2"/>
<feColorMatrix type="matrix" values="0 0 0 0 0.474375 0 0 0 0 0.5267 0 0 0 0 0.575 0 0 0 0.25 0"/>
<feBlend mode="normal" in2="BackgroundImageFix" result="effect1_dropShadow_0_968"/>
<feBlend mode="normal" in="SourceGraphic" in2="effect1_dropShadow_0_968" result="shape"/>
</filter>
<filter id="filter7_f_0_968" x="286.184" y="10.1235" width="105.69" height="145.457" filterUnits="userSpaceOnUse" color-interpolation-filters="sRGB">
<feFlood flood-opacity="0" result="BackgroundImageFix"/>
<feBlend mode="normal" in="SourceGraphic" in2="BackgroundImageFix" result="shape"/>
<feGaussianBlur stdDeviation="2" result="effect1_foregroundBlur_0_968"/>
</filter>
<filter id="filter8_f_0_968" x="293" y="32" width="121.5" height="156.471" filterUnits="userSpaceOnUse" color-interpolation-filters="sRGB">
<feFlood flood-opacity="0" result="BackgroundImageFix"/>
<feBlend mode="normal" in="SourceGraphic" in2="BackgroundImageFix" result="shape"/>
<feGaussianBlur stdDeviation="2" result="effect1_foregroundBlur_0_968"/>
</filter>
<linearGradient id="paint0_linear_0_968" x1="28.8775" y1="53.4406" x2="67.6086" y2="14.8082" gradientUnits="userSpaceOnUse">
<stop stop-color="#EA6219"/>
<stop offset="1" stop-color="#FE9100"/>
</linearGradient>
<linearGradient id="paint1_linear_0_968" x1="59.2313" y1="30.8322" x2="48.745" y2="30.2843" gradientUnits="userSpaceOnUse">
<stop stop-color="white" stop-opacity="0.5"/>
<stop offset="1" stop-color="white" stop-opacity="0"/>
</linearGradient>
<linearGradient id="paint2_linear_0_968" x1="29.2444" y1="53.7398" x2="68.4801" y2="15.4206" gradientUnits="userSpaceOnUse">
<stop stop-color="#EA6219"/>
<stop offset="1" stop-color="#FE9100"/>
</linearGradient>
<linearGradient id="paint3_linear_0_968" x1="59.3604" y1="30.8305" x2="48.9551" y2="30.2982" gradientUnits="userSpaceOnUse">
<stop stop-color="white" stop-opacity="0.5"/>
<stop offset="1" stop-color="white" stop-opacity="0"/>
</linearGradient>
<linearGradient id="paint4_linear_0_968" x1="14.9006" y1="10.7685" x2="18.127" y2="10.7685" gradientUnits="userSpaceOnUse">
<stop stop-color="white"/>
<stop offset="1" stop-color="white" stop-opacity="0"/>
</linearGradient>
<linearGradient id="paint5_linear_0_968" x1="-0.0554205" y1="10.3592" x2="10.0293" y2="6.68107" gradientUnits="userSpaceOnUse">
<stop stop-color="white"/>
<stop offset="1" stop-color="white" stop-opacity="0"/>
</linearGradient>
<linearGradient id="paint6_linear_0_968" x1="159.727" y1="106.586" x2="239.86" y2="28.3248" gradientUnits="userSpaceOnUse">
<stop stop-color="#EA6219"/>
<stop offset="1" stop-color="#FE9100"/>
</linearGradient>
<linearGradient id="paint7_linear_0_968" x1="221.235" y1="59.7974" x2="199.983" y2="58.7102" gradientUnits="userSpaceOnUse">
<stop stop-color="white" stop-opacity="0.5"/>
<stop offset="1" stop-color="white" stop-opacity="0"/>
</linearGradient>
<linearGradient id="paint8_linear_0_968" x1="159.727" y1="106.586" x2="239.86" y2="28.3247" gradientUnits="userSpaceOnUse">
<stop stop-color="#EA6219"/>
<stop offset="1" stop-color="#FE9100"/>
</linearGradient>
<linearGradient id="paint9_linear_0_968" x1="221.235" y1="59.7974" x2="199.984" y2="58.7102" gradientUnits="userSpaceOnUse">
<stop stop-color="white" stop-opacity="0.5"/>
<stop offset="1" stop-color="white" stop-opacity="0"/>
</linearGradient>
<linearGradient id="paint10_linear_0_968" x1="131.39" y1="18.7943" x2="137.862" y2="18.7943" gradientUnits="userSpaceOnUse">
<stop stop-color="white"/>
<stop offset="1" stop-color="white" stop-opacity="0"/>
</linearGradient>
<linearGradient id="paint11_linear_0_968" x1="99.9998" y1="17.5" x2="120.83" y2="9.93776" gradientUnits="userSpaceOnUse">
<stop stop-color="white"/>
<stop offset="1" stop-color="white" stop-opacity="0"/>
</linearGradient>
<linearGradient id="paint12_linear_0_968" x1="348.302" y1="161.112" x2="465.924" y2="46.237" gradientUnits="userSpaceOnUse">
<stop stop-color="#EA6219"/>
<stop offset="1" stop-color="#FE9100"/>
</linearGradient>
<linearGradient id="paint13_linear_0_968" x1="438.585" y1="92.4336" x2="407.391" y2="90.8378" gradientUnits="userSpaceOnUse">
<stop stop-color="white" stop-opacity="0.5"/>
<stop offset="1" stop-color="white" stop-opacity="0"/>
</linearGradient>
<linearGradient id="paint14_linear_0_968" x1="348.302" y1="161.112" x2="465.924" y2="46.237" gradientUnits="userSpaceOnUse">
<stop stop-color="#EA6219"/>
<stop offset="1" stop-color="#FE9100"/>
</linearGradient>
<linearGradient id="paint15_linear_0_968" x1="446" y1="93.5" x2="395.503" y2="94.6506" gradientUnits="userSpaceOnUse">
<stop stop-color="white" stop-opacity="0.5"/>
<stop offset="1" stop-color="white" stop-opacity="0"/>
</linearGradient>
<linearGradient id="paint16_linear_0_968" x1="306.707" y1="32.2478" x2="316.207" y2="32.2478" gradientUnits="userSpaceOnUse">
<stop stop-color="white"/>
<stop offset="1" stop-color="white" stop-opacity="0"/>
</linearGradient>
<linearGradient id="paint17_linear_0_968" x1="281.707" y1="19.2478" x2="291.207" y2="19.2478" gradientUnits="userSpaceOnUse">
<stop stop-color="white"/>
<stop offset="1" stop-color="white" stop-opacity="0"/>
</linearGradient>
<clipPath id="clip0_0_968">
<rect width="64" height="64" fill="white"/>
</clipPath>
<clipPath id="clip1_0_968">
<rect width="128" height="128" fill="white" transform="translate(100)"/>
</clipPath>
<clipPath id="clip2_0_968">
<rect width="192" height="192" fill="white" transform="translate(257)"/>
</clipPath>
</defs>
</svg>
