<svg width="449" height="192" viewBox="0 0 449 192" fill="none" xmlns="http://www.w3.org/2000/svg">
<g clip-path="url(#clip0_0_267)">
<rect width="64" height="64" rx="32" fill="#1A3594"/>
<path d="M15.7925 45.8955L23.6902 50.4553L16.7455 62.4839C16.3348 63.1952 15.2893 63.1356 14.9622 62.3822L13.7878 59.6777C13.6126 59.274 13.194 59.0324 12.7569 59.0824L9.82745 59.4177C9.01147 59.5111 8.43707 58.6354 8.84772 57.9242L15.7925 45.8955Z" fill="url(#paint0_linear_0_267)"/>
<path d="M48.1778 45.8955L40.2801 50.4553L47.2248 62.4839C47.6355 63.1952 48.681 63.1356 49.0081 62.3822L50.1825 59.6777C50.3577 59.274 50.7762 59.0324 51.2134 59.0824L54.1428 59.4177C54.9588 59.5111 55.5332 58.6354 55.1226 57.9242L48.1778 45.8955Z" fill="url(#paint1_linear_0_267)"/>
<g filter="url(#filter0_d_0_267)">
<path d="M6.85857 7.67312C6.53642 5.49861 8.58511 3.72747 10.6902 4.36059L17.7647 6.48824C18.5161 6.71423 19.3173 6.71423 20.0687 6.48824L30.5151 3.34648C31.2665 3.12049 32.0678 3.12049 32.8192 3.34648L43.2655 6.48824C44.0169 6.71423 44.8182 6.71423 45.5696 6.48824L52.6441 4.36059C54.7492 3.72747 56.7979 5.49861 56.4757 7.67312L50.8064 45.9412C49.9935 51.4283 46.3965 56.1029 41.3009 58.2946L32.8525 61.9283C32.0958 62.2538 31.2385 62.2538 30.4818 61.9283L22.0334 58.2946C16.9378 56.1029 13.3408 51.4283 12.5279 45.9412L6.85857 7.67312Z" fill="url(#paint2_linear_0_267)"/>
</g>
<g filter="url(#filter1_d_0_267)">
<path d="M10.6262 12.064C10.3041 9.88949 12.3528 8.11834 14.4578 8.75146L19.6485 10.3125C20.3999 10.5385 21.2011 10.5385 21.9525 10.3125L30.5151 7.73735C31.2665 7.51136 32.0678 7.51136 32.8192 7.73735L41.3817 10.3125C42.1331 10.5385 42.9344 10.5385 43.6858 10.3125L48.8764 8.75146C50.9815 8.11835 53.0302 9.88948 52.708 12.064L47.8449 44.8903C47.2352 49.0057 44.5375 52.5116 40.7158 54.1554L32.8525 57.5374C32.0957 57.8629 31.2385 57.8629 30.4818 57.5374L22.6185 54.1554C18.7967 52.5116 16.0991 49.0057 15.4894 44.8904L10.6262 12.064Z" fill="url(#paint3_linear_0_267)"/>
<path d="M10.6262 12.064C10.3041 9.88949 12.3528 8.11834 14.4578 8.75146L19.6485 10.3125C20.3999 10.5385 21.2011 10.5385 21.9525 10.3125L30.5151 7.73735C31.2665 7.51136 32.0678 7.51136 32.8192 7.73735L41.3817 10.3125C42.1331 10.5385 42.9344 10.5385 43.6858 10.3125L48.8764 8.75146C50.9815 8.11835 53.0302 9.88948 52.708 12.064L47.8449 44.8903C47.2352 49.0057 44.5375 52.5116 40.7158 54.1554L32.8525 57.5374C32.0957 57.8629 31.2385 57.8629 30.4818 57.5374L22.6185 54.1554C18.7967 52.5116 16.0991 49.0057 15.4894 44.8904L10.6262 12.064Z" fill="url(#paint4_linear_0_267)" fill-opacity="0.2"/>
</g>
<g filter="url(#filter2_f_0_267)">
<path fill-rule="evenodd" clip-rule="evenodd" d="M32 57.763V7.58173C32.2764 7.6048 32.551 7.65668 32.8192 7.73735L41.3818 10.3125C42.1332 10.5385 42.9344 10.5385 43.6858 10.3125L48.8764 8.75146C50.9815 8.11835 53.0302 9.88948 52.7081 12.064L47.8449 44.8903C47.2352 49.0057 44.5376 52.5116 40.7158 54.1554L32.8525 57.5374C32.5784 57.6554 32.291 57.7305 32 57.763Z" fill="url(#paint5_linear_0_267)" fill-opacity="0.4"/>
</g>
<g clip-path="url(#clip1_0_267)" filter="url(#filter3_d_0_267)">
<path d="M43.7253 32.6415C44.0939 32.4843 44.3331 32.1223 44.3331 31.7216V29.967C44.3331 29.5633 44.0904 29.1991 43.7177 29.0439L41.0588 27.9361C40.7981 27.8274 40.5986 27.6122 40.4937 27.3499C40.4906 27.3422 40.4875 27.3345 40.4844 27.3267C40.3791 27.0657 40.3662 26.7736 40.4711 26.5125L41.5473 23.8331C41.6966 23.4614 41.6097 23.0364 41.3263 22.7531L40.0851 21.5124C39.7997 21.227 39.3706 21.1412 38.9974 21.2949L36.3586 22.3816C36.0952 22.4901 35.7991 22.4781 35.5356 22.3697C35.5212 22.3637 35.5068 22.3578 35.4923 22.352C35.2341 22.2474 35.0217 22.0512 34.9123 21.795L33.7813 19.1445C33.624 18.776 33.2621 18.537 32.8615 18.537H31.106C30.7026 18.537 30.3387 18.7793 30.1833 19.1516L29.0875 21.7754C28.9787 22.036 28.7638 22.2356 28.5011 22.3393C28.4753 22.3495 28.4496 22.3598 28.4239 22.3703C28.1652 22.4751 27.8756 22.4868 27.6166 22.3827L24.9727 21.3205C24.601 21.1712 24.176 21.258 23.8928 21.5413L22.652 22.782C22.3667 23.0674 22.2808 23.4964 22.4343 23.8696L23.5036 26.4688C23.6121 26.7324 23.5999 27.0287 23.4921 27.2925C23.479 27.3246 23.4661 27.3567 23.4533 27.3889C23.3508 27.6482 23.1546 27.8609 22.8983 27.9705L20.2835 29.0886C19.9154 29.246 19.6766 29.6077 19.6766 30.008V31.7634C19.6766 32.1671 19.9194 32.5312 20.2921 32.6865L22.8951 33.771C23.1552 33.8793 23.3548 34.0935 23.4595 34.355C23.4726 34.3879 23.4859 34.4207 23.4995 34.4534C23.607 34.7132 23.6198 35.0052 23.5151 35.2663L22.4597 37.8976C22.3106 38.2692 22.3976 38.6939 22.6807 38.977L23.9215 40.2178C24.207 40.5033 24.6361 40.5891 25.0094 40.4354L27.6225 39.3593C27.8833 39.2519 28.1763 39.2626 28.4387 39.3663C28.4629 39.3759 28.4873 39.3854 28.5116 39.3948C28.7754 39.4963 28.9923 39.6941 29.1034 39.954L30.2283 42.5864C30.3857 42.9546 30.7475 43.1934 31.1479 43.1934H32.9028C33.3067 43.1934 33.6709 42.9505 33.826 42.5776L34.9284 39.9288C35.0349 39.6727 35.244 39.4748 35.5009 39.3705C35.5178 39.3637 35.5346 39.3568 35.5513 39.3499C35.8102 39.2433 36.1009 39.2314 36.3608 39.3355L39.0367 40.4076C39.4082 40.5565 39.8327 40.4695 40.1157 40.1865L41.3564 38.9458C41.6421 38.6601 41.7278 38.2307 41.5738 37.8573L40.4788 35.2031C40.3719 34.9439 40.3812 34.6527 40.4845 34.3921C40.4883 34.3823 40.4922 34.3725 40.4961 34.3627C40.5978 34.1034 40.7941 33.8913 41.0502 33.7821L43.7253 32.6415ZM31.981 35.4883C29.429 35.4883 27.3579 33.4171 27.3579 30.8652C27.3579 28.3133 29.429 26.2421 31.981 26.2421C34.5329 26.2421 36.6041 28.3133 36.6041 30.8652C36.6041 33.4171 34.5329 35.4883 31.981 35.4883Z" fill="#E6ECF8"/>
<path d="M43.7253 32.6415C44.0939 32.4843 44.3331 32.1223 44.3331 31.7216V29.967C44.3331 29.5633 44.0904 29.1991 43.7177 29.0439L41.0588 27.9361C40.7981 27.8274 40.5986 27.6122 40.4937 27.3499C40.4906 27.3422 40.4875 27.3345 40.4844 27.3267C40.3791 27.0657 40.3662 26.7736 40.4711 26.5125L41.5473 23.8331C41.6966 23.4614 41.6097 23.0364 41.3263 22.7531L40.0851 21.5124C39.7997 21.227 39.3706 21.1412 38.9974 21.2949L36.3586 22.3816C36.0952 22.4901 35.7991 22.4781 35.5356 22.3697C35.5212 22.3637 35.5068 22.3578 35.4923 22.352C35.2341 22.2474 35.0217 22.0512 34.9123 21.795L33.7813 19.1445C33.624 18.776 33.2621 18.537 32.8615 18.537H31.106C30.7026 18.537 30.3387 18.7793 30.1833 19.1516L29.0875 21.7754C28.9787 22.036 28.7638 22.2356 28.5011 22.3393C28.4753 22.3495 28.4496 22.3598 28.4239 22.3703C28.1652 22.4751 27.8756 22.4868 27.6166 22.3827L24.9727 21.3205C24.601 21.1712 24.176 21.258 23.8928 21.5413L22.652 22.782C22.3667 23.0674 22.2808 23.4964 22.4343 23.8696L23.5036 26.4688C23.6121 26.7324 23.5999 27.0287 23.4921 27.2925C23.479 27.3246 23.4661 27.3567 23.4533 27.3889C23.3508 27.6482 23.1546 27.8609 22.8983 27.9705L20.2835 29.0886C19.9154 29.246 19.6766 29.6077 19.6766 30.008V31.7634C19.6766 32.1671 19.9194 32.5312 20.2921 32.6865L22.8951 33.771C23.1552 33.8793 23.3548 34.0935 23.4595 34.355C23.4726 34.3879 23.4859 34.4207 23.4995 34.4534C23.607 34.7132 23.6198 35.0052 23.5151 35.2663L22.4597 37.8976C22.3106 38.2692 22.3976 38.6939 22.6807 38.977L23.9215 40.2178C24.207 40.5033 24.6361 40.5891 25.0094 40.4354L27.6225 39.3593C27.8833 39.2519 28.1763 39.2626 28.4387 39.3663C28.4629 39.3759 28.4873 39.3854 28.5116 39.3948C28.7754 39.4963 28.9923 39.6941 29.1034 39.954L30.2283 42.5864C30.3857 42.9546 30.7475 43.1934 31.1479 43.1934H32.9028C33.3067 43.1934 33.6709 42.9505 33.826 42.5776L34.9284 39.9288C35.0349 39.6727 35.244 39.4748 35.5009 39.3705C35.5178 39.3637 35.5346 39.3568 35.5513 39.3499C35.8102 39.2433 36.1009 39.2314 36.3608 39.3355L39.0367 40.4076C39.4082 40.5565 39.8327 40.4695 40.1157 40.1865L41.3564 38.9458C41.6421 38.6601 41.7278 38.2307 41.5738 37.8573L40.4788 35.2031C40.3719 34.9439 40.3812 34.6527 40.4845 34.3921C40.4883 34.3823 40.4922 34.3725 40.4961 34.3627C40.5978 34.1034 40.7941 33.8913 41.0502 33.7821L43.7253 32.6415ZM31.981 35.4883C29.429 35.4883 27.3579 33.4171 27.3579 30.8652C27.3579 28.3133 29.429 26.2421 31.981 26.2421C34.5329 26.2421 36.6041 28.3133 36.6041 30.8652C36.6041 33.4171 34.5329 35.4883 31.981 35.4883Z" fill="url(#paint6_linear_0_267)"/>
<path d="M43.7253 32.6415C44.0939 32.4843 44.3331 32.1223 44.3331 31.7216V29.967C44.3331 29.5633 44.0904 29.1991 43.7177 29.0439L41.0588 27.9361C40.7981 27.8274 40.5986 27.6122 40.4937 27.3499C40.4906 27.3422 40.4875 27.3345 40.4844 27.3267C40.3791 27.0657 40.3662 26.7736 40.4711 26.5125L41.5473 23.8331C41.6966 23.4614 41.6097 23.0364 41.3263 22.7531L40.0851 21.5124C39.7997 21.227 39.3706 21.1412 38.9974 21.2949L36.3586 22.3816C36.0952 22.4901 35.7991 22.4781 35.5356 22.3697C35.5212 22.3637 35.5068 22.3578 35.4923 22.352C35.2341 22.2474 35.0217 22.0512 34.9123 21.795L33.7813 19.1445C33.624 18.776 33.2621 18.537 32.8615 18.537H31.106C30.7026 18.537 30.3387 18.7793 30.1833 19.1516L29.0875 21.7754C28.9787 22.036 28.7638 22.2356 28.5011 22.3393C28.4753 22.3495 28.4496 22.3598 28.4239 22.3703C28.1652 22.4751 27.8756 22.4868 27.6166 22.3827L24.9727 21.3205C24.601 21.1712 24.176 21.258 23.8928 21.5413L22.652 22.782C22.3667 23.0674 22.2808 23.4964 22.4343 23.8696L23.5036 26.4688C23.6121 26.7324 23.5999 27.0287 23.4921 27.2925C23.479 27.3246 23.4661 27.3567 23.4533 27.3889C23.3508 27.6482 23.1546 27.8609 22.8983 27.9705L20.2835 29.0886C19.9154 29.246 19.6766 29.6077 19.6766 30.008V31.7634C19.6766 32.1671 19.9194 32.5312 20.2921 32.6865L22.8951 33.771C23.1552 33.8793 23.3548 34.0935 23.4595 34.355C23.4726 34.3879 23.4859 34.4207 23.4995 34.4534C23.607 34.7132 23.6198 35.0052 23.5151 35.2663L22.4597 37.8976C22.3106 38.2692 22.3976 38.6939 22.6807 38.977L23.9215 40.2178C24.207 40.5033 24.6361 40.5891 25.0094 40.4354L27.6225 39.3593C27.8833 39.2519 28.1763 39.2626 28.4387 39.3663C28.4629 39.3759 28.4873 39.3854 28.5116 39.3948C28.7754 39.4963 28.9923 39.6941 29.1034 39.954L30.2283 42.5864C30.3857 42.9546 30.7475 43.1934 31.1479 43.1934H32.9028C33.3067 43.1934 33.6709 42.9505 33.826 42.5776L34.9284 39.9288C35.0349 39.6727 35.244 39.4748 35.5009 39.3705C35.5178 39.3637 35.5346 39.3568 35.5513 39.3499C35.8102 39.2433 36.1009 39.2314 36.3608 39.3355L39.0367 40.4076C39.4082 40.5565 39.8327 40.4695 40.1157 40.1865L41.3564 38.9458C41.6421 38.6601 41.7278 38.2307 41.5738 37.8573L40.4788 35.2031C40.3719 34.9439 40.3812 34.6527 40.4845 34.3921C40.4883 34.3823 40.4922 34.3725 40.4961 34.3627C40.5978 34.1034 40.7941 33.8913 41.0502 33.7821L43.7253 32.6415ZM31.981 35.4883C29.429 35.4883 27.3579 33.4171 27.3579 30.8652C27.3579 28.3133 29.429 26.2421 31.981 26.2421C34.5329 26.2421 36.6041 28.3133 36.6041 30.8652C36.6041 33.4171 34.5329 35.4883 31.981 35.4883Z" fill="url(#paint7_radial_0_267)"/>
</g>
</g>
<g clip-path="url(#clip2_0_267)">
<rect width="128" height="128" transform="translate(100)" fill="white"/>
<rect x="100" width="128" height="128" rx="64" fill="#1A3594"/>
<path d="M132.749 91.546L148.131 100.427L133.977 124.941C133.437 125.877 132.061 125.799 131.631 124.807L129.046 118.854C128.585 117.791 127.483 117.156 126.333 117.287L119.884 118.025C118.811 118.148 118.055 116.996 118.595 116.06L132.749 91.546Z" fill="url(#paint8_linear_0_267)"/>
<path d="M195.824 91.546L180.442 100.427L194.595 124.941C195.136 125.877 196.511 125.799 196.942 124.807L199.527 118.854C199.988 117.791 201.089 117.156 202.24 117.287L208.689 118.025C209.762 118.148 210.518 116.996 209.978 116.06L195.824 91.546Z" fill="url(#paint9_linear_0_267)"/>
<g filter="url(#filter4_d_0_267)">
<path d="M115.385 17.3462C114.74 12.9972 118.838 9.45495 123.048 10.7212L136.241 14.6892C137.932 15.1976 139.735 15.1976 141.426 14.6892L161.363 8.69295C162.866 8.24098 164.468 8.24098 165.971 8.69295L185.909 14.6892C187.599 15.1976 189.402 15.1976 191.093 14.6892L204.286 10.7212C208.497 9.45495 212.594 12.9972 211.95 17.3462L200.839 92.3455C199.321 102.591 192.605 111.319 183.09 115.411L166.038 122.746C164.524 123.397 162.81 123.397 161.296 122.746L144.308 115.439C134.754 111.33 128.01 102.565 126.485 92.2765L115.385 17.3462Z" fill="url(#paint10_linear_0_267)"/>
</g>
<g filter="url(#filter5_d_0_267)">
<path d="M122.492 24.3405C121.955 20.7163 125.369 17.7644 128.878 18.8196L140.198 22.2243C141.701 22.6762 143.304 22.6762 144.807 22.2243L161.651 17.1583C162.966 16.7628 164.368 16.7628 165.683 17.1583L182.527 22.2243C184.03 22.6762 185.633 22.6762 187.136 22.2243L198.456 18.8196C201.965 17.7644 205.379 20.7163 204.842 24.3405L195.391 88.1384C194.07 97.0549 188.225 104.651 179.944 108.213L165.643 114.364C164.381 114.906 162.953 114.906 161.692 114.364L147.39 108.213C139.109 104.651 133.264 97.0549 131.943 88.1384L122.492 24.3405Z" fill="url(#paint11_linear_0_267)"/>
<path d="M122.492 24.3405C121.955 20.7163 125.369 17.7644 128.878 18.8196L140.198 22.2243C141.701 22.6762 143.304 22.6762 144.807 22.2243L161.651 17.1583C162.966 16.7628 164.368 16.7628 165.683 17.1583L182.527 22.2243C184.03 22.6762 185.633 22.6762 187.136 22.2243L198.456 18.8196C201.965 17.7644 205.379 20.7163 204.842 24.3405L195.391 88.1384C194.07 97.0549 188.225 104.651 179.944 108.213L165.643 114.364C164.381 114.906 162.953 114.906 161.692 114.364L147.39 108.213C139.109 104.651 133.264 97.0549 131.943 88.1384L122.492 24.3405Z" fill="url(#paint12_linear_0_267)" fill-opacity="0.2"/>
</g>
<g filter="url(#filter6_f_0_267)">
<path fill-rule="evenodd" clip-rule="evenodd" d="M164 114.76V16.8696C164.568 16.8966 165.133 16.9929 165.683 17.1583L182.528 22.2243C184.03 22.6762 185.633 22.6762 187.136 22.2243L198.456 18.8196C201.965 17.7644 205.379 20.7163 204.842 24.3405L195.391 88.1384C194.07 97.0549 188.225 104.651 179.944 108.213L165.643 114.364C165.116 114.59 164.561 114.722 164 114.76Z" fill="url(#paint13_linear_0_267)" fill-opacity="0.4"/>
</g>
<g clip-path="url(#clip3_0_267)" filter="url(#filter7_d_0_267)">
<path d="M187.121 65.7452C187.858 65.4309 188.336 64.7069 188.336 63.9055V60.5575C188.336 59.75 187.851 59.0218 187.105 58.7113L181.98 56.576C181.459 56.3587 181.059 55.9257 180.849 55.4014C180.639 54.8791 180.613 54.2953 180.823 53.773L182.898 48.608C183.196 47.8645 183.022 47.0145 182.456 46.4481L180.087 44.0806C179.516 43.5098 178.658 43.3383 177.912 43.6457L172.826 45.7399C172.299 45.9569 171.707 45.9328 171.18 45.7167C171.166 45.711 171.152 45.7054 171.139 45.6998C170.622 45.4898 170.197 45.0978 169.979 44.5853L167.798 39.4758C167.484 38.7389 166.76 38.2608 165.959 38.2608H162.609C161.802 38.2608 161.075 38.7455 160.764 39.49L158.652 44.5468C158.434 45.0679 158.004 45.467 157.479 45.6751C157.443 45.6893 157.407 45.7037 157.372 45.7182C156.854 45.9272 156.275 45.9506 155.757 45.7425L150.661 43.6951C149.917 43.3964 149.067 43.5702 148.501 44.1367L146.133 46.5041C145.563 47.0749 145.391 47.9327 145.698 48.6792L147.758 53.6876C147.975 54.2149 147.951 54.8074 147.736 55.3354C147.716 55.3835 147.697 55.4317 147.678 55.4801C147.472 55.9984 147.08 56.4239 146.567 56.6431L141.527 58.7982C140.791 59.113 140.314 59.8365 140.314 60.6371V63.9866C140.314 64.794 140.799 65.5222 141.545 65.8328L146.561 67.9226C147.081 68.1393 147.48 68.5676 147.69 69.0906C147.71 69.1402 147.73 69.1898 147.75 69.2392C147.965 69.7593 147.991 70.3432 147.781 70.8653L145.747 75.9367C145.449 76.6799 145.623 77.5293 146.189 78.0955L148.557 80.4631C149.128 81.0341 149.986 81.2057 150.732 80.8983L155.768 78.8245C156.29 78.6097 156.876 78.6312 157.401 78.8379C157.434 78.8509 157.467 78.8637 157.5 78.8765C158.027 79.0802 158.461 79.4755 158.683 79.9952L160.851 85.0692C161.166 85.8056 161.89 86.2833 162.69 86.2833H166.039C166.847 86.2833 167.575 85.7974 167.885 85.0517L170.01 79.9458C170.223 79.4337 170.641 79.0381 171.155 78.829C171.174 78.8214 171.192 78.8138 171.211 78.8061C171.729 78.5935 172.31 78.5696 172.83 78.7779L177.989 80.8447C178.732 81.1424 179.581 80.9684 180.147 80.4024L182.514 78.035C183.085 77.4637 183.257 76.6049 182.949 75.858L180.838 70.7421C180.624 70.2237 180.646 69.6331 180.852 69.1115C181.056 68.5933 181.451 68.1627 181.963 67.9443L187.121 65.7452ZM164.278 71.2762C159.308 71.2762 155.274 67.2424 155.274 62.272C155.274 57.3017 159.308 53.2678 164.278 53.2678C169.249 53.2678 173.283 57.3017 173.283 62.272C173.283 67.2424 169.249 71.2762 164.278 71.2762Z" fill="#E6ECF8"/>
<path d="M187.121 65.7452C187.858 65.4309 188.336 64.7069 188.336 63.9055V60.5575C188.336 59.75 187.851 59.0218 187.105 58.7113L181.98 56.576C181.459 56.3587 181.059 55.9257 180.849 55.4014C180.639 54.8791 180.613 54.2953 180.823 53.773L182.898 48.608C183.196 47.8645 183.022 47.0145 182.456 46.4481L180.087 44.0806C179.516 43.5098 178.658 43.3383 177.912 43.6457L172.826 45.7399C172.299 45.9569 171.707 45.9328 171.18 45.7167C171.166 45.711 171.152 45.7054 171.139 45.6998C170.622 45.4898 170.197 45.0978 169.979 44.5853L167.798 39.4758C167.484 38.7389 166.76 38.2608 165.959 38.2608H162.609C161.802 38.2608 161.075 38.7455 160.764 39.49L158.652 44.5468C158.434 45.0679 158.004 45.467 157.479 45.6751C157.443 45.6893 157.407 45.7037 157.372 45.7182C156.854 45.9272 156.275 45.9506 155.757 45.7425L150.661 43.6951C149.917 43.3964 149.067 43.5702 148.501 44.1367L146.133 46.5041C145.563 47.0749 145.391 47.9327 145.698 48.6792L147.758 53.6876C147.975 54.2149 147.951 54.8074 147.736 55.3354C147.716 55.3835 147.697 55.4317 147.678 55.4801C147.472 55.9984 147.08 56.4239 146.567 56.6431L141.527 58.7982C140.791 59.113 140.314 59.8365 140.314 60.6371V63.9866C140.314 64.794 140.799 65.5222 141.545 65.8328L146.561 67.9226C147.081 68.1393 147.48 68.5676 147.69 69.0906C147.71 69.1402 147.73 69.1898 147.75 69.2392C147.965 69.7593 147.991 70.3432 147.781 70.8653L145.747 75.9367C145.449 76.6799 145.623 77.5293 146.189 78.0955L148.557 80.4631C149.128 81.0341 149.986 81.2057 150.732 80.8983L155.768 78.8245C156.29 78.6097 156.876 78.6312 157.401 78.8379C157.434 78.8509 157.467 78.8637 157.5 78.8765C158.027 79.0802 158.461 79.4755 158.683 79.9952L160.851 85.0692C161.166 85.8056 161.89 86.2833 162.69 86.2833H166.039C166.847 86.2833 167.575 85.7974 167.885 85.0517L170.01 79.9458C170.223 79.4337 170.641 79.0381 171.155 78.829C171.174 78.8214 171.192 78.8138 171.211 78.8061C171.729 78.5935 172.31 78.5696 172.83 78.7779L177.989 80.8447C178.732 81.1424 179.581 80.9684 180.147 80.4024L182.514 78.035C183.085 77.4637 183.257 76.6049 182.949 75.858L180.838 70.7421C180.624 70.2237 180.646 69.6331 180.852 69.1115C181.056 68.5933 181.451 68.1627 181.963 67.9443L187.121 65.7452ZM164.278 71.2762C159.308 71.2762 155.274 67.2424 155.274 62.272C155.274 57.3017 159.308 53.2678 164.278 53.2678C169.249 53.2678 173.283 57.3017 173.283 62.272C173.283 67.2424 169.249 71.2762 164.278 71.2762Z" fill="url(#paint14_linear_0_267)"/>
<path d="M187.121 65.7452C187.858 65.4309 188.336 64.7069 188.336 63.9055V60.5575C188.336 59.75 187.851 59.0218 187.105 58.7113L181.98 56.576C181.459 56.3587 181.059 55.9257 180.849 55.4014C180.639 54.8791 180.613 54.2953 180.823 53.773L182.898 48.608C183.196 47.8645 183.022 47.0145 182.456 46.4481L180.087 44.0806C179.516 43.5098 178.658 43.3383 177.912 43.6457L172.826 45.7399C172.299 45.9569 171.707 45.9328 171.18 45.7167C171.166 45.711 171.152 45.7054 171.139 45.6998C170.622 45.4898 170.197 45.0978 169.979 44.5853L167.798 39.4758C167.484 38.7389 166.76 38.2608 165.959 38.2608H162.609C161.802 38.2608 161.075 38.7455 160.764 39.49L158.652 44.5468C158.434 45.0679 158.004 45.467 157.479 45.6751C157.443 45.6893 157.407 45.7037 157.372 45.7182C156.854 45.9272 156.275 45.9506 155.757 45.7425L150.661 43.6951C149.917 43.3964 149.067 43.5702 148.501 44.1367L146.133 46.5041C145.563 47.0749 145.391 47.9327 145.698 48.6792L147.758 53.6876C147.975 54.2149 147.951 54.8074 147.736 55.3354C147.716 55.3835 147.697 55.4317 147.678 55.4801C147.472 55.9984 147.08 56.4239 146.567 56.6431L141.527 58.7982C140.791 59.113 140.314 59.8365 140.314 60.6371V63.9866C140.314 64.794 140.799 65.5222 141.545 65.8328L146.561 67.9226C147.081 68.1393 147.48 68.5676 147.69 69.0906C147.71 69.1402 147.73 69.1898 147.75 69.2392C147.965 69.7593 147.991 70.3432 147.781 70.8653L145.747 75.9367C145.449 76.6799 145.623 77.5293 146.189 78.0955L148.557 80.4631C149.128 81.0341 149.986 81.2057 150.732 80.8983L155.768 78.8245C156.29 78.6097 156.876 78.6312 157.401 78.8379C157.434 78.8509 157.467 78.8637 157.5 78.8765C158.027 79.0802 158.461 79.4755 158.683 79.9952L160.851 85.0692C161.166 85.8056 161.89 86.2833 162.69 86.2833H166.039C166.847 86.2833 167.575 85.7974 167.885 85.0517L170.01 79.9458C170.223 79.4337 170.641 79.0381 171.155 78.829C171.174 78.8214 171.192 78.8138 171.211 78.8061C171.729 78.5935 172.31 78.5696 172.83 78.7779L177.989 80.8447C178.732 81.1424 179.581 80.9684 180.147 80.4024L182.514 78.035C183.085 77.4637 183.257 76.6049 182.949 75.858L180.838 70.7421C180.624 70.2237 180.646 69.6331 180.852 69.1115C181.056 68.5933 181.451 68.1627 181.963 67.9443L187.121 65.7452ZM164.278 71.2762C159.308 71.2762 155.274 67.2424 155.274 62.272C155.274 57.3017 159.308 53.2678 164.278 53.2678C169.249 53.2678 173.283 57.3017 173.283 62.272C173.283 67.2424 169.249 71.2762 164.278 71.2762Z" fill="url(#paint15_radial_0_267)"/>
</g>
</g>
<g clip-path="url(#clip4_0_267)">
<rect width="192" height="192" transform="translate(257)" fill="white"/>
<rect x="257" width="192" height="192" rx="96" fill="#1A3594"/>
<path d="M305.5 136L328.883 149.5L307.368 186.765C306.547 188.187 304.456 188.068 303.801 186.561L299.871 177.511C299.17 175.896 297.496 174.93 295.748 175.13L285.945 176.252C284.313 176.439 283.164 174.687 283.985 173.265L305.5 136Z" fill="url(#paint16_linear_0_267)"/>
<path d="M401.383 136L378 149.5L399.515 186.765C400.336 188.187 402.427 188.068 403.081 186.561L407.011 177.511C407.712 175.896 409.386 174.93 411.135 175.13L420.938 176.252C422.57 176.439 423.719 174.687 422.897 173.265L401.383 136Z" fill="url(#paint17_linear_0_267)"/>
<g filter="url(#filter8_d_0_267)">
<path d="M279.096 23.1482C278.121 16.5647 284.323 11.2025 290.697 13.1193L310.826 19.1733C313.385 19.943 316.115 19.943 318.674 19.1733L349.044 10.0394C351.298 9.36148 353.702 9.36147 355.956 10.0394L386.326 19.1733C388.885 19.943 391.615 19.943 394.174 19.1733L414.303 13.1193C420.677 11.2025 426.879 16.5647 425.904 23.1482L409.005 137.215C406.698 152.79 396.489 166.058 382.025 172.278L356.089 183.434C353.798 184.419 351.202 184.419 348.911 183.434L322.975 172.278C308.511 166.058 298.302 152.79 295.995 137.215L279.096 23.1482Z" fill="url(#paint18_linear_0_267)"/>
</g>
<g filter="url(#filter9_d_0_267)">
<path d="M289.941 34.0578C289.11 28.447 294.396 23.8771 299.828 25.5107L316.983 30.6702C319.164 31.3262 321.49 31.3262 323.671 30.6702L349.554 22.8859C351.476 22.3081 353.524 22.3081 355.445 22.8859L381.328 30.6702C383.51 31.3262 385.835 31.3262 388.017 30.6702L405.172 25.5107C410.604 23.8771 415.89 28.4471 415.059 34.0578L400.657 131.272C398.69 144.545 389.989 155.853 377.663 161.155L355.558 170.662C353.606 171.502 351.394 171.502 349.441 170.662L327.337 161.155C315.011 155.853 306.31 144.545 304.343 131.272L289.941 34.0578Z" fill="url(#paint19_linear_0_267)"/>
<path d="M289.941 34.0578C289.11 28.447 294.396 23.8771 299.828 25.5107L316.983 30.6702C319.164 31.3262 321.49 31.3262 323.671 30.6702L349.554 22.8859C351.476 22.3081 353.524 22.3081 355.445 22.8859L381.328 30.6702C383.51 31.3262 385.835 31.3262 388.017 30.6702L405.172 25.5107C410.604 23.8771 415.89 28.4471 415.059 34.0578L400.657 131.272C398.69 144.545 389.989 155.853 377.663 161.155L355.558 170.662C353.606 171.502 351.394 171.502 349.441 170.662L327.337 161.155C315.011 155.853 306.31 144.545 304.343 131.272L289.941 34.0578Z" fill="url(#paint20_linear_0_267)" fill-opacity="0.2"/>
</g>
<g filter="url(#filter10_f_0_267)">
<path fill-rule="evenodd" clip-rule="evenodd" d="M352 171.276V22.4647C353.158 22.4081 354.324 22.5484 355.445 22.8859L381.328 30.6702C383.51 31.3262 385.836 31.3262 388.017 30.6702L405.172 25.5107C410.604 23.8771 415.89 28.4471 415.059 34.0578L400.657 131.272C398.69 144.545 389.989 155.853 377.663 161.155L355.558 170.662C354.426 171.149 353.206 171.354 352 171.276Z" fill="url(#paint21_linear_0_267)"/>
</g>
<g clip-path="url(#clip5_0_267)" filter="url(#filter11_d_0_267)">
<path d="M387.569 97.0284C389.043 96.3997 390 94.9517 390 93.3489V89.5335C390 87.9187 389.029 86.4622 387.538 85.8412L380.34 82.842C379.546 82.5112 378.939 81.8538 378.618 81.0558C378.299 80.2608 378.26 79.3738 378.579 78.5788L381.496 71.3173C382.093 69.8303 381.746 68.1303 380.612 66.9974L377.913 64.299C376.771 63.1576 375.055 62.8145 373.562 63.4293L366.455 66.3561C365.634 66.6942 364.714 66.6579 363.891 66.322C363.088 65.9936 362.422 65.3819 362.081 64.5832L359.029 57.43C358.4 55.9562 356.952 55 355.35 55H351.531C349.917 55 348.462 55.9696 347.84 57.4585L344.91 64.4736C344.558 65.3179 343.858 65.9644 343.009 66.3044C342.169 66.6404 341.233 66.6776 340.394 66.3404L333.317 63.4971C331.83 62.8997 330.13 63.2473 328.997 64.3803L326.299 67.0786C325.158 68.2201 324.814 69.9359 325.428 71.4288L328.271 78.3397C328.63 79.2118 328.59 80.19 328.239 81.0649C327.895 81.9206 327.247 82.6268 326.399 82.9894L319.427 85.9703C317.955 86.5999 317 88.0469 317 89.6482V93.4664C317 95.0813 317.971 96.5378 319.462 97.1588L326.384 100.043C327.246 100.402 327.907 101.114 328.259 101.979C328.611 102.843 328.653 103.81 328.306 104.676L325.495 111.684C324.899 113.17 325.247 114.869 326.379 116.002L329.078 118.7C330.22 119.842 331.936 120.185 333.429 119.57L340.418 116.692C341.259 116.346 342.201 116.381 343.048 116.711C343.896 117.042 344.597 117.678 344.955 118.516L347.971 125.572C348.6 127.045 350.047 128 351.649 128H355.465C357.081 128 358.538 127.028 359.158 125.537L362.125 118.408C362.46 117.603 363.123 116.979 363.93 116.649C364.745 116.316 365.654 116.281 366.472 116.608L373.682 119.497C375.168 120.093 376.866 119.745 377.998 118.612L380.697 115.914C381.839 114.772 382.182 113.054 381.566 111.56L378.607 104.387C378.279 103.592 378.308 102.697 378.623 101.897C378.936 101.102 379.538 100.453 380.323 100.118L387.569 97.0284ZM353.429 105.188C345.874 105.188 339.742 99.0555 339.742 91.5C339.742 83.9445 345.874 77.8125 353.429 77.8125C360.985 77.8125 367.117 83.9445 367.117 91.5C367.117 99.0555 360.985 105.188 353.429 105.188Z" fill="#E6ECF8"/>
<path d="M387.569 97.0284C389.043 96.3997 390 94.9517 390 93.3489V89.5335C390 87.9187 389.029 86.4622 387.538 85.8412L380.34 82.842C379.546 82.5112 378.939 81.8538 378.618 81.0558C378.299 80.2608 378.26 79.3738 378.579 78.5788L381.496 71.3173C382.093 69.8303 381.746 68.1303 380.612 66.9974L377.913 64.299C376.771 63.1576 375.055 62.8145 373.562 63.4293L366.455 66.3561C365.634 66.6942 364.714 66.6579 363.891 66.322C363.088 65.9936 362.422 65.3819 362.081 64.5832L359.029 57.43C358.4 55.9562 356.952 55 355.35 55H351.531C349.917 55 348.462 55.9696 347.84 57.4585L344.91 64.4736C344.558 65.3179 343.858 65.9644 343.009 66.3044C342.169 66.6404 341.233 66.6776 340.394 66.3404L333.317 63.4971C331.83 62.8997 330.13 63.2473 328.997 64.3803L326.299 67.0786C325.158 68.2201 324.814 69.9359 325.428 71.4288L328.271 78.3397C328.63 79.2118 328.59 80.19 328.239 81.0649C327.895 81.9206 327.247 82.6268 326.399 82.9894L319.427 85.9703C317.955 86.5999 317 88.0469 317 89.6482V93.4664C317 95.0813 317.971 96.5378 319.462 97.1588L326.384 100.043C327.246 100.402 327.907 101.114 328.259 101.979C328.611 102.843 328.653 103.81 328.306 104.676L325.495 111.684C324.899 113.17 325.247 114.869 326.379 116.002L329.078 118.7C330.22 119.842 331.936 120.185 333.429 119.57L340.418 116.692C341.259 116.346 342.201 116.381 343.048 116.711C343.896 117.042 344.597 117.678 344.955 118.516L347.971 125.572C348.6 127.045 350.047 128 351.649 128H355.465C357.081 128 358.538 127.028 359.158 125.537L362.125 118.408C362.46 117.603 363.123 116.979 363.93 116.649C364.745 116.316 365.654 116.281 366.472 116.608L373.682 119.497C375.168 120.093 376.866 119.745 377.998 118.612L380.697 115.914C381.839 114.772 382.182 113.054 381.566 111.56L378.607 104.387C378.279 103.592 378.308 102.697 378.623 101.897C378.936 101.102 379.538 100.453 380.323 100.118L387.569 97.0284ZM353.429 105.188C345.874 105.188 339.742 99.0555 339.742 91.5C339.742 83.9445 345.874 77.8125 353.429 77.8125C360.985 77.8125 367.117 83.9445 367.117 91.5C367.117 99.0555 360.985 105.188 353.429 105.188Z" fill="url(#paint22_linear_0_267)"/>
<path d="M387.569 97.0284C389.043 96.3997 390 94.9517 390 93.3489V89.5335C390 87.9187 389.029 86.4622 387.538 85.8412L380.34 82.842C379.546 82.5112 378.939 81.8538 378.618 81.0558C378.299 80.2608 378.26 79.3738 378.579 78.5788L381.496 71.3173C382.093 69.8303 381.746 68.1303 380.612 66.9974L377.913 64.299C376.771 63.1576 375.055 62.8145 373.562 63.4293L366.455 66.3561C365.634 66.6942 364.714 66.6579 363.891 66.322C363.088 65.9936 362.422 65.3819 362.081 64.5832L359.029 57.43C358.4 55.9562 356.952 55 355.35 55H351.531C349.917 55 348.462 55.9696 347.84 57.4585L344.91 64.4736C344.558 65.3179 343.858 65.9644 343.009 66.3044C342.169 66.6404 341.233 66.6776 340.394 66.3404L333.317 63.4971C331.83 62.8997 330.13 63.2473 328.997 64.3803L326.299 67.0786C325.158 68.2201 324.814 69.9359 325.428 71.4288L328.271 78.3397C328.63 79.2118 328.59 80.19 328.239 81.0649C327.895 81.9206 327.247 82.6268 326.399 82.9894L319.427 85.9703C317.955 86.5999 317 88.0469 317 89.6482V93.4664C317 95.0813 317.971 96.5378 319.462 97.1588L326.384 100.043C327.246 100.402 327.907 101.114 328.259 101.979C328.611 102.843 328.653 103.81 328.306 104.676L325.495 111.684C324.899 113.17 325.247 114.869 326.379 116.002L329.078 118.7C330.22 119.842 331.936 120.185 333.429 119.57L340.418 116.692C341.259 116.346 342.201 116.381 343.048 116.711C343.896 117.042 344.597 117.678 344.955 118.516L347.971 125.572C348.6 127.045 350.047 128 351.649 128H355.465C357.081 128 358.538 127.028 359.158 125.537L362.125 118.408C362.46 117.603 363.123 116.979 363.93 116.649C364.745 116.316 365.654 116.281 366.472 116.608L373.682 119.497C375.168 120.093 376.866 119.745 377.998 118.612L380.697 115.914C381.839 114.772 382.182 113.054 381.566 111.56L378.607 104.387C378.279 103.592 378.308 102.697 378.623 101.897C378.936 101.102 379.538 100.453 380.323 100.118L387.569 97.0284ZM353.429 105.188C345.874 105.188 339.742 99.0555 339.742 91.5C339.742 83.9445 345.874 77.8125 353.429 77.8125C360.985 77.8125 367.117 83.9445 367.117 91.5C367.117 99.0555 360.985 105.188 353.429 105.188Z" fill="url(#paint23_radial_0_267)"/>
</g>
</g>
<defs>
<filter id="filter0_d_0_267" x="5.47391" y="3.177" width="52.3864" height="61.6975" filterUnits="userSpaceOnUse" color-interpolation-filters="sRGB">
<feFlood flood-opacity="0" result="BackgroundImageFix"/>
<feColorMatrix in="SourceAlpha" type="matrix" values="0 0 0 0 0 0 0 0 0 0 0 0 0 0 0 0 0 0 127 0" result="hardAlpha"/>
<feOffset dy="1.35104"/>
<feGaussianBlur stdDeviation="0.67552"/>
<feColorMatrix type="matrix" values="0 0 0 0 0 0 0 0 0 0 0 0 0 0 0 0 0 0 0.25 0"/>
<feBlend mode="normal" in2="BackgroundImageFix" result="effect1_dropShadow_0_267"/>
<feBlend mode="normal" in="SourceGraphic" in2="effect1_dropShadow_0_267" result="shape"/>
</filter>
<filter id="filter1_d_0_267" x="8.90379" y="5.87907" width="45.5266" height="53.5913" filterUnits="userSpaceOnUse" color-interpolation-filters="sRGB">
<feFlood flood-opacity="0" result="BackgroundImageFix"/>
<feColorMatrix in="SourceAlpha" type="matrix" values="0 0 0 0 0 0 0 0 0 0 0 0 0 0 0 0 0 0 127 0" result="hardAlpha"/>
<feOffset/>
<feGaussianBlur stdDeviation="0.8444"/>
<feColorMatrix type="matrix" values="0 0 0 0 0.388235 0 0 0 0 0.423529 0 0 0 0 0.584314 0 0 0 0.89 0"/>
<feBlend mode="normal" in2="BackgroundImageFix" result="effect1_dropShadow_0_267"/>
<feBlend mode="normal" in="SourceGraphic" in2="effect1_dropShadow_0_267" result="shape"/>
</filter>
<filter id="filter2_f_0_267" x="28" y="3.58173" width="28.7417" height="58.1813" filterUnits="userSpaceOnUse" color-interpolation-filters="sRGB">
<feFlood flood-opacity="0" result="BackgroundImageFix"/>
<feBlend mode="normal" in="SourceGraphic" in2="BackgroundImageFix" result="shape"/>
<feGaussianBlur stdDeviation="2" result="effect1_foregroundBlur_0_267"/>
</filter>
<filter id="filter3_d_0_267" x="18.3256" y="18.537" width="27.3586" height="27.3585" filterUnits="userSpaceOnUse" color-interpolation-filters="sRGB">
<feFlood flood-opacity="0" result="BackgroundImageFix"/>
<feColorMatrix in="SourceAlpha" type="matrix" values="0 0 0 0 0 0 0 0 0 0 0 0 0 0 0 0 0 0 127 0" result="hardAlpha"/>
<feOffset dy="1.35104"/>
<feGaussianBlur stdDeviation="0.67552"/>
<feColorMatrix type="matrix" values="0 0 0 0 0.255 0 0 0 0 0.292623 0 0 0 0 0.425 0 0 0 0.3 0"/>
<feBlend mode="normal" in2="BackgroundImageFix" result="effect1_dropShadow_0_267"/>
<feBlend mode="normal" in="SourceGraphic" in2="effect1_dropShadow_0_267" result="shape"/>
</filter>
<filter id="filter4_d_0_267" x="112.686" y="8.35397" width="101.962" height="120.143" filterUnits="userSpaceOnUse" color-interpolation-filters="sRGB">
<feFlood flood-opacity="0" result="BackgroundImageFix"/>
<feColorMatrix in="SourceAlpha" type="matrix" values="0 0 0 0 0 0 0 0 0 0 0 0 0 0 0 0 0 0 127 0" result="hardAlpha"/>
<feOffset dy="2.63137"/>
<feGaussianBlur stdDeviation="1.31569"/>
<feColorMatrix type="matrix" values="0 0 0 0 0 0 0 0 0 0 0 0 0 0 0 0 0 0 0.25 0"/>
<feBlend mode="normal" in2="BackgroundImageFix" result="effect1_dropShadow_0_267"/>
<feBlend mode="normal" in="SourceGraphic" in2="effect1_dropShadow_0_267" result="shape"/>
</filter>
<filter id="filter5_d_0_267" x="119.147" y="13.5725" width="89.0407" height="104.487" filterUnits="userSpaceOnUse" color-interpolation-filters="sRGB">
<feFlood flood-opacity="0" result="BackgroundImageFix"/>
<feColorMatrix in="SourceAlpha" type="matrix" values="0 0 0 0 0 0 0 0 0 0 0 0 0 0 0 0 0 0 127 0" result="hardAlpha"/>
<feOffset/>
<feGaussianBlur stdDeviation="1.64461"/>
<feColorMatrix type="matrix" values="0 0 0 0 0.388235 0 0 0 0 0.423529 0 0 0 0 0.584314 0 0 0 0.89 0"/>
<feBlend mode="normal" in2="BackgroundImageFix" result="effect1_dropShadow_0_267"/>
<feBlend mode="normal" in="SourceGraphic" in2="effect1_dropShadow_0_267" result="shape"/>
</filter>
<filter id="filter6_f_0_267" x="160" y="12.8696" width="48.8983" height="105.89" filterUnits="userSpaceOnUse" color-interpolation-filters="sRGB">
<feFlood flood-opacity="0" result="BackgroundImageFix"/>
<feBlend mode="normal" in="SourceGraphic" in2="BackgroundImageFix" result="shape"/>
<feGaussianBlur stdDeviation="2" result="effect1_foregroundBlur_0_267"/>
</filter>
<filter id="filter7_d_0_267" x="137.682" y="38.2608" width="53.2853" height="53.2853" filterUnits="userSpaceOnUse" color-interpolation-filters="sRGB">
<feFlood flood-opacity="0" result="BackgroundImageFix"/>
<feColorMatrix in="SourceAlpha" type="matrix" values="0 0 0 0 0 0 0 0 0 0 0 0 0 0 0 0 0 0 127 0" result="hardAlpha"/>
<feOffset dy="2.63137"/>
<feGaussianBlur stdDeviation="1.31569"/>
<feColorMatrix type="matrix" values="0 0 0 0 0.255 0 0 0 0 0.292623 0 0 0 0 0.425 0 0 0 0.3 0"/>
<feBlend mode="normal" in2="BackgroundImageFix" result="effect1_dropShadow_0_267"/>
<feBlend mode="normal" in="SourceGraphic" in2="effect1_dropShadow_0_267" result="shape"/>
</filter>
<filter id="filter8_d_0_267" x="274.994" y="9.53098" width="155.011" height="182.642" filterUnits="userSpaceOnUse" color-interpolation-filters="sRGB">
<feFlood flood-opacity="0" result="BackgroundImageFix"/>
<feColorMatrix in="SourceAlpha" type="matrix" values="0 0 0 0 0 0 0 0 0 0 0 0 0 0 0 0 0 0 127 0" result="hardAlpha"/>
<feOffset dy="4"/>
<feGaussianBlur stdDeviation="2"/>
<feColorMatrix type="matrix" values="0 0 0 0 0 0 0 0 0 0 0 0 0 0 0 0 0 0 0.25 0"/>
<feBlend mode="normal" in2="BackgroundImageFix" result="effect1_dropShadow_0_267"/>
<feBlend mode="normal" in="SourceGraphic" in2="effect1_dropShadow_0_267" result="shape"/>
</filter>
<filter id="filter9_d_0_267" x="284.854" y="17.4525" width="135.291" height="158.839" filterUnits="userSpaceOnUse" color-interpolation-filters="sRGB">
<feFlood flood-opacity="0" result="BackgroundImageFix"/>
<feColorMatrix in="SourceAlpha" type="matrix" values="0 0 0 0 0 0 0 0 0 0 0 0 0 0 0 0 0 0 127 0" result="hardAlpha"/>
<feOffset/>
<feGaussianBlur stdDeviation="2.5"/>
<feColorMatrix type="matrix" values="0 0 0 0 0.388235 0 0 0 0 0.423529 0 0 0 0 0.584314 0 0 0 0.89 0"/>
<feBlend mode="normal" in2="BackgroundImageFix" result="effect1_dropShadow_0_267"/>
<feBlend mode="normal" in="SourceGraphic" in2="effect1_dropShadow_0_267" result="shape"/>
</filter>
<filter id="filter10_f_0_267" x="348" y="18.4525" width="71.1455" height="156.839" filterUnits="userSpaceOnUse" color-interpolation-filters="sRGB">
<feFlood flood-opacity="0" result="BackgroundImageFix"/>
<feBlend mode="normal" in="SourceGraphic" in2="BackgroundImageFix" result="shape"/>
<feGaussianBlur stdDeviation="2" result="effect1_foregroundBlur_0_267"/>
</filter>
<filter id="filter11_d_0_267" x="313" y="55" width="81" height="81" filterUnits="userSpaceOnUse" color-interpolation-filters="sRGB">
<feFlood flood-opacity="0" result="BackgroundImageFix"/>
<feColorMatrix in="SourceAlpha" type="matrix" values="0 0 0 0 0 0 0 0 0 0 0 0 0 0 0 0 0 0 127 0" result="hardAlpha"/>
<feOffset dy="4"/>
<feGaussianBlur stdDeviation="2"/>
<feColorMatrix type="matrix" values="0 0 0 0 0.255 0 0 0 0 0.292623 0 0 0 0 0.425 0 0 0 0.3 0"/>
<feBlend mode="normal" in2="BackgroundImageFix" result="effect1_dropShadow_0_267"/>
<feBlend mode="normal" in="SourceGraphic" in2="effect1_dropShadow_0_267" result="shape"/>
</filter>
<linearGradient id="paint0_linear_0_267" x1="17.819" y1="49.9486" x2="12.9215" y2="61.0947" gradientUnits="userSpaceOnUse">
<stop stop-color="#EA6219"/>
<stop offset="1" stop-color="#FE9100"/>
</linearGradient>
<linearGradient id="paint1_linear_0_267" x1="44.1643" y1="50.2864" x2="50.4129" y2="60.0814" gradientUnits="userSpaceOnUse">
<stop stop-color="#EA6219"/>
<stop offset="1" stop-color="#FE9100"/>
</linearGradient>
<linearGradient id="paint2_linear_0_267" x1="31.4983" y1="4.01328" x2="31.4983" y2="62.4458" gradientUnits="userSpaceOnUse">
<stop stop-color="#8193DF"/>
<stop offset="1" stop-color="#B3C1F6"/>
</linearGradient>
<linearGradient id="paint3_linear_0_267" x1="9.88162" y1="59.5748" x2="39.7734" y2="7.39087" gradientUnits="userSpaceOnUse">
<stop stop-color="#8193DF"/>
<stop offset="1" stop-color="#B3C1F6"/>
</linearGradient>
<linearGradient id="paint4_linear_0_267" x1="51.2572" y1="9.07967" x2="33.6937" y2="10.9373" gradientUnits="userSpaceOnUse">
<stop stop-color="white"/>
<stop offset="1" stop-color="white" stop-opacity="0"/>
</linearGradient>
<linearGradient id="paint5_linear_0_267" x1="31" y1="40" x2="53" y2="40" gradientUnits="userSpaceOnUse">
<stop stop-color="white"/>
<stop offset="1" stop-color="white" stop-opacity="0"/>
</linearGradient>
<linearGradient id="paint6_linear_0_267" x1="35.8891" y1="18.537" x2="29.3028" y2="27.8254" gradientUnits="userSpaceOnUse">
<stop stop-color="white"/>
<stop offset="1" stop-color="white" stop-opacity="0"/>
</linearGradient>
<radialGradient id="paint7_radial_0_267" cx="0" cy="0" r="1" gradientUnits="userSpaceOnUse" gradientTransform="translate(32 31) rotate(7.59465) scale(7.56637 4.85963)">
<stop stop-color="white"/>
<stop offset="1" stop-color="white" stop-opacity="0"/>
</radialGradient>
<linearGradient id="paint8_linear_0_267" x1="136.696" y1="99.4401" x2="127.157" y2="121.149" gradientUnits="userSpaceOnUse">
<stop stop-color="#EA6219"/>
<stop offset="1" stop-color="#FE9100"/>
</linearGradient>
<linearGradient id="paint9_linear_0_267" x1="188.007" y1="100.098" x2="200.177" y2="119.175" gradientUnits="userSpaceOnUse">
<stop stop-color="#EA6219"/>
<stop offset="1" stop-color="#FE9100"/>
</linearGradient>
<linearGradient id="paint10_linear_0_267" x1="163.338" y1="9.97353" x2="163.338" y2="123.78" gradientUnits="userSpaceOnUse">
<stop stop-color="#8193DF"/>
<stop offset="1" stop-color="#B3C1F6"/>
</linearGradient>
<linearGradient id="paint11_linear_0_267" x1="121.236" y1="118.189" x2="179.455" y2="16.5519" gradientUnits="userSpaceOnUse">
<stop stop-color="#8193DF"/>
<stop offset="1" stop-color="#B3C1F6"/>
</linearGradient>
<linearGradient id="paint12_linear_0_267" x1="201.822" y1="19.8412" x2="167.614" y2="23.4593" gradientUnits="userSpaceOnUse">
<stop stop-color="white"/>
<stop offset="1" stop-color="white" stop-opacity="0"/>
</linearGradient>
<linearGradient id="paint13_linear_0_267" x1="164" y1="49.5" x2="202" y2="49.5" gradientUnits="userSpaceOnUse">
<stop stop-color="white" stop-opacity="0.46"/>
<stop offset="1" stop-color="white" stop-opacity="0"/>
</linearGradient>
<linearGradient id="paint14_linear_0_267" x1="171.89" y1="38.2608" x2="159.062" y2="56.3514" gradientUnits="userSpaceOnUse">
<stop stop-color="white"/>
<stop offset="1" stop-color="white" stop-opacity="0"/>
</linearGradient>
<radialGradient id="paint15_radial_0_267" cx="0" cy="0" r="1" gradientUnits="userSpaceOnUse" gradientTransform="translate(164 63) rotate(5.44033) scale(10.5475 11.1014)">
<stop stop-color="white"/>
<stop offset="1" stop-color="white" stop-opacity="0"/>
</radialGradient>
<linearGradient id="paint16_linear_0_267" x1="311.5" y1="148" x2="297" y2="181" gradientUnits="userSpaceOnUse">
<stop stop-color="#EA6219"/>
<stop offset="1" stop-color="#FE9100"/>
</linearGradient>
<linearGradient id="paint17_linear_0_267" x1="389.5" y1="149" x2="408" y2="178" gradientUnits="userSpaceOnUse">
<stop stop-color="#EA6219"/>
<stop offset="1" stop-color="#FE9100"/>
</linearGradient>
<linearGradient id="paint18_linear_0_267" x1="352" y1="12" x2="352" y2="185" gradientUnits="userSpaceOnUse">
<stop stop-color="#8193DF"/>
<stop offset="1" stop-color="#B3C1F6"/>
</linearGradient>
<linearGradient id="paint19_linear_0_267" x1="288" y1="176.5" x2="376.5" y2="22" gradientUnits="userSpaceOnUse">
<stop stop-color="#8193DF"/>
<stop offset="1" stop-color="#B3C1F6"/>
</linearGradient>
<linearGradient id="paint20_linear_0_267" x1="410.5" y1="27" x2="358.5" y2="32.5" gradientUnits="userSpaceOnUse">
<stop stop-color="white"/>
<stop offset="1" stop-color="white" stop-opacity="0"/>
</linearGradient>
<linearGradient id="paint21_linear_0_267" x1="426" y1="85.5" x2="330" y2="86.5" gradientUnits="userSpaceOnUse">
<stop stop-color="white" stop-opacity="0.55"/>
<stop offset="1" stop-color="white" stop-opacity="0"/>
</linearGradient>
<linearGradient id="paint22_linear_0_267" x1="365" y1="55" x2="345.5" y2="82.5" gradientUnits="userSpaceOnUse">
<stop stop-color="white"/>
<stop offset="1" stop-color="white" stop-opacity="0"/>
</linearGradient>
<radialGradient id="paint23_radial_0_267" cx="0" cy="0" r="1" gradientUnits="userSpaceOnUse" gradientTransform="translate(353 92) scale(21.5 20.3038)">
<stop stop-color="white"/>
<stop offset="1" stop-color="white" stop-opacity="0"/>
</radialGradient>
<clipPath id="clip0_0_267">
<rect width="64" height="64" fill="white"/>
</clipPath>
<clipPath id="clip1_0_267">
<rect width="24.6565" height="24.6565" fill="white" transform="translate(19.6766 18.537)"/>
</clipPath>
<clipPath id="clip2_0_267">
<rect width="128" height="128" fill="white" transform="translate(100)"/>
</clipPath>
<clipPath id="clip3_0_267">
<rect width="48.0225" height="48.0225" fill="white" transform="translate(140.314 38.2608)"/>
</clipPath>
<clipPath id="clip4_0_267">
<rect width="192" height="192" fill="white" transform="translate(257)"/>
</clipPath>
<clipPath id="clip5_0_267">
<rect width="73" height="73" fill="white" transform="translate(317 55)"/>
</clipPath>
</defs>
</svg>
