<svg width="449" height="192" viewBox="0 0 449 192" fill="none" xmlns="http://www.w3.org/2000/svg">
<g clip-path="url(#clip0_0_310)">
<rect width="64" height="64" rx="32" fill="#1A3594"/>
<g clip-path="url(#clip1_0_310)">
<path d="M28.4317 34.4452C28.8284 34.3888 29.1531 34.101 29.2568 33.714L29.7138 32.0083C29.8183 31.6184 29.6781 31.2038 29.3583 30.9574L27.0653 29.1903C26.8416 29.0179 26.7045 28.7584 26.6712 28.4779C26.6701 28.4685 26.6689 28.4592 26.6678 28.4498C26.6336 28.1705 26.6967 27.885 26.8656 27.6599L28.6073 25.3388C28.8478 25.0184 28.8738 24.5853 28.6734 24.2384L27.79 22.709C27.5882 22.3595 27.1959 22.1656 26.7956 22.2175L23.9513 22.586C23.6687 22.6226 23.3858 22.5344 23.1595 22.3614C23.1462 22.3513 23.1329 22.3412 23.1195 22.3311C22.8972 22.1633 22.7427 21.9188 22.7034 21.643L22.2949 18.7758C22.2384 18.3792 21.9506 18.0546 21.5637 17.9509L19.8573 17.4937C19.4676 17.3893 19.0534 17.5292 18.8069 17.8486L17.0606 20.1107C16.8881 20.3342 16.6288 20.4714 16.3483 20.5036C16.3195 20.5069 16.2908 20.5103 16.2621 20.5139C15.9851 20.5483 15.7024 20.4846 15.4791 20.317L13.1888 18.5981C12.8685 18.3577 12.4355 18.3316 12.0886 18.5319L10.5593 19.4148C10.2098 19.6166 10.0159 20.0087 10.0676 20.409L10.4295 23.2105C10.466 23.4932 10.3776 23.7762 10.2051 24.0031C10.1834 24.0316 10.1619 24.0602 10.1406 24.089C9.97452 24.3129 9.72993 24.4676 9.45396 24.5071L6.62473 24.9124C6.22845 24.9692 5.90421 25.2568 5.8006 25.6435L5.34338 27.3498C5.23889 27.7398 5.37914 28.1543 5.69893 28.4007L7.94384 30.1306C8.16702 30.3026 8.30441 30.5611 8.33778 30.8409C8.34212 30.8772 8.34666 30.9135 8.35142 30.9498C8.38807 31.2286 8.32487 31.514 8.15617 31.739L6.44711 34.0189C6.20697 34.3393 6.18105 34.772 6.38124 35.1187L7.26423 36.6481C7.46609 36.9978 7.85838 37.1917 8.25875 37.1398L11.0754 36.7749C11.3552 36.7386 11.6354 36.8248 11.8619 36.993C11.8838 37.0092 11.9058 37.0254 11.9279 37.0414C12.1564 37.2077 12.3147 37.4549 12.3548 37.7347L12.7621 40.5828C12.8187 40.9791 13.1064 41.3035 13.4932 41.4071L15.1991 41.8642C15.5892 41.9688 16.0039 41.8284 16.2502 41.5084L18.0093 39.2236C18.1785 39.0039 18.4317 38.8668 18.7069 38.8326C18.726 38.8303 18.7451 38.8278 18.7642 38.8254C19.0419 38.7893 19.3258 38.8531 19.5499 39.0209L21.8686 40.7577C22.1889 40.9977 22.6215 41.0235 22.9681 40.8234L24.4973 39.9405C24.8472 39.7385 25.0411 39.3459 24.989 38.9454L24.6164 36.0839C24.5803 35.8059 24.6646 35.527 24.8318 35.302C24.8388 35.2927 24.8457 35.2833 24.8526 35.274C25.0179 35.0499 25.2625 34.8958 25.5382 34.8566L28.4317 34.4452ZM16.3046 34.1546C13.8307 33.4917 12.3608 30.9459 13.0237 28.472C13.6866 25.9981 16.2324 24.5283 18.7063 25.1911C21.1802 25.854 22.6501 28.3998 21.9872 30.8737C21.3243 33.3477 18.7785 34.8175 16.3046 34.1546Z" fill="#E6ECF8"/>
<path d="M28.4317 34.4452C28.8284 34.3888 29.1531 34.101 29.2568 33.714L29.7138 32.0083C29.8183 31.6184 29.6781 31.2038 29.3583 30.9574L27.0653 29.1903C26.8416 29.0179 26.7045 28.7584 26.6712 28.4779C26.6701 28.4685 26.6689 28.4592 26.6678 28.4498C26.6336 28.1705 26.6967 27.885 26.8656 27.6599L28.6073 25.3388C28.8478 25.0184 28.8738 24.5853 28.6734 24.2384L27.79 22.709C27.5882 22.3595 27.1959 22.1656 26.7956 22.2175L23.9513 22.586C23.6687 22.6226 23.3858 22.5344 23.1595 22.3614C23.1462 22.3513 23.1329 22.3412 23.1195 22.3311C22.8972 22.1633 22.7427 21.9188 22.7034 21.643L22.2949 18.7758C22.2384 18.3792 21.9506 18.0546 21.5637 17.9509L19.8573 17.4937C19.4676 17.3893 19.0534 17.5292 18.8069 17.8486L17.0606 20.1107C16.8881 20.3342 16.6288 20.4714 16.3483 20.5036C16.3195 20.5069 16.2908 20.5103 16.2621 20.5139C15.9851 20.5483 15.7024 20.4846 15.4791 20.317L13.1888 18.5981C12.8685 18.3577 12.4355 18.3316 12.0886 18.5319L10.5593 19.4148C10.2098 19.6166 10.0159 20.0087 10.0676 20.409L10.4295 23.2105C10.466 23.4932 10.3776 23.7762 10.2051 24.0031C10.1834 24.0316 10.1619 24.0602 10.1406 24.089C9.97452 24.3129 9.72993 24.4676 9.45396 24.5071L6.62473 24.9124C6.22845 24.9692 5.90421 25.2568 5.8006 25.6435L5.34338 27.3498C5.23889 27.7398 5.37914 28.1543 5.69893 28.4007L7.94384 30.1306C8.16702 30.3026 8.30441 30.5611 8.33778 30.8409C8.34212 30.8772 8.34666 30.9135 8.35142 30.9498C8.38807 31.2286 8.32487 31.514 8.15617 31.739L6.44711 34.0189C6.20697 34.3393 6.18105 34.772 6.38124 35.1187L7.26423 36.6481C7.46609 36.9978 7.85838 37.1917 8.25875 37.1398L11.0754 36.7749C11.3552 36.7386 11.6354 36.8248 11.8619 36.993C11.8838 37.0092 11.9058 37.0254 11.9279 37.0414C12.1564 37.2077 12.3147 37.4549 12.3548 37.7347L12.7621 40.5828C12.8187 40.9791 13.1064 41.3035 13.4932 41.4071L15.1991 41.8642C15.5892 41.9688 16.0039 41.8284 16.2502 41.5084L18.0093 39.2236C18.1785 39.0039 18.4317 38.8668 18.7069 38.8326C18.726 38.8303 18.7451 38.8278 18.7642 38.8254C19.0419 38.7893 19.3258 38.8531 19.5499 39.0209L21.8686 40.7577C22.1889 40.9977 22.6215 41.0235 22.9681 40.8234L24.4973 39.9405C24.8472 39.7385 25.0411 39.3459 24.989 38.9454L24.6164 36.0839C24.5803 35.8059 24.6646 35.527 24.8318 35.302C24.8388 35.2927 24.8457 35.2833 24.8526 35.274C25.0179 35.0499 25.2625 34.8958 25.5382 34.8566L28.4317 34.4452ZM16.3046 34.1546C13.8307 33.4917 12.3608 30.9459 13.0237 28.472C13.6866 25.9981 16.2324 24.5283 18.7063 25.1911C21.1802 25.854 22.6501 28.3998 21.9872 30.8737C21.3243 33.3477 18.7785 34.8175 16.3046 34.1546Z" fill="url(#paint0_linear_0_310)"/>
<path d="M28.4317 34.4452C28.8284 34.3888 29.1531 34.101 29.2568 33.714L29.7138 32.0083C29.8183 31.6184 29.6781 31.2038 29.3583 30.9574L27.0653 29.1903C26.8416 29.0179 26.7045 28.7584 26.6712 28.4779C26.6701 28.4685 26.6689 28.4592 26.6678 28.4498C26.6336 28.1705 26.6967 27.885 26.8656 27.6599L28.6073 25.3388C28.8478 25.0184 28.8738 24.5853 28.6734 24.2384L27.79 22.709C27.5882 22.3595 27.1959 22.1656 26.7956 22.2175L23.9513 22.586C23.6687 22.6226 23.3858 22.5344 23.1595 22.3614C23.1462 22.3513 23.1329 22.3412 23.1195 22.3311C22.8972 22.1633 22.7427 21.9188 22.7034 21.643L22.2949 18.7758C22.2384 18.3792 21.9506 18.0546 21.5637 17.9509L19.8573 17.4937C19.4676 17.3893 19.0534 17.5292 18.8069 17.8486L17.0606 20.1107C16.8881 20.3342 16.6288 20.4714 16.3483 20.5036C16.3195 20.5069 16.2908 20.5103 16.2621 20.5139C15.9851 20.5483 15.7024 20.4846 15.4791 20.317L13.1888 18.5981C12.8685 18.3577 12.4355 18.3316 12.0886 18.5319L10.5593 19.4148C10.2098 19.6166 10.0159 20.0087 10.0676 20.409L10.4295 23.2105C10.466 23.4932 10.3776 23.7762 10.2051 24.0031C10.1834 24.0316 10.1619 24.0602 10.1406 24.089C9.97452 24.3129 9.72993 24.4676 9.45396 24.5071L6.62473 24.9124C6.22845 24.9692 5.90421 25.2568 5.8006 25.6435L5.34338 27.3498C5.23889 27.7398 5.37914 28.1543 5.69893 28.4007L7.94384 30.1306C8.16702 30.3026 8.30441 30.5611 8.33778 30.8409C8.34212 30.8772 8.34666 30.9135 8.35142 30.9498C8.38807 31.2286 8.32487 31.514 8.15617 31.739L6.44711 34.0189C6.20697 34.3393 6.18105 34.772 6.38124 35.1187L7.26423 36.6481C7.46609 36.9978 7.85838 37.1917 8.25875 37.1398L11.0754 36.7749C11.3552 36.7386 11.6354 36.8248 11.8619 36.993C11.8838 37.0092 11.9058 37.0254 11.9279 37.0414C12.1564 37.2077 12.3147 37.4549 12.3548 37.7347L12.7621 40.5828C12.8187 40.9791 13.1064 41.3035 13.4932 41.4071L15.1991 41.8642C15.5892 41.9688 16.0039 41.8284 16.2502 41.5084L18.0093 39.2236C18.1785 39.0039 18.4317 38.8668 18.7069 38.8326C18.726 38.8303 18.7451 38.8278 18.7642 38.8254C19.0419 38.7893 19.3258 38.8531 19.5499 39.0209L21.8686 40.7577C22.1889 40.9977 22.6215 41.0235 22.9681 40.8234L24.4973 39.9405C24.8472 39.7385 25.0411 39.3459 24.989 38.9454L24.6164 36.0839C24.5803 35.8059 24.6646 35.527 24.8318 35.302C24.8388 35.2927 24.8457 35.2833 24.8526 35.274C25.0179 35.0499 25.2625 34.8958 25.5382 34.8566L28.4317 34.4452ZM16.3046 34.1546C13.8307 33.4917 12.3608 30.9459 13.0237 28.472C13.6866 25.9981 16.2324 24.5283 18.7063 25.1911C21.1802 25.854 22.6501 28.3998 21.9872 30.8737C21.3243 33.3477 18.7785 34.8175 16.3046 34.1546Z" fill="url(#paint1_radial_0_310)"/>
</g>
<g clip-path="url(#clip2_0_310)">
<path d="M61.3921 30.036C61.7607 29.8788 61.9999 29.5168 61.9999 29.1161V27.3503C61.9999 26.9466 61.7572 26.5825 61.3845 26.4272L58.7123 25.3139C58.4515 25.2052 58.252 24.9901 58.1472 24.7277C58.1437 24.719 58.1402 24.7102 58.1367 24.7015C58.0313 24.4405 58.0184 24.1484 58.1233 23.8873L59.2049 21.1944C59.3542 20.8227 59.2673 20.3977 58.9839 20.1145L57.7348 18.8658C57.4494 18.5805 57.0203 18.4947 56.6471 18.6484L53.995 19.7405C53.7316 19.849 53.4355 19.837 53.1721 19.7285C53.1566 19.7222 53.1412 19.7159 53.1257 19.7096C52.8674 19.605 52.655 19.4089 52.5456 19.1526L51.4089 16.4888C51.2517 16.1204 50.8898 15.8813 50.4892 15.8813H48.7225C48.3191 15.8813 47.9552 16.1237 47.7998 16.496L46.6985 19.133C46.5897 19.3935 46.3747 19.5932 46.1121 19.6969C46.0852 19.7075 46.0584 19.7183 46.0316 19.7291C45.7729 19.834 45.4833 19.8457 45.2243 19.7416L42.5672 18.6741C42.1955 18.5247 41.7705 18.6116 41.4873 18.8949L40.2386 20.1435C39.9533 20.4289 39.8674 20.8578 40.0209 21.2311L41.0956 23.8434C41.204 24.107 41.1919 24.4033 41.084 24.6671C41.0704 24.7003 41.0571 24.7335 41.0439 24.7668C40.9415 25.0261 40.7453 25.2388 40.4889 25.3484L37.861 26.4721C37.4929 26.6295 37.2542 26.9912 37.2542 27.3916V29.1581C37.2542 29.5618 37.4969 29.9259 37.8696 30.0812L40.4857 31.1711C40.7458 31.2795 40.9454 31.4936 41.0501 31.7552C41.0637 31.7892 41.0774 31.8231 41.0914 31.8569C41.199 32.1167 41.2118 32.4087 41.1071 32.6697L40.0464 35.3143C39.8973 35.6859 39.9843 36.1106 40.2674 36.3937L41.5161 37.6424C41.8016 37.9279 42.2307 38.0137 42.604 37.86L45.2302 36.7785C45.4911 36.671 45.7841 36.6818 46.0464 36.7856C46.0718 36.7956 46.0972 36.8055 46.1227 36.8153C46.3864 36.9168 46.6034 37.1145 46.7144 37.3744L47.845 40.0201C48.0023 40.3883 48.3641 40.6271 48.7645 40.6271H50.5306C50.9345 40.6271 51.2987 40.3842 51.4539 40.0113L52.5617 37.3491C52.6683 37.0931 52.8773 36.8952 53.1343 36.7909C53.1522 36.7837 53.17 36.7764 53.1878 36.7691C53.4466 36.6624 53.7374 36.6505 53.9973 36.7546L56.6865 37.8321C57.058 37.981 57.4825 37.894 57.7655 37.611L59.0142 36.3623C59.2998 36.0767 59.3855 35.6473 59.2315 35.2739L58.131 32.6063C58.0241 32.3472 58.0334 32.056 58.1367 31.7954C58.141 31.7845 58.1453 31.7737 58.1495 31.7629C58.2512 31.5036 58.4476 31.2915 58.7037 31.1823L61.3921 30.036ZM49.6031 32.8941C47.0419 32.8941 44.9632 30.8154 44.9632 28.2542C44.9632 25.693 47.0419 23.6144 49.6031 23.6144C52.1642 23.6144 54.2429 25.693 54.2429 28.2542C54.2429 30.8154 52.1642 32.8941 49.6031 32.8941Z" fill="#E6ECF8"/>
<path d="M61.3921 30.036C61.7607 29.8788 61.9999 29.5168 61.9999 29.1161V27.3503C61.9999 26.9466 61.7572 26.5825 61.3845 26.4272L58.7123 25.3139C58.4515 25.2052 58.252 24.9901 58.1472 24.7277C58.1437 24.719 58.1402 24.7102 58.1367 24.7015C58.0313 24.4405 58.0184 24.1484 58.1233 23.8873L59.2049 21.1944C59.3542 20.8227 59.2673 20.3977 58.9839 20.1145L57.7348 18.8658C57.4494 18.5805 57.0203 18.4947 56.6471 18.6484L53.995 19.7405C53.7316 19.849 53.4355 19.837 53.1721 19.7285C53.1566 19.7222 53.1412 19.7159 53.1257 19.7096C52.8674 19.605 52.655 19.4089 52.5456 19.1526L51.4089 16.4888C51.2517 16.1204 50.8898 15.8813 50.4892 15.8813H48.7225C48.3191 15.8813 47.9552 16.1237 47.7998 16.496L46.6985 19.133C46.5897 19.3935 46.3747 19.5932 46.1121 19.6969C46.0852 19.7075 46.0584 19.7183 46.0316 19.7291C45.7729 19.834 45.4833 19.8457 45.2243 19.7416L42.5672 18.6741C42.1955 18.5247 41.7705 18.6116 41.4873 18.8949L40.2386 20.1435C39.9533 20.4289 39.8674 20.8578 40.0209 21.2311L41.0956 23.8434C41.204 24.107 41.1919 24.4033 41.084 24.6671C41.0704 24.7003 41.0571 24.7335 41.0439 24.7668C40.9415 25.0261 40.7453 25.2388 40.4889 25.3484L37.861 26.4721C37.4929 26.6295 37.2542 26.9912 37.2542 27.3916V29.1581C37.2542 29.5618 37.4969 29.9259 37.8696 30.0812L40.4857 31.1711C40.7458 31.2795 40.9454 31.4936 41.0501 31.7552C41.0637 31.7892 41.0774 31.8231 41.0914 31.8569C41.199 32.1167 41.2118 32.4087 41.1071 32.6697L40.0464 35.3143C39.8973 35.6859 39.9843 36.1106 40.2674 36.3937L41.5161 37.6424C41.8016 37.9279 42.2307 38.0137 42.604 37.86L45.2302 36.7785C45.4911 36.671 45.7841 36.6818 46.0464 36.7856C46.0718 36.7956 46.0972 36.8055 46.1227 36.8153C46.3864 36.9168 46.6034 37.1145 46.7144 37.3744L47.845 40.0201C48.0023 40.3883 48.3641 40.6271 48.7645 40.6271H50.5306C50.9345 40.6271 51.2987 40.3842 51.4539 40.0113L52.5617 37.3491C52.6683 37.0931 52.8773 36.8952 53.1343 36.7909C53.1522 36.7837 53.17 36.7764 53.1878 36.7691C53.4466 36.6624 53.7374 36.6505 53.9973 36.7546L56.6865 37.8321C57.058 37.981 57.4825 37.894 57.7655 37.611L59.0142 36.3623C59.2998 36.0767 59.3855 35.6473 59.2315 35.2739L58.131 32.6063C58.0241 32.3472 58.0334 32.056 58.1367 31.7954C58.141 31.7845 58.1453 31.7737 58.1495 31.7629C58.2512 31.5036 58.4476 31.2915 58.7037 31.1823L61.3921 30.036ZM49.6031 32.8941C47.0419 32.8941 44.9632 30.8154 44.9632 28.2542C44.9632 25.693 47.0419 23.6144 49.6031 23.6144C52.1642 23.6144 54.2429 25.693 54.2429 28.2542C54.2429 30.8154 52.1642 32.8941 49.6031 32.8941Z" fill="url(#paint2_linear_0_310)"/>
<path d="M61.3921 30.036C61.7607 29.8788 61.9999 29.5168 61.9999 29.1161V27.3503C61.9999 26.9466 61.7572 26.5825 61.3845 26.4272L58.7123 25.3139C58.4515 25.2052 58.252 24.9901 58.1472 24.7277C58.1437 24.719 58.1402 24.7102 58.1367 24.7015C58.0313 24.4405 58.0184 24.1484 58.1233 23.8873L59.2049 21.1944C59.3542 20.8227 59.2673 20.3977 58.9839 20.1145L57.7348 18.8658C57.4494 18.5805 57.0203 18.4947 56.6471 18.6484L53.995 19.7405C53.7316 19.849 53.4355 19.837 53.1721 19.7285C53.1566 19.7222 53.1412 19.7159 53.1257 19.7096C52.8674 19.605 52.655 19.4089 52.5456 19.1526L51.4089 16.4888C51.2517 16.1204 50.8898 15.8813 50.4892 15.8813H48.7225C48.3191 15.8813 47.9552 16.1237 47.7998 16.496L46.6985 19.133C46.5897 19.3935 46.3747 19.5932 46.1121 19.6969C46.0852 19.7075 46.0584 19.7183 46.0316 19.7291C45.7729 19.834 45.4833 19.8457 45.2243 19.7416L42.5672 18.6741C42.1955 18.5247 41.7705 18.6116 41.4873 18.8949L40.2386 20.1435C39.9533 20.4289 39.8674 20.8578 40.0209 21.2311L41.0956 23.8434C41.204 24.107 41.1919 24.4033 41.084 24.6671C41.0704 24.7003 41.0571 24.7335 41.0439 24.7668C40.9415 25.0261 40.7453 25.2388 40.4889 25.3484L37.861 26.4721C37.4929 26.6295 37.2542 26.9912 37.2542 27.3916V29.1581C37.2542 29.5618 37.4969 29.9259 37.8696 30.0812L40.4857 31.1711C40.7458 31.2795 40.9454 31.4936 41.0501 31.7552C41.0637 31.7892 41.0774 31.8231 41.0914 31.8569C41.199 32.1167 41.2118 32.4087 41.1071 32.6697L40.0464 35.3143C39.8973 35.6859 39.9843 36.1106 40.2674 36.3937L41.5161 37.6424C41.8016 37.9279 42.2307 38.0137 42.604 37.86L45.2302 36.7785C45.4911 36.671 45.7841 36.6818 46.0464 36.7856C46.0718 36.7956 46.0972 36.8055 46.1227 36.8153C46.3864 36.9168 46.6034 37.1145 46.7144 37.3744L47.845 40.0201C48.0023 40.3883 48.3641 40.6271 48.7645 40.6271H50.5306C50.9345 40.6271 51.2987 40.3842 51.4539 40.0113L52.5617 37.3491C52.6683 37.0931 52.8773 36.8952 53.1343 36.7909C53.1522 36.7837 53.17 36.7764 53.1878 36.7691C53.4466 36.6624 53.7374 36.6505 53.9973 36.7546L56.6865 37.8321C57.058 37.981 57.4825 37.894 57.7655 37.611L59.0142 36.3623C59.2998 36.0767 59.3855 35.6473 59.2315 35.2739L58.131 32.6063C58.0241 32.3472 58.0334 32.056 58.1367 31.7954C58.141 31.7845 58.1453 31.7737 58.1495 31.7629C58.2512 31.5036 58.4476 31.2915 58.7037 31.1823L61.3921 30.036ZM49.6031 32.8941C47.0419 32.8941 44.9632 30.8154 44.9632 28.2542C44.9632 25.693 47.0419 23.6144 49.6031 23.6144C52.1642 23.6144 54.2429 25.693 54.2429 28.2542C54.2429 30.8154 52.1642 32.8941 49.6031 32.8941Z" fill="url(#paint3_radial_0_310)"/>
</g>
<path fill-rule="evenodd" clip-rule="evenodd" d="M39.2691 39.629C38.6459 40.0493 38.4814 40.8953 38.9017 41.5185L40.5981 44.0337L40.558 44.0612C39.6465 44.685 39.4132 45.9296 40.037 46.8412L50.2022 61.6961C50.826 62.6077 52.0706 62.8409 52.9822 62.2172L55.458 60.523C56.3696 59.8992 56.6029 58.6545 55.9791 57.7429L45.8139 42.888C45.1901 41.9765 43.9454 41.7432 43.0339 42.367L42.8448 42.4964L41.1587 39.9964C40.7384 39.3731 39.8924 39.2086 39.2691 39.629Z" fill="url(#paint4_linear_0_310)"/>
<path fill-rule="evenodd" clip-rule="evenodd" d="M39.2691 39.629C38.6459 40.0493 38.4814 40.8953 38.9017 41.5185L40.5981 44.0337L40.558 44.0612C39.6465 44.685 39.4132 45.9296 40.037 46.8412L50.2022 61.6961C50.826 62.6077 52.0706 62.8409 52.9822 62.2172L55.458 60.523C56.3696 59.8992 56.6029 58.6545 55.9791 57.7429L45.8139 42.888C45.1901 41.9765 43.9454 41.7432 43.0339 42.367L42.8448 42.4964L41.1587 39.9964C40.7384 39.3731 39.8924 39.2086 39.2691 39.629Z" fill="url(#paint5_linear_0_310)" fill-opacity="0.4"/>
<g filter="url(#filter0_f_0_310)">
<path fill-rule="evenodd" clip-rule="evenodd" d="M41.7375 40.8732C41.0489 41.4578 40.3104 41.9856 39.5294 42.4492L38.8989 41.5143C38.4802 40.8934 38.644 40.0507 39.2649 39.6319C39.8858 39.2132 40.7285 39.3771 41.1472 39.9979L41.7375 40.8732Z" fill="#4C64CA"/>
</g>
<circle cx="30.8138" cy="27.4068" r="14.5763" fill="url(#paint6_linear_0_310)" fill-opacity="0.5"/>
<circle cx="30.8138" cy="27.4068" r="14.5763" stroke="url(#paint7_linear_0_310)" stroke-width="3.38983"/>
<g opacity="0.5" filter="url(#filter1_f_0_310)">
<circle cx="30.8135" cy="27.4068" r="15.2542" stroke="url(#paint8_linear_0_310)" stroke-width="1.69492"/>
</g>
<g filter="url(#filter2_f_0_310)">
<path fill-rule="evenodd" clip-rule="evenodd" d="M42.883 32.0337L27.3513 14.9876C23.8733 16.0646 21.0247 18.6417 19.512 21.9901L35.6185 39.667C38.9728 38.3119 41.6303 35.5241 42.883 32.0337Z" fill="url(#paint9_linear_0_310)" fill-opacity="0.4"/>
</g>
<circle cx="53.9998" cy="7" r="4" fill="url(#paint10_linear_0_310)"/>
<circle cx="53.9998" cy="7" r="4" fill="url(#paint11_radial_0_310)" fill-opacity="0.7"/>
<circle cx="22.9998" cy="50" r="2" fill="url(#paint12_linear_0_310)"/>
<circle cx="22.9998" cy="50" r="2" fill="url(#paint13_radial_0_310)" fill-opacity="0.7"/>
<circle cx="55.0255" cy="44.161" r="1.5" fill="url(#paint14_linear_0_310)"/>
<circle cx="55.0255" cy="44.161" r="1.5" fill="url(#paint15_radial_0_310)" fill-opacity="0.4"/>
<circle cx="33.4998" cy="57.5" r="1.5" fill="url(#paint16_linear_0_310)"/>
<circle cx="33.4998" cy="57.5" r="1.5" fill="url(#paint17_radial_0_310)" fill-opacity="0.4"/>
<circle cx="9.49982" cy="55.5" r="4.5" fill="url(#paint18_linear_0_310)"/>
<circle cx="9.49982" cy="55.5" r="4.5" fill="url(#paint19_radial_0_310)" fill-opacity="0.4"/>
<circle cx="25.9998" cy="6" r="2" fill="url(#paint20_linear_0_310)"/>
<circle cx="25.9998" cy="6" r="2" fill="url(#paint21_radial_0_310)" fill-opacity="0.4"/>
</g>
<g clip-path="url(#clip3_0_310)">
<rect width="128" height="128" transform="translate(100)" fill="white"/>
<rect x="100" width="128" height="128" rx="64" fill="#1A3594"/>
<g clip-path="url(#clip4_0_310)">
<path d="M157.44 68.7707C158.234 68.6579 158.883 68.0823 159.091 67.3082L159.874 64.3848C160.083 63.6049 159.803 62.7759 159.163 62.283L155.058 59.1198C154.634 58.7929 154.375 58.2997 154.31 57.768C154.247 57.2385 154.366 56.6988 154.686 56.2722L157.805 52.116C158.286 51.4751 158.338 50.6091 157.937 49.9153L156.423 47.2939C156.019 46.5948 155.235 46.2071 154.434 46.3108L149.364 46.9676C148.816 47.0387 148.269 46.8686 147.828 46.5341C147.398 46.2071 147.096 45.7319 147.02 45.1967L146.291 40.0822C146.178 39.289 145.602 38.6398 144.829 38.4325L141.904 37.6487C141.124 37.4399 140.296 37.7198 139.803 38.3585L136.706 42.3699C136.361 42.8169 135.833 43.0914 135.272 43.1584C134.718 43.2246 134.146 43.0984 133.7 42.7633L129.637 39.7139C128.996 39.233 128.13 39.1808 127.436 39.5814L124.815 41.0947C124.116 41.4983 123.728 42.2825 123.832 43.083L124.473 48.048C124.546 48.6135 124.369 49.1794 124.026 49.6348C124.016 49.6488 124.005 49.6629 123.995 49.677C123.661 50.1235 123.172 50.4333 122.62 50.5124L117.601 51.2313C116.808 51.3448 116.16 51.9201 115.953 52.6935L115.169 55.6182C114.96 56.3982 115.241 57.2272 115.88 57.7201L119.86 60.7869C120.306 61.1308 120.58 61.6479 120.649 62.2072C120.652 62.2261 120.654 62.245 120.656 62.264C120.727 62.822 120.601 63.3927 120.264 63.8427L117.233 67.8864C116.752 68.5271 116.701 69.3925 117.101 70.086L118.614 72.7074C119.018 73.4066 119.803 73.7946 120.603 73.6908L125.597 73.0438C126.157 72.9713 126.718 73.145 127.173 73.4791C127.629 73.8138 127.949 74.3095 128.029 74.869L128.752 79.9217C128.865 80.7145 129.44 81.3632 130.214 81.5704L133.138 82.3539C133.918 82.563 134.747 82.2822 135.24 81.6422L138.372 77.574C138.704 77.1437 139.203 76.8754 139.742 76.807C140.285 76.7378 140.838 76.8631 141.277 77.1918L145.407 80.2852C146.047 80.7651 146.912 80.8168 147.606 80.4165L150.227 78.9032C150.926 78.4993 151.314 77.7141 151.21 76.913L150.544 71.7973C150.475 71.2663 150.637 70.7329 150.955 70.3026C151.272 69.8752 151.738 69.5816 152.264 69.5067L157.44 68.7707ZM135.273 68.2218C130.729 67.0043 128.03 62.3284 129.247 57.7845C130.465 53.2406 135.141 50.541 139.685 51.7585C144.228 52.9761 146.928 57.652 145.711 62.1958C144.493 66.7397 139.817 69.4393 135.273 68.2218Z" fill="#E6ECF8"/>
<path d="M157.44 68.7707C158.234 68.6579 158.883 68.0823 159.091 67.3082L159.874 64.3848C160.083 63.6049 159.803 62.7759 159.163 62.283L155.058 59.1198C154.634 58.7929 154.375 58.2997 154.31 57.768C154.247 57.2385 154.366 56.6988 154.686 56.2722L157.805 52.116C158.286 51.4751 158.338 50.6091 157.937 49.9153L156.423 47.2939C156.019 46.5948 155.235 46.2071 154.434 46.3108L149.364 46.9676C148.816 47.0387 148.269 46.8686 147.828 46.5341C147.398 46.2071 147.096 45.7319 147.02 45.1967L146.291 40.0822C146.178 39.289 145.602 38.6398 144.829 38.4325L141.904 37.6487C141.124 37.4399 140.296 37.7198 139.803 38.3585L136.706 42.3699C136.361 42.8169 135.833 43.0914 135.272 43.1584C134.718 43.2246 134.146 43.0984 133.7 42.7633L129.637 39.7139C128.996 39.233 128.13 39.1808 127.436 39.5814L124.815 41.0947C124.116 41.4983 123.728 42.2825 123.832 43.083L124.473 48.048C124.546 48.6135 124.369 49.1794 124.026 49.6348C124.016 49.6488 124.005 49.6629 123.995 49.677C123.661 50.1235 123.172 50.4333 122.62 50.5124L117.601 51.2313C116.808 51.3448 116.16 51.9201 115.953 52.6935L115.169 55.6182C114.96 56.3982 115.241 57.2272 115.88 57.7201L119.86 60.7869C120.306 61.1308 120.58 61.6479 120.649 62.2072C120.652 62.2261 120.654 62.245 120.656 62.264C120.727 62.822 120.601 63.3927 120.264 63.8427L117.233 67.8864C116.752 68.5271 116.701 69.3925 117.101 70.086L118.614 72.7074C119.018 73.4066 119.803 73.7946 120.603 73.6908L125.597 73.0438C126.157 72.9713 126.718 73.145 127.173 73.4791C127.629 73.8138 127.949 74.3095 128.029 74.869L128.752 79.9217C128.865 80.7145 129.44 81.3632 130.214 81.5704L133.138 82.3539C133.918 82.563 134.747 82.2822 135.24 81.6422L138.372 77.574C138.704 77.1437 139.203 76.8754 139.742 76.807C140.285 76.7378 140.838 76.8631 141.277 77.1918L145.407 80.2852C146.047 80.7651 146.912 80.8168 147.606 80.4165L150.227 78.9032C150.926 78.4993 151.314 77.7141 151.21 76.913L150.544 71.7973C150.475 71.2663 150.637 70.7329 150.955 70.3026C151.272 69.8752 151.738 69.5816 152.264 69.5067L157.44 68.7707ZM135.273 68.2218C130.729 67.0043 128.03 62.3284 129.247 57.7845C130.465 53.2406 135.141 50.541 139.685 51.7585C144.228 52.9761 146.928 57.652 145.711 62.1958C144.493 66.7397 139.817 69.4393 135.273 68.2218Z" fill="url(#paint22_linear_0_310)"/>
<path d="M157.44 68.7707C158.234 68.6579 158.883 68.0823 159.091 67.3082L159.874 64.3848C160.083 63.6049 159.803 62.7759 159.163 62.283L155.058 59.1198C154.634 58.7929 154.375 58.2997 154.31 57.768C154.247 57.2385 154.366 56.6988 154.686 56.2722L157.805 52.116C158.286 51.4751 158.338 50.6091 157.937 49.9153L156.423 47.2939C156.019 46.5948 155.235 46.2071 154.434 46.3108L149.364 46.9676C148.816 47.0387 148.269 46.8686 147.828 46.5341C147.398 46.2071 147.096 45.7319 147.02 45.1967L146.291 40.0822C146.178 39.289 145.602 38.6398 144.829 38.4325L141.904 37.6487C141.124 37.4399 140.296 37.7198 139.803 38.3585L136.706 42.3699C136.361 42.8169 135.833 43.0914 135.272 43.1584C134.718 43.2246 134.146 43.0984 133.7 42.7633L129.637 39.7139C128.996 39.233 128.13 39.1808 127.436 39.5814L124.815 41.0947C124.116 41.4983 123.728 42.2825 123.832 43.083L124.473 48.048C124.546 48.6135 124.369 49.1794 124.026 49.6348C124.016 49.6488 124.005 49.6629 123.995 49.677C123.661 50.1235 123.172 50.4333 122.62 50.5124L117.601 51.2313C116.808 51.3448 116.16 51.9201 115.953 52.6935L115.169 55.6182C114.96 56.3982 115.241 57.2272 115.88 57.7201L119.86 60.7869C120.306 61.1308 120.58 61.6479 120.649 62.2072C120.652 62.2261 120.654 62.245 120.656 62.264C120.727 62.822 120.601 63.3927 120.264 63.8427L117.233 67.8864C116.752 68.5271 116.701 69.3925 117.101 70.086L118.614 72.7074C119.018 73.4066 119.803 73.7946 120.603 73.6908L125.597 73.0438C126.157 72.9713 126.718 73.145 127.173 73.4791C127.629 73.8138 127.949 74.3095 128.029 74.869L128.752 79.9217C128.865 80.7145 129.44 81.3632 130.214 81.5704L133.138 82.3539C133.918 82.563 134.747 82.2822 135.24 81.6422L138.372 77.574C138.704 77.1437 139.203 76.8754 139.742 76.807C140.285 76.7378 140.838 76.8631 141.277 77.1918L145.407 80.2852C146.047 80.7651 146.912 80.8168 147.606 80.4165L150.227 78.9032C150.926 78.4993 151.314 77.7141 151.21 76.913L150.544 71.7973C150.475 71.2663 150.637 70.7329 150.955 70.3026C151.272 69.8752 151.738 69.5816 152.264 69.5067L157.44 68.7707ZM135.273 68.2218C130.729 67.0043 128.03 62.3284 129.247 57.7845C130.465 53.2406 135.141 50.541 139.685 51.7585C144.228 52.9761 146.928 57.652 145.711 62.1958C144.493 66.7397 139.817 69.4393 135.273 68.2218Z" fill="url(#paint23_radial_0_310)"/>
</g>
<g clip-path="url(#clip5_0_310)">
<path d="M217.987 60.6995C218.724 60.3852 219.202 59.6612 219.202 58.8598V55.8333C219.202 55.0259 218.717 54.2976 217.972 53.9871L213.188 51.994C212.694 51.7881 212.315 51.3788 212.116 50.8819C211.917 50.3869 211.893 49.8347 212.092 49.3397L214.029 44.518C214.327 43.7745 214.153 42.9245 213.587 42.3581L211.446 40.2178C210.875 39.6471 210.017 39.4756 209.27 39.783L204.543 41.7297C204.032 41.9402 203.459 41.9176 202.947 41.7085C202.446 41.504 202.032 41.1231 201.82 40.6259L199.792 35.8743C199.478 35.1374 198.754 34.6593 197.953 34.6593H194.925C194.118 34.6593 193.39 35.144 193.079 35.8885L191.126 40.5648C190.908 41.0859 190.47 41.4877 189.945 41.6975C189.427 41.9049 188.842 41.9309 188.324 41.7228L183.61 39.8289C182.867 39.5302 182.017 39.704 181.45 40.2705L179.31 42.4107C178.74 42.9814 178.568 43.8393 178.875 44.5858L180.779 49.2156C180.996 49.7428 180.972 50.3353 180.758 50.8639C180.752 50.8802 180.745 50.8966 180.739 50.9129C180.532 51.4306 180.14 51.8563 179.627 52.0755L174.965 54.069C174.229 54.3838 173.752 55.1073 173.752 55.9079V58.9359C173.752 59.7433 174.237 60.4716 174.983 60.7821L179.62 62.7143C180.141 62.931 180.539 63.3596 180.751 63.8819C180.758 63.8996 180.765 63.9173 180.772 63.9349C180.985 64.4556 181.011 65.0394 180.802 65.5615L178.92 70.2519C178.622 70.9951 178.796 71.8444 179.362 72.4106L181.503 74.551C182.074 75.122 182.932 75.2936 183.679 74.9861L188.335 73.0687C188.856 72.8538 189.444 72.8762 189.97 73.0813C190.496 73.2867 190.934 73.6826 191.156 74.2024L193.162 78.8959C193.476 79.6323 194.2 80.1099 195.001 80.1099H198.028C198.835 80.1099 199.564 79.6241 199.874 78.8784L201.847 74.1381C202.056 73.6367 202.468 73.2484 202.971 73.0428C203.478 72.8353 204.044 72.8133 204.553 73.0172L209.343 74.9363C210.086 75.234 210.935 75.06 211.501 74.494L213.641 72.3539C214.213 71.7826 214.384 70.9238 214.076 70.177L212.109 65.4079C211.905 64.913 211.923 64.3559 212.119 63.8578C212.314 63.363 212.688 62.9587 213.178 62.7501L217.987 60.6995ZM196.433 65.9066C191.729 65.9066 187.911 62.0888 187.911 57.3846C187.911 52.6805 191.729 48.8626 196.433 48.8626C201.137 48.8626 204.955 52.6805 204.955 57.3846C204.955 62.0888 201.137 65.9066 196.433 65.9066Z" fill="#E6ECF8"/>
<path d="M217.987 60.6995C218.724 60.3852 219.202 59.6612 219.202 58.8598V55.8333C219.202 55.0259 218.717 54.2976 217.972 53.9871L213.188 51.994C212.694 51.7881 212.315 51.3788 212.116 50.8819C211.917 50.3869 211.893 49.8347 212.092 49.3397L214.029 44.518C214.327 43.7745 214.153 42.9245 213.587 42.3581L211.446 40.2178C210.875 39.6471 210.017 39.4756 209.27 39.783L204.543 41.7297C204.032 41.9402 203.459 41.9176 202.947 41.7085C202.446 41.504 202.032 41.1231 201.82 40.6259L199.792 35.8743C199.478 35.1374 198.754 34.6593 197.953 34.6593H194.925C194.118 34.6593 193.39 35.144 193.079 35.8885L191.126 40.5648C190.908 41.0859 190.47 41.4877 189.945 41.6975C189.427 41.9049 188.842 41.9309 188.324 41.7228L183.61 39.8289C182.867 39.5302 182.017 39.704 181.45 40.2705L179.31 42.4107C178.74 42.9814 178.568 43.8393 178.875 44.5858L180.779 49.2156C180.996 49.7428 180.972 50.3353 180.758 50.8639C180.752 50.8802 180.745 50.8966 180.739 50.9129C180.532 51.4306 180.14 51.8563 179.627 52.0755L174.965 54.069C174.229 54.3838 173.752 55.1073 173.752 55.9079V58.9359C173.752 59.7433 174.237 60.4716 174.983 60.7821L179.62 62.7143C180.141 62.931 180.539 63.3596 180.751 63.8819C180.758 63.8996 180.765 63.9173 180.772 63.9349C180.985 64.4556 181.011 65.0394 180.802 65.5615L178.92 70.2519C178.622 70.9951 178.796 71.8444 179.362 72.4106L181.503 74.551C182.074 75.122 182.932 75.2936 183.679 74.9861L188.335 73.0687C188.856 72.8538 189.444 72.8762 189.97 73.0813C190.496 73.2867 190.934 73.6826 191.156 74.2024L193.162 78.8959C193.476 79.6323 194.2 80.1099 195.001 80.1099H198.028C198.835 80.1099 199.564 79.6241 199.874 78.8784L201.847 74.1381C202.056 73.6367 202.468 73.2484 202.971 73.0428C203.478 72.8353 204.044 72.8133 204.553 73.0172L209.343 74.9363C210.086 75.234 210.935 75.06 211.501 74.494L213.641 72.3539C214.213 71.7826 214.384 70.9238 214.076 70.177L212.109 65.4079C211.905 64.913 211.923 64.3559 212.119 63.8578C212.314 63.363 212.688 62.9587 213.178 62.7501L217.987 60.6995ZM196.433 65.9066C191.729 65.9066 187.911 62.0888 187.911 57.3846C187.911 52.6805 191.729 48.8626 196.433 48.8626C201.137 48.8626 204.955 52.6805 204.955 57.3846C204.955 62.0888 201.137 65.9066 196.433 65.9066Z" fill="url(#paint24_linear_0_310)"/>
<path d="M217.987 60.6995C218.724 60.3852 219.202 59.6612 219.202 58.8598V55.8333C219.202 55.0259 218.717 54.2976 217.972 53.9871L213.188 51.994C212.694 51.7881 212.315 51.3788 212.116 50.8819C211.917 50.3869 211.893 49.8347 212.092 49.3397L214.029 44.518C214.327 43.7745 214.153 42.9245 213.587 42.3581L211.446 40.2178C210.875 39.6471 210.017 39.4756 209.27 39.783L204.543 41.7297C204.032 41.9402 203.459 41.9176 202.947 41.7085C202.446 41.504 202.032 41.1231 201.82 40.6259L199.792 35.8743C199.478 35.1374 198.754 34.6593 197.953 34.6593H194.925C194.118 34.6593 193.39 35.144 193.079 35.8885L191.126 40.5648C190.908 41.0859 190.47 41.4877 189.945 41.6975C189.427 41.9049 188.842 41.9309 188.324 41.7228L183.61 39.8289C182.867 39.5302 182.017 39.704 181.45 40.2705L179.31 42.4107C178.74 42.9814 178.568 43.8393 178.875 44.5858L180.779 49.2156C180.996 49.7428 180.972 50.3353 180.758 50.8639C180.752 50.8802 180.745 50.8966 180.739 50.9129C180.532 51.4306 180.14 51.8563 179.627 52.0755L174.965 54.069C174.229 54.3838 173.752 55.1073 173.752 55.9079V58.9359C173.752 59.7433 174.237 60.4716 174.983 60.7821L179.62 62.7143C180.141 62.931 180.539 63.3596 180.751 63.8819C180.758 63.8996 180.765 63.9173 180.772 63.9349C180.985 64.4556 181.011 65.0394 180.802 65.5615L178.92 70.2519C178.622 70.9951 178.796 71.8444 179.362 72.4106L181.503 74.551C182.074 75.122 182.932 75.2936 183.679 74.9861L188.335 73.0687C188.856 72.8538 189.444 72.8762 189.97 73.0813C190.496 73.2867 190.934 73.6826 191.156 74.2024L193.162 78.8959C193.476 79.6323 194.2 80.1099 195.001 80.1099H198.028C198.835 80.1099 199.564 79.6241 199.874 78.8784L201.847 74.1381C202.056 73.6367 202.468 73.2484 202.971 73.0428C203.478 72.8353 204.044 72.8133 204.553 73.0172L209.343 74.9363C210.086 75.234 210.935 75.06 211.501 74.494L213.641 72.3539C214.213 71.7826 214.384 70.9238 214.076 70.177L212.109 65.4079C211.905 64.913 211.923 64.3559 212.119 63.8578C212.314 63.363 212.688 62.9587 213.178 62.7501L217.987 60.6995ZM196.433 65.9066C191.729 65.9066 187.911 62.0888 187.911 57.3846C187.911 52.6805 191.729 48.8626 196.433 48.8626C201.137 48.8626 204.955 52.6805 204.955 57.3846C204.955 62.0888 201.137 65.9066 196.433 65.9066Z" fill="url(#paint25_radial_0_310)"/>
</g>
<path fill-rule="evenodd" clip-rule="evenodd" d="M177.452 78.2766C176.308 79.0486 176.006 80.6025 176.778 81.7472L180.276 86.935C178.922 88.6085 178.761 91.0355 180.039 92.9032L196.981 117.661C198.541 119.94 201.652 120.523 203.931 118.964L205.582 117.835C207.861 116.275 208.444 113.163 206.884 110.885L189.942 86.1263C188.692 84.2988 186.443 83.5618 184.426 84.1457L180.923 78.9514C180.151 77.8067 178.597 77.5046 177.452 78.2766Z" fill="url(#paint26_linear_0_310)"/>
<path fill-rule="evenodd" clip-rule="evenodd" d="M177.452 78.2766C176.308 79.0486 176.006 80.6025 176.778 81.7472L180.276 86.935C178.922 88.6085 178.761 91.0355 180.039 92.9032L196.981 117.661C198.541 119.94 201.652 120.523 203.931 118.964L205.582 117.835C207.861 116.275 208.444 113.163 206.884 110.885L189.942 86.1263C188.692 84.2988 186.443 83.5618 184.426 84.1457L180.923 78.9514C180.151 77.8067 178.597 77.5046 177.452 78.2766Z" fill="url(#paint27_linear_0_310)" fill-opacity="0.4"/>
<g filter="url(#filter3_f_0_310)">
<path fill-rule="evenodd" clip-rule="evenodd" d="M181.986 80.5617C180.721 81.6355 179.365 82.6049 177.93 83.4564L176.772 81.7393C176.003 80.5989 176.304 79.0511 177.444 78.282C178.585 77.5129 180.133 77.8139 180.902 78.9542L181.986 80.5617Z" fill="#4C64CA"/>
</g>
<circle cx="161.922" cy="55.8281" r="26.7723" fill="url(#paint28_linear_0_310)" fill-opacity="0.5"/>
<circle cx="161.922" cy="55.8281" r="26.7723" stroke="url(#paint29_linear_0_310)" stroke-width="6.22612"/>
<g opacity="0.5" filter="url(#filter4_f_0_310)">
<circle cx="161.922" cy="55.8281" r="28.0175" stroke="url(#paint30_linear_0_310)" stroke-width="3.11306"/>
</g>
<g filter="url(#filter5_f_0_310)">
<path fill-rule="evenodd" clip-rule="evenodd" d="M184.213 64.4617L155.612 33.0719C149.086 34.9012 143.697 39.4483 140.741 45.4152L170.544 78.1236C176.813 75.7175 181.804 70.7297 184.213 64.4617Z" fill="url(#paint31_linear_0_310)" fill-opacity="0.4"/>
</g>
<circle cx="176.5" cy="114.5" r="2.5" fill="url(#paint32_linear_0_310)"/>
<circle cx="176.5" cy="114.5" r="2.5" fill="url(#paint33_radial_0_310)" fill-opacity="0.4"/>
<circle cx="206.5" cy="15.5" r="6.5" fill="url(#paint34_linear_0_310)"/>
<circle cx="206.5" cy="15.5" r="6.5" fill="url(#paint35_radial_0_310)" fill-opacity="0.7"/>
<circle cx="148" cy="99" r="4" fill="url(#paint36_linear_0_310)"/>
<circle cx="148" cy="99" r="4" fill="url(#paint37_radial_0_310)" fill-opacity="0.7"/>
<circle cx="206.637" cy="86.8456" r="3" fill="url(#paint38_linear_0_310)"/>
<circle cx="206.637" cy="86.8456" r="3" fill="url(#paint39_radial_0_310)" fill-opacity="0.4"/>
<circle cx="155" cy="13" r="3" fill="url(#paint40_linear_0_310)"/>
<circle cx="155" cy="13" r="3" fill="url(#paint41_radial_0_310)" fill-opacity="0.4"/>
<circle cx="117" cy="109" r="8" fill="url(#paint42_linear_0_310)"/>
<circle cx="117" cy="109" r="8" fill="url(#paint43_radial_0_310)" fill-opacity="0.4"/>
</g>
<g clip-path="url(#clip6_0_310)">
<rect width="192" height="192" transform="translate(257)" fill="white"/>
<rect x="257" width="192" height="192" rx="96" fill="#1A3594"/>
<g clip-path="url(#clip7_0_310)">
<path d="M341.287 101.861C342.873 101.635 344.172 100.484 344.587 98.936L345.575 95.2506C345.993 93.6908 345.432 92.0327 344.153 91.047L337.976 86.287C337.295 85.762 336.878 84.9697 336.775 84.1159C336.672 83.2654 336.864 82.3986 337.379 81.7133L342.075 75.4541C343.037 74.1724 343.141 72.4403 342.34 71.0527L340.431 67.7476C339.623 66.3495 338.054 65.574 336.453 65.7814L328.83 66.7689C327.95 66.8831 327.071 66.6098 326.363 66.0726C325.672 65.5473 325.187 64.7842 325.065 63.9245L323.968 56.2251C323.742 54.6387 322.591 53.3404 321.043 52.9256L317.354 51.9373C315.796 51.5197 314.139 52.0794 313.153 53.3568L308.507 59.3745C307.948 60.0988 307.105 60.5423 306.197 60.6508C305.299 60.7581 304.385 60.5517 303.662 60.0088L297.562 55.4307C296.28 54.4689 294.548 54.3646 293.161 55.1658L289.856 57.0738C288.458 57.8809 287.682 59.4494 287.889 61.0504L288.846 68.4617C288.967 69.3969 288.676 70.3314 288.109 71.0855C287.556 71.8231 286.747 72.3374 285.834 72.4682L278.329 73.5432C276.744 73.7703 275.447 74.9208 275.032 76.4676L274.044 80.1557C273.626 81.7156 274.187 83.3737 275.466 84.3594L281.406 88.9364C282.146 89.5067 282.6 90.3655 282.716 91.2927C282.832 92.2181 282.623 93.1631 282.064 93.9094L277.535 99.9513C276.574 101.233 276.47 102.964 277.271 104.35L279.179 107.656C279.987 109.054 281.556 109.83 283.158 109.623L290.653 108.651C291.554 108.535 292.456 108.812 293.189 109.35C293.922 109.889 294.435 110.685 294.564 111.587L295.65 119.183C295.877 120.768 297.027 122.066 298.574 122.48L302.261 123.468C303.821 123.886 305.48 123.325 306.465 122.045L311.176 115.927C311.708 115.236 312.51 114.805 313.375 114.695C314.249 114.584 315.136 114.785 315.841 115.313L322.058 119.97C323.339 120.93 325.069 121.033 326.456 120.233L329.761 118.325C331.16 117.517 331.936 115.946 331.727 114.344L330.725 106.649C330.614 105.796 330.874 104.939 331.386 104.248C331.894 103.562 332.643 103.09 333.488 102.97L341.287 101.861ZM306.199 100.906C298.9 98.9505 294.564 91.4404 296.52 84.1423C298.475 76.8442 305.986 72.5083 313.284 74.4638C320.582 76.4193 324.918 83.9294 322.962 91.2275C321.007 98.5255 313.497 102.862 306.199 100.906Z" fill="#E6ECF8"/>
<path d="M341.287 101.861C342.873 101.635 344.172 100.484 344.587 98.936L345.575 95.2506C345.993 93.6908 345.432 92.0327 344.153 91.047L337.976 86.287C337.295 85.762 336.878 84.9697 336.775 84.1159C336.672 83.2654 336.864 82.3986 337.379 81.7133L342.075 75.4541C343.037 74.1724 343.141 72.4403 342.34 71.0527L340.431 67.7476C339.623 66.3495 338.054 65.574 336.453 65.7814L328.83 66.7689C327.95 66.8831 327.071 66.6098 326.363 66.0726C325.672 65.5473 325.187 64.7842 325.065 63.9245L323.968 56.2251C323.742 54.6387 322.591 53.3404 321.043 52.9256L317.354 51.9373C315.796 51.5197 314.139 52.0794 313.153 53.3568L308.507 59.3745C307.948 60.0988 307.105 60.5423 306.197 60.6508C305.299 60.7581 304.385 60.5517 303.662 60.0088L297.562 55.4307C296.28 54.4689 294.548 54.3646 293.161 55.1658L289.856 57.0738C288.458 57.8809 287.682 59.4494 287.889 61.0504L288.846 68.4617C288.967 69.3969 288.676 70.3314 288.109 71.0855C287.556 71.8231 286.747 72.3374 285.834 72.4682L278.329 73.5432C276.744 73.7703 275.447 74.9208 275.032 76.4676L274.044 80.1557C273.626 81.7156 274.187 83.3737 275.466 84.3594L281.406 88.9364C282.146 89.5067 282.6 90.3655 282.716 91.2927C282.832 92.2181 282.623 93.1631 282.064 93.9094L277.535 99.9513C276.574 101.233 276.47 102.964 277.271 104.35L279.179 107.656C279.987 109.054 281.556 109.83 283.158 109.623L290.653 108.651C291.554 108.535 292.456 108.812 293.189 109.35C293.922 109.889 294.435 110.685 294.564 111.587L295.65 119.183C295.877 120.768 297.027 122.066 298.574 122.48L302.261 123.468C303.821 123.886 305.48 123.325 306.465 122.045L311.176 115.927C311.708 115.236 312.51 114.805 313.375 114.695C314.249 114.584 315.136 114.785 315.841 115.313L322.058 119.97C323.339 120.93 325.069 121.033 326.456 120.233L329.761 118.325C331.16 117.517 331.936 115.946 331.727 114.344L330.725 106.649C330.614 105.796 330.874 104.939 331.386 104.248C331.894 103.562 332.643 103.09 333.488 102.97L341.287 101.861ZM306.199 100.906C298.9 98.9505 294.564 91.4404 296.52 84.1423C298.475 76.8442 305.986 72.5083 313.284 74.4638C320.582 76.4193 324.918 83.9294 322.962 91.2275C321.007 98.5255 313.497 102.862 306.199 100.906Z" fill="url(#paint44_linear_0_310)"/>
<path d="M341.287 101.861C342.873 101.635 344.172 100.484 344.587 98.936L345.575 95.2506C345.993 93.6908 345.432 92.0327 344.153 91.047L337.976 86.287C337.295 85.762 336.878 84.9697 336.775 84.1159C336.672 83.2654 336.864 82.3986 337.379 81.7133L342.075 75.4541C343.037 74.1724 343.141 72.4403 342.34 71.0527L340.431 67.7476C339.623 66.3495 338.054 65.574 336.453 65.7814L328.83 66.7689C327.95 66.8831 327.071 66.6098 326.363 66.0726C325.672 65.5473 325.187 64.7842 325.065 63.9245L323.968 56.2251C323.742 54.6387 322.591 53.3404 321.043 52.9256L317.354 51.9373C315.796 51.5197 314.139 52.0794 313.153 53.3568L308.507 59.3745C307.948 60.0988 307.105 60.5423 306.197 60.6508C305.299 60.7581 304.385 60.5517 303.662 60.0088L297.562 55.4307C296.28 54.4689 294.548 54.3646 293.161 55.1658L289.856 57.0738C288.458 57.8809 287.682 59.4494 287.889 61.0504L288.846 68.4617C288.967 69.3969 288.676 70.3314 288.109 71.0855C287.556 71.8231 286.747 72.3374 285.834 72.4682L278.329 73.5432C276.744 73.7703 275.447 74.9208 275.032 76.4676L274.044 80.1557C273.626 81.7156 274.187 83.3737 275.466 84.3594L281.406 88.9364C282.146 89.5067 282.6 90.3655 282.716 91.2927C282.832 92.2181 282.623 93.1631 282.064 93.9094L277.535 99.9513C276.574 101.233 276.47 102.964 277.271 104.35L279.179 107.656C279.987 109.054 281.556 109.83 283.158 109.623L290.653 108.651C291.554 108.535 292.456 108.812 293.189 109.35C293.922 109.889 294.435 110.685 294.564 111.587L295.65 119.183C295.877 120.768 297.027 122.066 298.574 122.48L302.261 123.468C303.821 123.886 305.48 123.325 306.465 122.045L311.176 115.927C311.708 115.236 312.51 114.805 313.375 114.695C314.249 114.584 315.136 114.785 315.841 115.313L322.058 119.97C323.339 120.93 325.069 121.033 326.456 120.233L329.761 118.325C331.16 117.517 331.936 115.946 331.727 114.344L330.725 106.649C330.614 105.796 330.874 104.939 331.386 104.248C331.894 103.562 332.643 103.09 333.488 102.97L341.287 101.861ZM306.199 100.906C298.9 98.9505 294.564 91.4404 296.52 84.1423C298.475 76.8442 305.986 72.5083 313.284 74.4638C320.582 76.4193 324.918 83.9294 322.962 91.2275C321.007 98.5255 313.497 102.862 306.199 100.906Z" fill="url(#paint45_radial_0_310)"/>
</g>
<g clip-path="url(#clip8_0_310)">
<path d="M438.569 89.0284C440.043 88.3997 441 86.9517 441 85.3489V81.5335C441 79.9187 440.029 78.4622 438.538 77.8412L431.34 74.842C430.546 74.5112 429.939 73.8538 429.618 73.0558C429.299 72.2608 429.26 71.3738 429.579 70.5788L432.496 63.3173C433.093 61.8303 432.746 60.1303 431.612 58.9974L428.913 56.299C427.771 55.1576 426.055 54.8145 424.562 55.4293L417.455 58.3561C416.634 58.6942 415.714 58.6579 414.891 58.322C414.088 57.9936 413.422 57.3819 413.081 56.5832L410.029 49.43C409.4 47.9562 407.952 47 406.35 47H402.531C400.917 47 399.462 47.9696 398.84 49.4585L395.91 56.4736C395.558 57.3179 394.858 57.9644 394.009 58.3044C393.169 58.6404 392.233 58.6776 391.394 58.3404L384.317 55.4971C382.83 54.8997 381.13 55.2473 379.997 56.3803L377.299 59.0786C376.158 60.2201 375.814 61.9359 376.428 63.4288L379.271 70.3397C379.63 71.2118 379.59 72.19 379.239 73.0649C378.895 73.9206 378.247 74.6268 377.399 74.9894L370.427 77.9703C368.955 78.5999 368 80.0469 368 81.6482V85.4664C368 87.0813 368.971 88.5378 370.462 89.1588L377.384 92.0425C378.246 92.4019 378.907 93.1139 379.259 93.9794C379.611 94.8433 379.653 95.8102 379.306 96.6758L376.495 103.684C375.899 105.17 376.247 106.869 377.379 108.002L380.078 110.7C381.22 111.842 382.936 112.185 384.429 111.57L391.418 108.692C392.259 108.346 393.201 108.381 394.048 108.711C394.896 109.042 395.597 109.678 395.955 110.516L398.971 117.572C399.6 119.045 401.047 120 402.649 120H406.465C408.081 120 409.538 119.028 410.158 117.537L413.125 110.408C413.46 109.603 414.123 108.979 414.93 108.649C415.745 108.316 416.654 108.281 417.472 108.608L424.682 111.497C426.168 112.093 427.866 111.745 428.998 110.612L431.697 107.914C432.839 106.772 433.182 105.054 432.566 103.56L429.607 96.3865C429.279 95.5916 429.308 94.6968 429.623 93.8968C429.936 93.1021 430.538 92.4528 431.323 92.1178L438.569 89.0284ZM404.429 97.1875C396.874 97.1875 390.742 91.0555 390.742 83.5C390.742 75.9445 396.874 69.8125 404.429 69.8125C411.985 69.8125 418.117 75.9445 418.117 83.5C418.117 91.0555 411.985 97.1875 404.429 97.1875Z" fill="#E6ECF8"/>
<path d="M438.569 89.0284C440.043 88.3997 441 86.9517 441 85.3489V81.5335C441 79.9187 440.029 78.4622 438.538 77.8412L431.34 74.842C430.546 74.5112 429.939 73.8538 429.618 73.0558C429.299 72.2608 429.26 71.3738 429.579 70.5788L432.496 63.3173C433.093 61.8303 432.746 60.1303 431.612 58.9974L428.913 56.299C427.771 55.1576 426.055 54.8145 424.562 55.4293L417.455 58.3561C416.634 58.6942 415.714 58.6579 414.891 58.322C414.088 57.9936 413.422 57.3819 413.081 56.5832L410.029 49.43C409.4 47.9562 407.952 47 406.35 47H402.531C400.917 47 399.462 47.9696 398.84 49.4585L395.91 56.4736C395.558 57.3179 394.858 57.9644 394.009 58.3044C393.169 58.6404 392.233 58.6776 391.394 58.3404L384.317 55.4971C382.83 54.8997 381.13 55.2473 379.997 56.3803L377.299 59.0786C376.158 60.2201 375.814 61.9359 376.428 63.4288L379.271 70.3397C379.63 71.2118 379.59 72.19 379.239 73.0649C378.895 73.9206 378.247 74.6268 377.399 74.9894L370.427 77.9703C368.955 78.5999 368 80.0469 368 81.6482V85.4664C368 87.0813 368.971 88.5378 370.462 89.1588L377.384 92.0425C378.246 92.4019 378.907 93.1139 379.259 93.9794C379.611 94.8433 379.653 95.8102 379.306 96.6758L376.495 103.684C375.899 105.17 376.247 106.869 377.379 108.002L380.078 110.7C381.22 111.842 382.936 112.185 384.429 111.57L391.418 108.692C392.259 108.346 393.201 108.381 394.048 108.711C394.896 109.042 395.597 109.678 395.955 110.516L398.971 117.572C399.6 119.045 401.047 120 402.649 120H406.465C408.081 120 409.538 119.028 410.158 117.537L413.125 110.408C413.46 109.603 414.123 108.979 414.93 108.649C415.745 108.316 416.654 108.281 417.472 108.608L424.682 111.497C426.168 112.093 427.866 111.745 428.998 110.612L431.697 107.914C432.839 106.772 433.182 105.054 432.566 103.56L429.607 96.3865C429.279 95.5916 429.308 94.6968 429.623 93.8968C429.936 93.1021 430.538 92.4528 431.323 92.1178L438.569 89.0284ZM404.429 97.1875C396.874 97.1875 390.742 91.0555 390.742 83.5C390.742 75.9445 396.874 69.8125 404.429 69.8125C411.985 69.8125 418.117 75.9445 418.117 83.5C418.117 91.0555 411.985 97.1875 404.429 97.1875Z" fill="url(#paint46_linear_0_310)"/>
<path d="M438.569 89.0284C440.043 88.3997 441 86.9517 441 85.3489V81.5335C441 79.9187 440.029 78.4622 438.538 77.8412L431.34 74.842C430.546 74.5112 429.939 73.8538 429.618 73.0558C429.299 72.2608 429.26 71.3738 429.579 70.5788L432.496 63.3173C433.093 61.8303 432.746 60.1303 431.612 58.9974L428.913 56.299C427.771 55.1576 426.055 54.8145 424.562 55.4293L417.455 58.3561C416.634 58.6942 415.714 58.6579 414.891 58.322C414.088 57.9936 413.422 57.3819 413.081 56.5832L410.029 49.43C409.4 47.9562 407.952 47 406.35 47H402.531C400.917 47 399.462 47.9696 398.84 49.4585L395.91 56.4736C395.558 57.3179 394.858 57.9644 394.009 58.3044C393.169 58.6404 392.233 58.6776 391.394 58.3404L384.317 55.4971C382.83 54.8997 381.13 55.2473 379.997 56.3803L377.299 59.0786C376.158 60.2201 375.814 61.9359 376.428 63.4288L379.271 70.3397C379.63 71.2118 379.59 72.19 379.239 73.0649C378.895 73.9206 378.247 74.6268 377.399 74.9894L370.427 77.9703C368.955 78.5999 368 80.0469 368 81.6482V85.4664C368 87.0813 368.971 88.5378 370.462 89.1588L377.384 92.0425C378.246 92.4019 378.907 93.1139 379.259 93.9794C379.611 94.8433 379.653 95.8102 379.306 96.6758L376.495 103.684C375.899 105.17 376.247 106.869 377.379 108.002L380.078 110.7C381.22 111.842 382.936 112.185 384.429 111.57L391.418 108.692C392.259 108.346 393.201 108.381 394.048 108.711C394.896 109.042 395.597 109.678 395.955 110.516L398.971 117.572C399.6 119.045 401.047 120 402.649 120H406.465C408.081 120 409.538 119.028 410.158 117.537L413.125 110.408C413.46 109.603 414.123 108.979 414.93 108.649C415.745 108.316 416.654 108.281 417.472 108.608L424.682 111.497C426.168 112.093 427.866 111.745 428.998 110.612L431.697 107.914C432.839 106.772 433.182 105.054 432.566 103.56L429.607 96.3865C429.279 95.5916 429.308 94.6968 429.623 93.8968C429.936 93.1021 430.538 92.4528 431.323 92.1178L438.569 89.0284ZM404.429 97.1875C396.874 97.1875 390.742 91.0555 390.742 83.5C390.742 75.9445 396.874 69.8125 404.429 69.8125C411.985 69.8125 418.117 75.9445 418.117 83.5C418.117 91.0555 411.985 97.1875 404.429 97.1875Z" fill="url(#paint47_radial_0_310)"/>
</g>
<path fill-rule="evenodd" clip-rule="evenodd" d="M373.931 117.064C372.1 118.299 371.616 120.785 372.851 122.617L378.575 131.103C376.304 133.784 376.001 137.75 378.081 140.79L405.189 180.404C407.684 184.05 412.662 184.983 416.309 182.488L419.61 180.229C423.256 177.734 424.189 172.755 421.694 169.109L394.587 129.496C392.457 126.383 388.518 125.248 385.142 126.534L379.484 118.144C378.249 116.312 375.763 115.829 373.931 117.064Z" fill="url(#paint48_linear_0_310)"/>
<path fill-rule="evenodd" clip-rule="evenodd" d="M373.931 117.064C372.1 118.299 371.616 120.785 372.851 122.617L378.575 131.103C376.304 133.784 376.001 137.75 378.081 140.79L405.189 180.404C407.684 184.05 412.662 184.983 416.309 182.488L419.61 180.229C423.256 177.734 424.189 172.755 421.694 169.109L394.587 129.496C392.457 126.383 388.518 125.248 385.142 126.534L379.484 118.144C378.249 116.312 375.763 115.829 373.931 117.064Z" fill="url(#paint49_linear_0_310)" fill-opacity="0.4"/>
<g filter="url(#filter6_f_0_310)">
<path fill-rule="evenodd" clip-rule="evenodd" d="M381.225 120.726C379.194 122.45 377.015 124.007 374.712 125.375L372.851 122.617C371.616 120.785 372.1 118.299 373.931 117.064C375.763 115.829 378.249 116.312 379.484 118.144L381.225 120.726Z" fill="#4C64CA"/>
</g>
<circle cx="349" cy="81" r="43" fill="url(#paint50_linear_0_310)" fill-opacity="0.5"/>
<circle cx="349" cy="81" r="43" stroke="url(#paint51_linear_0_310)" stroke-width="10"/>
<g opacity="0.5" filter="url(#filter7_f_0_310)">
<circle cx="349" cy="81" r="45" stroke="url(#paint52_linear_0_310)" stroke-width="5"/>
</g>
<g filter="url(#filter8_f_0_310)">
<path fill-rule="evenodd" clip-rule="evenodd" d="M384.513 94.5494L338.804 44.3834C328.311 47.2988 319.645 54.6035 314.908 64.1955L362.571 116.505C372.648 112.651 380.665 104.63 384.513 94.5494Z" fill="url(#paint53_linear_0_310)" fill-opacity="0.4"/>
</g>
<circle cx="372.5" cy="169.5" r="4.5" fill="url(#paint54_linear_0_310)"/>
<circle cx="372.5" cy="169.5" r="4.5" fill="url(#paint55_radial_0_310)" fill-opacity="0.4"/>
<circle cx="408.5" cy="16.5" r="10.5" fill="url(#paint56_linear_0_310)"/>
<circle cx="408.5" cy="16.5" r="10.5" fill="url(#paint57_radial_0_310)" fill-opacity="0.7"/>
<circle cx="337.5" cy="153.5" r="6.5" fill="url(#paint58_linear_0_310)"/>
<circle cx="337.5" cy="153.5" r="6.5" fill="url(#paint59_radial_0_310)" fill-opacity="0.7"/>
<circle cx="420.5" cy="130.5" r="4.5" fill="url(#paint60_linear_0_310)"/>
<circle cx="420.5" cy="130.5" r="4.5" fill="url(#paint61_radial_0_310)" fill-opacity="0.4"/>
<circle cx="323.5" cy="21.5" r="4.5" fill="url(#paint62_linear_0_310)"/>
<circle cx="323.5" cy="21.5" r="4.5" fill="url(#paint63_radial_0_310)" fill-opacity="0.4"/>
<circle cx="281" cy="160" r="10" fill="url(#paint64_linear_0_310)"/>
<circle cx="281" cy="160" r="10" fill="url(#paint65_radial_0_310)" fill-opacity="0.4"/>
</g>
<defs>
<filter id="filter0_f_0_310" x="36.6331" y="37.3661" width="7.13829" height="7.11693" filterUnits="userSpaceOnUse" color-interpolation-filters="sRGB">
<feFlood flood-opacity="0" result="BackgroundImageFix"/>
<feBlend mode="normal" in="SourceGraphic" in2="BackgroundImageFix" result="shape"/>
<feGaussianBlur stdDeviation="1.01695" result="effect1_foregroundBlur_0_310"/>
</filter>
<filter id="filter1_f_0_310" x="13.3559" y="9.94921" width="34.9153" height="34.9153" filterUnits="userSpaceOnUse" color-interpolation-filters="sRGB">
<feFlood flood-opacity="0" result="BackgroundImageFix"/>
<feBlend mode="normal" in="SourceGraphic" in2="BackgroundImageFix" result="shape"/>
<feGaussianBlur stdDeviation="0.677966" result="effect1_foregroundBlur_0_310"/>
</filter>
<filter id="filter2_f_0_310" x="18.1561" y="13.6316" width="26.0828" height="27.3913" filterUnits="userSpaceOnUse" color-interpolation-filters="sRGB">
<feFlood flood-opacity="0" result="BackgroundImageFix"/>
<feBlend mode="normal" in="SourceGraphic" in2="BackgroundImageFix" result="shape"/>
<feGaussianBlur stdDeviation="0.677966" result="effect1_foregroundBlur_0_310"/>
</filter>
<filter id="filter3_f_0_310" x="172.611" y="74.1204" width="13.1109" height="13.0717" filterUnits="userSpaceOnUse" color-interpolation-filters="sRGB">
<feFlood flood-opacity="0" result="BackgroundImageFix"/>
<feBlend mode="normal" in="SourceGraphic" in2="BackgroundImageFix" result="shape"/>
<feGaussianBlur stdDeviation="1.86784" result="effect1_foregroundBlur_0_310"/>
</filter>
<filter id="filter4_f_0_310" x="129.858" y="23.7635" width="64.129" height="64.1291" filterUnits="userSpaceOnUse" color-interpolation-filters="sRGB">
<feFlood flood-opacity="0" result="BackgroundImageFix"/>
<feBlend mode="normal" in="SourceGraphic" in2="BackgroundImageFix" result="shape"/>
<feGaussianBlur stdDeviation="1.24522" result="effect1_foregroundBlur_0_310"/>
</filter>
<filter id="filter5_f_0_310" x="138.251" y="30.5814" width="48.4525" height="50.0327" filterUnits="userSpaceOnUse" color-interpolation-filters="sRGB">
<feFlood flood-opacity="0" result="BackgroundImageFix"/>
<feBlend mode="normal" in="SourceGraphic" in2="BackgroundImageFix" result="shape"/>
<feGaussianBlur stdDeviation="1.24522" result="effect1_foregroundBlur_0_310"/>
</filter>
<filter id="filter6_f_0_310" x="366.167" y="110.38" width="21.058" height="20.9949" filterUnits="userSpaceOnUse" color-interpolation-filters="sRGB">
<feFlood flood-opacity="0" result="BackgroundImageFix"/>
<feBlend mode="normal" in="SourceGraphic" in2="BackgroundImageFix" result="shape"/>
<feGaussianBlur stdDeviation="3" result="effect1_foregroundBlur_0_310"/>
</filter>
<filter id="filter7_f_0_310" x="297.5" y="29.5" width="103" height="103" filterUnits="userSpaceOnUse" color-interpolation-filters="sRGB">
<feFlood flood-opacity="0" result="BackgroundImageFix"/>
<feBlend mode="normal" in="SourceGraphic" in2="BackgroundImageFix" result="shape"/>
<feGaussianBlur stdDeviation="2" result="effect1_foregroundBlur_0_310"/>
</filter>
<filter id="filter8_f_0_310" x="310.908" y="40.3834" width="77.6051" height="80.1219" filterUnits="userSpaceOnUse" color-interpolation-filters="sRGB">
<feFlood flood-opacity="0" result="BackgroundImageFix"/>
<feBlend mode="normal" in="SourceGraphic" in2="BackgroundImageFix" result="shape"/>
<feGaussianBlur stdDeviation="2" result="effect1_foregroundBlur_0_310"/>
</filter>
<linearGradient id="paint0_linear_0_310" x1="24.4964" y1="18.7367" x2="15.6988" y2="26.0303" gradientUnits="userSpaceOnUse">
<stop stop-color="white"/>
<stop offset="1" stop-color="white" stop-opacity="0"/>
</linearGradient>
<radialGradient id="paint1_radial_0_310" cx="0" cy="0" r="1" gradientUnits="userSpaceOnUse" gradientTransform="translate(17.321 29.7989) rotate(15) scale(7.28814 6.88264)">
<stop stop-color="white"/>
<stop offset="1" stop-color="white" stop-opacity="0"/>
</radialGradient>
<linearGradient id="paint2_linear_0_310" x1="53.5253" y1="15.8813" x2="46.9152" y2="25.2034" gradientUnits="userSpaceOnUse">
<stop stop-color="white"/>
<stop offset="1" stop-color="white" stop-opacity="0"/>
</linearGradient>
<radialGradient id="paint3_radial_0_310" cx="0" cy="0" r="1" gradientUnits="userSpaceOnUse" gradientTransform="translate(49.4575 28.4237) scale(7.28814 6.88264)">
<stop stop-color="white"/>
<stop offset="1" stop-color="white" stop-opacity="0"/>
</radialGradient>
<linearGradient id="paint4_linear_0_310" x1="40.5078" y1="43.8496" x2="42.5213" y2="41.9413" gradientUnits="userSpaceOnUse">
<stop stop-color="#8193DF"/>
<stop offset="1" stop-color="#B3C1F6"/>
</linearGradient>
<linearGradient id="paint5_linear_0_310" x1="42.6501" y1="41.8637" x2="41.2006" y2="42.8205" gradientUnits="userSpaceOnUse">
<stop stop-color="white"/>
<stop offset="1" stop-color="white" stop-opacity="0"/>
</linearGradient>
<linearGradient id="paint6_linear_0_310" x1="19.2883" y1="37.0678" x2="42.1697" y2="16.2204" gradientUnits="userSpaceOnUse">
<stop stop-color="#8193DF"/>
<stop offset="1" stop-color="#B3C1F6"/>
</linearGradient>
<linearGradient id="paint7_linear_0_310" x1="27.5934" y1="45.2034" x2="38.1019" y2="12.8305" gradientUnits="userSpaceOnUse">
<stop stop-color="#8193DF"/>
<stop offset="1" stop-color="#B3C1F6"/>
</linearGradient>
<linearGradient id="paint8_linear_0_310" x1="44.294" y1="16.9417" x2="38.7954" y2="25.8105" gradientUnits="userSpaceOnUse">
<stop stop-color="white"/>
<stop offset="1" stop-color="white" stop-opacity="0"/>
</linearGradient>
<linearGradient id="paint9_linear_0_310" x1="19.2882" y1="37.0678" x2="42.1696" y2="16.2204" gradientUnits="userSpaceOnUse">
<stop stop-color="white" stop-opacity="0.56"/>
<stop offset="1" stop-color="white" stop-opacity="0.04"/>
</linearGradient>
<linearGradient id="paint10_linear_0_310" x1="53.3172" y1="4.25826" x2="53.7058" y2="10.4061" gradientUnits="userSpaceOnUse">
<stop stop-color="#EA6219"/>
<stop offset="1" stop-color="#FE9100"/>
</linearGradient>
<radialGradient id="paint11_radial_0_310" cx="0" cy="0" r="1" gradientUnits="userSpaceOnUse" gradientTransform="translate(54.9598 5.88) rotate(104.036) scale(4.61788)">
<stop stop-color="white"/>
<stop offset="1" stop-color="white" stop-opacity="0"/>
</radialGradient>
<linearGradient id="paint12_linear_0_310" x1="22.6585" y1="48.6291" x2="22.8528" y2="51.703" gradientUnits="userSpaceOnUse">
<stop stop-color="#EA6219"/>
<stop offset="1" stop-color="#FE9100"/>
</linearGradient>
<radialGradient id="paint13_radial_0_310" cx="0" cy="0" r="1" gradientUnits="userSpaceOnUse" gradientTransform="translate(23.4798 49.44) rotate(104.036) scale(2.30894)">
<stop stop-color="white"/>
<stop offset="1" stop-color="white" stop-opacity="0"/>
</radialGradient>
<linearGradient id="paint14_linear_0_310" x1="53.5627" y1="44.0498" x2="55.933" y2="42.7654" gradientUnits="userSpaceOnUse">
<stop stop-color="#8193DF"/>
<stop offset="1" stop-color="#B3C1F6"/>
</linearGradient>
<radialGradient id="paint15_radial_0_310" cx="0" cy="0" r="1" gradientUnits="userSpaceOnUse" gradientTransform="translate(55.5255 44.161) rotate(-71.5651) scale(1.05409)">
<stop stop-color="white"/>
<stop offset="1" stop-color="white" stop-opacity="0"/>
</radialGradient>
<linearGradient id="paint16_linear_0_310" x1="32.037" y1="57.3888" x2="34.4073" y2="56.1044" gradientUnits="userSpaceOnUse">
<stop stop-color="#8193DF"/>
<stop offset="1" stop-color="#B3C1F6"/>
</linearGradient>
<radialGradient id="paint17_radial_0_310" cx="0" cy="0" r="1" gradientUnits="userSpaceOnUse" gradientTransform="translate(33.9998 57.5) rotate(-71.5651) scale(1.05409)">
<stop stop-color="white"/>
<stop offset="1" stop-color="white" stop-opacity="0"/>
</radialGradient>
<linearGradient id="paint18_linear_0_310" x1="5.11126" y1="55.1665" x2="12.2224" y2="51.3132" gradientUnits="userSpaceOnUse">
<stop stop-color="#8193DF"/>
<stop offset="1" stop-color="#B3C1F6"/>
</linearGradient>
<radialGradient id="paint19_radial_0_310" cx="0" cy="0" r="1" gradientUnits="userSpaceOnUse" gradientTransform="translate(10.9998 55.5) rotate(-71.5651) scale(3.16228)">
<stop stop-color="white"/>
<stop offset="1" stop-color="white" stop-opacity="0"/>
</radialGradient>
<linearGradient id="paint20_linear_0_310" x1="24.0493" y1="5.85178" x2="27.2099" y2="4.13919" gradientUnits="userSpaceOnUse">
<stop stop-color="#8193DF"/>
<stop offset="1" stop-color="#B3C1F6"/>
</linearGradient>
<radialGradient id="paint21_radial_0_310" cx="0" cy="0" r="1" gradientUnits="userSpaceOnUse" gradientTransform="translate(26.6665 6) rotate(-71.5651) scale(1.40546)">
<stop stop-color="white"/>
<stop offset="1" stop-color="white" stop-opacity="0"/>
</radialGradient>
<linearGradient id="paint22_linear_0_310" x1="150.319" y1="39.9037" x2="134.161" y2="53.2998" gradientUnits="userSpaceOnUse">
<stop stop-color="white"/>
<stop offset="1" stop-color="white" stop-opacity="0"/>
</linearGradient>
<radialGradient id="paint23_radial_0_310" cx="0" cy="0" r="1" gradientUnits="userSpaceOnUse" gradientTransform="translate(137.14 60.2217) rotate(15) scale(13.3862 12.6414)">
<stop stop-color="white"/>
<stop offset="1" stop-color="white" stop-opacity="0"/>
</radialGradient>
<linearGradient id="paint24_linear_0_310" x1="203.637" y1="34.6593" x2="191.496" y2="51.7811" gradientUnits="userSpaceOnUse">
<stop stop-color="white"/>
<stop offset="1" stop-color="white" stop-opacity="0"/>
</linearGradient>
<radialGradient id="paint25_radial_0_310" cx="0" cy="0" r="1" gradientUnits="userSpaceOnUse" gradientTransform="translate(196.166 57.6959) scale(13.3862 12.6414)">
<stop stop-color="white"/>
<stop offset="1" stop-color="white" stop-opacity="0"/>
</radialGradient>
<linearGradient id="paint26_linear_0_310" x1="179.673" y1="85.9293" x2="183.325" y2="82.4818" gradientUnits="userSpaceOnUse">
<stop stop-color="#8193DF"/>
<stop offset="1" stop-color="#B3C1F6"/>
</linearGradient>
<linearGradient id="paint27_linear_0_310" x1="183.544" y1="82.3261" x2="180.918" y2="84.0522" gradientUnits="userSpaceOnUse">
<stop stop-color="white"/>
<stop offset="1" stop-color="white" stop-opacity="0"/>
</linearGradient>
<linearGradient id="paint28_linear_0_310" x1="140.753" y1="73.5725" x2="182.779" y2="35.2819" gradientUnits="userSpaceOnUse">
<stop stop-color="#8193DF"/>
<stop offset="1" stop-color="#B3C1F6"/>
</linearGradient>
<linearGradient id="paint29_linear_0_310" x1="156.007" y1="88.5152" x2="175.308" y2="29.0557" gradientUnits="userSpaceOnUse">
<stop stop-color="#8193DF"/>
<stop offset="1" stop-color="#B3C1F6"/>
</linearGradient>
<linearGradient id="paint30_linear_0_310" x1="186.682" y1="36.6067" x2="176.582" y2="52.896" gradientUnits="userSpaceOnUse">
<stop stop-color="white"/>
<stop offset="1" stop-color="white" stop-opacity="0"/>
</linearGradient>
<linearGradient id="paint31_linear_0_310" x1="140.753" y1="73.5725" x2="182.78" y2="35.2818" gradientUnits="userSpaceOnUse">
<stop stop-color="white" stop-opacity="0.56"/>
<stop offset="1" stop-color="white" stop-opacity="0.04"/>
</linearGradient>
<linearGradient id="paint32_linear_0_310" x1="174.062" y1="114.315" x2="178.013" y2="112.174" gradientUnits="userSpaceOnUse">
<stop stop-color="#8193DF"/>
<stop offset="1" stop-color="#B3C1F6"/>
</linearGradient>
<radialGradient id="paint33_radial_0_310" cx="0" cy="0" r="1" gradientUnits="userSpaceOnUse" gradientTransform="translate(177.334 114.5) rotate(-71.5651) scale(1.75682)">
<stop stop-color="white"/>
<stop offset="1" stop-color="white" stop-opacity="0"/>
</radialGradient>
<linearGradient id="paint34_linear_0_310" x1="205.391" y1="11.0447" x2="206.022" y2="21.0349" gradientUnits="userSpaceOnUse">
<stop stop-color="#EA6219"/>
<stop offset="1" stop-color="#FE9100"/>
</linearGradient>
<radialGradient id="paint35_radial_0_310" cx="0" cy="0" r="1" gradientUnits="userSpaceOnUse" gradientTransform="translate(208.06 13.68) rotate(104.036) scale(7.50405)">
<stop stop-color="white"/>
<stop offset="1" stop-color="white" stop-opacity="0"/>
</radialGradient>
<linearGradient id="paint36_linear_0_310" x1="147.317" y1="96.2583" x2="147.706" y2="102.406" gradientUnits="userSpaceOnUse">
<stop stop-color="#EA6219"/>
<stop offset="1" stop-color="#FE9100"/>
</linearGradient>
<radialGradient id="paint37_radial_0_310" cx="0" cy="0" r="1" gradientUnits="userSpaceOnUse" gradientTransform="translate(148.96 97.88) rotate(104.036) scale(4.61788)">
<stop stop-color="white"/>
<stop offset="1" stop-color="white" stop-opacity="0"/>
</radialGradient>
<linearGradient id="paint38_linear_0_310" x1="203.711" y1="86.6233" x2="208.452" y2="84.0544" gradientUnits="userSpaceOnUse">
<stop stop-color="#8193DF"/>
<stop offset="1" stop-color="#B3C1F6"/>
</linearGradient>
<radialGradient id="paint39_radial_0_310" cx="0" cy="0" r="1" gradientUnits="userSpaceOnUse" gradientTransform="translate(207.637 86.8456) rotate(-71.5651) scale(2.10818)">
<stop stop-color="white"/>
<stop offset="1" stop-color="white" stop-opacity="0"/>
</radialGradient>
<linearGradient id="paint40_linear_0_310" x1="152.074" y1="12.7777" x2="156.815" y2="10.2088" gradientUnits="userSpaceOnUse">
<stop stop-color="#8193DF"/>
<stop offset="1" stop-color="#B3C1F6"/>
</linearGradient>
<radialGradient id="paint41_radial_0_310" cx="0" cy="0" r="1" gradientUnits="userSpaceOnUse" gradientTransform="translate(156 13) rotate(-71.5651) scale(2.10818)">
<stop stop-color="white"/>
<stop offset="1" stop-color="white" stop-opacity="0"/>
</radialGradient>
<linearGradient id="paint42_linear_0_310" x1="109.198" y1="108.407" x2="121.84" y2="101.557" gradientUnits="userSpaceOnUse">
<stop stop-color="#8193DF"/>
<stop offset="1" stop-color="#B3C1F6"/>
</linearGradient>
<radialGradient id="paint43_radial_0_310" cx="0" cy="0" r="1" gradientUnits="userSpaceOnUse" gradientTransform="translate(119.667 109) rotate(-71.5651) scale(5.62183)">
<stop stop-color="white"/>
<stop offset="1" stop-color="white" stop-opacity="0"/>
</radialGradient>
<linearGradient id="paint44_linear_0_310" x1="330.364" y1="55.4233" x2="304.411" y2="76.9393" gradientUnits="userSpaceOnUse">
<stop stop-color="white"/>
<stop offset="1" stop-color="white" stop-opacity="0"/>
</linearGradient>
<radialGradient id="paint45_radial_0_310" cx="0" cy="0" r="1" gradientUnits="userSpaceOnUse" gradientTransform="translate(309.197 88.0567) rotate(15) scale(21.5 20.3038)">
<stop stop-color="white"/>
<stop offset="1" stop-color="white" stop-opacity="0"/>
</radialGradient>
<linearGradient id="paint46_linear_0_310" x1="416" y1="47" x2="396.5" y2="74.5" gradientUnits="userSpaceOnUse">
<stop stop-color="white"/>
<stop offset="1" stop-color="white" stop-opacity="0"/>
</linearGradient>
<radialGradient id="paint47_radial_0_310" cx="0" cy="0" r="1" gradientUnits="userSpaceOnUse" gradientTransform="translate(404 84) scale(21.5 20.3038)">
<stop stop-color="white"/>
<stop offset="1" stop-color="white" stop-opacity="0"/>
</radialGradient>
<linearGradient id="paint48_linear_0_310" x1="377.511" y1="129.349" x2="383.378" y2="123.811" gradientUnits="userSpaceOnUse">
<stop stop-color="#8193DF"/>
<stop offset="1" stop-color="#B3C1F6"/>
</linearGradient>
<linearGradient id="paint49_linear_0_310" x1="383.73" y1="123.561" x2="379.512" y2="126.334" gradientUnits="userSpaceOnUse">
<stop stop-color="white"/>
<stop offset="1" stop-color="white" stop-opacity="0"/>
</linearGradient>
<linearGradient id="paint50_linear_0_310" x1="315" y1="109.5" x2="382.5" y2="48" gradientUnits="userSpaceOnUse">
<stop stop-color="#8193DF"/>
<stop offset="1" stop-color="#B3C1F6"/>
</linearGradient>
<linearGradient id="paint51_linear_0_310" x1="339.5" y1="133.5" x2="370.5" y2="38" gradientUnits="userSpaceOnUse">
<stop stop-color="#8193DF"/>
<stop offset="1" stop-color="#B3C1F6"/>
</linearGradient>
<linearGradient id="paint52_linear_0_310" x1="388.767" y1="50.1279" x2="372.547" y2="76.2907" gradientUnits="userSpaceOnUse">
<stop stop-color="white"/>
<stop offset="1" stop-color="white" stop-opacity="0"/>
</linearGradient>
<linearGradient id="paint53_linear_0_310" x1="315" y1="109.5" x2="382.5" y2="48" gradientUnits="userSpaceOnUse">
<stop stop-color="white" stop-opacity="0.56"/>
<stop offset="1" stop-color="white" stop-opacity="0.04"/>
</linearGradient>
<linearGradient id="paint54_linear_0_310" x1="368.111" y1="169.167" x2="375.223" y2="165.313" gradientUnits="userSpaceOnUse">
<stop stop-color="#8193DF"/>
<stop offset="1" stop-color="#B3C1F6"/>
</linearGradient>
<radialGradient id="paint55_radial_0_310" cx="0" cy="0" r="1" gradientUnits="userSpaceOnUse" gradientTransform="translate(374 169.5) rotate(-71.5651) scale(3.16228)">
<stop stop-color="white"/>
<stop offset="1" stop-color="white" stop-opacity="0"/>
</radialGradient>
<linearGradient id="paint56_linear_0_310" x1="406.708" y1="9.30294" x2="407.728" y2="25.4409" gradientUnits="userSpaceOnUse">
<stop stop-color="#EA6219"/>
<stop offset="1" stop-color="#FE9100"/>
</linearGradient>
<radialGradient id="paint57_radial_0_310" cx="0" cy="0" r="1" gradientUnits="userSpaceOnUse" gradientTransform="translate(411.02 13.56) rotate(104.036) scale(12.1219)">
<stop stop-color="white"/>
<stop offset="1" stop-color="white" stop-opacity="0"/>
</radialGradient>
<linearGradient id="paint58_linear_0_310" x1="336.391" y1="149.045" x2="337.022" y2="159.035" gradientUnits="userSpaceOnUse">
<stop stop-color="#EA6219"/>
<stop offset="1" stop-color="#FE9100"/>
</linearGradient>
<radialGradient id="paint59_radial_0_310" cx="0" cy="0" r="1" gradientUnits="userSpaceOnUse" gradientTransform="translate(339.06 151.68) rotate(104.036) scale(7.50405)">
<stop stop-color="white"/>
<stop offset="1" stop-color="white" stop-opacity="0"/>
</radialGradient>
<linearGradient id="paint60_linear_0_310" x1="416.111" y1="130.167" x2="423.223" y2="126.313" gradientUnits="userSpaceOnUse">
<stop stop-color="#8193DF"/>
<stop offset="1" stop-color="#B3C1F6"/>
</linearGradient>
<radialGradient id="paint61_radial_0_310" cx="0" cy="0" r="1" gradientUnits="userSpaceOnUse" gradientTransform="translate(422 130.5) rotate(-71.5651) scale(3.16228)">
<stop stop-color="white"/>
<stop offset="1" stop-color="white" stop-opacity="0"/>
</radialGradient>
<linearGradient id="paint62_linear_0_310" x1="319.111" y1="21.1665" x2="326.223" y2="17.3132" gradientUnits="userSpaceOnUse">
<stop stop-color="#8193DF"/>
<stop offset="1" stop-color="#B3C1F6"/>
</linearGradient>
<radialGradient id="paint63_radial_0_310" cx="0" cy="0" r="1" gradientUnits="userSpaceOnUse" gradientTransform="translate(325 21.5) rotate(-71.5651) scale(3.16228)">
<stop stop-color="white"/>
<stop offset="1" stop-color="white" stop-opacity="0"/>
</radialGradient>
<linearGradient id="paint64_linear_0_310" x1="271.248" y1="159.259" x2="287.05" y2="150.696" gradientUnits="userSpaceOnUse">
<stop stop-color="#8193DF"/>
<stop offset="1" stop-color="#B3C1F6"/>
</linearGradient>
<radialGradient id="paint65_radial_0_310" cx="0" cy="0" r="1" gradientUnits="userSpaceOnUse" gradientTransform="translate(284.333 160) rotate(-71.5651) scale(7.02728 7.02728)">
<stop stop-color="white"/>
<stop offset="1" stop-color="white" stop-opacity="0"/>
</radialGradient>
<clipPath id="clip0_0_310">
<rect width="64" height="64" fill="white"/>
</clipPath>
<clipPath id="clip1_0_310">
<rect width="24.7458" height="24.7458" fill="white" transform="translate(8.77966 14.5255) rotate(15)"/>
</clipPath>
<clipPath id="clip2_0_310">
<rect width="24.7458" height="24.7458" fill="white" transform="translate(37.2542 15.8813)"/>
</clipPath>
<clipPath id="clip3_0_310">
<rect width="128" height="128" fill="white" transform="translate(100)"/>
</clipPath>
<clipPath id="clip4_0_310">
<rect width="45.4507" height="45.4507" fill="white" transform="translate(121.452 32.1688) rotate(15)"/>
</clipPath>
<clipPath id="clip5_0_310">
<rect width="45.4507" height="45.4507" fill="white" transform="translate(173.752 34.6593)"/>
</clipPath>
<clipPath id="clip6_0_310">
<rect width="192" height="192" fill="white" transform="translate(257)"/>
</clipPath>
<clipPath id="clip7_0_310">
<rect width="73" height="73" fill="white" transform="translate(284 43) rotate(15)"/>
</clipPath>
<clipPath id="clip8_0_310">
<rect width="73" height="73" fill="white" transform="translate(368 47)"/>
</clipPath>
</defs>
</svg>
