<svg width="449" height="194" viewBox="0 0 449 194" fill="none" xmlns="http://www.w3.org/2000/svg">
<g clip-path="url(#clip0_0_416)">
<rect width="64" height="64" rx="32" fill="#1A3594"/>
<path d="M11 47H60V47.3754C60 48.8249 58.8249 50 57.3754 50H13.6246C12.1751 50 11 48.8249 11 47.3754V47Z" fill="url(#paint0_linear_0_416)"/>
<path fill-rule="evenodd" clip-rule="evenodd" d="M39.6246 20C38.1751 20 37 21.1751 37 22.6246V39H9.00001V45.3754C9.00001 46.8249 10.1751 48 11.6246 48H60V39.3754V39V33.1231C60 25.8754 54.1246 20 46.8769 20H39.6246Z" fill="url(#paint1_linear_0_416)"/>
<path fill-rule="evenodd" clip-rule="evenodd" d="M60 39.1557H50.8142C47.9151 39.1557 45.5649 36.8056 45.5649 33.9065V20H46.877C54.1246 20 60 25.8754 60 33.1231V39.1557Z" fill="url(#paint2_linear_0_416)"/>
<path fill-rule="evenodd" clip-rule="evenodd" d="M60 39.1557H50.8142C47.9151 39.1557 45.5649 36.8056 45.5649 33.9065V20H46.877C54.1246 20 60 25.8754 60 33.1231V39.1557Z" fill="url(#paint3_radial_0_416)"/>
<g filter="url(#filter0_f_0_416)">
<path d="M45.729 33.9065V20H45.4009V33.9065H45.729ZM59.8363 38.9917H50.8142V39.3198H59.8363V38.9917ZM45.4009 33.9065C45.4009 36.8962 47.8245 39.3198 50.8142 39.3198V38.9917C48.0057 38.9917 45.729 36.715 45.729 33.9065H45.4009Z" fill="#6776B8" fill-opacity="0.5"/>
</g>
<circle cx="22" cy="50" r="7" fill="url(#paint4_radial_0_416)"/>
<circle cx="22" cy="50" r="4" fill="#E9EFF9"/>
<circle cx="45" cy="50" r="7" fill="url(#paint5_radial_0_416)"/>
<circle cx="45" cy="50" r="4" fill="#E9EFF9"/>
<path d="M9.00001 14.6246C9.00001 13.1751 10.1751 12 11.6246 12H34.3754C35.8249 12 37 13.1751 37 14.6246V39H9.00001V14.6246Z" fill="#6776B8"/>
<g clip-path="url(#clip1_0_416)" filter="url(#filter1_d_0_416)">
<path d="M31.4879 29.0831C31.8784 29.0276 32.198 28.7444 32.3001 28.3634L32.5979 27.2518C32.7008 26.868 32.5628 26.46 32.248 26.2175L30.5356 24.8978C30.3521 24.7564 30.2399 24.543 30.2121 24.3131C30.1845 24.0841 30.2362 23.8506 30.3747 23.6661L31.6764 21.9314C31.913 21.616 31.9386 21.1899 31.7414 20.8484L31.1656 19.8515C30.9669 19.5075 30.5809 19.3167 30.1869 19.3677L28.0727 19.6416C27.8356 19.6724 27.5988 19.5988 27.4083 19.4541C27.2221 19.3127 27.0917 19.1072 27.0587 18.8756L26.7546 16.7414C26.6989 16.3511 26.4157 16.0316 26.0349 15.9296L24.9225 15.6315C24.539 15.5287 24.1313 15.6665 23.8887 15.9808L22.5998 17.6504C22.4493 17.8454 22.2223 17.9648 21.9776 17.994C21.7358 18.0229 21.4897 17.9674 21.2949 17.8212L19.6031 16.5514C19.2877 16.3148 18.8616 16.2891 18.5202 16.4863L17.5234 17.0617C17.1794 17.2603 16.9885 17.6463 17.0394 18.0402L17.3052 20.0975C17.3377 20.3493 17.2592 20.601 17.1067 20.8041C16.9576 21.0027 16.7398 21.1412 16.494 21.1764L14.4121 21.4746C14.0221 21.5305 13.7029 21.8136 13.601 22.1942L13.3029 23.3065C13.2001 23.6903 13.3381 24.0983 13.6529 24.3409L15.3015 25.6113C15.5008 25.7649 15.6231 25.9961 15.6543 26.2458C15.6856 26.495 15.6293 26.7495 15.4786 26.9505L14.2221 28.6266C13.9858 28.9419 13.9603 29.3678 14.1573 29.7091L14.7329 30.706C14.9315 31.0501 15.3176 31.241 15.7117 31.1899L17.7916 30.9204C18.0344 30.889 18.2772 30.9636 18.4745 31.1086C18.6721 31.2538 18.8101 31.4682 18.8448 31.7109L19.146 33.8173C19.2018 34.2074 19.4849 34.5267 19.8656 34.6287L20.9775 34.9266C21.3615 35.0295 21.7696 34.8913 22.0121 34.5763L23.3184 32.8797C23.4617 32.6936 23.6776 32.5776 23.9106 32.548C24.1459 32.5181 24.3848 32.5723 24.5746 32.7144L26.298 34.0053C26.6133 34.2414 27.039 34.2668 27.3802 34.0699L28.3769 33.4944C28.7212 33.2956 28.9121 32.9092 28.8608 32.515L28.583 30.3811C28.5531 30.1515 28.6231 29.9208 28.7609 29.7346C28.8977 29.5498 29.0994 29.4228 29.3271 29.3904L31.4879 29.0831ZM21.978 28.8346C20.0127 28.308 18.845 26.2856 19.3716 24.3202C19.8982 22.3549 21.9207 21.1872 23.886 21.7138C25.8514 22.2404 27.019 24.2629 26.4924 26.2282C25.9658 28.1936 23.9434 29.3613 21.978 28.8346Z" fill="#E6ECF8"/>
<path d="M31.4879 29.0831C31.8784 29.0276 32.198 28.7444 32.3001 28.3634L32.5979 27.2518C32.7008 26.868 32.5628 26.46 32.248 26.2175L30.5356 24.8978C30.3521 24.7564 30.2399 24.543 30.2121 24.3131C30.1845 24.0841 30.2362 23.8506 30.3747 23.6661L31.6764 21.9314C31.913 21.616 31.9386 21.1899 31.7414 20.8484L31.1656 19.8515C30.9669 19.5075 30.5809 19.3167 30.1869 19.3677L28.0727 19.6416C27.8356 19.6724 27.5988 19.5988 27.4083 19.4541C27.2221 19.3127 27.0917 19.1072 27.0587 18.8756L26.7546 16.7414C26.6989 16.3511 26.4157 16.0316 26.0349 15.9296L24.9225 15.6315C24.539 15.5287 24.1313 15.6665 23.8887 15.9808L22.5998 17.6504C22.4493 17.8454 22.2223 17.9648 21.9776 17.994C21.7358 18.0229 21.4897 17.9674 21.2949 17.8212L19.6031 16.5514C19.2877 16.3148 18.8616 16.2891 18.5202 16.4863L17.5234 17.0617C17.1794 17.2603 16.9885 17.6463 17.0394 18.0402L17.3052 20.0975C17.3377 20.3493 17.2592 20.601 17.1067 20.8041C16.9576 21.0027 16.7398 21.1412 16.494 21.1764L14.4121 21.4746C14.0221 21.5305 13.7029 21.8136 13.601 22.1942L13.3029 23.3065C13.2001 23.6903 13.3381 24.0983 13.6529 24.3409L15.3015 25.6113C15.5008 25.7649 15.6231 25.9961 15.6543 26.2458C15.6856 26.495 15.6293 26.7495 15.4786 26.9505L14.2221 28.6266C13.9858 28.9419 13.9603 29.3678 14.1573 29.7091L14.7329 30.706C14.9315 31.0501 15.3176 31.241 15.7117 31.1899L17.7916 30.9204C18.0344 30.889 18.2772 30.9636 18.4745 31.1086C18.6721 31.2538 18.8101 31.4682 18.8448 31.7109L19.146 33.8173C19.2018 34.2074 19.4849 34.5267 19.8656 34.6287L20.9775 34.9266C21.3615 35.0295 21.7696 34.8913 22.0121 34.5763L23.3184 32.8797C23.4617 32.6936 23.6776 32.5776 23.9106 32.548C24.1459 32.5181 24.3848 32.5723 24.5746 32.7144L26.298 34.0053C26.6133 34.2414 27.039 34.2668 27.3802 34.0699L28.3769 33.4944C28.7212 33.2956 28.9121 32.9092 28.8608 32.515L28.583 30.3811C28.5531 30.1515 28.6231 29.9208 28.7609 29.7346C28.8977 29.5498 29.0994 29.4228 29.3271 29.3904L31.4879 29.0831ZM21.978 28.8346C20.0127 28.308 18.845 26.2856 19.3716 24.3202C19.8982 22.3549 21.9207 21.1872 23.886 21.7138C25.8514 22.2404 27.019 24.2629 26.4924 26.2282C25.9658 28.1936 23.9434 29.3613 21.978 28.8346Z" fill="url(#paint6_linear_0_416)"/>
<path d="M31.4879 29.0831C31.8784 29.0276 32.198 28.7444 32.3001 28.3634L32.5979 27.2518C32.7008 26.868 32.5628 26.46 32.248 26.2175L30.5356 24.8978C30.3521 24.7564 30.2399 24.543 30.2121 24.3131C30.1845 24.0841 30.2362 23.8506 30.3747 23.6661L31.6764 21.9314C31.913 21.616 31.9386 21.1899 31.7414 20.8484L31.1656 19.8515C30.9669 19.5075 30.5809 19.3167 30.1869 19.3677L28.0727 19.6416C27.8356 19.6724 27.5988 19.5988 27.4083 19.4541C27.2221 19.3127 27.0917 19.1072 27.0587 18.8756L26.7546 16.7414C26.6989 16.3511 26.4157 16.0316 26.0349 15.9296L24.9225 15.6315C24.539 15.5287 24.1313 15.6665 23.8887 15.9808L22.5998 17.6504C22.4493 17.8454 22.2223 17.9648 21.9776 17.994C21.7358 18.0229 21.4897 17.9674 21.2949 17.8212L19.6031 16.5514C19.2877 16.3148 18.8616 16.2891 18.5202 16.4863L17.5234 17.0617C17.1794 17.2603 16.9885 17.6463 17.0394 18.0402L17.3052 20.0975C17.3377 20.3493 17.2592 20.601 17.1067 20.8041C16.9576 21.0027 16.7398 21.1412 16.494 21.1764L14.4121 21.4746C14.0221 21.5305 13.7029 21.8136 13.601 22.1942L13.3029 23.3065C13.2001 23.6903 13.3381 24.0983 13.6529 24.3409L15.3015 25.6113C15.5008 25.7649 15.6231 25.9961 15.6543 26.2458C15.6856 26.495 15.6293 26.7495 15.4786 26.9505L14.2221 28.6266C13.9858 28.9419 13.9603 29.3678 14.1573 29.7091L14.7329 30.706C14.9315 31.0501 15.3176 31.241 15.7117 31.1899L17.7916 30.9204C18.0344 30.889 18.2772 30.9636 18.4745 31.1086C18.6721 31.2538 18.8101 31.4682 18.8448 31.7109L19.146 33.8173C19.2018 34.2074 19.4849 34.5267 19.8656 34.6287L20.9775 34.9266C21.3615 35.0295 21.7696 34.8913 22.0121 34.5763L23.3184 32.8797C23.4617 32.6936 23.6776 32.5776 23.9106 32.548C24.1459 32.5181 24.3848 32.5723 24.5746 32.7144L26.298 34.0053C26.6133 34.2414 27.039 34.2668 27.3802 34.0699L28.3769 33.4944C28.7212 33.2956 28.9121 32.9092 28.8608 32.515L28.583 30.3811C28.5531 30.1515 28.6231 29.9208 28.7609 29.7346C28.8977 29.5498 29.0994 29.4228 29.3271 29.3904L31.4879 29.0831ZM21.978 28.8346C20.0127 28.308 18.845 26.2856 19.3716 24.3202C19.8982 22.3549 21.9207 21.1872 23.886 21.7138C25.8514 22.2404 27.019 24.2629 26.4924 26.2282C25.9658 28.1936 23.9434 29.3613 21.978 28.8346Z" fill="url(#paint7_radial_0_416)"/>
</g>
<path d="M42 15.1667C42 13.97 42.9701 13 44.1667 13C45.2521 13 46.1701 13.8032 46.3142 14.879L47 20H42V15.1667Z" fill="url(#paint8_linear_0_416)"/>
<path d="M42 15.1667C42 13.97 42.9701 13 44.1667 13C45.2521 13 46.1701 13.8032 46.3142 14.879L47 20H42V15.1667Z" fill="url(#paint9_radial_0_416)" fill-opacity="0.7"/>
<rect x="4.00003" y="42" width="13.5132" height="2" rx="1" fill="#E6ECF8"/>
<rect x="4.00003" y="42" width="13.5132" height="2" rx="1" fill="url(#paint10_linear_0_416)"/>
<rect x="2.00003" y="46" width="13" height="2" rx="1" fill="#E6ECF8"/>
<rect x="2.00003" y="46" width="13" height="2" rx="1" fill="url(#paint11_linear_0_416)"/>
<rect x="31" y="42" width="9.65227" height="2" rx="1" fill="#E6ECF8"/>
<rect x="31" y="42" width="9.65227" height="2" rx="1" fill="url(#paint12_linear_0_416)"/>
<rect x="29" y="46" width="7.2392" height="2" rx="1" fill="#E6ECF8"/>
<rect x="29" y="46" width="7.2392" height="2" rx="1" fill="url(#paint13_linear_0_416)"/>
<rect x="2.00002" y="57" width="60" height="3" rx="1.5" fill="url(#paint14_linear_0_416)"/>
</g>
<g clip-path="url(#clip2_0_416)">
<rect width="128" height="128" transform="translate(100 1.8064)" fill="white"/>
<rect x="100" y="1.8064" width="128" height="128" rx="64" fill="#1A3594"/>
<path d="M123 93.1936H224V93.7553C224 96.7588 221.565 99.1936 218.562 99.1936H128.438C125.435 99.1936 123 96.7588 123 93.7553V93.1936Z" fill="url(#paint15_linear_0_416)"/>
<path fill-rule="evenodd" clip-rule="evenodd" d="M182.438 36C179.435 36 177 38.4348 177 41.4384V76H118V88.5617C118 91.5652 120.435 94 123.438 94H224V76.5617V76V63.1917C224 48.1741 211.826 36 196.808 36H182.438Z" fill="url(#paint16_linear_0_416)"/>
<path fill-rule="evenodd" clip-rule="evenodd" d="M224 76.4619L205.328 76.4619C199.321 76.4619 194.452 71.5923 194.452 65.5852V36.1936H196.808C211.826 36.1936 224 48.3677 224 63.3853V76.4619Z" fill="url(#paint17_linear_0_416)"/>
<path fill-rule="evenodd" clip-rule="evenodd" d="M224 76.4619L205.328 76.4619C199.321 76.4619 194.452 71.5923 194.452 65.5852V36.1936H196.808C211.826 36.1936 224 48.3677 224 63.3853V76.4619Z" fill="url(#paint18_radial_0_416)"/>
<g filter="url(#filter2_f_0_416)">
<path d="M205.328 76.4619V76.8018V76.4619ZM194.792 65.5853V36.3542H194.112V65.5853H194.792ZM224 76.122L205.328 76.122V76.8018L224 76.8018V76.122ZM194.112 65.5853C194.112 71.78 199.134 76.8018 205.328 76.8018V76.122C199.509 76.122 194.792 71.4046 194.792 65.5853H194.112Z" fill="#6776B8" fill-opacity="0.5"/>
</g>
<circle cx="145" cy="97" r="13" fill="url(#paint19_radial_0_416)"/>
<circle cx="145" cy="97" r="6" fill="#E9EFF9"/>
<circle cx="191" cy="97" r="13" fill="url(#paint20_radial_0_416)"/>
<circle cx="191" cy="97" r="6" fill="#E9EFF9"/>
<path d="M118 26.4383C118 23.4348 120.435 21 123.438 21H171.562C174.565 21 177 23.4348 177 26.4384V76H118V26.4383Z" fill="#6776B8"/>
<g clip-path="url(#clip3_0_416)" filter="url(#filter3_d_0_416)">
<path d="M166.117 55.5873C166.911 55.4745 167.56 54.8989 167.768 54.1248L168.398 51.7709C168.607 50.991 168.327 50.162 167.687 49.6691L164.118 46.9187C163.738 46.6257 163.506 46.1836 163.448 45.7072C163.391 45.2326 163.498 44.7489 163.785 44.3666L166.498 40.7514C166.979 40.1105 167.031 39.2445 166.63 38.5507L165.411 36.4399C165.007 35.7408 164.223 35.353 163.422 35.4568L159.015 36.0277C158.524 36.0913 158.033 35.9389 157.639 35.6391C157.253 35.346 156.982 34.9202 156.914 34.4405L156.28 29.9925C156.167 29.1994 155.592 28.5502 154.818 28.3428L152.462 27.7117C151.683 27.5029 150.855 27.7827 150.362 28.4214L147.675 31.9016C147.363 32.3057 146.893 32.5532 146.386 32.6138C145.885 32.6736 145.375 32.5585 144.971 32.2555L141.445 29.609C140.804 29.1281 139.938 29.076 139.244 29.4765L137.134 30.6951C136.435 31.0987 136.047 31.8829 136.15 32.6834L136.704 36.9722C136.772 37.4941 136.609 38.0155 136.293 38.4363C135.984 38.8479 135.533 39.1349 135.023 39.2078L130.684 39.8294C129.891 39.9429 129.243 40.5182 129.036 41.2916L128.405 43.6468C128.196 44.4268 128.476 45.2558 129.116 45.7487L132.553 48.397C132.965 48.7153 133.219 49.1945 133.284 49.7118C133.348 50.2282 133.232 50.7555 132.92 51.172L130.3 54.6658C129.82 55.3065 129.768 56.172 130.169 56.8654L131.387 58.9763C131.791 59.6755 132.576 60.0634 133.376 59.9597L137.712 59.3979C138.215 59.3328 138.718 59.4874 139.127 59.7878C139.537 60.0887 139.822 60.5329 139.894 61.0359L140.522 65.4261C140.636 66.2189 141.211 66.8676 141.984 67.0748L144.339 67.7057C145.119 67.9147 145.948 67.634 146.441 66.994L149.164 63.4576C149.461 63.072 149.908 62.8316 150.391 62.7702C150.879 62.7083 151.374 62.8206 151.767 63.1151L155.359 65.8054C155.999 66.2853 156.864 66.3369 157.558 65.9367L159.668 64.7182C160.368 64.3142 160.756 63.5291 160.651 62.7279L160.072 58.2804C160.011 57.8046 160.156 57.3266 160.441 56.9409C160.725 56.5578 161.142 56.2947 161.614 56.2276L166.117 55.5873ZM146.387 55.076C142.314 53.9849 139.895 49.7942 140.986 45.722C142.077 41.6497 146.268 39.2302 150.34 40.3214C154.412 41.4125 156.832 45.6032 155.741 49.6755C154.65 53.7477 150.459 56.1672 146.387 55.076Z" fill="#E6ECF8"/>
<path d="M166.117 55.5873C166.911 55.4745 167.56 54.8989 167.768 54.1248L168.398 51.7709C168.607 50.991 168.327 50.162 167.687 49.6691L164.118 46.9187C163.738 46.6257 163.506 46.1836 163.448 45.7072C163.391 45.2326 163.498 44.7489 163.785 44.3666L166.498 40.7514C166.979 40.1105 167.031 39.2445 166.63 38.5507L165.411 36.4399C165.007 35.7408 164.223 35.353 163.422 35.4568L159.015 36.0277C158.524 36.0913 158.033 35.9389 157.639 35.6391C157.253 35.346 156.982 34.9202 156.914 34.4405L156.28 29.9925C156.167 29.1994 155.592 28.5502 154.818 28.3428L152.462 27.7117C151.683 27.5029 150.855 27.7827 150.362 28.4214L147.675 31.9016C147.363 32.3057 146.893 32.5532 146.386 32.6138C145.885 32.6736 145.375 32.5585 144.971 32.2555L141.445 29.609C140.804 29.1281 139.938 29.076 139.244 29.4765L137.134 30.6951C136.435 31.0987 136.047 31.8829 136.15 32.6834L136.704 36.9722C136.772 37.4941 136.609 38.0155 136.293 38.4363C135.984 38.8479 135.533 39.1349 135.023 39.2078L130.684 39.8294C129.891 39.9429 129.243 40.5182 129.036 41.2916L128.405 43.6468C128.196 44.4268 128.476 45.2558 129.116 45.7487L132.553 48.397C132.965 48.7153 133.219 49.1945 133.284 49.7118C133.348 50.2282 133.232 50.7555 132.92 51.172L130.3 54.6658C129.82 55.3065 129.768 56.172 130.169 56.8654L131.387 58.9763C131.791 59.6755 132.576 60.0634 133.376 59.9597L137.712 59.3979C138.215 59.3328 138.718 59.4874 139.127 59.7878C139.537 60.0887 139.822 60.5329 139.894 61.0359L140.522 65.4261C140.636 66.2189 141.211 66.8676 141.984 67.0748L144.339 67.7057C145.119 67.9147 145.948 67.634 146.441 66.994L149.164 63.4576C149.461 63.072 149.908 62.8316 150.391 62.7702C150.879 62.7083 151.374 62.8206 151.767 63.1151L155.359 65.8054C155.999 66.2853 156.864 66.3369 157.558 65.9367L159.668 64.7182C160.368 64.3142 160.756 63.5291 160.651 62.7279L160.072 58.2804C160.011 57.8046 160.156 57.3266 160.441 56.9409C160.725 56.5578 161.142 56.2947 161.614 56.2276L166.117 55.5873ZM146.387 55.076C142.314 53.9849 139.895 49.7942 140.986 45.722C142.077 41.6497 146.268 39.2302 150.34 40.3214C154.412 41.4125 156.832 45.6032 155.741 49.6755C154.65 53.7477 150.459 56.1672 146.387 55.076Z" fill="url(#paint21_linear_0_416)"/>
<path d="M166.117 55.5873C166.911 55.4745 167.56 54.8989 167.768 54.1248L168.398 51.7709C168.607 50.991 168.327 50.162 167.687 49.6691L164.118 46.9187C163.738 46.6257 163.506 46.1836 163.448 45.7072C163.391 45.2326 163.498 44.7489 163.785 44.3666L166.498 40.7514C166.979 40.1105 167.031 39.2445 166.63 38.5507L165.411 36.4399C165.007 35.7408 164.223 35.353 163.422 35.4568L159.015 36.0277C158.524 36.0913 158.033 35.9389 157.639 35.6391C157.253 35.346 156.982 34.9202 156.914 34.4405L156.28 29.9925C156.167 29.1994 155.592 28.5502 154.818 28.3428L152.462 27.7117C151.683 27.5029 150.855 27.7827 150.362 28.4214L147.675 31.9016C147.363 32.3057 146.893 32.5532 146.386 32.6138C145.885 32.6736 145.375 32.5585 144.971 32.2555L141.445 29.609C140.804 29.1281 139.938 29.076 139.244 29.4765L137.134 30.6951C136.435 31.0987 136.047 31.8829 136.15 32.6834L136.704 36.9722C136.772 37.4941 136.609 38.0155 136.293 38.4363C135.984 38.8479 135.533 39.1349 135.023 39.2078L130.684 39.8294C129.891 39.9429 129.243 40.5182 129.036 41.2916L128.405 43.6468C128.196 44.4268 128.476 45.2558 129.116 45.7487L132.553 48.397C132.965 48.7153 133.219 49.1945 133.284 49.7118C133.348 50.2282 133.232 50.7555 132.92 51.172L130.3 54.6658C129.82 55.3065 129.768 56.172 130.169 56.8654L131.387 58.9763C131.791 59.6755 132.576 60.0634 133.376 59.9597L137.712 59.3979C138.215 59.3328 138.718 59.4874 139.127 59.7878C139.537 60.0887 139.822 60.5329 139.894 61.0359L140.522 65.4261C140.636 66.2189 141.211 66.8676 141.984 67.0748L144.339 67.7057C145.119 67.9147 145.948 67.634 146.441 66.994L149.164 63.4576C149.461 63.072 149.908 62.8316 150.391 62.7702C150.879 62.7083 151.374 62.8206 151.767 63.1151L155.359 65.8054C155.999 66.2853 156.864 66.3369 157.558 65.9367L159.668 64.7182C160.368 64.3142 160.756 63.5291 160.651 62.7279L160.072 58.2804C160.011 57.8046 160.156 57.3266 160.441 56.9409C160.725 56.5578 161.142 56.2947 161.614 56.2276L166.117 55.5873ZM146.387 55.076C142.314 53.9849 139.895 49.7942 140.986 45.722C142.077 41.6497 146.268 39.2302 150.34 40.3214C154.412 41.4125 156.832 45.6032 155.741 49.6755C154.65 53.7477 150.459 56.1672 146.387 55.076Z" fill="url(#paint22_radial_0_416)"/>
</g>
<path d="M187 24.9492C187 22.3228 189.129 20.1936 191.756 20.1936C194.147 20.1936 196.166 21.9694 196.472 24.3412L198 36.1936H187V24.9492Z" fill="url(#paint23_linear_0_416)"/>
<path d="M187 24.9492C187 22.3228 189.129 20.1936 191.756 20.1936C194.147 20.1936 196.166 21.9694 196.472 24.3412L198 36.1936H187V24.9492Z" fill="url(#paint24_radial_0_416)" fill-opacity="0.7"/>
<rect x="109" y="83.1936" width="28" height="3" rx="1.5" fill="#E6ECF8"/>
<rect x="109" y="83.1936" width="28" height="3" rx="1.5" fill="url(#paint25_linear_0_416)"/>
<rect x="102" y="90.1936" width="28" height="3" rx="1.5" fill="#E6ECF8"/>
<rect x="102" y="90.1936" width="28" height="3" rx="1.5" fill="url(#paint26_linear_0_416)"/>
<rect x="163" y="83.1936" width="20" height="3" rx="1.5" fill="#E6ECF8"/>
<rect x="163" y="83.1936" width="20" height="3" rx="1.5" fill="url(#paint27_linear_0_416)"/>
<rect x="160" y="90.1936" width="15" height="3" rx="1.5" fill="#E6ECF8"/>
<rect x="160" y="90.1936" width="15" height="3" rx="1.5" fill="url(#paint28_linear_0_416)"/>
<rect x="106" y="110" width="120" height="6" rx="3" fill="url(#paint29_linear_0_416)"/>
</g>
<g clip-path="url(#clip4_0_416)">
<rect width="192" height="192" transform="translate(257 1.8064)" fill="white"/>
<rect x="257" y="1.8064" width="192" height="192" rx="96" fill="#1A3594"/>
<path d="M291 143.194H440V144.194C440 148.612 436.418 152.194 432 152.194H299C294.582 152.194 291 148.612 291 144.194V143.194Z" fill="url(#paint30_linear_0_416)"/>
<path fill-rule="evenodd" clip-rule="evenodd" d="M381 59.1936C376.582 59.1936 373 62.7753 373 67.1936V118.194H284V136.194C284 140.612 287.582 144.194 292 144.194H440V119.194V118.194V99.1936C440 77.1022 422.091 59.1936 400 59.1936H381Z" fill="url(#paint31_linear_0_416)"/>
<path fill-rule="evenodd" clip-rule="evenodd" d="M440 118.194V99.1936C440 77.1022 422.091 59.1936 400 59.1936H397V102.194C397 111.03 404.163 118.194 413 118.194L440 118.194Z" fill="url(#paint32_linear_0_416)"/>
<path fill-rule="evenodd" clip-rule="evenodd" d="M440 118.194V99.1936C440 77.1022 422.091 59.1936 400 59.1936H397V102.194C397 111.03 404.163 118.194 413 118.194L440 118.194Z" fill="url(#paint33_radial_0_416)"/>
<g filter="url(#filter4_f_0_416)">
<path d="M397.5 102.194V59.1936H396.5V102.194H397.5ZM440 117.694H413V118.694H440V117.694ZM396.5 102.194C396.5 111.306 403.887 118.694 413 118.694V117.694C404.44 117.694 397.5 110.754 397.5 102.194H396.5Z" fill="#6776B8" fill-opacity="0.5"/>
</g>
<circle cx="324" cy="148" r="19" fill="url(#paint34_radial_0_416)"/>
<circle cx="324" cy="148" r="8" fill="#E9EFF9"/>
<circle cx="392" cy="148" r="19" fill="url(#paint35_radial_0_416)"/>
<circle cx="392" cy="148" r="8" fill="#E9EFF9"/>
<path d="M284 45.1936C284 40.7753 287.582 37.1936 292 37.1936H365C369.418 37.1936 373 40.7753 373 45.1936V118.194H284V45.1936Z" fill="#6776B8"/>
<g clip-path="url(#clip5_0_416)" filter="url(#filter5_d_0_416)">
<path d="M355.208 87.4916C356.398 87.3223 357.372 86.459 357.684 85.2979L358.591 81.9095C358.905 80.7397 358.484 79.4961 357.525 78.7568L352.305 74.7343C351.746 74.3034 351.404 73.6531 351.319 72.9522C351.235 72.2541 351.393 71.5426 351.815 70.9801L355.783 65.6926C356.504 64.7313 356.582 63.4323 355.981 62.3916L354.226 59.3531C353.62 58.3045 352.443 57.7228 351.243 57.8784L344.798 58.7133C344.075 58.8069 343.354 58.5826 342.773 58.1417C342.206 57.7105 341.808 57.0841 341.707 56.3784L340.78 49.8732C340.611 48.6834 339.748 47.7097 338.587 47.3986L335.196 46.4901C334.027 46.1769 332.785 46.5967 332.045 47.5547L328.117 52.6437C327.658 53.2381 326.966 53.6022 326.22 53.6913C325.483 53.7794 324.733 53.6099 324.139 53.1643L318.982 49.2941C318.021 48.5727 316.722 48.4945 315.681 49.0954L312.643 50.8495C311.595 51.4549 311.013 52.6312 311.168 53.832L311.978 60.1027C312.077 60.8703 311.838 61.6374 311.373 62.2564C310.919 62.8618 310.255 63.2841 309.506 63.3914L303.16 64.3003C301.971 64.4706 300.998 65.3335 300.687 66.4936L299.779 69.884C299.466 71.0539 299.886 72.2975 300.846 73.0368L305.871 76.9091C306.478 77.3772 306.851 78.0822 306.946 78.8432C307.041 79.6028 306.87 80.3785 306.411 80.9911L302.581 86.1001C301.86 87.0612 301.783 88.3593 302.383 89.3995L304.138 92.4381C304.743 93.487 305.92 94.0688 307.121 93.9132L313.461 93.0918C314.201 92.9959 314.941 93.2234 315.542 93.6653C316.145 94.1079 316.565 94.7613 316.671 95.5013L317.589 101.922C317.759 103.111 318.622 104.084 319.782 104.395L323.172 105.303C324.342 105.616 325.586 105.195 326.325 104.235L330.307 99.0638C330.744 98.4965 331.402 98.1429 332.112 98.0526C332.829 97.9614 333.557 98.1266 334.136 98.5599L339.389 102.495C340.35 103.214 341.648 103.292 342.687 102.691L345.726 100.937C346.775 100.332 347.357 99.1537 347.2 97.952L346.354 91.4479C346.263 90.7479 346.476 90.0447 346.896 89.4774C347.313 88.9139 347.928 88.5268 348.622 88.4281L355.208 87.4916ZM326.221 86.7341C320.231 85.129 316.672 78.9644 318.277 72.9739C319.882 66.9834 326.047 63.4243 332.037 65.0294C338.028 66.6346 341.587 72.7992 339.982 78.7897C338.376 84.7801 332.212 88.3393 326.221 86.7341Z" fill="#E6ECF8"/>
<path d="M355.208 87.4916C356.398 87.3223 357.372 86.459 357.684 85.2979L358.591 81.9095C358.905 80.7397 358.484 79.4961 357.525 78.7568L352.305 74.7343C351.746 74.3034 351.404 73.6531 351.319 72.9522C351.235 72.2541 351.393 71.5426 351.815 70.9801L355.783 65.6926C356.504 64.7313 356.582 63.4323 355.981 62.3916L354.226 59.3531C353.62 58.3045 352.443 57.7228 351.243 57.8784L344.798 58.7133C344.075 58.8069 343.354 58.5826 342.773 58.1417C342.206 57.7105 341.808 57.0841 341.707 56.3784L340.78 49.8732C340.611 48.6834 339.748 47.7097 338.587 47.3986L335.196 46.4901C334.027 46.1769 332.785 46.5967 332.045 47.5547L328.117 52.6437C327.658 53.2381 326.966 53.6022 326.22 53.6913C325.483 53.7794 324.733 53.6099 324.139 53.1643L318.982 49.2941C318.021 48.5727 316.722 48.4945 315.681 49.0954L312.643 50.8495C311.595 51.4549 311.013 52.6312 311.168 53.832L311.978 60.1027C312.077 60.8703 311.838 61.6374 311.373 62.2564C310.919 62.8618 310.255 63.2841 309.506 63.3914L303.16 64.3003C301.971 64.4706 300.998 65.3335 300.687 66.4936L299.779 69.884C299.466 71.0539 299.886 72.2975 300.846 73.0368L305.871 76.9091C306.478 77.3772 306.851 78.0822 306.946 78.8432C307.041 79.6028 306.87 80.3785 306.411 80.9911L302.581 86.1001C301.86 87.0612 301.783 88.3593 302.383 89.3995L304.138 92.4381C304.743 93.487 305.92 94.0688 307.121 93.9132L313.461 93.0918C314.201 92.9959 314.941 93.2234 315.542 93.6653C316.145 94.1079 316.565 94.7613 316.671 95.5013L317.589 101.922C317.759 103.111 318.622 104.084 319.782 104.395L323.172 105.303C324.342 105.616 325.586 105.195 326.325 104.235L330.307 99.0638C330.744 98.4965 331.402 98.1429 332.112 98.0526C332.829 97.9614 333.557 98.1266 334.136 98.5599L339.389 102.495C340.35 103.214 341.648 103.292 342.687 102.691L345.726 100.937C346.775 100.332 347.357 99.1537 347.2 97.952L346.354 91.4479C346.263 90.7479 346.476 90.0447 346.896 89.4774C347.313 88.9139 347.928 88.5268 348.622 88.4281L355.208 87.4916ZM326.221 86.7341C320.231 85.129 316.672 78.9644 318.277 72.9739C319.882 66.9834 326.047 63.4243 332.037 65.0294C338.028 66.6346 341.587 72.7992 339.982 78.7897C338.376 84.7801 332.212 88.3393 326.221 86.7341Z" fill="url(#paint36_linear_0_416)"/>
<path d="M355.208 87.4916C356.398 87.3223 357.372 86.459 357.684 85.2979L358.591 81.9095C358.905 80.7397 358.484 79.4961 357.525 78.7568L352.305 74.7343C351.746 74.3034 351.404 73.6531 351.319 72.9522C351.235 72.2541 351.393 71.5426 351.815 70.9801L355.783 65.6926C356.504 64.7313 356.582 63.4323 355.981 62.3916L354.226 59.3531C353.62 58.3045 352.443 57.7228 351.243 57.8784L344.798 58.7133C344.075 58.8069 343.354 58.5826 342.773 58.1417C342.206 57.7105 341.808 57.0841 341.707 56.3784L340.78 49.8732C340.611 48.6834 339.748 47.7097 338.587 47.3986L335.196 46.4901C334.027 46.1769 332.785 46.5967 332.045 47.5547L328.117 52.6437C327.658 53.2381 326.966 53.6022 326.22 53.6913C325.483 53.7794 324.733 53.6099 324.139 53.1643L318.982 49.2941C318.021 48.5727 316.722 48.4945 315.681 49.0954L312.643 50.8495C311.595 51.4549 311.013 52.6312 311.168 53.832L311.978 60.1027C312.077 60.8703 311.838 61.6374 311.373 62.2564C310.919 62.8618 310.255 63.2841 309.506 63.3914L303.16 64.3003C301.971 64.4706 300.998 65.3335 300.687 66.4936L299.779 69.884C299.466 71.0539 299.886 72.2975 300.846 73.0368L305.871 76.9091C306.478 77.3772 306.851 78.0822 306.946 78.8432C307.041 79.6028 306.87 80.3785 306.411 80.9911L302.581 86.1001C301.86 87.0612 301.783 88.3593 302.383 89.3995L304.138 92.4381C304.743 93.487 305.92 94.0688 307.121 93.9132L313.461 93.0918C314.201 92.9959 314.941 93.2234 315.542 93.6653C316.145 94.1079 316.565 94.7613 316.671 95.5013L317.589 101.922C317.759 103.111 318.622 104.084 319.782 104.395L323.172 105.303C324.342 105.616 325.586 105.195 326.325 104.235L330.307 99.0638C330.744 98.4965 331.402 98.1429 332.112 98.0526C332.829 97.9614 333.557 98.1266 334.136 98.5599L339.389 102.495C340.35 103.214 341.648 103.292 342.687 102.691L345.726 100.937C346.775 100.332 347.357 99.1537 347.2 97.952L346.354 91.4479C346.263 90.7479 346.476 90.0447 346.896 89.4774C347.313 88.9139 347.928 88.5268 348.622 88.4281L355.208 87.4916ZM326.221 86.7341C320.231 85.129 316.672 78.9644 318.277 72.9739C319.882 66.9834 326.047 63.4243 332.037 65.0294C338.028 66.6346 341.587 72.7992 339.982 78.7897C338.376 84.7801 332.212 88.3393 326.221 86.7341Z" fill="url(#paint37_radial_0_416)"/>
</g>
<path d="M386 43.1157C386 39.2927 389.099 36.1936 392.922 36.1936C396.399 36.1936 399.336 38.7727 399.786 42.2204L402 59.1936H386V43.1157Z" fill="url(#paint38_linear_0_416)"/>
<path d="M386 43.1157C386 39.2927 389.099 36.1936 392.922 36.1936C396.399 36.1936 399.336 38.7727 399.786 42.2204L402 59.1936H386V43.1157Z" fill="url(#paint39_radial_0_416)" fill-opacity="0.7"/>
<rect x="271" y="128.194" width="41" height="4" rx="2" fill="#E6ECF8"/>
<rect x="271" y="128.194" width="41" height="4" rx="2" fill="url(#paint40_linear_0_416)"/>
<rect x="261" y="138.194" width="41" height="4" rx="2" fill="#E6ECF8"/>
<rect x="261" y="138.194" width="41" height="4" rx="2" fill="url(#paint41_linear_0_416)"/>
<rect x="350" y="128.194" width="30" height="4" rx="2" fill="#E6ECF8"/>
<rect x="350" y="128.194" width="30" height="4" rx="2" fill="url(#paint42_linear_0_416)"/>
<rect x="346" y="138.194" width="22" height="4" rx="2" fill="#E6ECF8"/>
<rect x="346" y="138.194" width="22" height="4" rx="2" fill="url(#paint43_linear_0_416)"/>
<rect x="267" y="167" width="176" height="8" rx="4" fill="url(#paint44_linear_0_416)"/>
</g>
<defs>
<filter id="filter0_f_0_416" x="44.7448" y="19.3438" width="15.7477" height="20.6322" filterUnits="userSpaceOnUse" color-interpolation-filters="sRGB">
<feFlood flood-opacity="0" result="BackgroundImageFix"/>
<feBlend mode="normal" in="SourceGraphic" in2="BackgroundImageFix" result="shape"/>
<feGaussianBlur stdDeviation="0.328077" result="effect1_foregroundBlur_0_416"/>
</filter>
<filter id="filter1_d_0_416" x="9.83481" y="13.2407" width="26.2312" height="26.2312" filterUnits="userSpaceOnUse" color-interpolation-filters="sRGB">
<feFlood flood-opacity="0" result="BackgroundImageFix"/>
<feColorMatrix in="SourceAlpha" type="matrix" values="0 0 0 0 0 0 0 0 0 0 0 0 0 0 0 0 0 0 127 0" result="hardAlpha"/>
<feOffset dy="1.07719"/>
<feGaussianBlur stdDeviation="0.538594"/>
<feColorMatrix type="matrix" values="0 0 0 0 0.255 0 0 0 0 0.292623 0 0 0 0 0.425 0 0 0 0.3 0"/>
<feBlend mode="normal" in2="BackgroundImageFix" result="effect1_dropShadow_0_416"/>
<feBlend mode="normal" in="SourceGraphic" in2="effect1_dropShadow_0_416" result="shape"/>
</filter>
<filter id="filter2_f_0_416" x="192.752" y="34.9946" width="32.6073" height="43.1668" filterUnits="userSpaceOnUse" color-interpolation-filters="sRGB">
<feFlood flood-opacity="0" result="BackgroundImageFix"/>
<feBlend mode="normal" in="SourceGraphic" in2="BackgroundImageFix" result="shape"/>
<feGaussianBlur stdDeviation="0.679792" result="effect1_foregroundBlur_0_416"/>
</filter>
<filter id="filter3_d_0_416" x="121.225" y="22.7647" width="54.3524" height="54.3524" filterUnits="userSpaceOnUse" color-interpolation-filters="sRGB">
<feFlood flood-opacity="0" result="BackgroundImageFix"/>
<feColorMatrix in="SourceAlpha" type="matrix" values="0 0 0 0 0 0 0 0 0 0 0 0 0 0 0 0 0 0 127 0" result="hardAlpha"/>
<feOffset dy="2.23199"/>
<feGaussianBlur stdDeviation="1.11599"/>
<feColorMatrix type="matrix" values="0 0 0 0 0.255 0 0 0 0 0.292623 0 0 0 0 0.425 0 0 0 0.3 0"/>
<feBlend mode="normal" in2="BackgroundImageFix" result="effect1_dropShadow_0_416"/>
<feBlend mode="normal" in="SourceGraphic" in2="effect1_dropShadow_0_416" result="shape"/>
</filter>
<filter id="filter4_f_0_416" x="394.5" y="57.1936" width="47.5" height="63.5" filterUnits="userSpaceOnUse" color-interpolation-filters="sRGB">
<feFlood flood-opacity="0" result="BackgroundImageFix"/>
<feBlend mode="normal" in="SourceGraphic" in2="BackgroundImageFix" result="shape"/>
<feGaussianBlur stdDeviation="1" result="effect1_foregroundBlur_0_416"/>
</filter>
<filter id="filter5_d_0_416" x="289.208" y="39.2029" width="79.9545" height="79.9545" filterUnits="userSpaceOnUse" color-interpolation-filters="sRGB">
<feFlood flood-opacity="0" result="BackgroundImageFix"/>
<feColorMatrix in="SourceAlpha" type="matrix" values="0 0 0 0 0 0 0 0 0 0 0 0 0 0 0 0 0 0 127 0" result="hardAlpha"/>
<feOffset dy="3.28334"/>
<feGaussianBlur stdDeviation="1.64167"/>
<feColorMatrix type="matrix" values="0 0 0 0 0.255 0 0 0 0 0.292623 0 0 0 0 0.425 0 0 0 0.3 0"/>
<feBlend mode="normal" in2="BackgroundImageFix" result="effect1_dropShadow_0_416"/>
<feBlend mode="normal" in="SourceGraphic" in2="effect1_dropShadow_0_416" result="shape"/>
</filter>
<linearGradient id="paint0_linear_0_416" x1="39.2819" y1="50.5" x2="39.2819" y2="47" gradientUnits="userSpaceOnUse">
<stop stop-color="#8193DF"/>
<stop offset="1" stop-color="#B3C1F6"/>
</linearGradient>
<linearGradient id="paint1_linear_0_416" x1="8.49231" y1="47.6857" x2="43.4441" y2="12.6383" gradientUnits="userSpaceOnUse">
<stop stop-color="#8193DF"/>
<stop offset="1" stop-color="#B3C1F6"/>
</linearGradient>
<linearGradient id="paint2_linear_0_416" x1="47.6974" y1="31.4326" x2="57.0196" y2="24.6979" gradientUnits="userSpaceOnUse">
<stop stop-color="#8193DF"/>
<stop offset="1" stop-color="#B3C1F6"/>
</linearGradient>
<radialGradient id="paint3_radial_0_416" cx="0" cy="0" r="1" gradientTransform="matrix(-6.23333 4.24639 -6.49085 -9.44545 56.5553 25.2264)" gradientUnits="userSpaceOnUse">
<stop stop-color="white" stop-opacity="0.56"/>
<stop offset="1" stop-color="white" stop-opacity="0"/>
</radialGradient>
<radialGradient id="paint4_radial_0_416" cx="0" cy="0" r="1" gradientUnits="userSpaceOnUse" gradientTransform="translate(22 50) rotate(15.9454) scale(6.70536)">
<stop stop-color="#EA6219"/>
<stop offset="1" stop-color="#FE9100"/>
</radialGradient>
<radialGradient id="paint5_radial_0_416" cx="0" cy="0" r="1" gradientUnits="userSpaceOnUse" gradientTransform="translate(45 50) rotate(15.9454) scale(6.70536)">
<stop stop-color="#EA6219"/>
<stop offset="1" stop-color="#FE9100"/>
</radialGradient>
<linearGradient id="paint6_linear_0_416" x1="28.4858" y1="16.5863" x2="21.4968" y2="22.3805" gradientUnits="userSpaceOnUse">
<stop stop-color="white"/>
<stop offset="1" stop-color="white" stop-opacity="0"/>
</linearGradient>
<radialGradient id="paint7_radial_0_416" cx="0" cy="0" r="1" gradientUnits="userSpaceOnUse" gradientTransform="translate(22.7855 25.3744) rotate(15) scale(5.78988 5.46775)">
<stop stop-color="white"/>
<stop offset="1" stop-color="white" stop-opacity="0"/>
</radialGradient>
<linearGradient id="paint8_linear_0_416" x1="42.4688" y1="20" x2="45.0704" y2="15.0314" gradientUnits="userSpaceOnUse">
<stop stop-color="#EA6219"/>
<stop offset="1" stop-color="#FE9100"/>
</linearGradient>
<radialGradient id="paint9_radial_0_416" cx="0" cy="0" r="1" gradientTransform="matrix(-2.34375 4.56522 -3.26087 -1.5879 44.8125 14.3695)" gradientUnits="userSpaceOnUse">
<stop stop-color="white"/>
<stop offset="1" stop-color="white" stop-opacity="0"/>
</radialGradient>
<linearGradient id="paint10_linear_0_416" x1="14.8765" y1="42" x2="10.5282" y2="42.9172" gradientUnits="userSpaceOnUse">
<stop stop-color="white"/>
<stop offset="1" stop-color="white" stop-opacity="0"/>
</linearGradient>
<linearGradient id="paint11_linear_0_416" x1="12.4634" y1="46" x2="8.26699" y2="46.8516" gradientUnits="userSpaceOnUse">
<stop stop-color="white"/>
<stop offset="1" stop-color="white" stop-opacity="0"/>
</linearGradient>
<linearGradient id="paint12_linear_0_416" x1="38.7689" y1="42" x2="35.5968" y2="42.4779" gradientUnits="userSpaceOnUse">
<stop stop-color="white"/>
<stop offset="1" stop-color="white" stop-opacity="0"/>
</linearGradient>
<linearGradient id="paint13_linear_0_416" x1="34.8267" y1="46" x2="32.4243" y2="46.2715" gradientUnits="userSpaceOnUse">
<stop stop-color="white"/>
<stop offset="1" stop-color="white" stop-opacity="0"/>
</linearGradient>
<linearGradient id="paint14_linear_0_416" x1="37.9659" y1="60" x2="37.9659" y2="56.0625" gradientUnits="userSpaceOnUse">
<stop stop-color="#6776B8"/>
<stop offset="1" stop-color="#1A3594"/>
</linearGradient>
<linearGradient id="paint15_linear_0_416" x1="181.295" y1="100.194" x2="181.295" y2="93.1936" gradientUnits="userSpaceOnUse">
<stop stop-color="#8193DF"/>
<stop offset="1" stop-color="#B3C1F6"/>
</linearGradient>
<linearGradient id="paint16_linear_0_416" x1="117.635" y1="94.1365" x2="190.057" y2="21.5164" gradientUnits="userSpaceOnUse">
<stop stop-color="#8193DF"/>
<stop offset="1" stop-color="#B3C1F6"/>
</linearGradient>
<linearGradient id="paint17_linear_0_416" x1="198.817" y1="60.2267" x2="218.244" y2="46.5602" gradientUnits="userSpaceOnUse">
<stop stop-color="#8193DF"/>
<stop offset="1" stop-color="#B3C1F6"/>
</linearGradient>
<radialGradient id="paint18_radial_0_416" cx="0" cy="0" r="1" gradientTransform="matrix(-12.7594 8.92659 -13.2865 -19.8558 216.949 47.1802)" gradientUnits="userSpaceOnUse">
<stop stop-color="white" stop-opacity="0.56"/>
<stop offset="1" stop-color="white" stop-opacity="0"/>
</radialGradient>
<radialGradient id="paint19_radial_0_416" cx="0" cy="0" r="1" gradientUnits="userSpaceOnUse" gradientTransform="translate(145 97) rotate(15.9454) scale(12.4528 12.4528)">
<stop stop-color="#EA6219"/>
<stop offset="1" stop-color="#FE9100"/>
</radialGradient>
<radialGradient id="paint20_radial_0_416" cx="0" cy="0" r="1" gradientUnits="userSpaceOnUse" gradientTransform="translate(191 97) rotate(15.9454) scale(12.4528 12.4528)">
<stop stop-color="#EA6219"/>
<stop offset="1" stop-color="#FE9100"/>
</radialGradient>
<linearGradient id="paint21_linear_0_416" x1="159.871" y1="29.6968" x2="145.389" y2="41.7027" gradientUnits="userSpaceOnUse">
<stop stop-color="white"/>
<stop offset="1" stop-color="white" stop-opacity="0"/>
</linearGradient>
<radialGradient id="paint22_radial_0_416" cx="0" cy="0" r="1" gradientUnits="userSpaceOnUse" gradientTransform="translate(148.06 47.9062) rotate(15) scale(11.9969 11.3295)">
<stop stop-color="white"/>
<stop offset="1" stop-color="white" stop-opacity="0"/>
</radialGradient>
<linearGradient id="paint23_linear_0_416" x1="188.031" y1="36.1936" x2="194.106" y2="25.0278" gradientUnits="userSpaceOnUse">
<stop stop-color="#EA6219"/>
<stop offset="1" stop-color="#FE9100"/>
</linearGradient>
<radialGradient id="paint24_radial_0_416" cx="0" cy="0" r="1" gradientTransform="matrix(-5.15625 10.4348 -7.17391 -3.62949 193.187 23.324)" gradientUnits="userSpaceOnUse">
<stop stop-color="white"/>
<stop offset="1" stop-color="white" stop-opacity="0"/>
</radialGradient>
<linearGradient id="paint25_linear_0_416" x1="131.537" y1="83.1936" x2="122.862" y2="85.7211" gradientUnits="userSpaceOnUse">
<stop stop-color="white"/>
<stop offset="1" stop-color="white" stop-opacity="0"/>
</linearGradient>
<linearGradient id="paint26_linear_0_416" x1="124.537" y1="90.1936" x2="115.862" y2="92.7211" gradientUnits="userSpaceOnUse">
<stop stop-color="white"/>
<stop offset="1" stop-color="white" stop-opacity="0"/>
</linearGradient>
<linearGradient id="paint27_linear_0_416" x1="179.098" y1="83.1936" x2="172.655" y2="84.5346" gradientUnits="userSpaceOnUse">
<stop stop-color="white"/>
<stop offset="1" stop-color="white" stop-opacity="0"/>
</linearGradient>
<linearGradient id="paint28_linear_0_416" x1="172.073" y1="90.1936" x2="167.152" y2="90.9618" gradientUnits="userSpaceOnUse">
<stop stop-color="white"/>
<stop offset="1" stop-color="white" stop-opacity="0"/>
</linearGradient>
<linearGradient id="paint29_linear_0_416" x1="177.932" y1="116" x2="177.932" y2="108.125" gradientUnits="userSpaceOnUse">
<stop stop-color="#6776B8"/>
<stop offset="1" stop-color="#1A3594"/>
</linearGradient>
<linearGradient id="paint30_linear_0_416" x1="377" y1="153.694" x2="377" y2="143.194" gradientUnits="userSpaceOnUse">
<stop stop-color="#8193DF"/>
<stop offset="1" stop-color="#B3C1F6"/>
</linearGradient>
<linearGradient id="paint31_linear_0_416" x1="284" y1="144.194" x2="390.535" y2="37.3666" gradientUnits="userSpaceOnUse">
<stop stop-color="#8193DF"/>
<stop offset="1" stop-color="#B3C1F6"/>
</linearGradient>
<linearGradient id="paint32_linear_0_416" x1="403.352" y1="94.4063" x2="431.751" y2="74.5639" gradientUnits="userSpaceOnUse">
<stop stop-color="#8193DF"/>
<stop offset="1" stop-color="#B3C1F6"/>
</linearGradient>
<radialGradient id="paint33_radial_0_416" cx="0" cy="0" r="1" gradientTransform="matrix(-18.5682 13.079 -19.3353 -29.0922 429.739 75.2908)" gradientUnits="userSpaceOnUse">
<stop stop-color="white" stop-opacity="0.56"/>
<stop offset="1" stop-color="white" stop-opacity="0"/>
</radialGradient>
<radialGradient id="paint34_radial_0_416" cx="0" cy="0" r="1" gradientUnits="userSpaceOnUse" gradientTransform="translate(324 148) rotate(15.9454) scale(18.2003 18.2003)">
<stop stop-color="#EA6219"/>
<stop offset="1" stop-color="#FE9100"/>
</radialGradient>
<radialGradient id="paint35_radial_0_416" cx="0" cy="0" r="1" gradientUnits="userSpaceOnUse" gradientTransform="translate(392 148) rotate(15.9454) scale(18.2003 18.2003)">
<stop stop-color="#EA6219"/>
<stop offset="1" stop-color="#FE9100"/>
</radialGradient>
<linearGradient id="paint36_linear_0_416" x1="346.058" y1="49.4004" x2="324.754" y2="67.0614" gradientUnits="userSpaceOnUse">
<stop stop-color="white"/>
<stop offset="1" stop-color="white" stop-opacity="0"/>
</linearGradient>
<radialGradient id="paint37_radial_0_416" cx="0" cy="0" r="1" gradientUnits="userSpaceOnUse" gradientTransform="translate(328.683 76.187) rotate(15) scale(17.6479 16.6661)">
<stop stop-color="white"/>
<stop offset="1" stop-color="white" stop-opacity="0"/>
</radialGradient>
<linearGradient id="paint38_linear_0_416" x1="387.5" y1="59.1936" x2="396.176" y2="43.0569" gradientUnits="userSpaceOnUse">
<stop stop-color="#EA6219"/>
<stop offset="1" stop-color="#FE9100"/>
</linearGradient>
<radialGradient id="paint39_radial_0_416" cx="0" cy="0" r="1" gradientUnits="userSpaceOnUse" gradientTransform="translate(395 40.6936) rotate(116.565) scale(16.7705 11.6664)">
<stop stop-color="white"/>
<stop offset="1" stop-color="white" stop-opacity="0"/>
</radialGradient>
<linearGradient id="paint40_linear_0_416" x1="304" y1="128.194" x2="291.5" y2="132.194" gradientUnits="userSpaceOnUse">
<stop stop-color="white"/>
<stop offset="1" stop-color="white" stop-opacity="0"/>
</linearGradient>
<linearGradient id="paint41_linear_0_416" x1="294" y1="138.194" x2="281.5" y2="142.194" gradientUnits="userSpaceOnUse">
<stop stop-color="white"/>
<stop offset="1" stop-color="white" stop-opacity="0"/>
</linearGradient>
<linearGradient id="paint42_linear_0_416" x1="374.146" y1="128.194" x2="364.587" y2="130.432" gradientUnits="userSpaceOnUse">
<stop stop-color="white"/>
<stop offset="1" stop-color="white" stop-opacity="0"/>
</linearGradient>
<linearGradient id="paint43_linear_0_416" x1="363.707" y1="138.194" x2="356.525" y2="139.427" gradientUnits="userSpaceOnUse">
<stop stop-color="white"/>
<stop offset="1" stop-color="white" stop-opacity="0"/>
</linearGradient>
<linearGradient id="paint44_linear_0_416" x1="372.5" y1="175" x2="372.5" y2="164.5" gradientUnits="userSpaceOnUse">
<stop stop-color="#6776B8"/>
<stop offset="1" stop-color="#1A3594"/>
</linearGradient>
<clipPath id="clip0_0_416">
<rect width="64" height="64" fill="white"/>
</clipPath>
<clipPath id="clip1_0_416">
<rect width="19.6587" height="19.6587" fill="white" transform="translate(16 13.2407) rotate(15)"/>
</clipPath>
<clipPath id="clip2_0_416">
<rect width="128" height="128" fill="white" transform="translate(100 1.8064)"/>
</clipPath>
<clipPath id="clip3_0_416">
<rect width="40.7338" height="40.7338" fill="white" transform="translate(134 22.7647) rotate(15)"/>
</clipPath>
<clipPath id="clip4_0_416">
<rect width="192" height="192" fill="white" transform="translate(257 1.8064)"/>
</clipPath>
<clipPath id="clip5_0_416">
<rect width="59.9209" height="59.9209" fill="white" transform="translate(308 39.2029) rotate(15)"/>
</clipPath>
</defs>
</svg>
