<svg width="449" height="194" viewBox="0 0 449 194" fill="none" xmlns="http://www.w3.org/2000/svg">
<g clip-path="url(#clip0_0_525)">
<rect width="64" height="64" rx="32" fill="#1A3594"/>
<path d="M8 9.80643C8 8.14957 9.34315 6.80643 11 6.80643H53C54.6569 6.80643 56 8.14957 56 9.80643V27.8064C56 29.4633 54.6569 30.8064 53 30.8064H11C9.34315 30.8064 8 29.4633 8 27.8064V9.80643Z" fill="#6776B8"/>
<path d="M10.9999 12.8064C10.9999 11.1496 12.3431 9.80643 13.9999 9.80643H49.9999C51.6568 9.80643 52.9999 11.1496 52.9999 12.8064V33.8064C52.9999 35.4633 51.6568 36.8064 49.9999 36.8064H13.9999C12.3431 36.8064 10.9999 35.4633 10.9999 33.8064V12.8064Z" fill="url(#paint0_linear_0_525)"/>
<g filter="url(#filter0_f_0_525)">
<path d="M7.62994 25.1002H55.7204V29.233H7.62994V25.1002Z" fill="url(#paint1_linear_0_525)" fill-opacity="0.4"/>
</g>
<g filter="url(#filter1_d_0_525)">
<path fill-rule="evenodd" clip-rule="evenodd" d="M39.9992 1.8064C39.6271 1.8064 39.311 2.07878 39.256 2.44683L38.6389 6.5796C38.5711 7.03376 38.9229 7.44199 39.3821 7.44199H39.6372V29.9844H42.6429V7.44199H42.898C43.3572 7.44199 43.709 7.03376 43.6412 6.5796L43.024 2.44683C42.9691 2.07878 42.653 1.8064 42.2809 1.8064L39.9992 1.8064Z" fill="url(#paint2_linear_0_525)"/>
<path fill-rule="evenodd" clip-rule="evenodd" d="M39.9992 1.8064C39.6271 1.8064 39.311 2.07878 39.256 2.44683L38.6389 6.5796C38.5711 7.03376 38.9229 7.44199 39.3821 7.44199H39.6372V29.9844H42.6429V7.44199H42.898C43.3572 7.44199 43.709 7.03376 43.6412 6.5796L43.024 2.44683C42.9691 2.07878 42.653 1.8064 42.2809 1.8064L39.9992 1.8064Z" fill="url(#paint3_linear_0_525)" fill-opacity="0.5"/>
<path fill-rule="evenodd" clip-rule="evenodd" d="M41.1401 29.9844V1.8064H42.2809C42.653 1.8064 42.9691 2.07878 43.0241 2.44683L43.6412 6.5796C43.709 7.03376 43.3572 7.44199 42.8981 7.44199H42.6429V29.9844H41.1401Z" fill="url(#paint4_linear_0_525)" fill-opacity="0.5"/>
<g filter="url(#filter2_f_0_525)">
<path fill-rule="evenodd" clip-rule="evenodd" d="M42.1811 1.86178L42.8939 6.63498C42.9278 6.86206 42.7519 7.06618 42.5224 7.06618H41.8915V7.81759H42.5224C42.5631 7.81759 42.6034 7.81545 42.6429 7.81126V7.44212H42.8981C43.3573 7.44212 43.7091 7.03388 43.6413 6.57972L43.0241 2.44695C42.9771 2.13242 42.7395 1.88776 42.4391 1.82326L42.1811 1.86178ZM42.6429 7.81782H41.8915V29.9845H42.6429L42.6429 7.81782Z" fill="url(#paint5_linear_0_525)" fill-opacity="0.4"/>
</g>
<path fill-rule="evenodd" clip-rule="evenodd" d="M38.859 27.8106C38.3551 27.8106 37.9466 28.2191 37.9466 28.7231V33.0571H37.4903C35.9786 33.0571 34.7531 34.2827 34.7531 35.7944V49.709C34.7531 51.2207 35.9786 52.4463 37.4903 52.4463H44.7898C46.3015 52.4463 47.5271 51.2207 47.5271 49.709V35.7944C47.5271 34.2827 46.3015 33.0571 44.7898 33.0571H44.3336V28.7231C44.3336 28.2191 43.9251 27.8106 43.4211 27.8106H38.859Z" fill="url(#paint6_linear_0_525)"/>
<path fill-rule="evenodd" clip-rule="evenodd" d="M38.859 27.8106C38.3551 27.8106 37.9466 28.2191 37.9466 28.7231V33.0571H37.4903C35.9786 33.0571 34.7531 34.2827 34.7531 35.7944V49.709C34.7531 51.2207 35.9786 52.4463 37.4903 52.4463H44.7898C46.3015 52.4463 47.5271 51.2207 47.5271 49.709V35.7944C47.5271 34.2827 46.3015 33.0571 44.7898 33.0571H44.3336V28.7231C44.3336 28.2191 43.9251 27.8106 43.4211 27.8106H38.859Z" fill="url(#paint7_linear_0_525)" fill-opacity="0.4"/>
</g>
<g filter="url(#filter3_d_0_525)">
<path fill-rule="evenodd" clip-rule="evenodd" d="M19.1712 3.47902C19.1712 2.77322 18.443 2.311 17.8533 2.69883C15.3121 4.37013 13.6412 7.20078 13.6412 10.4114C13.6412 14.2617 16.0442 17.5656 19.4696 18.9787V43.4051C16.2218 44.7629 13.8831 47.8343 13.7095 51.5067C13.5579 54.7138 15.0932 57.6203 17.5528 59.4097C18.1235 59.8249 18.8727 59.3976 18.9061 58.6926L19.2469 51.4827C19.2722 50.9468 19.7272 50.5329 20.2631 50.5582L26.3572 50.8463C26.893 50.8717 27.3069 51.3266 27.2816 51.8625L26.9407 59.0723C26.9074 59.7773 27.613 60.2734 28.2204 59.9139C30.8376 58.3644 32.6402 55.6159 32.7918 52.4088C32.9818 48.3904 30.5233 44.844 26.9167 43.3755V18.9786C30.342 17.5654 32.7449 14.2616 32.7449 10.4114C32.7449 7.20074 31.074 4.37007 28.5328 2.69878C27.9431 2.31095 27.2148 2.77317 27.2148 3.47896V10.6968C27.2148 11.2333 26.7799 11.6682 26.2435 11.6682H20.1426C19.6061 11.6682 19.1712 11.2333 19.1712 10.6968L19.1712 3.47902Z" fill="url(#paint8_linear_0_525)"/>
<path fill-rule="evenodd" clip-rule="evenodd" d="M19.1712 3.47902C19.1712 2.77322 18.443 2.311 17.8533 2.69883C15.3121 4.37013 13.6412 7.20078 13.6412 10.4114C13.6412 14.2617 16.0442 17.5656 19.4696 18.9787V43.4051C16.2218 44.7629 13.8831 47.8343 13.7095 51.5067C13.5579 54.7138 15.0932 57.6203 17.5528 59.4097C18.1235 59.8249 18.8727 59.3976 18.9061 58.6926L19.2469 51.4827C19.2722 50.9468 19.7272 50.5329 20.2631 50.5582L26.3572 50.8463C26.893 50.8717 27.3069 51.3266 27.2816 51.8625L26.9407 59.0723C26.9074 59.7773 27.613 60.2734 28.2204 59.9139C30.8376 58.3644 32.6402 55.6159 32.7918 52.4088C32.9818 48.3904 30.5233 44.844 26.9167 43.3755V18.9786C30.342 17.5654 32.7449 14.2616 32.7449 10.4114C32.7449 7.20074 31.074 4.37007 28.5328 2.69878C27.9431 2.31095 27.2148 2.77317 27.2148 3.47896V10.6968C27.2148 11.2333 26.7799 11.6682 26.2435 11.6682H20.1426C19.6061 11.6682 19.1712 11.2333 19.1712 10.6968L19.1712 3.47902Z" fill="url(#paint9_linear_0_525)" fill-opacity="0.5"/>
<g filter="url(#filter4_f_0_525)">
<path fill-rule="evenodd" clip-rule="evenodd" d="M27.8583 2.75809C30.5301 4.32141 32.3112 7.16639 32.3112 10.4114C32.3112 14.0774 30.0372 17.2339 26.7752 18.6065L26.8991 18.901H26.483V42.8334C25.5917 42.5265 24.6408 42.3393 23.6497 42.2924C22.1512 42.2216 20.7139 42.4788 19.4116 42.9995V43.4051C16.1638 44.7629 13.8252 47.8342 13.6516 51.5067C13.5 54.7138 15.0353 57.6202 17.4948 59.4097C18.0656 59.8249 18.8148 59.3976 18.8481 58.6926L19.189 51.4826C19.2143 50.9468 19.6693 50.5329 20.2051 50.5582L26.2992 50.8463C26.8351 50.8716 27.249 51.3266 27.2236 51.8625L26.8828 59.0723C26.8495 59.7773 27.5551 60.2734 28.1624 59.9138C30.7797 58.3644 32.5823 55.6158 32.7339 52.4088C32.9239 48.3903 30.4653 44.8439 26.8588 43.3754V18.9785C30.284 17.5653 32.6869 14.2615 32.6869 10.4113C32.6869 7.20065 31.0161 4.36998 28.4748 2.69869C28.3126 2.592 28.1399 2.54964 27.9748 2.55898L27.8583 2.75809ZM14.0269 51.5245C14.2592 46.6104 18.5425 42.8033 23.6142 43.043C28.6859 43.2828 32.5909 47.477 32.3586 52.3911C32.2134 55.4637 30.4867 58.1013 27.971 59.5906C27.8007 59.6915 27.6286 59.6726 27.4923 59.5808C27.3513 59.4857 27.2477 59.3094 27.2581 59.0901L27.5989 51.8803C27.6341 51.1371 27.0601 50.5062 26.317 50.4711L20.2229 50.183C19.4798 50.1479 18.8488 50.7218 18.8137 51.4649L18.4729 58.6749C18.4625 58.8942 18.3428 59.06 18.1934 59.1413C18.0491 59.2198 17.876 59.2224 17.7159 59.1059C15.3519 57.386 13.8816 54.5972 14.0269 51.5245Z" fill="url(#paint10_linear_0_525)" fill-opacity="0.4"/>
</g>
<g filter="url(#filter5_f_0_525)">
<path fill-rule="evenodd" clip-rule="evenodd" d="M18.9029 2.38239C16.231 3.94571 14.4499 6.79068 14.4499 10.0357C14.4499 13.7017 16.7239 16.8582 19.986 18.2308L19.862 18.5253H20.2782V42.4577C21.1694 42.1508 22.1204 41.9636 23.1115 41.9167C24.6099 41.8459 26.0473 42.1031 27.3496 42.6238V43.0294C30.5974 44.3873 32.936 47.4586 33.1096 51.131C33.2612 54.3381 31.7258 57.2446 29.2663 59.034C28.6956 59.4492 27.9464 59.0219 27.913 58.3169L27.5722 51.107C27.5469 50.5712 27.0919 50.1573 26.556 50.1826L20.4619 50.4707C19.9261 50.496 19.5122 50.951 19.5375 51.4869L19.8784 58.6966C19.9117 59.4016 19.2061 59.8977 18.5987 59.5382C15.9815 57.9887 14.1789 55.2402 14.0273 52.0331C13.8373 48.0146 16.2959 44.4682 19.9025 42.9997L19.9025 18.6029C16.4772 17.1898 14.0742 13.8859 14.0742 10.0357C14.0742 6.82502 15.7451 3.99435 18.2864 2.32306C18.4486 2.21637 18.6213 2.17401 18.7864 2.18336L18.9029 2.38239ZM32.7343 51.1488C32.5019 46.2347 28.2186 42.4276 23.1469 42.6673C18.0753 42.9071 14.1702 47.1013 14.4025 52.0154C14.5478 55.088 16.2745 57.7256 18.7901 59.2149C18.9605 59.3157 19.1326 59.2969 19.2688 59.205C19.4099 59.11 19.5134 58.9337 19.503 58.7144L19.1622 51.5046C19.1271 50.7615 19.701 50.1306 20.4442 50.0954L26.5383 49.8073C27.2814 49.7722 27.9123 50.3462 27.9474 51.0893L28.2883 58.2992C28.2986 58.5185 28.4183 58.6842 28.5677 58.7656C28.712 58.8441 28.8852 58.8467 29.0453 58.7302C31.4093 57.0103 32.8795 54.2215 32.7343 51.1488Z" fill="url(#paint11_linear_0_525)"/>
</g>
<path opacity="0.4" fill-rule="evenodd" clip-rule="evenodd" d="M23.0339 50.6892V11.6682H26.2435C26.7799 11.6682 27.2148 11.2333 27.2148 10.6968V3.47896C27.2148 2.77317 27.9431 2.31095 28.5328 2.69878C31.074 4.37007 32.7449 7.20074 32.7449 10.4114C32.7449 14.2616 30.342 17.5654 26.9167 18.9786V43.3755C30.5233 44.844 32.9818 48.3904 32.7918 52.4088C32.6402 55.6159 30.8376 58.3644 28.2204 59.9139C27.613 60.2734 26.9074 59.7773 26.9407 59.0723L27.2816 51.8625C27.3069 51.3266 26.893 50.8717 26.3572 50.8463L23.0339 50.6892Z" fill="url(#paint12_linear_0_525)"/>
</g>
<path d="M8 31.8064C8 30.1496 9.34315 28.8064 11 28.8064H53C54.6569 28.8064 56 30.1496 56 31.8064V57.8064C56 59.4633 54.6569 60.8064 53 60.8064H11C9.34315 60.8064 8 59.4633 8 57.8064V31.8064Z" fill="url(#paint13_linear_0_525)"/>
<path d="M8 31.8064C8 30.1496 9.34315 28.8064 11 28.8064H53C54.6569 28.8064 56 30.1496 56 31.8064V57.8064C56 59.4633 54.6569 60.8064 53 60.8064H11C9.34315 60.8064 8 59.4633 8 57.8064V31.8064Z" fill="url(#paint14_linear_0_525)" fill-opacity="0.4"/>
<g opacity="0.5" filter="url(#filter6_f_0_525)">
<path d="M8.26788 28.8064V57.4897C8.26788 59.1497 9.61357 60.4954 11.2735 60.4954H52" stroke="#6776B8" stroke-opacity="0.8" stroke-width="0.751413"/>
<path d="M8.26788 28.8064V57.4897C8.26788 59.1497 9.61357 60.4954 11.2735 60.4954H52" stroke="url(#paint15_linear_0_525)" stroke-width="0.751413"/>
</g>
<g filter="url(#filter7_f_0_525)">
<path d="M7.62994 27.7303H55.7204V32.6145L7.62994 34.3051V27.7303Z" fill="#6776B8" fill-opacity="0.7"/>
</g>
<path d="M5 29.8064C5 28.1496 6.34315 26.8064 8 26.8064H55C56.6569 26.8064 58 28.1496 58 29.8064C58 31.4633 56.6569 32.8064 55 32.8064H8C6.34315 32.8064 5 31.4633 5 29.8064Z" fill="url(#paint16_linear_0_525)"/>
<path d="M5 29.8064C5 28.1496 6.34315 26.8064 8 26.8064H55C56.6569 26.8064 58 28.1496 58 29.8064C58 31.4633 56.6569 32.8064 55 32.8064H8C6.34315 32.8064 5 31.4633 5 29.8064Z" fill="url(#paint17_linear_0_525)" fill-opacity="0.4"/>
<g clip-path="url(#clip1_0_525)" filter="url(#filter8_d_0_525)">
<path d="M42.463 47.5469L41.9483 49.4679C41.8892 49.6883 41.7043 49.8522 41.4784 49.8843L38.5655 50.2985C38.4085 50.3208 38.2686 50.4081 38.1763 50.537C38.1162 50.6209 38.055 50.7039 37.9918 50.7857C37.8942 50.912 37.8465 51.071 37.8671 51.2293L38.2431 54.1173C38.2727 54.3454 38.1623 54.569 37.9631 54.684L36.2916 55.649C36.0695 55.7773 35.789 55.7412 35.6066 55.5609L33.672 53.649L33.3108 53.3003C33.1443 53.1395 33.0917 52.8941 33.1777 52.6792L33.6615 51.4697C33.7287 51.3016 33.712 51.1115 33.6164 50.9577L33.2607 50.3854C33.0456 50.0393 33.258 49.5851 33.6317 49.4225C34.6474 48.9808 35.2025 48.0498 35.5521 46.7449C36.1403 44.5497 34.8361 42.2907 32.6409 41.7025C32.3536 41.6256 32.0653 41.581 31.7797 41.5666C31.5217 41.5536 31.2858 41.397 31.2055 41.1514L30.9999 40.5221C30.9612 40.4035 30.9625 40.2756 31.0035 40.1578L31.8913 37.6108L32.9 35.1803C33.0095 34.9166 33.2974 34.7747 33.5733 34.8486L35.3792 35.3325C35.5995 35.3915 35.7633 35.5763 35.7955 35.8022L36.2073 38.6917C36.2296 38.8488 36.3171 38.9886 36.4453 39.082C36.5333 39.1462 36.6197 39.2117 36.7046 39.2792C36.8315 39.3803 36.9928 39.4301 37.1537 39.4092L40.0289 39.0367C40.2568 39.0072 40.4802 39.1176 40.5951 39.3166L41.59 41.039C41.7041 41.2366 41.6893 41.4831 41.5524 41.6656L39.7966 44.0055C39.7004 44.1337 39.664 44.2962 39.6868 44.4548C39.7014 44.5559 39.7134 44.6573 39.7237 44.7592C39.74 44.9192 39.8189 45.0668 39.9463 45.165L42.2606 46.9485C42.4427 47.0888 42.5225 47.3248 42.463 47.5469Z" fill="#E6ECF8"/>
<path d="M42.463 47.5469L41.9483 49.4679C41.8892 49.6883 41.7043 49.8522 41.4784 49.8843L38.5655 50.2985C38.4085 50.3208 38.2686 50.4081 38.1763 50.537C38.1162 50.6209 38.055 50.7039 37.9918 50.7857C37.8942 50.912 37.8465 51.071 37.8671 51.2293L38.2431 54.1173C38.2727 54.3454 38.1623 54.569 37.9631 54.684L36.2916 55.649C36.0695 55.7773 35.789 55.7412 35.6066 55.5609L33.672 53.649L33.3108 53.3003C33.1443 53.1395 33.0917 52.8941 33.1777 52.6792L33.6615 51.4697C33.7287 51.3016 33.712 51.1115 33.6164 50.9577L33.2607 50.3854C33.0456 50.0393 33.258 49.5851 33.6317 49.4225C34.6474 48.9808 35.2025 48.0498 35.5521 46.7449C36.1403 44.5497 34.8361 42.2907 32.6409 41.7025C32.3536 41.6256 32.0653 41.581 31.7797 41.5666C31.5217 41.5536 31.2858 41.397 31.2055 41.1514L30.9999 40.5221C30.9612 40.4035 30.9625 40.2756 31.0035 40.1578L31.8913 37.6108L32.9 35.1803C33.0095 34.9166 33.2974 34.7747 33.5733 34.8486L35.3792 35.3325C35.5995 35.3915 35.7633 35.5763 35.7955 35.8022L36.2073 38.6917C36.2296 38.8488 36.3171 38.9886 36.4453 39.082C36.5333 39.1462 36.6197 39.2117 36.7046 39.2792C36.8315 39.3803 36.9928 39.4301 37.1537 39.4092L40.0289 39.0367C40.2568 39.0072 40.4802 39.1176 40.5951 39.3166L41.59 41.039C41.7041 41.2366 41.6893 41.4831 41.5524 41.6656L39.7966 44.0055C39.7004 44.1337 39.664 44.2962 39.6868 44.4548C39.7014 44.5559 39.7134 44.6573 39.7237 44.7592C39.74 44.9192 39.8189 45.0668 39.9463 45.165L42.2606 46.9485C42.4427 47.0888 42.5225 47.3248 42.463 47.5469Z" fill="url(#paint18_linear_0_525)"/>
<path d="M42.463 47.5469L41.9483 49.4679C41.8892 49.6883 41.7043 49.8522 41.4784 49.8843L38.5655 50.2985C38.4085 50.3208 38.2686 50.4081 38.1763 50.537C38.1162 50.6209 38.055 50.7039 37.9918 50.7857C37.8942 50.912 37.8465 51.071 37.8671 51.2293L38.2431 54.1173C38.2727 54.3454 38.1623 54.569 37.9631 54.684L36.2916 55.649C36.0695 55.7773 35.789 55.7412 35.6066 55.5609L33.672 53.649L33.3108 53.3003C33.1443 53.1395 33.0917 52.8941 33.1777 52.6792L33.6615 51.4697C33.7287 51.3016 33.712 51.1115 33.6164 50.9577L33.2607 50.3854C33.0456 50.0393 33.258 49.5851 33.6317 49.4225C34.6474 48.9808 35.2025 48.0498 35.5521 46.7449C36.1403 44.5497 34.8361 42.2907 32.6409 41.7025C32.3536 41.6256 32.0653 41.581 31.7797 41.5666C31.5217 41.5536 31.2858 41.397 31.2055 41.1514L30.9999 40.5221C30.9612 40.4035 30.9625 40.2756 31.0035 40.1578L31.8913 37.6108L32.9 35.1803C33.0095 34.9166 33.2974 34.7747 33.5733 34.8486L35.3792 35.3325C35.5995 35.3915 35.7633 35.5763 35.7955 35.8022L36.2073 38.6917C36.2296 38.8488 36.3171 38.9886 36.4453 39.082C36.5333 39.1462 36.6197 39.2117 36.7046 39.2792C36.8315 39.3803 36.9928 39.4301 37.1537 39.4092L40.0289 39.0367C40.2568 39.0072 40.4802 39.1176 40.5951 39.3166L41.59 41.039C41.7041 41.2366 41.6893 41.4831 41.5524 41.6656L39.7966 44.0055C39.7004 44.1337 39.664 44.2962 39.6868 44.4548C39.7014 44.5559 39.7134 44.6573 39.7237 44.7592C39.74 44.9192 39.8189 45.0668 39.9463 45.165L42.2606 46.9485C42.4427 47.0888 42.5225 47.3248 42.463 47.5469Z" fill="url(#paint19_radial_0_525)"/>
<path d="M27.5772 35.7264L29.7779 37.378C29.9651 37.5185 30.0472 37.7591 29.9851 37.9847L29.2336 40.7119C29.1783 40.9123 29.2446 41.1266 29.4033 41.2609C29.7121 41.5224 29.6302 42.0291 29.2933 42.2533C28.4888 42.7886 27.8682 43.6076 27.5986 44.6137C27.0104 46.8089 28.3146 49.0679 30.5098 49.656C30.5674 49.6715 30.6249 49.6856 30.6826 49.6984C30.845 49.7346 30.9904 49.829 31.0777 49.9708L31.7521 51.0673C31.8403 51.2107 31.8605 51.3859 31.8073 51.5457L31.4536 52.6065C31.3851 52.8123 31.4393 53.0391 31.5935 53.1916L31.9 53.4945C32.1044 53.6966 32.1262 54.0192 31.9509 54.2469L30.3322 56.3492C30.1919 56.5314 29.9558 56.6114 29.7337 56.5519L27.8125 56.0371C27.5922 55.9781 27.4284 55.7934 27.3962 55.5677L26.9851 52.693C26.9623 52.5337 26.8726 52.3923 26.741 52.2997C26.6442 52.2315 26.5489 52.162 26.4555 52.0895C26.3286 51.9911 26.1688 51.9424 26.0095 51.963L23.1603 52.3322C22.9324 52.3617 22.709 52.2513 22.5941 52.0522L21.5997 50.3298C21.4857 50.1324 21.5004 49.886 21.6372 49.7036L23.3637 47.4003C23.4598 47.2722 23.4962 47.1097 23.4724 46.9513C23.4536 46.8266 23.4381 46.7016 23.4251 46.5759C23.4086 46.4164 23.3296 46.2693 23.2025 46.1713L20.9313 44.4211C20.7492 44.2808 20.6693 44.0448 20.7288 43.8227L21.2437 41.9013C21.3027 41.6811 21.4873 41.5173 21.7129 41.485L24.5687 41.0759C24.7258 41.0534 24.8658 40.9658 24.9584 40.8369C25.0319 40.7347 25.1069 40.6343 25.1849 40.5358C25.2858 40.4087 25.3357 40.2473 25.3149 40.0863L24.9484 37.2491C24.919 37.0212 25.0294 36.7979 25.2284 36.683L26.9507 35.6887C27.1482 35.5746 27.3948 35.5895 27.5772 35.7264Z" fill="#E6ECF8"/>
<path d="M27.5772 35.7264L29.7779 37.378C29.9651 37.5185 30.0472 37.7591 29.9851 37.9847L29.2336 40.7119C29.1783 40.9123 29.2446 41.1266 29.4033 41.2609C29.7121 41.5224 29.6302 42.0291 29.2933 42.2533C28.4888 42.7886 27.8682 43.6076 27.5986 44.6137C27.0104 46.8089 28.3146 49.0679 30.5098 49.656C30.5674 49.6715 30.6249 49.6856 30.6826 49.6984C30.845 49.7346 30.9904 49.829 31.0777 49.9708L31.7521 51.0673C31.8403 51.2107 31.8605 51.3859 31.8073 51.5457L31.4536 52.6065C31.3851 52.8123 31.4393 53.0391 31.5935 53.1916L31.9 53.4945C32.1044 53.6966 32.1262 54.0192 31.9509 54.2469L30.3322 56.3492C30.1919 56.5314 29.9558 56.6114 29.7337 56.5519L27.8125 56.0371C27.5922 55.9781 27.4284 55.7934 27.3962 55.5677L26.9851 52.693C26.9623 52.5337 26.8726 52.3923 26.741 52.2997C26.6442 52.2315 26.5489 52.162 26.4555 52.0895C26.3286 51.9911 26.1688 51.9424 26.0095 51.963L23.1603 52.3322C22.9324 52.3617 22.709 52.2513 22.5941 52.0522L21.5997 50.3298C21.4857 50.1324 21.5004 49.886 21.6372 49.7036L23.3637 47.4003C23.4598 47.2722 23.4962 47.1097 23.4724 46.9513C23.4536 46.8266 23.4381 46.7016 23.4251 46.5759C23.4086 46.4164 23.3296 46.2693 23.2025 46.1713L20.9313 44.4211C20.7492 44.2808 20.6693 44.0448 20.7288 43.8227L21.2437 41.9013C21.3027 41.6811 21.4873 41.5173 21.7129 41.485L24.5687 41.0759C24.7258 41.0534 24.8658 40.9658 24.9584 40.8369C25.0319 40.7347 25.1069 40.6343 25.1849 40.5358C25.2858 40.4087 25.3357 40.2473 25.3149 40.0863L24.9484 37.2491C24.919 37.0212 25.0294 36.7979 25.2284 36.683L26.9507 35.6887C27.1482 35.5746 27.3948 35.5895 27.5772 35.7264Z" fill="url(#paint20_linear_0_525)"/>
<path d="M27.5772 35.7264L29.7779 37.378C29.9651 37.5185 30.0472 37.7591 29.9851 37.9847L29.2336 40.7119C29.1783 40.9123 29.2446 41.1266 29.4033 41.2609C29.7121 41.5224 29.6302 42.0291 29.2933 42.2533C28.4888 42.7886 27.8682 43.6076 27.5986 44.6137C27.0104 46.8089 28.3146 49.0679 30.5098 49.656C30.5674 49.6715 30.6249 49.6856 30.6826 49.6984C30.845 49.7346 30.9904 49.829 31.0777 49.9708L31.7521 51.0673C31.8403 51.2107 31.8605 51.3859 31.8073 51.5457L31.4536 52.6065C31.3851 52.8123 31.4393 53.0391 31.5935 53.1916L31.9 53.4945C32.1044 53.6966 32.1262 54.0192 31.9509 54.2469L30.3322 56.3492C30.1919 56.5314 29.9558 56.6114 29.7337 56.5519L27.8125 56.0371C27.5922 55.9781 27.4284 55.7934 27.3962 55.5677L26.9851 52.693C26.9623 52.5337 26.8726 52.3923 26.741 52.2997C26.6442 52.2315 26.5489 52.162 26.4555 52.0895C26.3286 51.9911 26.1688 51.9424 26.0095 51.963L23.1603 52.3322C22.9324 52.3617 22.709 52.2513 22.5941 52.0522L21.5997 50.3298C21.4857 50.1324 21.5004 49.886 21.6372 49.7036L23.3637 47.4003C23.4598 47.2722 23.4962 47.1097 23.4724 46.9513C23.4536 46.8266 23.4381 46.7016 23.4251 46.5759C23.4086 46.4164 23.3296 46.2693 23.2025 46.1713L20.9313 44.4211C20.7492 44.2808 20.6693 44.0448 20.7288 43.8227L21.2437 41.9013C21.3027 41.6811 21.4873 41.5173 21.7129 41.485L24.5687 41.0759C24.7258 41.0534 24.8658 40.9658 24.9584 40.8369C25.0319 40.7347 25.1069 40.6343 25.1849 40.5358C25.2858 40.4087 25.3357 40.2473 25.3149 40.0863L24.9484 37.2491C24.919 37.0212 25.0294 36.7979 25.2284 36.683L26.9507 35.6887C27.1482 35.5746 27.3948 35.5895 27.5772 35.7264Z" fill="url(#paint21_radial_0_525)"/>
</g>
<g filter="url(#filter9_d_0_525)">
<path d="M57.114 15.5572V14.2485L55.9806 13.5941L55.3263 12.4608H54.0176L52.8842 11.8064L51.7508 12.4608H50.4421L49.7877 13.5941L48.6544 14.2485V15.5572L48 16.6906L48.6544 17.824V19.1327L49.7877 19.787L50.4421 20.9204H51.7508L52.8842 21.5748L54.0176 20.9204H55.3263L55.9806 19.787L57.114 19.1327V17.824L57.7684 16.6906L57.114 15.5572ZM52.8842 17.9245C52.2027 17.9245 51.6504 17.372 51.6504 16.6906C51.6504 16.0091 52.2028 15.4567 52.8842 15.4567C53.5657 15.4567 54.1181 16.0091 54.1181 16.6906C54.1181 17.3721 53.5657 17.9245 52.8842 17.9245Z" fill="#E6ECF8"/>
<path d="M57.114 15.5572V14.2485L55.9806 13.5941L55.3263 12.4608H54.0176L52.8842 11.8064L51.7508 12.4608H50.4421L49.7877 13.5941L48.6544 14.2485V15.5572L48 16.6906L48.6544 17.824V19.1327L49.7877 19.787L50.4421 20.9204H51.7508L52.8842 21.5748L54.0176 20.9204H55.3263L55.9806 19.787L57.114 19.1327V17.824L57.7684 16.6906L57.114 15.5572ZM52.8842 17.9245C52.2027 17.9245 51.6504 17.372 51.6504 16.6906C51.6504 16.0091 52.2028 15.4567 52.8842 15.4567C53.5657 15.4567 54.1181 16.0091 54.1181 16.6906C54.1181 17.3721 53.5657 17.9245 52.8842 17.9245Z" fill="url(#paint22_radial_0_525)"/>
</g>
</g>
<g clip-path="url(#clip2_0_525)">
<rect width="128" height="128" transform="translate(100 1.8064)" fill="white"/>
<rect x="100" y="1.8064" width="128" height="128" rx="64" fill="#1A3594"/>
<path d="M115 22.8065C115 19.4927 117.686 16.8065 121 16.8065H203C206.314 16.8065 209 19.4927 209 22.8065V55.8065C209 59.1202 206.314 61.8065 203 61.8065H121C117.686 61.8065 115 59.1202 115 55.8065V22.8065Z" fill="#6776B8"/>
<path d="M119 26.8065C119 23.4927 121.686 20.8065 125 20.8065H199C202.314 20.8065 205 23.4927 205 26.8065V57.8065C205 61.1202 202.314 63.8065 199 63.8065H125C121.686 63.8065 119 61.1202 119 57.8065V26.8065Z" fill="url(#paint23_linear_0_525)"/>
<g filter="url(#filter10_f_0_525)">
<path d="M115.127 52.215H208.873V60.2713H115.127V52.215Z" fill="url(#paint24_linear_0_525)" fill-opacity="0.4"/>
</g>
<g filter="url(#filter11_d_0_525)">
<path fill-rule="evenodd" clip-rule="evenodd" d="M178.227 6.80644C177.501 6.80644 176.885 7.33742 176.778 8.05489L175.575 16.1112C175.443 16.9965 176.129 17.7924 177.024 17.7924H177.521V61.736H183.38V17.7924H183.878C184.773 17.7924 185.459 16.9965 185.326 16.1112L184.123 8.05489C184.016 7.33742 183.4 6.80644 182.675 6.80644H178.227Z" fill="url(#paint25_linear_0_525)"/>
<path fill-rule="evenodd" clip-rule="evenodd" d="M178.227 6.80644C177.501 6.80644 176.885 7.33742 176.778 8.05489L175.575 16.1112C175.443 16.9965 176.129 17.7924 177.024 17.7924H177.521V61.736H183.38V17.7924H183.878C184.773 17.7924 185.459 16.9965 185.326 16.1112L184.123 8.05489C184.016 7.33742 183.4 6.80644 182.675 6.80644H178.227Z" fill="url(#paint26_linear_0_525)" fill-opacity="0.5"/>
<path fill-rule="evenodd" clip-rule="evenodd" d="M180.451 61.736V6.80644H182.675C183.4 6.80644 184.016 7.33742 184.123 8.05489L185.326 16.1112C185.459 16.9965 184.773 17.7924 183.878 17.7924H183.38V61.736H180.451Z" fill="url(#paint27_linear_0_525)" fill-opacity="0.5"/>
<g filter="url(#filter12_f_0_525)">
<path fill-rule="evenodd" clip-rule="evenodd" d="M182.48 6.91376L183.87 16.2185C183.936 16.6612 183.593 17.0591 183.145 17.0591H181.916V18.5239H183.145C183.225 18.5239 183.303 18.5197 183.38 18.5116V17.7924H183.878C184.773 17.7924 185.459 16.9965 185.326 16.1112L184.123 8.05488C184.032 7.44138 183.568 6.96424 182.982 6.83884L182.48 6.91376ZM183.38 18.5248H181.916V61.736H183.38L183.38 18.5248Z" fill="url(#paint28_linear_0_525)" fill-opacity="0.4"/>
</g>
<path fill-rule="evenodd" clip-rule="evenodd" d="M176.004 57.4986C175.022 57.4986 174.225 58.2949 174.225 59.2772V67.726H173.336C170.389 67.726 168 70.115 168 73.062V100.187C168 103.134 170.389 105.523 173.336 105.523H187.565C190.512 105.523 192.901 103.134 192.901 100.187V73.062C192.901 70.115 190.512 67.726 187.565 67.726H186.676V59.2772C186.676 58.2949 185.88 57.4986 184.897 57.4986L176.004 57.4986Z" fill="url(#paint29_linear_0_525)"/>
<path fill-rule="evenodd" clip-rule="evenodd" d="M176.004 57.4986C175.022 57.4986 174.225 58.2949 174.225 59.2772V67.726H173.336C170.389 67.726 168 70.115 168 73.062V100.187C168 103.134 170.389 105.523 173.336 105.523H187.565C190.512 105.523 192.901 103.134 192.901 100.187V73.062C192.901 70.115 190.512 67.726 187.565 67.726H186.676V59.2772C186.676 58.2949 185.88 57.4986 184.897 57.4986L176.004 57.4986Z" fill="url(#paint30_linear_0_525)" fill-opacity="0.4"/>
</g>
<g filter="url(#filter13_d_0_525)">
<path fill-rule="evenodd" clip-rule="evenodd" d="M137.625 10.0669C137.625 8.69104 136.206 7.79002 135.056 8.54604C130.102 11.804 126.845 17.322 126.845 23.5808C126.845 31.0865 131.529 37.5269 138.207 40.2817V87.8982C131.876 90.5452 127.317 96.5323 126.978 103.691C126.683 109.943 129.676 115.609 134.47 119.097C135.583 119.907 137.043 119.074 137.108 117.699L137.773 103.644C137.822 102.6 138.709 101.793 139.754 101.842L151.633 102.404C152.678 102.453 153.485 103.34 153.435 104.385L152.771 118.439C152.706 119.814 154.081 120.781 155.265 120.08C160.368 117.06 163.881 111.702 164.177 105.45C164.547 97.6163 159.755 90.7029 152.724 87.8403V40.2816C159.401 37.5267 164.085 31.0864 164.085 23.5808C164.085 17.322 160.828 11.804 155.874 8.54603C154.725 7.79001 153.305 8.69104 153.305 10.0669V24.1372C153.305 25.183 152.457 26.0307 151.412 26.0307H139.519C138.473 26.0307 137.625 25.183 137.625 24.1372V10.0669Z" fill="url(#paint31_linear_0_525)"/>
<path fill-rule="evenodd" clip-rule="evenodd" d="M137.625 10.0669C137.625 8.69104 136.206 7.79002 135.056 8.54604C130.102 11.804 126.845 17.322 126.845 23.5808C126.845 31.0865 131.529 37.5269 138.207 40.2817V87.8982C131.876 90.5452 127.317 96.5323 126.978 103.691C126.683 109.943 129.676 115.609 134.47 119.097C135.583 119.907 137.043 119.074 137.108 117.699L137.773 103.644C137.822 102.6 138.709 101.793 139.754 101.842L151.633 102.404C152.678 102.453 153.485 103.34 153.435 104.385L152.771 118.439C152.706 119.814 154.081 120.781 155.265 120.08C160.368 117.06 163.881 111.702 164.177 105.45C164.547 97.6163 159.755 90.7029 152.724 87.8403V40.2816C159.401 37.5267 164.085 31.0864 164.085 23.5808C164.085 17.322 160.828 11.804 155.874 8.54603C154.725 7.79001 153.305 8.69104 153.305 10.0669V24.1372C153.305 25.183 152.457 26.0307 151.412 26.0307H139.519C138.473 26.0307 137.625 25.183 137.625 24.1372V10.0669Z" fill="url(#paint32_linear_0_525)" fill-opacity="0.5"/>
<g filter="url(#filter14_f_0_525)">
<path fill-rule="evenodd" clip-rule="evenodd" d="M154.559 8.66163C159.768 11.7091 163.24 17.2551 163.24 23.5808C163.24 30.7272 158.807 36.8804 152.448 39.5561L152.69 40.1304H151.878V86.7836C150.141 86.1853 148.287 85.8204 146.355 85.7291C143.434 85.591 140.632 86.0923 138.093 87.1075V87.8982C131.762 90.5452 127.204 96.5323 126.865 103.691C126.57 109.943 129.563 115.609 134.357 119.097C135.47 119.907 136.93 119.074 136.995 117.699L137.66 103.644C137.709 102.6 138.596 101.793 139.641 101.842L151.52 102.404C152.565 102.453 153.372 103.34 153.322 104.385L152.658 118.439C152.593 119.814 153.968 120.781 155.152 120.08C160.254 117.06 163.768 111.702 164.064 105.45C164.434 97.6163 159.641 90.7029 152.611 87.8403V40.2816C159.288 37.5268 163.972 31.0864 163.972 23.5808C163.972 17.322 160.715 11.804 155.761 8.54603C155.445 8.33802 155.108 8.25545 154.786 8.2737L154.559 8.66163ZM127.597 103.726C128.05 94.1464 136.399 86.7249 146.286 87.1923C156.173 87.6597 163.785 95.8358 163.332 105.415C163.049 111.405 159.683 116.547 154.779 119.45C154.447 119.646 154.112 119.61 153.846 119.431C153.571 119.245 153.369 118.902 153.389 118.474L154.054 104.419C154.122 102.971 153.003 101.741 151.555 101.672L139.675 101.111C138.226 101.042 136.997 102.161 136.928 103.61L136.264 117.665C136.243 118.092 136.01 118.415 135.719 118.574C135.438 118.727 135.1 118.732 134.788 118.505C130.18 115.152 127.314 109.716 127.597 103.726Z" fill="url(#paint33_linear_0_525)" fill-opacity="0.4"/>
</g>
<g filter="url(#filter15_f_0_525)">
<path fill-rule="evenodd" clip-rule="evenodd" d="M137.102 7.92924C131.894 10.9767 128.422 16.5227 128.422 22.8484C128.422 29.9948 132.855 36.148 139.214 38.8237L138.972 39.398H139.783V86.0513C141.52 85.4529 143.374 85.0881 145.306 84.9967C148.227 84.8586 151.029 85.3599 153.568 86.3751V87.1659C159.899 89.8129 164.458 95.8 164.796 102.959C165.092 109.211 162.099 114.876 157.304 118.365C156.192 119.174 154.731 118.341 154.666 116.967L154.002 102.912C153.952 101.867 153.065 101.061 152.021 101.11L140.141 101.672C139.097 101.721 138.29 102.608 138.339 103.653L139.004 117.707C139.069 119.081 137.693 120.049 136.509 119.348C131.407 116.327 127.893 110.969 127.598 104.717C127.227 96.8839 132.02 89.9705 139.051 87.1079V39.5492C132.373 36.7944 127.689 30.354 127.689 22.8484C127.689 16.5897 130.946 11.0716 135.9 7.81364C136.216 7.60563 136.553 7.52306 136.875 7.54131L137.102 7.92924ZM164.065 102.993C163.612 93.414 155.262 85.9925 145.375 86.4599C135.489 86.9273 127.876 95.1034 128.329 104.683C128.612 110.673 131.978 115.814 136.882 118.717C137.214 118.914 137.55 118.877 137.815 118.698C138.09 118.513 138.292 118.169 138.272 117.742L137.608 103.687C137.539 102.238 138.658 101.009 140.107 100.94L151.986 100.378C153.435 100.31 154.665 101.429 154.733 102.877L155.398 116.932C155.418 117.36 155.651 117.683 155.943 117.841C156.224 117.995 156.561 118 156.873 117.773C161.482 114.42 164.348 108.983 164.065 102.993Z" fill="url(#paint34_linear_0_525)"/>
</g>
<path opacity="0.4" fill-rule="evenodd" clip-rule="evenodd" d="M145.155 102.098V26.0307H151.412C152.457 26.0307 153.305 25.183 153.305 24.1372V10.0669C153.305 8.69104 154.725 7.79001 155.874 8.54603C160.828 11.804 164.085 17.322 164.085 23.5808C164.085 31.0864 159.401 37.5267 152.724 40.2816V87.8403C159.755 90.7029 164.547 97.6163 164.177 105.45C163.881 111.702 160.367 117.06 155.265 120.08C154.081 120.781 152.706 119.814 152.771 118.439L153.435 104.385C153.485 103.34 152.678 102.453 151.633 102.404L145.155 102.098Z" fill="url(#paint35_linear_0_525)"/>
</g>
<path d="M115 65.8063C115 62.4926 117.686 59.8063 121 59.8063H203C206.314 59.8063 209 62.4926 209 65.8063V115.806C209 119.12 206.314 121.806 203 121.806H121C117.686 121.806 115 119.12 115 115.806V65.8063Z" fill="url(#paint36_linear_0_525)"/>
<path d="M115 65.8063C115 62.4926 117.686 59.8063 121 59.8063H203C206.314 59.8063 209 62.4926 209 65.8063V115.806C209 119.12 206.314 121.806 203 121.806H121C117.686 121.806 115 119.12 115 115.806V65.8063Z" fill="url(#paint37_linear_0_525)" fill-opacity="0.4"/>
<g opacity="0.5" filter="url(#filter16_f_0_525)">
<path d="M115.859 59.5389V115.201C115.859 118.437 118.482 121.06 121.718 121.06H201.549" stroke="#6776B8" stroke-opacity="0.8" stroke-width="1.46479"/>
<path d="M115.859 59.5389V115.201C115.859 118.437 118.482 121.06 121.718 121.06H201.549" stroke="url(#paint38_linear_0_525)" stroke-width="1.46479"/>
</g>
<g filter="url(#filter17_f_0_525)">
<path d="M115.127 57.3417H208.873V66.8628L115.127 70.1586V57.3417Z" fill="#6776B8" fill-opacity="0.7"/>
</g>
<path d="M110 60.8063C110 57.4926 112.686 54.8063 116 54.8063H208C211.314 54.8063 214 57.4926 214 60.8063C214 64.12 211.314 66.8063 208 66.8063H116C112.686 66.8063 110 64.12 110 60.8063Z" fill="url(#paint39_linear_0_525)"/>
<path d="M110 60.8063C110 57.4926 112.686 54.8063 116 54.8063H208C211.314 54.8063 214 57.4926 214 60.8063C214 64.12 211.314 66.8063 208 66.8063H116C112.686 66.8063 110 64.12 110 60.8063Z" fill="url(#paint40_linear_0_525)" fill-opacity="0.4"/>
<g clip-path="url(#clip3_0_525)" filter="url(#filter18_d_0_525)">
<path d="M183.03 95.9719L182.026 99.7169C181.911 100.146 181.551 100.466 181.11 100.529L175.432 101.336C175.126 101.379 174.853 101.549 174.673 101.801C174.556 101.964 174.437 102.126 174.313 102.286C174.123 102.532 174.03 102.842 174.07 103.15L174.803 108.78C174.861 109.225 174.646 109.661 174.258 109.885L170.999 111.766C170.566 112.016 170.019 111.946 169.664 111.594L165.893 107.867L165.188 107.188C164.864 106.874 164.761 106.396 164.929 105.977L165.872 103.619C166.003 103.291 165.97 102.921 165.784 102.621L165.091 101.505C164.671 100.831 165.085 99.9452 165.814 99.6283C167.794 98.7672 168.876 96.9524 169.558 94.4085C170.704 90.1293 168.162 85.7258 163.883 84.5791C163.323 84.4291 162.76 84.3422 162.204 84.3141C161.701 84.2888 161.241 83.9835 161.084 83.5048L160.684 82.278C160.608 82.0469 160.611 81.7974 160.691 81.5679L162.421 76.6029L164.388 71.8649C164.601 71.3507 165.162 71.0741 165.7 71.2182L169.22 72.1615C169.65 72.2766 169.969 72.6369 170.032 73.0771L170.835 78.7099C170.878 79.0161 171.049 79.2886 171.299 79.4708C171.47 79.5958 171.639 79.7234 171.804 79.8552C172.052 80.0522 172.366 80.1492 172.68 80.1086L178.285 79.3824C178.729 79.3249 179.164 79.5401 179.388 79.9281L181.328 83.2857C181.55 83.6708 181.521 84.1514 181.254 84.5071L177.832 89.0685C177.644 89.3183 177.573 89.6352 177.618 89.9444C177.646 90.1415 177.67 90.339 177.69 90.5377C177.721 90.8497 177.875 91.1374 178.124 91.3289L182.635 94.8054C182.99 95.079 183.146 95.5391 183.03 95.9719Z" fill="#E6ECF8"/>
<path d="M183.03 95.9719L182.026 99.7169C181.911 100.146 181.551 100.466 181.11 100.529L175.432 101.336C175.126 101.379 174.853 101.549 174.673 101.801C174.556 101.964 174.437 102.126 174.313 102.286C174.123 102.532 174.03 102.842 174.07 103.15L174.803 108.78C174.861 109.225 174.646 109.661 174.258 109.885L170.999 111.766C170.566 112.016 170.019 111.946 169.664 111.594L165.893 107.867L165.188 107.188C164.864 106.874 164.761 106.396 164.929 105.977L165.872 103.619C166.003 103.291 165.97 102.921 165.784 102.621L165.091 101.505C164.671 100.831 165.085 99.9452 165.814 99.6283C167.794 98.7672 168.876 96.9524 169.558 94.4085C170.704 90.1293 168.162 85.7258 163.883 84.5791C163.323 84.4291 162.76 84.3422 162.204 84.3141C161.701 84.2888 161.241 83.9835 161.084 83.5048L160.684 82.278C160.608 82.0469 160.611 81.7974 160.691 81.5679L162.421 76.6029L164.388 71.8649C164.601 71.3507 165.162 71.0741 165.7 71.2182L169.22 72.1615C169.65 72.2766 169.969 72.6369 170.032 73.0771L170.835 78.7099C170.878 79.0161 171.049 79.2886 171.299 79.4708C171.47 79.5958 171.639 79.7234 171.804 79.8552C172.052 80.0522 172.366 80.1492 172.68 80.1086L178.285 79.3824C178.729 79.3249 179.164 79.5401 179.388 79.9281L181.328 83.2857C181.55 83.6708 181.521 84.1514 181.254 84.5071L177.832 89.0685C177.644 89.3183 177.573 89.6352 177.618 89.9444C177.646 90.1415 177.67 90.339 177.69 90.5377C177.721 90.8497 177.875 91.1374 178.124 91.3289L182.635 94.8054C182.99 95.079 183.146 95.5391 183.03 95.9719Z" fill="url(#paint41_linear_0_525)"/>
<path d="M183.03 95.9719L182.026 99.7169C181.911 100.146 181.551 100.466 181.11 100.529L175.432 101.336C175.126 101.379 174.853 101.549 174.673 101.801C174.556 101.964 174.437 102.126 174.313 102.286C174.123 102.532 174.03 102.842 174.07 103.15L174.803 108.78C174.861 109.225 174.646 109.661 174.258 109.885L170.999 111.766C170.566 112.016 170.019 111.946 169.664 111.594L165.893 107.867L165.188 107.188C164.864 106.874 164.761 106.396 164.929 105.977L165.872 103.619C166.003 103.291 165.97 102.921 165.784 102.621L165.091 101.505C164.671 100.831 165.085 99.9452 165.814 99.6283C167.794 98.7672 168.876 96.9524 169.558 94.4085C170.704 90.1293 168.162 85.7258 163.883 84.5791C163.323 84.4291 162.76 84.3422 162.204 84.3141C161.701 84.2888 161.241 83.9835 161.084 83.5048L160.684 82.278C160.608 82.0469 160.611 81.7974 160.691 81.5679L162.421 76.6029L164.388 71.8649C164.601 71.3507 165.162 71.0741 165.7 71.2182L169.22 72.1615C169.65 72.2766 169.969 72.6369 170.032 73.0771L170.835 78.7099C170.878 79.0161 171.049 79.2886 171.299 79.4708C171.47 79.5958 171.639 79.7234 171.804 79.8552C172.052 80.0522 172.366 80.1492 172.68 80.1086L178.285 79.3824C178.729 79.3249 179.164 79.5401 179.388 79.9281L181.328 83.2857C181.55 83.6708 181.521 84.1514 181.254 84.5071L177.832 89.0685C177.644 89.3183 177.573 89.6352 177.618 89.9444C177.646 90.1415 177.67 90.339 177.69 90.5377C177.721 90.8497 177.875 91.1374 178.124 91.3289L182.635 94.8054C182.99 95.079 183.146 95.5391 183.03 95.9719Z" fill="url(#paint42_radial_0_525)"/>
<path d="M154.011 72.9293L158.302 76.149C158.666 76.4228 158.827 76.892 158.705 77.3317L157.24 82.648C157.133 83.0387 157.262 83.4564 157.571 83.7182C158.173 84.2279 158.014 85.2157 157.357 85.6527C155.789 86.6964 154.579 88.2928 154.053 90.2541C152.907 94.5334 155.449 98.9369 159.728 100.084C159.84 100.114 159.953 100.141 160.065 100.166C160.382 100.237 160.665 100.421 160.835 100.697L162.15 102.835C162.322 103.114 162.361 103.456 162.258 103.767L161.568 105.835C161.434 106.236 161.54 106.678 161.841 106.976L162.438 107.566C162.837 107.96 162.879 108.589 162.538 109.033L159.382 113.131C159.109 113.486 158.648 113.642 158.215 113.526L154.47 112.523C154.041 112.408 153.721 112.048 153.659 111.608L152.857 106.004C152.813 105.693 152.638 105.417 152.381 105.237C152.193 105.104 152.007 104.968 151.825 104.827C151.577 104.635 151.266 104.54 150.955 104.581L145.401 105.3C144.957 105.358 144.522 105.143 144.297 104.754L142.359 101.397C142.137 101.012 142.166 100.532 142.432 100.176L145.798 95.6863C145.985 95.4365 146.056 95.1197 146.01 94.811C145.973 94.5679 145.943 94.3242 145.917 94.0792C145.885 93.7681 145.731 93.4814 145.484 93.2905L141.056 89.8787C140.701 89.6052 140.545 89.145 140.661 88.7122L141.665 84.9665C141.78 84.5373 142.14 84.218 142.58 84.155L148.147 83.3576C148.453 83.3137 148.726 83.143 148.906 82.8917C149.05 82.6924 149.196 82.4967 149.348 82.3048C149.545 82.0569 149.642 81.7423 149.601 81.4285L148.887 75.8977C148.83 75.4534 149.045 75.0182 149.433 74.7942L152.79 72.8558C153.175 72.6335 153.656 72.6624 154.011 72.9293Z" fill="#E6ECF8"/>
<path d="M154.011 72.9293L158.302 76.149C158.666 76.4228 158.827 76.892 158.705 77.3317L157.24 82.648C157.133 83.0387 157.262 83.4564 157.571 83.7182C158.173 84.2279 158.014 85.2157 157.357 85.6527C155.789 86.6964 154.579 88.2928 154.053 90.2541C152.907 94.5334 155.449 98.9369 159.728 100.084C159.84 100.114 159.953 100.141 160.065 100.166C160.382 100.237 160.665 100.421 160.835 100.697L162.15 102.835C162.322 103.114 162.361 103.456 162.258 103.767L161.568 105.835C161.434 106.236 161.54 106.678 161.841 106.976L162.438 107.566C162.837 107.96 162.879 108.589 162.538 109.033L159.382 113.131C159.109 113.486 158.648 113.642 158.215 113.526L154.47 112.523C154.041 112.408 153.721 112.048 153.659 111.608L152.857 106.004C152.813 105.693 152.638 105.417 152.381 105.237C152.193 105.104 152.007 104.968 151.825 104.827C151.577 104.635 151.266 104.54 150.955 104.581L145.401 105.3C144.957 105.358 144.522 105.143 144.297 104.754L142.359 101.397C142.137 101.012 142.166 100.532 142.432 100.176L145.798 95.6863C145.985 95.4365 146.056 95.1197 146.01 94.811C145.973 94.5679 145.943 94.3242 145.917 94.0792C145.885 93.7681 145.731 93.4814 145.484 93.2905L141.056 89.8787C140.701 89.6052 140.545 89.145 140.661 88.7122L141.665 84.9665C141.78 84.5373 142.14 84.218 142.58 84.155L148.147 83.3576C148.453 83.3137 148.726 83.143 148.906 82.8917C149.05 82.6924 149.196 82.4967 149.348 82.3048C149.545 82.0569 149.642 81.7423 149.601 81.4285L148.887 75.8977C148.83 75.4534 149.045 75.0182 149.433 74.7942L152.79 72.8558C153.175 72.6335 153.656 72.6624 154.011 72.9293Z" fill="url(#paint43_linear_0_525)"/>
<path d="M154.011 72.9293L158.302 76.149C158.666 76.4228 158.827 76.892 158.705 77.3317L157.24 82.648C157.133 83.0387 157.262 83.4564 157.571 83.7182C158.173 84.2279 158.014 85.2157 157.357 85.6527C155.789 86.6964 154.579 88.2928 154.053 90.2541C152.907 94.5334 155.449 98.9369 159.728 100.084C159.84 100.114 159.953 100.141 160.065 100.166C160.382 100.237 160.665 100.421 160.835 100.697L162.15 102.835C162.322 103.114 162.361 103.456 162.258 103.767L161.568 105.835C161.434 106.236 161.54 106.678 161.841 106.976L162.438 107.566C162.837 107.96 162.879 108.589 162.538 109.033L159.382 113.131C159.109 113.486 158.648 113.642 158.215 113.526L154.47 112.523C154.041 112.408 153.721 112.048 153.659 111.608L152.857 106.004C152.813 105.693 152.638 105.417 152.381 105.237C152.193 105.104 152.007 104.968 151.825 104.827C151.577 104.635 151.266 104.54 150.955 104.581L145.401 105.3C144.957 105.358 144.522 105.143 144.297 104.754L142.359 101.397C142.137 101.012 142.166 100.532 142.432 100.176L145.798 95.6863C145.985 95.4365 146.056 95.1197 146.01 94.811C145.973 94.5679 145.943 94.3242 145.917 94.0792C145.885 93.7681 145.731 93.4814 145.484 93.2905L141.056 89.8787C140.701 89.6052 140.545 89.145 140.661 88.7122L141.665 84.9665C141.78 84.5373 142.14 84.218 142.58 84.155L148.147 83.3576C148.453 83.3137 148.726 83.143 148.906 82.8917C149.05 82.6924 149.196 82.4967 149.348 82.3048C149.545 82.0569 149.642 81.7423 149.601 81.4285L148.887 75.8977C148.83 75.4534 149.045 75.0182 149.433 74.7942L152.79 72.8558C153.175 72.6335 153.656 72.6624 154.011 72.9293Z" fill="url(#paint44_radial_0_525)"/>
</g>
<g filter="url(#filter19_d_0_525)">
<path d="M212.724 32.0781V29.5269L210.515 28.2513L209.239 26.0419H206.688L204.479 24.7663L202.269 26.0419H199.718L198.443 28.2513L196.233 29.5269V32.0781L194.958 34.2875L196.233 36.4968V39.048L198.443 40.3236L199.718 42.533H202.269L204.479 43.8086L206.688 42.533H209.239L210.515 40.3236L212.724 39.048V36.4968L214 34.2875L212.724 32.0781ZM204.479 36.6927C203.151 36.6927 202.074 35.6158 202.074 34.2875C202.074 32.9591 203.151 31.8821 204.479 31.8821C205.807 31.8821 206.884 32.959 206.884 34.2875C206.884 35.6159 205.807 36.6927 204.479 36.6927Z" fill="#E6ECF8"/>
<path d="M212.724 32.0781V29.5269L210.515 28.2513L209.239 26.0419H206.688L204.479 24.7663L202.269 26.0419H199.718L198.443 28.2513L196.233 29.5269V32.0781L194.958 34.2875L196.233 36.4968V39.048L198.443 40.3236L199.718 42.533H202.269L204.479 43.8086L206.688 42.533H209.239L210.515 40.3236L212.724 39.048V36.4968L214 34.2875L212.724 32.0781ZM204.479 36.6927C203.151 36.6927 202.074 35.6158 202.074 34.2875C202.074 32.9591 203.151 31.8821 204.479 31.8821C205.807 31.8821 206.884 32.959 206.884 34.2875C206.884 35.6159 205.807 36.6927 204.479 36.6927Z" fill="url(#paint45_radial_0_525)"/>
</g>
</g>
<g clip-path="url(#clip4_0_525)">
<rect width="192" height="192" transform="translate(257 1.8064)" fill="white"/>
<rect x="257" y="1.8064" width="192" height="192" rx="96" fill="#1A3594"/>
<path d="M289 40.8064C289 36.3881 292.582 32.8064 297 32.8064H409C413.418 32.8064 417 36.3881 417 40.8064V84.8064C417 89.2247 413.418 92.8064 409 92.8064H297C292.582 92.8064 289 89.2247 289 84.8064V40.8064Z" fill="#6776B8"/>
<path d="M297 48.8064C297 44.3881 300.582 40.8064 305 40.8064H401C405.418 40.8064 409 44.3881 409 48.8064V84.8064C409 89.2247 405.418 92.8064 401 92.8064H305C300.582 92.8064 297 89.2247 297 84.8064V48.8064Z" fill="url(#paint46_linear_0_525)"/>
<g filter="url(#filter20_f_0_525)">
<path d="M289 81.8064H417V92.8064H289V81.8064Z" fill="url(#paint47_linear_0_525)" fill-opacity="0.4"/>
</g>
<g filter="url(#filter21_d_0_525)">
<path fill-rule="evenodd" clip-rule="evenodd" d="M374.964 19.8064C373.973 19.8064 373.132 20.5314 372.985 21.511L371.343 32.511C371.162 33.7198 372.099 34.8064 373.321 34.8064H374V94.8064H382V34.8064H382.679C383.901 34.8064 384.838 33.7198 384.657 32.511L383.015 21.511C382.868 20.5314 382.027 19.8064 381.036 19.8064H374.964Z" fill="url(#paint48_linear_0_525)"/>
<path fill-rule="evenodd" clip-rule="evenodd" d="M374.964 19.8064C373.973 19.8064 373.132 20.5314 372.985 21.511L371.343 32.511C371.162 33.7198 372.099 34.8064 373.321 34.8064H374V94.8064H382V34.8064H382.679C383.901 34.8064 384.838 33.7198 384.657 32.511L383.015 21.511C382.868 20.5314 382.027 19.8064 381.036 19.8064H374.964Z" fill="url(#paint49_linear_0_525)" fill-opacity="0.5"/>
<path fill-rule="evenodd" clip-rule="evenodd" d="M378 94.8064V19.8064H381.036C382.027 19.8064 382.868 20.5314 383.015 21.511L384.657 32.511C384.838 33.7198 383.901 34.8064 382.679 34.8064H382V94.8064H378Z" fill="url(#paint50_linear_0_525)" fill-opacity="0.5"/>
<g filter="url(#filter22_f_0_525)">
<path fill-rule="evenodd" clip-rule="evenodd" d="M380.771 19.9541L382.668 32.6587C382.758 33.2631 382.29 33.8064 381.679 33.8064H380V35.8064L380 94.8064H382L382 35.8064L381.679 35.8064C381.788 35.8064 381.895 35.8007 382 35.7896V34.8064H382.679C383.901 34.8064 384.838 33.7198 384.657 32.511L383.015 21.511C382.89 20.6744 382.258 20.0236 381.459 19.8513L380.771 19.9541Z" fill="url(#paint51_linear_0_525)" fill-opacity="0.4"/>
</g>
<path fill-rule="evenodd" clip-rule="evenodd" d="M371.929 89.0206C370.587 89.0206 369.5 90.1079 369.5 91.4492V102.985H368.286C364.262 102.985 361 106.247 361 110.271V147.306C361 151.33 364.262 154.592 368.286 154.592H387.714C391.738 154.592 395 151.33 395 147.306V110.271C395 106.247 391.738 102.985 387.714 102.985H386.5V91.4492C386.5 90.1079 385.413 89.0206 384.071 89.0206H371.929Z" fill="url(#paint52_linear_0_525)"/>
<path fill-rule="evenodd" clip-rule="evenodd" d="M371.929 89.0206C370.587 89.0206 369.5 90.1079 369.5 91.4492V102.985H368.286C364.262 102.985 361 106.247 361 110.271V147.306C361 151.33 364.262 154.592 368.286 154.592H387.714C391.738 154.592 395 151.33 395 147.306V110.271C395 106.247 391.738 102.985 387.714 102.985H386.5V91.4492C386.5 90.1079 385.413 89.0206 384.071 89.0206H371.929Z" fill="url(#paint53_linear_0_525)" fill-opacity="0.4"/>
</g>
<g filter="url(#filter23_d_0_525)">
<path fill-rule="evenodd" clip-rule="evenodd" d="M319.719 24.2582C319.719 22.3796 317.781 21.1493 316.211 22.1816C309.447 26.63 305 34.1642 305 42.7098C305 52.958 311.396 61.7517 320.513 65.513V130.528C311.869 134.142 305.644 142.317 305.182 152.092C304.778 160.628 308.865 168.363 315.411 173.126C316.93 174.232 318.925 173.094 319.013 171.218L319.921 152.027C319.988 150.601 321.199 149.5 322.625 149.567L338.846 150.334C340.272 150.401 341.373 151.612 341.306 153.038L340.399 172.229C340.31 174.105 342.188 175.425 343.805 174.468C350.771 170.344 355.569 163.029 355.973 154.493C356.478 143.797 349.934 134.357 340.335 130.449V65.5129C349.452 61.7514 355.847 52.9579 355.847 42.7098C355.847 34.1643 351.4 26.6301 344.636 22.1817C343.067 21.1494 341.128 22.3796 341.128 24.2582V43.4696C341.128 44.8975 339.971 46.0551 338.543 46.0551L322.304 46.0551C320.877 46.0551 319.719 44.8975 319.719 43.4696L319.719 24.2582Z" fill="url(#paint54_linear_0_525)"/>
<path fill-rule="evenodd" clip-rule="evenodd" d="M319.719 24.2582C319.719 22.3796 317.781 21.1493 316.211 22.1816C309.447 26.63 305 34.1642 305 42.7098C305 52.958 311.396 61.7517 320.513 65.513V130.528C311.869 134.142 305.644 142.317 305.182 152.092C304.778 160.628 308.865 168.363 315.411 173.126C316.93 174.232 318.925 173.094 319.013 171.218L319.921 152.027C319.988 150.601 321.199 149.5 322.625 149.567L338.846 150.334C340.272 150.401 341.373 151.612 341.306 153.038L340.399 172.229C340.31 174.105 342.188 175.425 343.805 174.468C350.771 170.344 355.569 163.029 355.973 154.493C356.478 143.797 349.934 134.357 340.335 130.449V65.5129C349.452 61.7514 355.847 52.9579 355.847 42.7098C355.847 34.1643 351.4 26.6301 344.636 22.1817C343.067 21.1494 341.128 22.3796 341.128 24.2582V43.4696C341.128 44.8975 339.971 46.0551 338.543 46.0551L322.304 46.0551C320.877 46.0551 319.719 44.8975 319.719 43.4696L319.719 24.2582Z" fill="url(#paint55_linear_0_525)" fill-opacity="0.5"/>
<g filter="url(#filter24_f_0_525)">
<path fill-rule="evenodd" clip-rule="evenodd" d="M342.84 22.3394C349.952 26.5004 354.693 34.0727 354.693 42.7098C354.693 52.4673 348.64 60.8689 339.958 64.5222L340.287 65.3064H339.18V129.006C336.808 128.189 334.277 127.691 331.639 127.566C327.65 127.378 323.825 128.062 320.358 129.448V130.528C311.714 134.142 305.489 142.317 305.027 152.091C304.624 160.628 308.71 168.363 315.257 173.126C316.776 174.231 318.77 173.094 318.859 171.218L319.766 152.027C319.833 150.601 321.044 149.5 322.471 149.567L338.691 150.334C340.117 150.401 341.219 151.612 341.151 153.038L340.244 172.228C340.156 174.105 342.034 175.425 343.65 174.468C350.616 170.344 355.414 163.029 355.818 154.493C356.324 143.797 349.78 134.357 340.18 130.449V65.5128C349.297 61.7514 355.693 52.9578 355.693 42.7098C355.693 34.1642 351.245 26.63 344.482 22.1816C344.05 21.8975 343.59 21.7848 343.15 21.8098L342.84 22.3394ZM306.026 152.139C306.645 139.059 318.045 128.926 331.544 129.564C345.043 130.202 355.437 141.366 354.819 154.445C354.432 162.624 349.836 169.644 343.141 173.608C342.687 173.876 342.229 173.826 341.866 173.582C341.491 173.329 341.215 172.859 341.243 172.276L342.15 153.086C342.244 151.108 340.716 149.428 338.738 149.335L322.518 148.568C320.54 148.475 318.86 150.002 318.767 151.98L317.86 171.17C317.832 171.754 317.514 172.195 317.116 172.412C316.732 172.621 316.271 172.628 315.845 172.318C309.553 167.74 305.64 160.317 306.026 152.139Z" fill="url(#paint56_linear_0_525)" fill-opacity="0.4"/>
</g>
<g filter="url(#filter25_f_0_525)">
<path fill-rule="evenodd" clip-rule="evenodd" d="M319.005 21.3394C311.893 25.5004 307.153 33.0727 307.153 41.7098C307.153 51.4673 313.205 59.8689 321.888 63.5222L321.558 64.3064H322.665V128.006C325.038 127.189 327.569 126.691 330.207 126.566C334.195 126.378 338.021 127.062 341.487 128.448V129.528C350.131 133.142 356.356 141.317 356.818 151.091C357.221 159.628 353.135 167.363 346.589 172.126C345.07 173.231 343.075 172.094 342.987 170.218L342.079 151.027C342.012 149.601 340.801 148.5 339.375 148.567L323.154 149.334C321.728 149.401 320.626 150.612 320.694 152.038L321.601 171.228C321.69 173.105 319.812 174.425 318.195 173.468C311.229 169.344 306.431 162.029 306.027 153.493C305.522 142.797 312.066 133.357 321.665 129.449V64.5128C312.548 60.7514 306.153 51.9578 306.153 41.7098C306.153 33.1642 310.6 25.63 317.364 21.1816C317.796 20.8975 318.255 20.7848 318.695 20.8098L319.005 21.3394ZM355.819 151.139C355.201 138.059 343.8 127.926 330.301 128.564C316.802 129.202 306.408 140.366 307.026 153.445C307.413 161.624 312.009 168.644 318.705 172.608C319.158 172.876 319.616 172.826 319.979 172.582C320.354 172.329 320.63 171.859 320.602 171.276L319.695 152.086C319.602 150.108 321.129 148.428 323.107 148.335L339.328 147.568C341.306 147.475 342.985 149.002 343.078 150.98L343.986 170.17C344.013 170.754 344.332 171.195 344.729 171.412C345.113 171.621 345.574 171.628 346 171.318C352.292 166.74 356.206 159.317 355.819 151.139Z" fill="url(#paint57_linear_0_525)"/>
</g>
<path opacity="0.4" fill-rule="evenodd" clip-rule="evenodd" d="M330 149.916V46.055L338.543 46.055C339.971 46.055 341.128 44.8975 341.128 43.4696V24.2582C341.128 22.3796 343.067 21.1493 344.636 22.1816C351.4 26.63 355.847 34.1642 355.847 42.7098C355.847 52.9578 349.452 61.7514 340.335 65.5128V130.449C349.934 134.357 356.478 143.797 355.973 154.493C355.569 163.029 350.771 170.344 343.805 174.468C342.188 175.425 340.31 174.105 340.399 172.228L341.306 153.038C341.373 151.612 340.272 150.401 338.846 150.334L330 149.916Z" fill="url(#paint58_linear_0_525)"/>
</g>
<path d="M289 99.8064C289 95.3881 292.582 91.8064 297 91.8064H409C413.418 91.8064 417 95.3881 417 99.8064V168.806C417 173.225 413.418 176.806 409 176.806H297C292.582 176.806 289 173.225 289 168.806V99.8064Z" fill="url(#paint59_linear_0_525)"/>
<path d="M289 99.8064C289 95.3881 292.582 91.8064 297 91.8064H409C413.418 91.8064 417 95.3881 417 99.8064V168.806C417 173.225 413.418 176.806 409 176.806H297C292.582 176.806 289 173.225 289 168.806V99.8064Z" fill="url(#paint60_linear_0_525)" fill-opacity="0.4"/>
<g opacity="0.5" filter="url(#filter26_f_0_525)">
<path d="M290 91.8064V167.806C290 172.225 293.582 175.806 298 175.806H407" stroke="#6776B8" stroke-opacity="0.8" stroke-width="2"/>
<path d="M290 91.8064V167.806C290 172.225 293.582 175.806 298 175.806H407" stroke="url(#paint61_linear_0_525)" stroke-width="2"/>
</g>
<g filter="url(#filter27_f_0_525)">
<path d="M289 88.8064H417V101.806L289 106.306V88.8064Z" fill="#6776B8" fill-opacity="0.7"/>
</g>
<path d="M282 93.8064C282 89.3881 285.582 85.8064 290 85.8064H416C420.418 85.8064 424 89.3881 424 93.8064C424 98.2247 420.418 101.806 416 101.806H290C285.582 101.806 282 98.2247 282 93.8064Z" fill="url(#paint62_linear_0_525)"/>
<path d="M282 93.8064C282 89.3881 285.582 85.8064 290 85.8064H416C420.418 85.8064 424 89.3881 424 93.8064C424 98.2247 420.418 101.806 416 101.806H290C285.582 101.806 282 98.2247 282 93.8064Z" fill="url(#paint63_linear_0_525)" fill-opacity="0.4"/>
<g clip-path="url(#clip5_0_525)" filter="url(#filter28_d_0_525)">
<path d="M381.478 142.431L380.577 145.794C380.278 146.909 379.343 147.738 378.2 147.9L371.746 148.818C371.069 148.914 370.47 149.291 370.063 149.841C369.653 150.394 369.445 151.08 369.534 151.763L370.364 158.137C370.514 159.291 369.955 160.422 368.948 161.003L366.189 162.596C365.065 163.245 363.646 163.062 362.724 162.15L358.315 157.793L358.013 157.502C357.171 156.689 356.905 155.447 357.34 154.36L358.12 152.411C358.404 151.701 358.333 150.897 357.929 150.247C357.02 148.785 357.956 146.863 359.384 145.901C361.358 144.572 362.533 142.349 363.319 139.417C364.885 133.574 361.413 127.562 355.571 125.996C355.155 125.885 354.739 125.799 354.323 125.738C353.03 125.547 351.83 124.773 351.424 123.531L351.346 123.292C351.15 122.692 351.156 122.045 351.364 121.449L353.575 115.105L355.802 109.741C356.355 108.407 357.812 107.689 359.208 108.063L361.988 108.808C363.102 109.106 363.931 110.041 364.094 111.184L365.002 117.558C365.101 118.247 365.488 118.858 366.042 119.278C366.608 119.708 367.312 119.927 368.017 119.836L374.332 119.017C375.485 118.868 376.615 119.427 377.197 120.433L378.939 123.449C379.516 124.449 379.441 125.696 378.748 126.619L374.861 131.8C374.449 132.349 374.295 133.043 374.377 133.723C374.46 134.407 374.793 135.041 375.339 135.462L380.454 139.403C381.375 140.113 381.779 141.307 381.478 142.431Z" fill="#E6ECF8"/>
<path d="M381.478 142.431L380.577 145.794C380.278 146.909 379.343 147.738 378.2 147.9L371.746 148.818C371.069 148.914 370.47 149.291 370.063 149.841C369.653 150.394 369.445 151.08 369.534 151.763L370.364 158.137C370.514 159.291 369.955 160.422 368.948 161.003L366.189 162.596C365.065 163.245 363.646 163.062 362.724 162.15L358.315 157.793L358.013 157.502C357.171 156.689 356.905 155.447 357.34 154.36L358.12 152.411C358.404 151.701 358.333 150.897 357.929 150.247C357.02 148.785 357.956 146.863 359.384 145.901C361.358 144.572 362.533 142.349 363.319 139.417C364.885 133.574 361.413 127.562 355.571 125.996C355.155 125.885 354.739 125.799 354.323 125.738C353.03 125.547 351.83 124.773 351.424 123.531L351.346 123.292C351.15 122.692 351.156 122.045 351.364 121.449L353.575 115.105L355.802 109.741C356.355 108.407 357.812 107.689 359.208 108.063L361.988 108.808C363.102 109.106 363.931 110.041 364.094 111.184L365.002 117.558C365.101 118.247 365.488 118.858 366.042 119.278C366.608 119.708 367.312 119.927 368.017 119.836L374.332 119.017C375.485 118.868 376.615 119.427 377.197 120.433L378.939 123.449C379.516 124.449 379.441 125.696 378.748 126.619L374.861 131.8C374.449 132.349 374.295 133.043 374.377 133.723C374.46 134.407 374.793 135.041 375.339 135.462L380.454 139.403C381.375 140.113 381.779 141.307 381.478 142.431Z" fill="url(#paint64_linear_0_525)"/>
<path d="M381.478 142.431L380.577 145.794C380.278 146.909 379.343 147.738 378.2 147.9L371.746 148.818C371.069 148.914 370.47 149.291 370.063 149.841C369.653 150.394 369.445 151.08 369.534 151.763L370.364 158.137C370.514 159.291 369.955 160.422 368.948 161.003L366.189 162.596C365.065 163.245 363.646 163.062 362.724 162.15L358.315 157.793L358.013 157.502C357.171 156.689 356.905 155.447 357.34 154.36L358.12 152.411C358.404 151.701 358.333 150.897 357.929 150.247C357.02 148.785 357.956 146.863 359.384 145.901C361.358 144.572 362.533 142.349 363.319 139.417C364.885 133.574 361.413 127.562 355.571 125.996C355.155 125.885 354.739 125.799 354.323 125.738C353.03 125.547 351.83 124.773 351.424 123.531L351.346 123.292C351.15 122.692 351.156 122.045 351.364 121.449L353.575 115.105L355.802 109.741C356.355 108.407 357.812 107.689 359.208 108.063L361.988 108.808C363.102 109.106 363.931 110.041 364.094 111.184L365.002 117.558C365.101 118.247 365.488 118.858 366.042 119.278C366.608 119.708 367.312 119.927 368.017 119.836L374.332 119.017C375.485 118.868 376.615 119.427 377.197 120.433L378.939 123.449C379.516 124.449 379.441 125.696 378.748 126.619L374.861 131.8C374.449 132.349 374.295 133.043 374.377 133.723C374.46 134.407 374.793 135.041 375.339 135.462L380.454 139.403C381.375 140.113 381.779 141.307 381.478 142.431Z" fill="url(#paint65_radial_0_525)"/>
<path d="M342.814 110.631L347.207 113.928C348.153 114.638 348.569 115.856 348.255 116.997L346.501 123.359C346.354 123.893 346.531 124.463 346.953 124.821C347.775 125.516 347.557 126.865 346.66 127.462C344.519 128.887 342.867 131.067 342.15 133.745C340.584 139.587 344.055 145.6 349.898 147.165C350.616 147.358 351.268 147.773 351.658 148.407L352.871 150.379C353.317 151.105 353.42 151.991 353.15 152.799L352.56 154.569C352.286 155.392 352.503 156.299 353.12 156.909C353.937 157.717 354.024 159.007 353.323 159.918L349.981 164.259C349.271 165.181 348.077 165.585 346.953 165.284L343.589 164.383C342.475 164.084 341.646 163.15 341.483 162.008L340.583 155.716C340.48 154.995 340.07 154.357 339.482 153.926C338.896 153.495 338.174 153.273 337.452 153.366L331.239 154.171C330.086 154.321 328.956 153.762 328.374 152.755L326.633 149.739C326.056 148.74 326.131 147.494 326.823 146.571L330.576 141.564C331.024 140.967 331.191 140.21 331.098 139.469C331.005 138.727 330.642 138.039 330.049 137.583L325.124 133.787C324.203 133.078 323.799 131.884 324.1 130.76L325.002 127.395C325.3 126.281 326.234 125.453 327.376 125.289L333.595 124.398C334.326 124.294 334.973 123.882 335.416 123.291C335.869 122.688 336.103 121.94 336.006 121.191L335.212 115.045C335.063 113.892 335.622 112.762 336.629 112.181L339.644 110.44C340.644 109.863 341.891 109.938 342.814 110.631Z" fill="#E6ECF8"/>
<path d="M342.814 110.631L347.207 113.928C348.153 114.638 348.569 115.856 348.255 116.997L346.501 123.359C346.354 123.893 346.531 124.463 346.953 124.821C347.775 125.516 347.557 126.865 346.66 127.462C344.519 128.887 342.867 131.067 342.15 133.745C340.584 139.587 344.055 145.6 349.898 147.165C350.616 147.358 351.268 147.773 351.658 148.407L352.871 150.379C353.317 151.105 353.42 151.991 353.15 152.799L352.56 154.569C352.286 155.392 352.503 156.299 353.12 156.909C353.937 157.717 354.024 159.007 353.323 159.918L349.981 164.259C349.271 165.181 348.077 165.585 346.953 165.284L343.589 164.383C342.475 164.084 341.646 163.15 341.483 162.008L340.583 155.716C340.48 154.995 340.07 154.357 339.482 153.926C338.896 153.495 338.174 153.273 337.452 153.366L331.239 154.171C330.086 154.321 328.956 153.762 328.374 152.755L326.633 149.739C326.056 148.74 326.131 147.494 326.823 146.571L330.576 141.564C331.024 140.967 331.191 140.21 331.098 139.469C331.005 138.727 330.642 138.039 330.049 137.583L325.124 133.787C324.203 133.078 323.799 131.884 324.1 130.76L325.002 127.395C325.3 126.281 326.234 125.453 327.376 125.289L333.595 124.398C334.326 124.294 334.973 123.882 335.416 123.291C335.869 122.688 336.103 121.94 336.006 121.191L335.212 115.045C335.063 113.892 335.622 112.762 336.629 112.181L339.644 110.44C340.644 109.863 341.891 109.938 342.814 110.631Z" fill="url(#paint66_linear_0_525)"/>
<path d="M342.814 110.631L347.207 113.928C348.153 114.638 348.569 115.856 348.255 116.997L346.501 123.359C346.354 123.893 346.531 124.463 346.953 124.821C347.775 125.516 347.557 126.865 346.66 127.462C344.519 128.887 342.867 131.067 342.15 133.745C340.584 139.587 344.055 145.6 349.898 147.165C350.616 147.358 351.268 147.773 351.658 148.407L352.871 150.379C353.317 151.105 353.42 151.991 353.15 152.799L352.56 154.569C352.286 155.392 352.503 156.299 353.12 156.909C353.937 157.717 354.024 159.007 353.323 159.918L349.981 164.259C349.271 165.181 348.077 165.585 346.953 165.284L343.589 164.383C342.475 164.084 341.646 163.15 341.483 162.008L340.583 155.716C340.48 154.995 340.07 154.357 339.482 153.926C338.896 153.495 338.174 153.273 337.452 153.366L331.239 154.171C330.086 154.321 328.956 153.762 328.374 152.755L326.633 149.739C326.056 148.74 326.131 147.494 326.823 146.571L330.576 141.564C331.024 140.967 331.191 140.21 331.098 139.469C331.005 138.727 330.642 138.039 330.049 137.583L325.124 133.787C324.203 133.078 323.799 131.884 324.1 130.76L325.002 127.395C325.3 126.281 326.234 125.453 327.376 125.289L333.595 124.398C334.326 124.294 334.973 123.882 335.416 123.291C335.869 122.688 336.103 121.94 336.006 121.191L335.212 115.045C335.063 113.892 335.622 112.762 336.629 112.181L339.644 110.44C340.644 109.863 341.891 109.938 342.814 110.631Z" fill="url(#paint67_radial_0_525)"/>
</g>
<g filter="url(#filter29_d_0_525)">
<path d="M422.258 47.7897V44.3065L419.242 42.5648L417.5 39.5481H414.017L411 37.8064L407.983 39.5481H404.5L402.758 42.5648L399.742 44.3065V47.7897L398 50.8064L399.742 53.8231V57.3063L402.758 59.048L404.5 62.0647H407.983L411 63.8064L414.017 62.0647H417.5L419.242 59.048L422.258 57.3063V53.8231L424 50.8064L422.258 47.7897ZM411 54.0905C409.186 54.0905 407.716 52.6201 407.716 50.8064C407.716 48.9927 409.186 47.5222 411 47.5222C412.814 47.5222 414.284 48.9925 414.284 50.8064C414.284 52.6202 412.814 54.0905 411 54.0905Z" fill="#E6ECF8"/>
<path d="M422.258 47.7897V44.3065L419.242 42.5648L417.5 39.5481H414.017L411 37.8064L407.983 39.5481H404.5L402.758 42.5648L399.742 44.3065V47.7897L398 50.8064L399.742 53.8231V57.3063L402.758 59.048L404.5 62.0647H407.983L411 63.8064L414.017 62.0647H417.5L419.242 59.048L422.258 57.3063V53.8231L424 50.8064L422.258 47.7897ZM411 54.0905C409.186 54.0905 407.716 52.6201 407.716 50.8064C407.716 48.9927 409.186 47.5222 411 47.5222C412.814 47.5222 414.284 48.9925 414.284 50.8064C414.284 52.6202 412.814 54.0905 411 54.0905Z" fill="url(#paint68_radial_0_525)"/>
</g>
</g>
<defs>
<filter id="filter0_f_0_525" x="6.12712" y="23.5974" width="51.0961" height="7.13842" filterUnits="userSpaceOnUse" color-interpolation-filters="sRGB">
<feFlood flood-opacity="0" result="BackgroundImageFix"/>
<feBlend mode="normal" in="SourceGraphic" in2="BackgroundImageFix" result="shape"/>
<feGaussianBlur stdDeviation="0.751413" result="effect1_foregroundBlur_0_525"/>
</filter>
<filter id="filter1_d_0_525" x="31.7474" y="1.8064" width="15.7797" height="53.6455" filterUnits="userSpaceOnUse" color-interpolation-filters="sRGB">
<feFlood flood-opacity="0" result="BackgroundImageFix"/>
<feColorMatrix in="SourceAlpha" type="matrix" values="0 0 0 0 0 0 0 0 0 0 0 0 0 0 0 0 0 0 127 0" result="hardAlpha"/>
<feOffset dx="-1.50283" dy="1.50283"/>
<feGaussianBlur stdDeviation="0.751413"/>
<feColorMatrix type="matrix" values="0 0 0 0 0.101961 0 0 0 0 0.207843 0 0 0 0 0.580392 0 0 0 0.15 0"/>
<feBlend mode="normal" in2="BackgroundImageFix" result="effect1_dropShadow_0_525"/>
<feBlend mode="normal" in="SourceGraphic" in2="effect1_dropShadow_0_525" result="shape"/>
</filter>
<filter id="filter2_f_0_525" x="41.1401" y="1.07184" width="3.261" height="29.6641" filterUnits="userSpaceOnUse" color-interpolation-filters="sRGB">
<feFlood flood-opacity="0" result="BackgroundImageFix"/>
<feBlend mode="normal" in="SourceGraphic" in2="BackgroundImageFix" result="shape"/>
<feGaussianBlur stdDeviation="0.375706" result="effect1_foregroundBlur_0_525"/>
</filter>
<filter id="filter3_d_0_525" x="10.6356" y="2.1821" width="22.4843" height="60.8576" filterUnits="userSpaceOnUse" color-interpolation-filters="sRGB">
<feFlood flood-opacity="0" result="BackgroundImageFix"/>
<feColorMatrix in="SourceAlpha" type="matrix" values="0 0 0 0 0 0 0 0 0 0 0 0 0 0 0 0 0 0 127 0" result="hardAlpha"/>
<feOffset dx="-1.50283" dy="1.50283"/>
<feGaussianBlur stdDeviation="0.751413"/>
<feColorMatrix type="matrix" values="0 0 0 0 0.101961 0 0 0 0 0.207843 0 0 0 0 0.580392 0 0 0 0.15 0"/>
<feBlend mode="normal" in2="BackgroundImageFix" result="effect1_dropShadow_0_525"/>
<feBlend mode="normal" in="SourceGraphic" in2="effect1_dropShadow_0_525" result="shape"/>
</filter>
<filter id="filter4_f_0_525" x="12.8899" y="1.80631" width="20.6057" height="58.9791" filterUnits="userSpaceOnUse" color-interpolation-filters="sRGB">
<feFlood flood-opacity="0" result="BackgroundImageFix"/>
<feBlend mode="normal" in="SourceGraphic" in2="BackgroundImageFix" result="shape"/>
<feGaussianBlur stdDeviation="0.375706" result="effect1_foregroundBlur_0_525"/>
</filter>
<filter id="filter5_f_0_525" x="12.5141" y="0.679272" width="22.1086" height="60.4819" filterUnits="userSpaceOnUse" color-interpolation-filters="sRGB">
<feFlood flood-opacity="0" result="BackgroundImageFix"/>
<feBlend mode="normal" in="SourceGraphic" in2="BackgroundImageFix" result="shape"/>
<feGaussianBlur stdDeviation="0.751413" result="effect1_foregroundBlur_0_525"/>
</filter>
<filter id="filter6_f_0_525" x="7.14074" y="28.055" width="45.6107" height="33.5674" filterUnits="userSpaceOnUse" color-interpolation-filters="sRGB">
<feFlood flood-opacity="0" result="BackgroundImageFix"/>
<feBlend mode="normal" in="SourceGraphic" in2="BackgroundImageFix" result="shape"/>
<feGaussianBlur stdDeviation="0.375706" result="effect1_foregroundBlur_0_525"/>
</filter>
<filter id="filter7_f_0_525" x="6.12712" y="26.2275" width="51.0961" height="9.58051" filterUnits="userSpaceOnUse" color-interpolation-filters="sRGB">
<feFlood flood-opacity="0" result="BackgroundImageFix"/>
<feBlend mode="normal" in="SourceGraphic" in2="BackgroundImageFix" result="shape"/>
<feGaussianBlur stdDeviation="0.751413" result="effect1_foregroundBlur_0_525"/>
</filter>
<filter id="filter8_d_0_525" x="16.6469" y="32.2386" width="29.898" height="29.898" filterUnits="userSpaceOnUse" color-interpolation-filters="sRGB">
<feFlood flood-opacity="0" result="BackgroundImageFix"/>
<feColorMatrix in="SourceAlpha" type="matrix" values="0 0 0 0 0 0 0 0 0 0 0 0 0 0 0 0 0 0 127 0" result="hardAlpha"/>
<feOffset dy="1.50283"/>
<feGaussianBlur stdDeviation="0.751413"/>
<feColorMatrix type="matrix" values="0 0 0 0 0.255 0 0 0 0 0.292623 0 0 0 0 0.425 0 0 0 0.3 0"/>
<feBlend mode="normal" in2="BackgroundImageFix" result="effect1_dropShadow_0_525"/>
<feBlend mode="normal" in="SourceGraphic" in2="effect1_dropShadow_0_525" result="shape"/>
</filter>
<filter id="filter9_d_0_525" x="46.4972" y="11.8064" width="12.774" height="12.774" filterUnits="userSpaceOnUse" color-interpolation-filters="sRGB">
<feFlood flood-opacity="0" result="BackgroundImageFix"/>
<feColorMatrix in="SourceAlpha" type="matrix" values="0 0 0 0 0 0 0 0 0 0 0 0 0 0 0 0 0 0 127 0" result="hardAlpha"/>
<feOffset dy="1.50283"/>
<feGaussianBlur stdDeviation="0.751413"/>
<feColorMatrix type="matrix" values="0 0 0 0 0.254902 0 0 0 0 0.294118 0 0 0 0 0.423529 0 0 0 0.3 0"/>
<feBlend mode="normal" in2="BackgroundImageFix" result="effect1_dropShadow_0_525"/>
<feBlend mode="normal" in="SourceGraphic" in2="effect1_dropShadow_0_525" result="shape"/>
</filter>
<filter id="filter10_f_0_525" x="112.197" y="49.2854" width="99.6056" height="13.9155" filterUnits="userSpaceOnUse" color-interpolation-filters="sRGB">
<feFlood flood-opacity="0" result="BackgroundImageFix"/>
<feBlend mode="normal" in="SourceGraphic" in2="BackgroundImageFix" result="shape"/>
<feGaussianBlur stdDeviation="1.46479" result="effect1_foregroundBlur_0_525"/>
</filter>
<filter id="filter11_d_0_525" x="162.141" y="6.80644" width="30.7606" height="104.575" filterUnits="userSpaceOnUse" color-interpolation-filters="sRGB">
<feFlood flood-opacity="0" result="BackgroundImageFix"/>
<feColorMatrix in="SourceAlpha" type="matrix" values="0 0 0 0 0 0 0 0 0 0 0 0 0 0 0 0 0 0 127 0" result="hardAlpha"/>
<feOffset dx="-2.92958" dy="2.92958"/>
<feGaussianBlur stdDeviation="1.46479"/>
<feColorMatrix type="matrix" values="0 0 0 0 0.101961 0 0 0 0 0.207843 0 0 0 0 0.580392 0 0 0 0.15 0"/>
<feBlend mode="normal" in2="BackgroundImageFix" result="effect1_dropShadow_0_525"/>
<feBlend mode="normal" in="SourceGraphic" in2="effect1_dropShadow_0_525" result="shape"/>
</filter>
<filter id="filter12_f_0_525" x="180.451" y="5.37405" width="6.35688" height="57.8268" filterUnits="userSpaceOnUse" color-interpolation-filters="sRGB">
<feFlood flood-opacity="0" result="BackgroundImageFix"/>
<feBlend mode="normal" in="SourceGraphic" in2="BackgroundImageFix" result="shape"/>
<feGaussianBlur stdDeviation="0.732394" result="effect1_foregroundBlur_0_525"/>
</filter>
<filter id="filter13_d_0_525" x="120.986" y="7.53885" width="43.8303" height="118.635" filterUnits="userSpaceOnUse" color-interpolation-filters="sRGB">
<feFlood flood-opacity="0" result="BackgroundImageFix"/>
<feColorMatrix in="SourceAlpha" type="matrix" values="0 0 0 0 0 0 0 0 0 0 0 0 0 0 0 0 0 0 127 0" result="hardAlpha"/>
<feOffset dx="-2.92958" dy="2.92958"/>
<feGaussianBlur stdDeviation="1.46479"/>
<feColorMatrix type="matrix" values="0 0 0 0 0.101961 0 0 0 0 0.207843 0 0 0 0 0.580392 0 0 0 0.15 0"/>
<feBlend mode="normal" in2="BackgroundImageFix" result="effect1_dropShadow_0_525"/>
<feBlend mode="normal" in="SourceGraphic" in2="effect1_dropShadow_0_525" result="shape"/>
</filter>
<filter id="filter14_f_0_525" x="125.38" y="6.80645" width="40.1684" height="114.973" filterUnits="userSpaceOnUse" color-interpolation-filters="sRGB">
<feFlood flood-opacity="0" result="BackgroundImageFix"/>
<feBlend mode="normal" in="SourceGraphic" in2="BackgroundImageFix" result="shape"/>
<feGaussianBlur stdDeviation="0.732394" result="effect1_foregroundBlur_0_525"/>
</filter>
<filter id="filter15_f_0_525" x="124.648" y="4.60927" width="43.098" height="117.902" filterUnits="userSpaceOnUse" color-interpolation-filters="sRGB">
<feFlood flood-opacity="0" result="BackgroundImageFix"/>
<feBlend mode="normal" in="SourceGraphic" in2="BackgroundImageFix" result="shape"/>
<feGaussianBlur stdDeviation="1.46479" result="effect1_foregroundBlur_0_525"/>
</filter>
<filter id="filter16_f_0_525" x="113.662" y="58.0741" width="89.3521" height="65.1831" filterUnits="userSpaceOnUse" color-interpolation-filters="sRGB">
<feFlood flood-opacity="0" result="BackgroundImageFix"/>
<feBlend mode="normal" in="SourceGraphic" in2="BackgroundImageFix" result="shape"/>
<feGaussianBlur stdDeviation="0.732394" result="effect1_foregroundBlur_0_525"/>
</filter>
<filter id="filter17_f_0_525" x="112.197" y="54.4121" width="99.6056" height="18.676" filterUnits="userSpaceOnUse" color-interpolation-filters="sRGB">
<feFlood flood-opacity="0" result="BackgroundImageFix"/>
<feBlend mode="normal" in="SourceGraphic" in2="BackgroundImageFix" result="shape"/>
<feGaussianBlur stdDeviation="1.46479" result="effect1_foregroundBlur_0_525"/>
</filter>
<filter id="filter18_d_0_525" x="132.704" y="66.1304" width="58.2826" height="58.2825" filterUnits="userSpaceOnUse" color-interpolation-filters="sRGB">
<feFlood flood-opacity="0" result="BackgroundImageFix"/>
<feColorMatrix in="SourceAlpha" type="matrix" values="0 0 0 0 0 0 0 0 0 0 0 0 0 0 0 0 0 0 127 0" result="hardAlpha"/>
<feOffset dy="2.92958"/>
<feGaussianBlur stdDeviation="1.46479"/>
<feColorMatrix type="matrix" values="0 0 0 0 0.255 0 0 0 0 0.292623 0 0 0 0 0.425 0 0 0 0.3 0"/>
<feBlend mode="normal" in2="BackgroundImageFix" result="effect1_dropShadow_0_525"/>
<feBlend mode="normal" in="SourceGraphic" in2="effect1_dropShadow_0_525" result="shape"/>
</filter>
<filter id="filter19_d_0_525" x="192.028" y="24.7663" width="24.9014" height="24.9014" filterUnits="userSpaceOnUse" color-interpolation-filters="sRGB">
<feFlood flood-opacity="0" result="BackgroundImageFix"/>
<feColorMatrix in="SourceAlpha" type="matrix" values="0 0 0 0 0 0 0 0 0 0 0 0 0 0 0 0 0 0 127 0" result="hardAlpha"/>
<feOffset dy="2.92958"/>
<feGaussianBlur stdDeviation="1.46479"/>
<feColorMatrix type="matrix" values="0 0 0 0 0.254902 0 0 0 0 0.294118 0 0 0 0 0.423529 0 0 0 0.3 0"/>
<feBlend mode="normal" in2="BackgroundImageFix" result="effect1_dropShadow_0_525"/>
<feBlend mode="normal" in="SourceGraphic" in2="effect1_dropShadow_0_525" result="shape"/>
</filter>
<filter id="filter20_f_0_525" x="285" y="77.8064" width="136" height="19" filterUnits="userSpaceOnUse" color-interpolation-filters="sRGB">
<feFlood flood-opacity="0" result="BackgroundImageFix"/>
<feBlend mode="normal" in="SourceGraphic" in2="BackgroundImageFix" result="shape"/>
<feGaussianBlur stdDeviation="2" result="effect1_foregroundBlur_0_525"/>
</filter>
<filter id="filter21_d_0_525" x="353" y="19.8064" width="42" height="142.786" filterUnits="userSpaceOnUse" color-interpolation-filters="sRGB">
<feFlood flood-opacity="0" result="BackgroundImageFix"/>
<feColorMatrix in="SourceAlpha" type="matrix" values="0 0 0 0 0 0 0 0 0 0 0 0 0 0 0 0 0 0 127 0" result="hardAlpha"/>
<feOffset dx="-4" dy="4"/>
<feGaussianBlur stdDeviation="2"/>
<feColorMatrix type="matrix" values="0 0 0 0 0.101961 0 0 0 0 0.207843 0 0 0 0 0.580392 0 0 0 0.15 0"/>
<feBlend mode="normal" in2="BackgroundImageFix" result="effect1_dropShadow_0_525"/>
<feBlend mode="normal" in="SourceGraphic" in2="effect1_dropShadow_0_525" result="shape"/>
</filter>
<filter id="filter22_f_0_525" x="378" y="17.8513" width="8.67957" height="78.9551" filterUnits="userSpaceOnUse" color-interpolation-filters="sRGB">
<feFlood flood-opacity="0" result="BackgroundImageFix"/>
<feBlend mode="normal" in="SourceGraphic" in2="BackgroundImageFix" result="shape"/>
<feGaussianBlur stdDeviation="1" result="effect1_foregroundBlur_0_525"/>
</filter>
<filter id="filter23_d_0_525" x="297" y="20.8064" width="59.8453" height="161.982" filterUnits="userSpaceOnUse" color-interpolation-filters="sRGB">
<feFlood flood-opacity="0" result="BackgroundImageFix"/>
<feColorMatrix in="SourceAlpha" type="matrix" values="0 0 0 0 0 0 0 0 0 0 0 0 0 0 0 0 0 0 127 0" result="hardAlpha"/>
<feOffset dx="-4" dy="4"/>
<feGaussianBlur stdDeviation="2"/>
<feColorMatrix type="matrix" values="0 0 0 0 0.101961 0 0 0 0 0.207843 0 0 0 0 0.580392 0 0 0 0.15 0"/>
<feBlend mode="normal" in2="BackgroundImageFix" result="effect1_dropShadow_0_525"/>
<feBlend mode="normal" in="SourceGraphic" in2="effect1_dropShadow_0_525" result="shape"/>
</filter>
<filter id="filter24_f_0_525" x="303" y="19.8064" width="54.8453" height="156.982" filterUnits="userSpaceOnUse" color-interpolation-filters="sRGB">
<feFlood flood-opacity="0" result="BackgroundImageFix"/>
<feBlend mode="normal" in="SourceGraphic" in2="BackgroundImageFix" result="shape"/>
<feGaussianBlur stdDeviation="1" result="effect1_foregroundBlur_0_525"/>
</filter>
<filter id="filter25_f_0_525" x="302" y="16.8064" width="58.8453" height="160.982" filterUnits="userSpaceOnUse" color-interpolation-filters="sRGB">
<feFlood flood-opacity="0" result="BackgroundImageFix"/>
<feBlend mode="normal" in="SourceGraphic" in2="BackgroundImageFix" result="shape"/>
<feGaussianBlur stdDeviation="2" result="effect1_foregroundBlur_0_525"/>
</filter>
<filter id="filter26_f_0_525" x="287" y="89.8064" width="122" height="89" filterUnits="userSpaceOnUse" color-interpolation-filters="sRGB">
<feFlood flood-opacity="0" result="BackgroundImageFix"/>
<feBlend mode="normal" in="SourceGraphic" in2="BackgroundImageFix" result="shape"/>
<feGaussianBlur stdDeviation="1" result="effect1_foregroundBlur_0_525"/>
</filter>
<filter id="filter27_f_0_525" x="285" y="84.8064" width="136" height="25.5" filterUnits="userSpaceOnUse" color-interpolation-filters="sRGB">
<feFlood flood-opacity="0" result="BackgroundImageFix"/>
<feBlend mode="normal" in="SourceGraphic" in2="BackgroundImageFix" result="shape"/>
<feGaussianBlur stdDeviation="2" result="effect1_foregroundBlur_0_525"/>
</filter>
<filter id="filter28_d_0_525" x="313" y="100.806" width="79.5781" height="79.5781" filterUnits="userSpaceOnUse" color-interpolation-filters="sRGB">
<feFlood flood-opacity="0" result="BackgroundImageFix"/>
<feColorMatrix in="SourceAlpha" type="matrix" values="0 0 0 0 0 0 0 0 0 0 0 0 0 0 0 0 0 0 127 0" result="hardAlpha"/>
<feOffset dy="4"/>
<feGaussianBlur stdDeviation="2"/>
<feColorMatrix type="matrix" values="0 0 0 0 0.255 0 0 0 0 0.292623 0 0 0 0 0.425 0 0 0 0.3 0"/>
<feBlend mode="normal" in2="BackgroundImageFix" result="effect1_dropShadow_0_525"/>
<feBlend mode="normal" in="SourceGraphic" in2="effect1_dropShadow_0_525" result="shape"/>
</filter>
<filter id="filter29_d_0_525" x="394" y="37.8064" width="34" height="34" filterUnits="userSpaceOnUse" color-interpolation-filters="sRGB">
<feFlood flood-opacity="0" result="BackgroundImageFix"/>
<feColorMatrix in="SourceAlpha" type="matrix" values="0 0 0 0 0 0 0 0 0 0 0 0 0 0 0 0 0 0 127 0" result="hardAlpha"/>
<feOffset dy="4"/>
<feGaussianBlur stdDeviation="2"/>
<feColorMatrix type="matrix" values="0 0 0 0 0.254902 0 0 0 0 0.294118 0 0 0 0 0.423529 0 0 0 0.3 0"/>
<feBlend mode="normal" in2="BackgroundImageFix" result="effect1_dropShadow_0_525"/>
<feBlend mode="normal" in="SourceGraphic" in2="effect1_dropShadow_0_525" result="shape"/>
</filter>
<linearGradient id="paint0_linear_0_525" x1="44.9999" y1="31.3064" x2="44.9999" y2="1.24545" gradientUnits="userSpaceOnUse">
<stop stop-color="#4358A7"/>
<stop offset="1" stop-color="#4358A7" stop-opacity="0"/>
</linearGradient>
<linearGradient id="paint1_linear_0_525" x1="40.3164" y1="24.6574" x2="40.3164" y2="29.233" gradientUnits="userSpaceOnUse">
<stop stop-color="#6776B8"/>
<stop offset="1" stop-color="#1A3594"/>
</linearGradient>
<linearGradient id="paint2_linear_0_525" x1="37.7587" y1="13.0776" x2="43.0186" y2="13.0776" gradientUnits="userSpaceOnUse">
<stop stop-color="#EA6219"/>
<stop offset="1" stop-color="#FE9100"/>
</linearGradient>
<linearGradient id="paint3_linear_0_525" x1="44.3336" y1="4.81205" x2="38.5101" y2="4.81205" gradientUnits="userSpaceOnUse">
<stop stop-color="white" stop-opacity="0.72"/>
<stop offset="1" stop-color="white" stop-opacity="0"/>
</linearGradient>
<linearGradient id="paint4_linear_0_525" x1="43.3943" y1="15.3318" x2="40.5765" y2="15.3318" gradientUnits="userSpaceOnUse">
<stop stop-color="white"/>
<stop offset="1" stop-color="white" stop-opacity="0"/>
</linearGradient>
<linearGradient id="paint5_linear_0_525" x1="44.3336" y1="4.81205" x2="38.51" y2="4.81205" gradientUnits="userSpaceOnUse">
<stop stop-color="white" stop-opacity="0.72"/>
<stop offset="1" stop-color="white" stop-opacity="0"/>
</linearGradient>
<linearGradient id="paint6_linear_0_525" x1="35.2196" y1="38.0278" x2="46.4234" y2="34.1333" gradientUnits="userSpaceOnUse">
<stop stop-color="#8193DF"/>
<stop offset="1" stop-color="#B3C1F6"/>
</linearGradient>
<linearGradient id="paint7_linear_0_525" x1="48.1075" y1="37.0663" x2="40.3598" y2="36.8737" gradientUnits="userSpaceOnUse">
<stop stop-color="white"/>
<stop offset="1" stop-color="white" stop-opacity="0"/>
</linearGradient>
<linearGradient id="paint8_linear_0_525" x1="10.8234" y1="45.3884" x2="28.1924" y2="8.2894" gradientUnits="userSpaceOnUse">
<stop stop-color="#EA6219"/>
<stop offset="1" stop-color="#FE9100"/>
</linearGradient>
<linearGradient id="paint9_linear_0_525" x1="28.4816" y1="2.55782" x2="16.6469" y2="17.3982" gradientUnits="userSpaceOnUse">
<stop stop-color="white"/>
<stop offset="1" stop-color="white" stop-opacity="0"/>
</linearGradient>
<linearGradient id="paint10_linear_0_525" x1="32.7443" y1="10.2597" x2="15.8375" y2="18.7131" gradientUnits="userSpaceOnUse">
<stop stop-color="white"/>
<stop offset="1" stop-color="white" stop-opacity="0"/>
</linearGradient>
<linearGradient id="paint11_linear_0_525" x1="14.9562" y1="10.0719" x2="30.9237" y2="18.3375" gradientUnits="userSpaceOnUse">
<stop stop-color="#E0690A"/>
<stop offset="1" stop-color="white" stop-opacity="0"/>
</linearGradient>
<linearGradient id="paint12_linear_0_525" x1="27.9181" y1="28.2937" x2="21.9068" y2="28.2937" gradientUnits="userSpaceOnUse">
<stop stop-color="white" stop-opacity="0.65"/>
<stop offset="1" stop-color="white" stop-opacity="0"/>
</linearGradient>
<linearGradient id="paint13_linear_0_525" x1="25.6471" y1="60.8064" x2="48.8006" y2="33.1751" gradientUnits="userSpaceOnUse">
<stop stop-color="#8193DF"/>
<stop offset="1" stop-color="#B3C1F6"/>
</linearGradient>
<linearGradient id="paint14_linear_0_525" x1="57.2658" y1="39.3726" x2="41.3931" y2="38.6778" gradientUnits="userSpaceOnUse">
<stop stop-color="white"/>
<stop offset="1" stop-color="white" stop-opacity="0"/>
</linearGradient>
<linearGradient id="paint15_linear_0_525" x1="53.4762" y1="60.4954" x2="11.0357" y2="60.4954" gradientUnits="userSpaceOnUse">
<stop stop-color="#BCC7F2"/>
<stop offset="1" stop-color="white" stop-opacity="0"/>
</linearGradient>
<linearGradient id="paint16_linear_0_525" x1="31.5" y1="32.8064" x2="32.2644" y2="25.9088" gradientUnits="userSpaceOnUse">
<stop stop-color="#8193DF"/>
<stop offset="1" stop-color="#B3C1F6"/>
</linearGradient>
<linearGradient id="paint17_linear_0_525" x1="59.3977" y1="28.7876" x2="45.5032" y2="26.2342" gradientUnits="userSpaceOnUse">
<stop stop-color="white"/>
<stop offset="1" stop-color="white" stop-opacity="0"/>
</linearGradient>
<linearGradient id="paint18_linear_0_525" x1="37.7786" y1="35.9754" x2="29.9723" y2="42.4472" gradientUnits="userSpaceOnUse">
<stop stop-color="white"/>
<stop offset="1" stop-color="white" stop-opacity="0"/>
</linearGradient>
<radialGradient id="paint19_radial_0_525" cx="0" cy="0" r="1" gradientUnits="userSpaceOnUse" gradientTransform="translate(31.4117 45.7911) rotate(15) scale(6.46694 6.10713)">
<stop stop-color="white"/>
<stop offset="1" stop-color="white" stop-opacity="0"/>
</radialGradient>
<linearGradient id="paint20_linear_0_525" x1="37.7786" y1="35.9754" x2="29.9723" y2="42.4472" gradientUnits="userSpaceOnUse">
<stop stop-color="white"/>
<stop offset="1" stop-color="white" stop-opacity="0"/>
</linearGradient>
<radialGradient id="paint21_radial_0_525" cx="0" cy="0" r="1" gradientUnits="userSpaceOnUse" gradientTransform="translate(31.4117 45.7911) rotate(15) scale(6.46694 6.10713)">
<stop stop-color="white"/>
<stop offset="1" stop-color="white" stop-opacity="0"/>
</radialGradient>
<radialGradient id="paint22_radial_0_525" cx="0" cy="0" r="1" gradientUnits="userSpaceOnUse" gradientTransform="translate(52.8842 16.6906) rotate(90) scale(2.62995)">
<stop stop-color="white"/>
<stop offset="1" stop-color="white" stop-opacity="0"/>
</radialGradient>
<linearGradient id="paint23_linear_0_525" x1="189.5" y1="58.5626" x2="188.659" y2="-1.33451" gradientUnits="userSpaceOnUse">
<stop stop-color="#4358A7"/>
<stop offset="1" stop-color="#4358A7" stop-opacity="0"/>
</linearGradient>
<linearGradient id="paint24_linear_0_525" x1="178.845" y1="51.3518" x2="178.845" y2="60.2713" gradientUnits="userSpaceOnUse">
<stop stop-color="#6776B8"/>
<stop offset="1" stop-color="#1A3594"/>
</linearGradient>
<linearGradient id="paint25_linear_0_525" x1="173.859" y1="28.7783" x2="184.113" y2="28.7783" gradientUnits="userSpaceOnUse">
<stop stop-color="#EA6219"/>
<stop offset="1" stop-color="#FE9100"/>
</linearGradient>
<linearGradient id="paint26_linear_0_525" x1="186.676" y1="12.6656" x2="175.324" y2="12.6656" gradientUnits="userSpaceOnUse">
<stop stop-color="white" stop-opacity="0.72"/>
<stop offset="1" stop-color="white" stop-opacity="0"/>
</linearGradient>
<linearGradient id="paint27_linear_0_525" x1="184.845" y1="33.1726" x2="179.352" y2="33.1726" gradientUnits="userSpaceOnUse">
<stop stop-color="white"/>
<stop offset="1" stop-color="white" stop-opacity="0"/>
</linearGradient>
<linearGradient id="paint28_linear_0_525" x1="186.676" y1="12.6651" x2="175.324" y2="12.6651" gradientUnits="userSpaceOnUse">
<stop stop-color="white" stop-opacity="0.72"/>
<stop offset="1" stop-color="white" stop-opacity="0"/>
</linearGradient>
<linearGradient id="paint29_linear_0_525" x1="168.909" y1="77.4156" x2="190.75" y2="69.8238" gradientUnits="userSpaceOnUse">
<stop stop-color="#8193DF"/>
<stop offset="1" stop-color="#B3C1F6"/>
</linearGradient>
<linearGradient id="paint30_linear_0_525" x1="194.033" y1="75.5413" x2="178.93" y2="75.1658" gradientUnits="userSpaceOnUse">
<stop stop-color="white"/>
<stop offset="1" stop-color="white" stop-opacity="0"/>
</linearGradient>
<linearGradient id="paint31_linear_0_525" x1="121.352" y1="91.7642" x2="155.211" y2="19.4443" gradientUnits="userSpaceOnUse">
<stop stop-color="#EA6219"/>
<stop offset="1" stop-color="#FE9100"/>
</linearGradient>
<linearGradient id="paint32_linear_0_525" x1="155.775" y1="8.27124" x2="132.704" y2="37.2008" gradientUnits="userSpaceOnUse">
<stop stop-color="white"/>
<stop offset="1" stop-color="white" stop-opacity="0"/>
</linearGradient>
<linearGradient id="paint33_linear_0_525" x1="164.084" y1="23.2853" x2="131.126" y2="39.7642" gradientUnits="userSpaceOnUse">
<stop stop-color="white"/>
<stop offset="1" stop-color="white" stop-opacity="0"/>
</linearGradient>
<linearGradient id="paint34_linear_0_525" x1="129.408" y1="22.9191" x2="160.535" y2="39.0318" gradientUnits="userSpaceOnUse">
<stop stop-color="#E0690A"/>
<stop offset="1" stop-color="white" stop-opacity="0"/>
</linearGradient>
<linearGradient id="paint35_linear_0_525" x1="154.676" y1="58.4403" x2="142.958" y2="58.4403" gradientUnits="userSpaceOnUse">
<stop stop-color="white" stop-opacity="0.65"/>
<stop offset="1" stop-color="white" stop-opacity="0"/>
</linearGradient>
<linearGradient id="paint36_linear_0_525" x1="149.559" y1="121.806" x2="194.332" y2="67.7992" gradientUnits="userSpaceOnUse">
<stop stop-color="#8193DF"/>
<stop offset="1" stop-color="#B3C1F6"/>
</linearGradient>
<linearGradient id="paint37_linear_0_525" x1="211.479" y1="80.2783" x2="180.396" y2="78.9031" gradientUnits="userSpaceOnUse">
<stop stop-color="white"/>
<stop offset="1" stop-color="white" stop-opacity="0"/>
</linearGradient>
<linearGradient id="paint38_linear_0_525" x1="204.442" y1="121.06" x2="121.283" y2="121.06" gradientUnits="userSpaceOnUse">
<stop stop-color="#BCC7F2"/>
<stop offset="1" stop-color="white" stop-opacity="0"/>
</linearGradient>
<linearGradient id="paint39_linear_0_525" x1="162" y1="66.8063" x2="163.558" y2="53.0176" gradientUnits="userSpaceOnUse">
<stop stop-color="#8193DF"/>
<stop offset="1" stop-color="#B3C1F6"/>
</linearGradient>
<linearGradient id="paint40_linear_0_525" x1="216.743" y1="58.7687" x2="189.445" y2="53.8467" gradientUnits="userSpaceOnUse">
<stop stop-color="white"/>
<stop offset="1" stop-color="white" stop-opacity="0"/>
</linearGradient>
<linearGradient id="paint41_linear_0_525" x1="173.898" y1="73.4148" x2="158.68" y2="86.0307" gradientUnits="userSpaceOnUse">
<stop stop-color="white"/>
<stop offset="1" stop-color="white" stop-opacity="0"/>
</linearGradient>
<radialGradient id="paint42_radial_0_525" cx="0" cy="0" r="1" gradientUnits="userSpaceOnUse" gradientTransform="translate(161.486 92.5494) rotate(15) scale(12.6065 11.9051)">
<stop stop-color="white"/>
<stop offset="1" stop-color="white" stop-opacity="0"/>
</radialGradient>
<linearGradient id="paint43_linear_0_525" x1="173.898" y1="73.4148" x2="158.68" y2="86.0307" gradientUnits="userSpaceOnUse">
<stop stop-color="white"/>
<stop offset="1" stop-color="white" stop-opacity="0"/>
</linearGradient>
<radialGradient id="paint44_radial_0_525" cx="0" cy="0" r="1" gradientUnits="userSpaceOnUse" gradientTransform="translate(161.486 92.5494) rotate(15) scale(12.6065 11.9051)">
<stop stop-color="white"/>
<stop offset="1" stop-color="white" stop-opacity="0"/>
</radialGradient>
<radialGradient id="paint45_radial_0_525" cx="0" cy="0" r="1" gradientUnits="userSpaceOnUse" gradientTransform="translate(204.479 34.2875) rotate(90) scale(5.12676)">
<stop stop-color="white"/>
<stop offset="1" stop-color="white" stop-opacity="0"/>
</radialGradient>
<linearGradient id="paint46_linear_0_525" x1="387" y1="92.8064" x2="387" y2="32.8064" gradientUnits="userSpaceOnUse">
<stop stop-color="#4358A7"/>
<stop offset="1" stop-color="#4358A7" stop-opacity="0"/>
</linearGradient>
<linearGradient id="paint47_linear_0_525" x1="376" y1="80.6278" x2="376" y2="92.8064" gradientUnits="userSpaceOnUse">
<stop stop-color="#6776B8"/>
<stop offset="1" stop-color="#1A3594"/>
</linearGradient>
<linearGradient id="paint48_linear_0_525" x1="369" y1="49.8064" x2="383" y2="49.8064" gradientUnits="userSpaceOnUse">
<stop stop-color="#EA6219"/>
<stop offset="1" stop-color="#FE9100"/>
</linearGradient>
<linearGradient id="paint49_linear_0_525" x1="386.5" y1="27.8064" x2="371" y2="27.8064" gradientUnits="userSpaceOnUse">
<stop stop-color="white" stop-opacity="0.72"/>
<stop offset="1" stop-color="white" stop-opacity="0"/>
</linearGradient>
<linearGradient id="paint50_linear_0_525" x1="384" y1="55.8064" x2="376.5" y2="55.8064" gradientUnits="userSpaceOnUse">
<stop stop-color="white"/>
<stop offset="1" stop-color="white" stop-opacity="0"/>
</linearGradient>
<linearGradient id="paint51_linear_0_525" x1="386.5" y1="27.8064" x2="371" y2="27.8064" gradientUnits="userSpaceOnUse">
<stop stop-color="white" stop-opacity="0.72"/>
<stop offset="1" stop-color="white" stop-opacity="0"/>
</linearGradient>
<linearGradient id="paint52_linear_0_525" x1="362.242" y1="116.215" x2="392.062" y2="105.849" gradientUnits="userSpaceOnUse">
<stop stop-color="#8193DF"/>
<stop offset="1" stop-color="#B3C1F6"/>
</linearGradient>
<linearGradient id="paint53_linear_0_525" x1="396.545" y1="113.656" x2="375.923" y2="113.143" gradientUnits="userSpaceOnUse">
<stop stop-color="white"/>
<stop offset="1" stop-color="white" stop-opacity="0"/>
</linearGradient>
<linearGradient id="paint54_linear_0_525" x1="297.5" y1="135.806" x2="343.73" y2="37.0619" gradientUnits="userSpaceOnUse">
<stop stop-color="#EA6219"/>
<stop offset="1" stop-color="#FE9100"/>
</linearGradient>
<linearGradient id="paint55_linear_0_525" x1="344.5" y1="21.8064" x2="313" y2="61.3064" gradientUnits="userSpaceOnUse">
<stop stop-color="white"/>
<stop offset="1" stop-color="white" stop-opacity="0"/>
</linearGradient>
<linearGradient id="paint56_linear_0_525" x1="355.845" y1="42.3064" x2="310.845" y2="64.8064" gradientUnits="userSpaceOnUse">
<stop stop-color="white"/>
<stop offset="1" stop-color="white" stop-opacity="0"/>
</linearGradient>
<linearGradient id="paint57_linear_0_525" x1="308.5" y1="41.8064" x2="351" y2="63.8064" gradientUnits="userSpaceOnUse">
<stop stop-color="#E0690A"/>
<stop offset="1" stop-color="white" stop-opacity="0"/>
</linearGradient>
<linearGradient id="paint58_linear_0_525" x1="343" y1="90.3064" x2="327" y2="90.3064" gradientUnits="userSpaceOnUse">
<stop stop-color="white" stop-opacity="0.65"/>
<stop offset="1" stop-color="white" stop-opacity="0"/>
</linearGradient>
<linearGradient id="paint59_linear_0_525" x1="336.059" y1="176.806" x2="397.518" y2="103.174" gradientUnits="userSpaceOnUse">
<stop stop-color="#8193DF"/>
<stop offset="1" stop-color="#B3C1F6"/>
</linearGradient>
<linearGradient id="paint60_linear_0_525" x1="420.375" y1="119.873" x2="378.049" y2="118.013" gradientUnits="userSpaceOnUse">
<stop stop-color="white"/>
<stop offset="1" stop-color="white" stop-opacity="0"/>
</linearGradient>
<linearGradient id="paint61_linear_0_525" x1="410.949" y1="175.806" x2="297.405" y2="175.806" gradientUnits="userSpaceOnUse">
<stop stop-color="#BCC7F2"/>
<stop offset="1" stop-color="white" stop-opacity="0"/>
</linearGradient>
<linearGradient id="paint62_linear_0_525" x1="353" y1="101.806" x2="355.029" y2="83.4107" gradientUnits="userSpaceOnUse">
<stop stop-color="#8193DF"/>
<stop offset="1" stop-color="#B3C1F6"/>
</linearGradient>
<linearGradient id="paint63_linear_0_525" x1="427.745" y1="91.0895" x2="390.529" y2="84.2181" gradientUnits="userSpaceOnUse">
<stop stop-color="white"/>
<stop offset="1" stop-color="white" stop-opacity="0"/>
</linearGradient>
<linearGradient id="paint64_linear_0_525" x1="369.245" y1="110.752" x2="348.467" y2="127.978" gradientUnits="userSpaceOnUse">
<stop stop-color="white"/>
<stop offset="1" stop-color="white" stop-opacity="0"/>
</linearGradient>
<radialGradient id="paint65_radial_0_525" cx="0" cy="0" r="1" gradientUnits="userSpaceOnUse" gradientTransform="translate(352.299 136.878) rotate(15) scale(17.2127 16.2551)">
<stop stop-color="white"/>
<stop offset="1" stop-color="white" stop-opacity="0"/>
</radialGradient>
<linearGradient id="paint66_linear_0_525" x1="369.245" y1="110.752" x2="348.467" y2="127.978" gradientUnits="userSpaceOnUse">
<stop stop-color="white"/>
<stop offset="1" stop-color="white" stop-opacity="0"/>
</linearGradient>
<radialGradient id="paint67_radial_0_525" cx="0" cy="0" r="1" gradientUnits="userSpaceOnUse" gradientTransform="translate(352.299 136.878) rotate(15) scale(17.2127 16.2551)">
<stop stop-color="white"/>
<stop offset="1" stop-color="white" stop-opacity="0"/>
</radialGradient>
<radialGradient id="paint68_radial_0_525" cx="0" cy="0" r="1" gradientUnits="userSpaceOnUse" gradientTransform="translate(411 50.8064) rotate(90) scale(7)">
<stop stop-color="white"/>
<stop offset="1" stop-color="white" stop-opacity="0"/>
</radialGradient>
<clipPath id="clip0_0_525">
<rect width="64" height="64" fill="white"/>
</clipPath>
<clipPath id="clip1_0_525">
<rect width="21.9575" height="21.9575" fill="white" transform="translate(23.8328 32.2386) rotate(15)"/>
</clipPath>
<clipPath id="clip2_0_525">
<rect width="128" height="128" fill="white" transform="translate(100 1.8064)"/>
</clipPath>
<clipPath id="clip3_0_525">
<rect width="42.8035" height="42.8035" fill="white" transform="translate(146.712 66.1304) rotate(15)"/>
</clipPath>
<clipPath id="clip4_0_525">
<rect width="192" height="192" fill="white" transform="translate(257 1.8064)"/>
</clipPath>
<clipPath id="clip5_0_525">
<rect width="58.4432" height="58.4432" fill="white" transform="translate(332.126 100.806) rotate(15)"/>
</clipPath>
</defs>
</svg>
