<svg width="449" height="192" viewBox="0 0 449 192" fill="none" xmlns="http://www.w3.org/2000/svg">
<g clip-path="url(#clip0_0_71)">
<rect width="64" height="64" rx="32" fill="#1A3594"/>
<rect x="28.53" y="3" width="36.2771" height="48.9398" rx="2.73789" transform="rotate(12.1083 28.53 3)" fill="#E6ECF8"/>
<rect x="28.53" y="3" width="36.2771" height="48.9398" rx="2.73789" transform="rotate(12.1083 28.53 3)" fill="url(#paint0_linear_0_71)"/>
<rect x="30.4092" y="6.8151" width="14.3739" height="17.7963" rx="2.73789" transform="rotate(12.1083 30.4092 6.8151)" fill="#DBE2F1"/>
<rect x="45.8018" y="10.1173" width="14.7162" height="1.36895" rx="0.684473" transform="rotate(12.1083 45.8018 10.1173)" fill="#DBE2F1"/>
<rect x="45.1558" y="13.129" width="14.7162" height="1.36895" rx="0.684473" transform="rotate(12.1083 45.1558 13.129)" fill="#DBE2F1"/>
<rect x="44.5096" y="16.1405" width="14.7162" height="1.36895" rx="0.684473" transform="rotate(12.1083 44.5096 16.1405)" fill="#DBE2F1"/>
<rect x="43.8635" y="19.1522" width="14.7162" height="1.36895" rx="0.684473" transform="rotate(12.1083 43.8635 19.1522)" fill="#DBE2F1"/>
<rect x="43.2175" y="22.1638" width="14.7162" height="1.36895" rx="0.684473" transform="rotate(12.1083 43.2175 22.1638)" fill="#DBE2F1"/>
<rect x="42.5714" y="25.1754" width="14.7162" height="1.36895" rx="0.684473" transform="rotate(12.1083 42.5714 25.1754)" fill="#DBE2F1"/>
<rect x="41.9253" y="28.187" width="14.7162" height="1.36895" rx="0.684473" transform="rotate(12.1083 41.9253 28.187)" fill="#DBE2F1"/>
<rect x="41.2792" y="31.1986" width="14.7162" height="1.36895" rx="0.684473" transform="rotate(12.1083 41.2792 31.1986)" fill="#DBE2F1"/>
<rect x="40.633" y="34.2102" width="14.7162" height="1.36895" rx="0.684473" transform="rotate(12.1083 40.633 34.2102)" fill="#DBE2F1"/>
<rect x="39.987" y="37.2218" width="14.7162" height="1.36895" rx="0.684473" transform="rotate(12.1083 39.987 37.2218)" fill="#DBE2F1"/>
<rect x="39.341" y="40.2334" width="14.7162" height="1.36895" rx="0.684473" transform="rotate(12.1083 39.341 40.2334)" fill="#DBE2F1"/>
<rect x="38.6948" y="43.245" width="14.7162" height="1.36895" rx="0.684473" transform="rotate(12.1083 38.6948 43.245)" fill="#DBE2F1"/>
<rect x="38.0487" y="46.2566" width="14.7162" height="1.36895" rx="0.684473" transform="rotate(12.1083 38.0487 46.2566)" fill="#DBE2F1"/>
<g filter="url(#filter0_f_0_71)">
<path d="M24.7182 10.4908C24.8601 9.85305 25.2254 9.28702 25.7481 8.89499L27.3281 7.70992C27.5586 7.53711 27.8148 7.40173 28.0874 7.30879L32.4775 5.81216C33.9608 5.30649 35.5651 6.14667 35.9942 7.65389L47.7564 48.9666C48.175 50.437 47.3084 51.9653 45.8318 52.3609L17.8385 59.8617C15.8528 60.3938 14.011 58.6293 14.4573 56.6227L24.7182 10.4908Z" fill="#A5ACBB" fill-opacity="0.5"/>
</g>
<rect x="0.125824" y="14.7849" width="36.2771" height="48.9398" rx="2.73789" transform="rotate(-15 0.125824 14.7849)" fill="#E6ECF8"/>
<rect x="0.125824" y="14.7849" width="36.2771" height="48.9398" rx="2.73789" transform="rotate(-15 0.125824 14.7849)" fill="url(#paint1_linear_0_71)"/>
<rect x="3.53696" y="17.3246" width="14.3739" height="17.7963" rx="2.73789" transform="rotate(-15 3.53696 17.3246)" fill="#DBE2F1"/>
<rect x="18.7434" y="13.25" width="14.7162" height="1.36895" rx="0.684473" transform="rotate(-15 18.7434 13.25)" fill="#DBE2F1"/>
<rect x="19.5406" y="16.2252" width="14.7162" height="1.36895" rx="0.684473" transform="rotate(-15 19.5406 16.2252)" fill="#DBE2F1"/>
<rect x="20.3379" y="19.2004" width="14.7162" height="1.36895" rx="0.684473" transform="rotate(-15 20.3379 19.2004)" fill="#DBE2F1"/>
<rect x="21.1351" y="22.1755" width="14.7162" height="1.36895" rx="0.684473" transform="rotate(-15 21.1351 22.1755)" fill="#DBE2F1"/>
<rect x="21.9321" y="25.1507" width="14.7162" height="1.36895" rx="0.684473" transform="rotate(-15 21.9321 25.1507)" fill="#DBE2F1"/>
<rect x="22.7294" y="28.1259" width="14.7162" height="1.36895" rx="0.684473" transform="rotate(-15 22.7294 28.1259)" fill="#DBE2F1"/>
<rect x="23.5266" y="31.1011" width="14.7162" height="1.36895" rx="0.684473" transform="rotate(-15 23.5266 31.1011)" fill="#DBE2F1"/>
<rect x="9.23664" y="38.2082" width="30.4591" height="1.36895" rx="0.684473" transform="rotate(-15 9.23664 38.2082)" fill="#DBE2F1"/>
<rect x="10.0336" y="41.1834" width="30.4591" height="1.36895" rx="0.684473" transform="rotate(-15 10.0336 41.1834)" fill="#DBE2F1"/>
<rect x="10.8309" y="44.1586" width="30.4591" height="1.36895" rx="0.684473" transform="rotate(-15 10.8309 44.1586)" fill="#DBE2F1"/>
<rect x="11.6281" y="47.1338" width="30.4591" height="1.36895" rx="0.684473" transform="rotate(-15 11.6281 47.1338)" fill="#DBE2F1"/>
<rect x="12.4254" y="50.1089" width="30.4591" height="1.36895" rx="0.684473" transform="rotate(-15 12.4254 50.1089)" fill="#DBE2F1"/>
<rect x="13.2226" y="53.0841" width="30.4591" height="1.36895" rx="0.684473" transform="rotate(-15 13.2226 53.0841)" fill="#DBE2F1"/>
<g filter="url(#filter1_f_0_71)">
<path d="M51.1192 54.6136V10.7018C51.1192 9.28341 49.9694 8.13355 48.5509 8.13355H24.767L12.2754 16.1761V56.3775C12.2754 57.8647 13.5346 59.041 15.0183 58.9398L27.3338 58.1001L48.6617 57.1795C50.0358 57.1202 51.1192 55.9889 51.1192 54.6136Z" fill="#636C95" fill-opacity="0.15"/>
</g>
<path d="M50 55.4317V11.5683C50 10.1499 48.8501 9 47.4317 9H21L13 17V55.4317C13 56.8501 14.1498 58 15.5683 58H47.4317C48.8501 58 50 56.8501 50 55.4317Z" fill="#F7F9FB"/>
<g filter="url(#filter2_d_0_71)">
<path d="M21.0021 14.4317V9L12.9999 17H18.4338C19.8522 17 21.0021 15.8501 21.0021 14.4317Z" fill="#91A1E6"/>
</g>
<rect x="24" y="15" width="22" height="2" rx="1" fill="#E6ECF8"/>
<rect x="17" y="19" width="29" height="2" rx="1" fill="#E6ECF8"/>
<rect x="17" y="23" width="29" height="2" rx="1" fill="#E6ECF8"/>
<rect x="17" y="27" width="29" height="2" rx="1" fill="#E6ECF8"/>
<rect x="17" y="31" width="29" height="2" rx="1" fill="#E6ECF8"/>
<rect x="17" y="35" width="29" height="2" rx="1" fill="#E6ECF8"/>
<rect x="17" y="39" width="29" height="2" rx="1" fill="#E6ECF8"/>
<rect x="17" y="43" width="29" height="2" rx="1" fill="#E6ECF8"/>
<rect x="17" y="47" width="29" height="2" rx="1" fill="#E6ECF8"/>
<circle cx="41" cy="49.0417" r="6" fill="url(#paint2_linear_0_71)"/>
<circle cx="41" cy="49.0417" r="4.5" stroke="#DBE2F1"/>
<path d="M4.73454 39.4594C4.07961 38.8156 4.07064 37.7627 4.71449 37.1078L6.46318 35.329C7.10703 34.6741 8.1599 34.6651 8.81482 35.309L22.4521 48.7156L18.3718 52.8661L4.73454 39.4594Z" fill="url(#paint3_linear_0_71)"/>
<path d="M4.73454 39.4594C4.07961 38.8156 4.07064 37.7627 4.71449 37.1078L6.46318 35.329C7.10703 34.6741 8.1599 34.6651 8.81482 35.309L22.4521 48.7156L18.3718 52.8661L4.73454 39.4594Z" fill="url(#paint4_linear_0_71)"/>
<path d="M22.4516 48.716L18.3713 52.8664L22.9799 54.3591C23.6318 54.5702 24.2448 53.9466 24.0226 53.2985L22.4516 48.716Z" fill="url(#paint5_linear_0_71)"/>
<path d="M22.4516 48.716L18.3713 52.8664L22.9799 54.3591C23.6318 54.5702 24.2448 53.9466 24.0226 53.2985L22.4516 48.716Z" fill="url(#paint6_linear_0_71)" fill-opacity="0.5"/>
<path fill-rule="evenodd" clip-rule="evenodd" d="M23.7698 52.5611C23.4072 52.6497 23.0641 52.8371 22.7832 53.1228C22.5023 53.4085 22.3208 53.7549 22.2383 54.1189L22.9799 54.3591C23.6317 54.5702 24.2448 53.9466 24.0226 53.2984L23.7698 52.5611Z" fill="#1A3594"/>
</g>
<g clip-path="url(#clip1_0_71)">
<rect width="128" height="128" transform="translate(100)" fill="white"/>
<rect x="100" width="128" height="128" rx="64" fill="#1A3594"/>
<rect x="156.648" y="6" width="70.7588" height="95.4576" rx="5.34029" transform="rotate(12.1083 156.648 6)" fill="#E6ECF8"/>
<rect x="156.648" y="6" width="70.7588" height="95.4576" rx="5.34029" transform="rotate(12.1083 156.648 6)" fill="url(#paint7_linear_0_71)"/>
<rect x="160.313" y="13.4414" width="28.0365" height="34.7119" rx="5.34029" transform="rotate(12.1083 160.313 13.4414)" fill="#DBE2F1"/>
<rect x="190.337" y="19.8824" width="28.704" height="2.67014" rx="1.33507" transform="rotate(12.1083 190.337 19.8824)" fill="#DBE2F1"/>
<rect x="189.077" y="25.7566" width="28.704" height="2.67014" rx="1.33507" transform="rotate(12.1083 189.077 25.7566)" fill="#DBE2F1"/>
<rect x="187.816" y="31.6308" width="28.704" height="2.67014" rx="1.33507" transform="rotate(12.1083 187.816 31.6308)" fill="#DBE2F1"/>
<rect x="186.556" y="37.5049" width="28.704" height="2.67014" rx="1.33507" transform="rotate(12.1083 186.556 37.5049)" fill="#DBE2F1"/>
<rect x="185.296" y="43.3791" width="28.704" height="2.67014" rx="1.33507" transform="rotate(12.1083 185.296 43.3791)" fill="#DBE2F1"/>
<rect x="184.036" y="49.2533" width="28.704" height="2.67014" rx="1.33507" transform="rotate(12.1083 184.036 49.2533)" fill="#DBE2F1"/>
<rect x="182.776" y="55.1274" width="28.704" height="2.67014" rx="1.33507" transform="rotate(12.1083 182.776 55.1274)" fill="#DBE2F1"/>
<rect x="181.515" y="61.0016" width="28.704" height="2.67014" rx="1.33507" transform="rotate(12.1083 181.515 61.0016)" fill="#DBE2F1"/>
<rect x="180.255" y="66.8757" width="28.704" height="2.67014" rx="1.33507" transform="rotate(12.1083 180.255 66.8757)" fill="#DBE2F1"/>
<rect x="178.995" y="72.7499" width="28.704" height="2.67014" rx="1.33507" transform="rotate(12.1083 178.995 72.7499)" fill="#DBE2F1"/>
<rect x="177.735" y="78.6241" width="28.704" height="2.67014" rx="1.33507" transform="rotate(12.1083 177.735 78.6241)" fill="#DBE2F1"/>
<rect x="176.475" y="84.4982" width="28.704" height="2.67014" rx="1.33507" transform="rotate(12.1083 176.475 84.4982)" fill="#DBE2F1"/>
<rect x="175.214" y="90.3724" width="28.704" height="2.67014" rx="1.33507" transform="rotate(12.1083 175.214 90.3724)" fill="#DBE2F1"/>
<g filter="url(#filter3_f_0_71)">
<path d="M149.213 20.611C149.49 19.3669 150.202 18.2629 151.222 17.4982L154.304 15.1867C154.753 14.8497 155.253 14.5856 155.785 14.4043L164.348 11.4852C167.241 10.4988 170.37 12.1376 171.207 15.0775L194.149 95.6583C194.966 98.5263 193.275 101.507 190.395 102.279L135.794 116.909C131.921 117.947 128.328 114.506 129.199 110.592L149.213 20.611Z" fill="#A5ACBB" fill-opacity="0.5"/>
</g>
<rect x="101.245" y="28.9865" width="70.7588" height="95.4576" rx="5.34029" transform="rotate(-15 101.245 28.9865)" fill="#E6ECF8"/>
<rect x="101.245" y="28.9865" width="70.7588" height="95.4576" rx="5.34029" transform="rotate(-15 101.245 28.9865)" fill="url(#paint8_linear_0_71)"/>
<rect x="107.899" y="33.9402" width="28.0365" height="34.7119" rx="5.34029" transform="rotate(-15 107.899 33.9402)" fill="#DBE2F1"/>
<rect x="137.559" y="25.9927" width="28.704" height="2.67014" rx="1.33507" transform="rotate(-15 137.559 25.9927)" fill="#DBE2F1"/>
<rect x="139.114" y="31.7958" width="28.704" height="2.67014" rx="1.33507" transform="rotate(-15 139.114 31.7958)" fill="#DBE2F1"/>
<rect x="140.669" y="37.599" width="28.704" height="2.67014" rx="1.33507" transform="rotate(-15 140.669 37.599)" fill="#DBE2F1"/>
<rect x="142.224" y="43.4021" width="28.704" height="2.67014" rx="1.33507" transform="rotate(-15 142.224 43.4021)" fill="#DBE2F1"/>
<rect x="143.779" y="49.2052" width="28.704" height="2.67014" rx="1.33507" transform="rotate(-15 143.779 49.2052)" fill="#DBE2F1"/>
<rect x="145.334" y="55.0083" width="28.704" height="2.67014" rx="1.33507" transform="rotate(-15 145.334 55.0083)" fill="#DBE2F1"/>
<rect x="146.889" y="60.8114" width="28.704" height="2.67014" rx="1.33507" transform="rotate(-15 146.889 60.8114)" fill="#DBE2F1"/>
<rect x="119.016" y="74.674" width="59.4107" height="2.67014" rx="1.33507" transform="rotate(-15 119.016 74.674)" fill="#DBE2F1"/>
<rect x="120.571" y="80.4771" width="59.4107" height="2.67014" rx="1.33507" transform="rotate(-15 120.571 80.4771)" fill="#DBE2F1"/>
<rect x="122.126" y="86.2802" width="59.4107" height="2.67014" rx="1.33507" transform="rotate(-15 122.126 86.2802)" fill="#DBE2F1"/>
<rect x="123.681" y="92.0833" width="59.4107" height="2.67014" rx="1.33507" transform="rotate(-15 123.681 92.0833)" fill="#DBE2F1"/>
<rect x="125.236" y="97.8864" width="59.4107" height="2.67014" rx="1.33507" transform="rotate(-15 125.236 97.8864)" fill="#DBE2F1"/>
<rect x="126.791" y="103.69" width="59.4107" height="2.67014" rx="1.33507" transform="rotate(-15 126.791 103.69)" fill="#DBE2F1"/>
<g filter="url(#filter4_f_0_71)">
<path d="M200.708 106.673V21.0225C200.708 18.2559 198.465 16.013 195.699 16.013H149.308L124.943 31.7001V110.113C124.943 113.014 127.399 115.308 130.293 115.111L154.315 113.473L195.915 111.678C198.595 111.562 200.708 109.355 200.708 106.673Z" fill="#636C95" fill-opacity="0.15"/>
</g>
<path d="M198 108.971V23.0448C198 20.2612 195.739 18.007 192.955 18.0156L141.992 18.173L127 32.1972V108.971C127 111.748 129.252 114 132.029 114H192.971C195.748 114 198 111.748 198 108.971Z" fill="#F7F9FB"/>
<path fill-rule="evenodd" clip-rule="evenodd" d="M147 30.5C147 29.6716 147.547 29 148.222 29H189.778C190.453 29 191 29.6716 191 30.5C191 31.3284 190.453 32 189.778 32H148.222C147.547 32 147 31.3284 147 30.5Z" fill="#E6ECF8"/>
<path fill-rule="evenodd" clip-rule="evenodd" d="M147.002 36.5639C147.001 35.7355 147.547 35.0631 148.222 35.0621L189.773 35.0009C190.448 34.9999 190.996 35.6707 190.998 36.4991C190.999 37.3275 190.453 37.9999 189.778 38.0009L148.226 38.0621C147.551 38.0631 147.003 37.3923 147.002 36.5639Z" fill="#E6ECF8"/>
<path fill-rule="evenodd" clip-rule="evenodd" d="M134 42.5C134 41.6716 134.532 41 135.187 41L189.812 41C190.468 41 191 41.6716 191 42.5C191 43.3284 190.468 44 189.812 44L135.187 44C134.532 44 134 43.3284 134 42.5Z" fill="#E6ECF8"/>
<path fill-rule="evenodd" clip-rule="evenodd" d="M134 48.5C134 47.6716 134.532 47 135.187 47L189.812 47C190.468 47 191 47.6716 191 48.5C191 49.3284 190.468 50 189.812 50L135.187 50C134.532 50 134 49.3284 134 48.5Z" fill="#E6ECF8"/>
<path fill-rule="evenodd" clip-rule="evenodd" d="M134 54.5C134 53.6716 134.532 53 135.187 53L189.812 53C190.468 53 191 53.6716 191 54.5C191 55.3284 190.468 56 189.812 56L135.187 56C134.532 56 134 55.3284 134 54.5Z" fill="#E6ECF8"/>
<path fill-rule="evenodd" clip-rule="evenodd" d="M134 60.5C134 59.6716 134.532 59 135.187 59L189.812 59C190.468 59 191 59.6716 191 60.5C191 61.3284 190.468 62 189.812 62L135.187 62C134.532 62 134 61.3284 134 60.5Z" fill="#E6ECF8"/>
<path fill-rule="evenodd" clip-rule="evenodd" d="M134 66.5C134 65.6716 134.532 65 135.187 65L189.812 65C190.468 65 191 65.6716 191 66.5C191 67.3284 190.468 68 189.812 68L135.187 68C134.532 68 134 67.3284 134 66.5Z" fill="#E6ECF8"/>
<path fill-rule="evenodd" clip-rule="evenodd" d="M134 72.5C134 71.6716 134.532 71 135.187 71L189.812 71C190.468 71 191 71.6716 191 72.5C191 73.3284 190.468 74 189.812 74L135.187 74C134.532 74 134 73.3284 134 72.5Z" fill="#E6ECF8"/>
<path fill-rule="evenodd" clip-rule="evenodd" d="M134 78.5C134 77.6716 134.532 77 135.187 77L189.812 77C190.468 77 191 77.6716 191 78.5C191 79.3284 190.468 80 189.812 80L135.187 80C134.532 80 134 79.3284 134 78.5Z" fill="#E6ECF8"/>
<path fill-rule="evenodd" clip-rule="evenodd" d="M134 84.5C134 83.6716 134.532 83 135.187 83L189.812 83C190.468 83 191 83.6716 191 84.5C191 85.3284 190.468 86 189.812 86L135.187 86C134.532 86 134 85.3284 134 84.5Z" fill="#E6ECF8"/>
<path fill-rule="evenodd" clip-rule="evenodd" d="M134 90.5C134 89.6716 134.532 89 135.187 89L189.812 89C190.468 89 191 89.6716 191 90.5C191 91.3284 190.468 92 189.812 92L135.187 92C134.532 92 134 91.3284 134 90.5Z" fill="#E6ECF8"/>
<path fill-rule="evenodd" clip-rule="evenodd" d="M134 96.5C134 95.6716 134.532 95 135.187 95L189.812 95C190.468 95 191 95.6716 191 96.5C191 97.3284 190.468 98 189.812 98L135.187 98C134.532 98 134 97.3284 134 96.5Z" fill="#E6ECF8"/>
<g filter="url(#filter5_d_0_71)">
<path d="M142 26.9905V18L127 32H136.99C139.757 32 142 29.7572 142 26.9905Z" fill="#91A1E6"/>
</g>
<circle cx="180" cy="96.0508" r="12" fill="url(#paint9_linear_0_71)"/>
<circle cx="180" cy="96.0508" r="8.57143" stroke="#DBE2F1"/>
<path d="M110.234 77.1152C108.956 75.8593 108.939 73.8057 110.195 72.5283L113.605 69.0588C114.861 67.7813 116.915 67.7638 118.192 69.0197L144.792 95.1694L136.833 103.265L110.234 77.1152Z" fill="url(#paint10_linear_0_71)"/>
<path d="M110.234 77.1152C108.956 75.8593 108.939 73.8057 110.195 72.5283L113.605 69.0588C114.861 67.7813 116.915 67.7638 118.192 69.0197L144.792 95.1694L136.833 103.265L110.234 77.1152Z" fill="url(#paint11_linear_0_71)"/>
<path d="M144.792 95.1694L136.833 103.265L145.822 106.176C147.094 106.588 148.29 105.372 147.856 104.108L144.792 95.1694Z" fill="url(#paint12_linear_0_71)"/>
<path d="M144.792 95.1694L136.833 103.265L145.822 106.176C147.094 106.588 148.29 105.372 147.856 104.108L144.792 95.1694Z" fill="url(#paint13_linear_0_71)" fill-opacity="0.5"/>
<path fill-rule="evenodd" clip-rule="evenodd" d="M147.363 102.669C146.656 102.842 145.986 103.208 145.438 103.765C144.891 104.322 144.537 104.998 144.376 105.708L145.822 106.176C147.094 106.588 148.29 105.372 147.856 104.108L147.363 102.669Z" fill="#1A3594"/>
</g>
<g clip-path="url(#clip2_0_71)">
<rect width="192" height="192" transform="translate(257)" fill="white"/>
<rect x="257" width="192" height="192" rx="96" fill="#1A3594"/>
<rect x="343.996" y="12" width="106" height="143" rx="8" transform="rotate(12.1083 343.996 12)" fill="#E6ECF8"/>
<rect x="343.996" y="12" width="106" height="143" rx="8" transform="rotate(12.1083 343.996 12)" fill="url(#paint14_linear_0_71)"/>
<rect x="349.487" y="23.1476" width="42" height="52" rx="8" transform="rotate(12.1083 349.487 23.1476)" fill="#DBE2F1"/>
<rect x="394.463" y="32.7965" width="43" height="4" rx="2" transform="rotate(12.1083 394.463 32.7965)" fill="#DBE2F1"/>
<rect x="392.575" y="41.5963" width="43" height="4" rx="2" transform="rotate(12.1083 392.575 41.5963)" fill="#DBE2F1"/>
<rect x="390.688" y="50.3961" width="43" height="4" rx="2" transform="rotate(12.1083 390.688 50.3961)" fill="#DBE2F1"/>
<rect x="388.8" y="59.1958" width="43" height="4" rx="2" transform="rotate(12.1083 388.8 59.1958)" fill="#DBE2F1"/>
<rect x="386.912" y="67.9956" width="43" height="4" rx="2" transform="rotate(12.1083 386.912 67.9956)" fill="#DBE2F1"/>
<rect x="385.024" y="76.7954" width="43" height="4" rx="2" transform="rotate(12.1083 385.024 76.7954)" fill="#DBE2F1"/>
<rect x="383.136" y="85.5952" width="43" height="4" rx="2" transform="rotate(12.1083 383.136 85.5952)" fill="#DBE2F1"/>
<rect x="381.248" y="94.3949" width="43" height="4" rx="2" transform="rotate(12.1083 381.248 94.3949)" fill="#DBE2F1"/>
<rect x="379.361" y="103.195" width="43" height="4" rx="2" transform="rotate(12.1083 379.361 103.195)" fill="#DBE2F1"/>
<rect x="377.473" y="111.994" width="43" height="4" rx="2" transform="rotate(12.1083 377.473 111.994)" fill="#DBE2F1"/>
<rect x="375.585" y="120.794" width="43" height="4" rx="2" transform="rotate(12.1083 375.585 120.794)" fill="#DBE2F1"/>
<rect x="373.697" y="129.594" width="43" height="4" rx="2" transform="rotate(12.1083 373.697 129.594)" fill="#DBE2F1"/>
<rect x="371.809" y="138.394" width="43" height="4" rx="2" transform="rotate(12.1083 371.809 138.394)" fill="#DBE2F1"/>
<g filter="url(#filter6_f_0_71)">
<path d="M332.858 33.8879C333.272 32.0243 334.339 30.3704 335.867 29.2249L340.484 25.7622C341.157 25.2572 341.906 24.8617 342.702 24.5901L355.53 20.217C359.864 18.7395 364.552 21.1944 365.806 25.5985L400.174 146.312C401.397 150.609 398.865 155.074 394.55 156.23L312.755 178.147C306.953 179.702 301.572 174.546 302.876 168.683L332.858 33.8879Z" fill="#A5ACBB" fill-opacity="0.5"/>
</g>
<rect x="261" y="46.4348" width="106" height="143" rx="8" transform="rotate(-15 261 46.4348)" fill="#E6ECF8"/>
<rect x="261" y="46.4348" width="106" height="143" rx="8" transform="rotate(-15 261 46.4348)" fill="url(#paint15_linear_0_71)"/>
<rect x="270.967" y="53.8557" width="42" height="52" rx="8" transform="rotate(-15 270.967 53.8557)" fill="#DBE2F1"/>
<rect x="315.4" y="41.9501" width="43" height="4" rx="2" transform="rotate(-15 315.4 41.9501)" fill="#DBE2F1"/>
<rect x="317.729" y="50.6434" width="43" height="4" rx="2" transform="rotate(-15 317.729 50.6434)" fill="#DBE2F1"/>
<rect x="320.059" y="59.3367" width="43" height="4" rx="2" transform="rotate(-15 320.059 59.3367)" fill="#DBE2F1"/>
<rect x="322.388" y="68.0301" width="43" height="4" rx="2" transform="rotate(-15 322.388 68.0301)" fill="#DBE2F1"/>
<rect x="324.717" y="76.7234" width="43" height="4" rx="2" transform="rotate(-15 324.717 76.7234)" fill="#DBE2F1"/>
<rect x="327.047" y="85.4167" width="43" height="4" rx="2" transform="rotate(-15 327.047 85.4167)" fill="#DBE2F1"/>
<rect x="329.376" y="94.11" width="43" height="4" rx="2" transform="rotate(-15 329.376 94.11)" fill="#DBE2F1"/>
<rect x="287.621" y="114.877" width="89" height="4" rx="2" transform="rotate(-15 287.621 114.877)" fill="#DBE2F1"/>
<rect x="289.951" y="123.57" width="89" height="4" rx="2" transform="rotate(-15 289.951 123.57)" fill="#DBE2F1"/>
<rect x="292.28" y="132.264" width="89" height="4" rx="2" transform="rotate(-15 292.28 132.264)" fill="#DBE2F1"/>
<rect x="294.609" y="140.957" width="89" height="4" rx="2" transform="rotate(-15 294.609 140.957)" fill="#DBE2F1"/>
<rect x="296.939" y="149.65" width="89" height="4" rx="2" transform="rotate(-15 296.939 149.65)" fill="#DBE2F1"/>
<rect x="299.268" y="158.344" width="89" height="4" rx="2" transform="rotate(-15 299.268 158.344)" fill="#DBE2F1"/>
<g filter="url(#filter7_f_0_71)">
<path d="M410 162.813V34.5044C410 30.3598 406.64 27 402.496 27H333L296.5 50.5V167.966C296.5 172.312 300.179 175.749 304.515 175.454L340.5 173L402.819 170.31C406.834 170.137 410 166.831 410 162.813Z" fill="#636C95" fill-opacity="0.15"/>
</g>
<path d="M406 165.496V37.5044C406 33.3598 402.64 30 398.496 30H322L300 52V165.496C300 169.64 303.36 173 307.504 173H398.496C402.64 173 406 169.64 406 165.496Z" fill="#F7F9FB"/>
<path fill-rule="evenodd" clip-rule="evenodd" d="M330 48C330 46.8954 330.808 46 331.806 46H393.194C394.192 46 395 46.8954 395 48C395 49.1046 394.192 50 393.194 50H331.806C330.808 50 330 49.1046 330 48Z" fill="#E6ECF8"/>
<path fill-rule="evenodd" clip-rule="evenodd" d="M330.044 57.0566C330.042 55.9533 330.849 55.0578 331.847 55.0563L393.24 54.9659C394.237 54.9644 395.047 55.8576 395.049 56.9609C395.05 58.0642 394.243 58.9598 393.246 58.9613L331.853 59.0516C330.855 59.0531 330.046 58.1599 330.044 57.0566Z" fill="#E6ECF8"/>
<path fill-rule="evenodd" clip-rule="evenodd" d="M310 66C310 64.8954 310.793 64 311.771 64L393.229 64C394.207 64 395 64.8954 395 66C395 67.1046 394.207 68 393.229 68L311.771 68C310.793 68 310 67.1046 310 66Z" fill="#E6ECF8"/>
<path fill-rule="evenodd" clip-rule="evenodd" d="M310.319 74.9935C310.319 73.8889 311.108 72.9935 312.083 72.9935L393.236 72.9935C394.21 72.9935 395 73.8889 395 74.9935C395 76.098 394.21 76.9935 393.236 76.9935L312.083 76.9935C311.108 76.9935 310.319 76.098 310.319 74.9935Z" fill="#E6ECF8"/>
<path fill-rule="evenodd" clip-rule="evenodd" d="M310.319 84C310.319 82.8954 311.108 82 312.083 82L393.236 82C394.21 82 395 82.8954 395 84C395 85.1046 394.21 86 393.236 86L312.083 86C311.108 86 310.319 85.1046 310.319 84Z" fill="#E6ECF8"/>
<path fill-rule="evenodd" clip-rule="evenodd" d="M310.319 93C310.319 91.8954 311.108 91 312.083 91L393.236 91C394.21 91 395 91.8954 395 93C395 94.1046 394.21 95 393.236 95L312.083 95C311.108 95 310.319 94.1046 310.319 93Z" fill="#E6ECF8"/>
<path fill-rule="evenodd" clip-rule="evenodd" d="M310.319 101.993C310.319 100.888 311.108 99.993 312.083 99.993L393.236 99.993C394.21 99.993 395 100.888 395 101.993C395 103.098 394.21 103.993 393.236 103.993L312.083 103.993C311.108 103.993 310.319 103.098 310.319 101.993Z" fill="#E6ECF8"/>
<path fill-rule="evenodd" clip-rule="evenodd" d="M310.319 111C310.319 109.895 311.108 109 312.083 109L393.236 109C394.21 109 395 109.895 395 111C395 112.105 394.21 113 393.236 113L312.083 113C311.108 113 310.319 112.105 310.319 111Z" fill="#E6ECF8"/>
<path fill-rule="evenodd" clip-rule="evenodd" d="M310.319 119.993C310.319 118.888 311.108 117.993 312.083 117.993L393.236 117.993C394.21 117.993 395 118.888 395 119.993C395 121.098 394.21 121.993 393.236 121.993L312.083 121.993C311.108 121.993 310.319 121.098 310.319 119.993Z" fill="#E6ECF8"/>
<path fill-rule="evenodd" clip-rule="evenodd" d="M310.319 129C310.319 127.895 311.108 127 312.083 127L393.236 127C394.21 127 395 127.895 395 129C395 130.105 394.21 131 393.236 131L312.083 131C311.108 131 310.319 130.105 310.319 129Z" fill="#E6ECF8"/>
<path fill-rule="evenodd" clip-rule="evenodd" d="M310.319 138C310.319 136.895 311.108 136 312.083 136L393.236 136C394.21 136 395 136.895 395 138C395 139.105 394.21 140 393.236 140L312.083 140C311.108 140 310.319 139.105 310.319 138Z" fill="#E6ECF8"/>
<path fill-rule="evenodd" clip-rule="evenodd" d="M310.319 147C310.319 145.895 311.108 145 312.083 145L393.236 145C394.21 145 395 145.895 395 147C395 148.105 394.21 149 393.236 149L312.083 149C311.108 149 310.319 148.105 310.319 147Z" fill="#E6ECF8"/>
<g filter="url(#filter8_d_0_71)">
<path d="M322 44.4956V30L300 52H314.496C318.64 52 322 48.6402 322 44.4956Z" fill="#91A1E6"/>
</g>
<circle cx="379.5" cy="146.5" r="17.5" fill="url(#paint16_linear_0_71)"/>
<circle cx="379.5" cy="146.5" r="12.5" stroke="#DBE2F1" stroke-width="2"/>
<path d="M274.465 118.534C272.551 116.653 272.525 113.576 274.406 111.662L279.516 106.465C281.397 104.551 284.474 104.525 286.387 106.406L326.235 145.58L314.312 157.707L274.465 118.534Z" fill="url(#paint17_linear_0_71)"/>
<path d="M274.465 118.534C272.551 116.653 272.525 113.576 274.406 111.662L279.516 106.465C281.397 104.551 284.474 104.525 286.387 106.406L326.235 145.58L314.312 157.707L274.465 118.534Z" fill="url(#paint18_linear_0_71)"/>
<path d="M326.235 145.58L314.312 157.707L327.778 162.069C329.683 162.686 331.475 160.864 330.825 158.97L326.235 145.58Z" fill="url(#paint19_linear_0_71)"/>
<path d="M326.235 145.58L314.312 157.707L327.778 162.069C329.683 162.686 331.475 160.864 330.825 158.97L326.235 145.58Z" fill="url(#paint20_linear_0_71)" fill-opacity="0.5"/>
<path fill-rule="evenodd" clip-rule="evenodd" d="M330.087 156.815C329.027 157.074 328.024 157.622 327.204 158.457C326.383 159.291 325.852 160.303 325.612 161.367L327.779 162.069C329.683 162.686 331.475 160.864 330.825 158.97L330.087 156.815Z" fill="#1A3594"/>
</g>
<defs>
<filter id="filter0_f_0_71" x="13.0209" y="4.29586" width="36.2098" height="57.0307" filterUnits="userSpaceOnUse" color-interpolation-filters="sRGB">
<feFlood flood-opacity="0" result="BackgroundImageFix"/>
<feBlend mode="normal" in="SourceGraphic" in2="BackgroundImageFix" result="shape"/>
<feGaussianBlur stdDeviation="0.684473" result="effect1_foregroundBlur_0_71"/>
</filter>
<filter id="filter1_f_0_71" x="10.9064" y="6.76461" width="41.5818" height="53.5502" filterUnits="userSpaceOnUse" color-interpolation-filters="sRGB">
<feFlood flood-opacity="0" result="BackgroundImageFix"/>
<feBlend mode="normal" in="SourceGraphic" in2="BackgroundImageFix" result="shape"/>
<feGaussianBlur stdDeviation="0.684473" result="effect1_foregroundBlur_0_71"/>
</filter>
<filter id="filter2_d_0_71" x="12.0368" y="8.03689" width="11.2125" height="11.2104" filterUnits="userSpaceOnUse" color-interpolation-filters="sRGB">
<feFlood flood-opacity="0" result="BackgroundImageFix"/>
<feColorMatrix in="SourceAlpha" type="matrix" values="0 0 0 0 0 0 0 0 0 0 0 0 0 0 0 0 0 0 127 0" result="hardAlpha"/>
<feOffset dx="0.642072" dy="0.642072"/>
<feGaussianBlur stdDeviation="0.802591"/>
<feColorMatrix type="matrix" values="0 0 0 0 0 0 0 0 0 0 0 0 0 0 0 0 0 0 0.15 0"/>
<feBlend mode="normal" in2="BackgroundImageFix" result="effect1_dropShadow_0_71"/>
<feBlend mode="normal" in="SourceGraphic" in2="effect1_dropShadow_0_71" result="shape"/>
</filter>
<filter id="filter3_f_0_71" x="126.397" y="8.5276" width="70.6276" height="111.239" filterUnits="userSpaceOnUse" color-interpolation-filters="sRGB">
<feFlood flood-opacity="0" result="BackgroundImageFix"/>
<feBlend mode="normal" in="SourceGraphic" in2="BackgroundImageFix" result="shape"/>
<feGaussianBlur stdDeviation="1.33507" result="effect1_foregroundBlur_0_71"/>
</filter>
<filter id="filter4_f_0_71" x="122.273" y="13.3429" width="81.1056" height="104.45" filterUnits="userSpaceOnUse" color-interpolation-filters="sRGB">
<feFlood flood-opacity="0" result="BackgroundImageFix"/>
<feBlend mode="normal" in="SourceGraphic" in2="BackgroundImageFix" result="shape"/>
<feGaussianBlur stdDeviation="1.33507" result="effect1_foregroundBlur_0_71"/>
</filter>
<filter id="filter5_d_0_71" x="125.121" y="16.1214" width="21.2618" height="20.2618" filterUnits="userSpaceOnUse" color-interpolation-filters="sRGB">
<feFlood flood-opacity="0" result="BackgroundImageFix"/>
<feColorMatrix in="SourceAlpha" type="matrix" values="0 0 0 0 0 0 0 0 0 0 0 0 0 0 0 0 0 0 127 0" result="hardAlpha"/>
<feOffset dx="1.25237" dy="1.25237"/>
<feGaussianBlur stdDeviation="1.56546"/>
<feColorMatrix type="matrix" values="0 0 0 0 0 0 0 0 0 0 0 0 0 0 0 0 0 0 0.15 0"/>
<feBlend mode="normal" in2="BackgroundImageFix" result="effect1_dropShadow_0_71"/>
<feBlend mode="normal" in="SourceGraphic" in2="effect1_dropShadow_0_71" result="shape"/>
</filter>
<filter id="filter6_f_0_71" x="298.679" y="15.7865" width="105.803" height="166.641" filterUnits="userSpaceOnUse" color-interpolation-filters="sRGB">
<feFlood flood-opacity="0" result="BackgroundImageFix"/>
<feBlend mode="normal" in="SourceGraphic" in2="BackgroundImageFix" result="shape"/>
<feGaussianBlur stdDeviation="2" result="effect1_foregroundBlur_0_71"/>
</filter>
<filter id="filter7_f_0_71" x="292.5" y="23" width="121.5" height="156.471" filterUnits="userSpaceOnUse" color-interpolation-filters="sRGB">
<feFlood flood-opacity="0" result="BackgroundImageFix"/>
<feBlend mode="normal" in="SourceGraphic" in2="BackgroundImageFix" result="shape"/>
<feGaussianBlur stdDeviation="2" result="effect1_foregroundBlur_0_71"/>
</filter>
<filter id="filter8_d_0_71" x="297.186" y="27.1858" width="31.3805" height="31.3805" filterUnits="userSpaceOnUse" color-interpolation-filters="sRGB">
<feFlood flood-opacity="0" result="BackgroundImageFix"/>
<feColorMatrix in="SourceAlpha" type="matrix" values="0 0 0 0 0 0 0 0 0 0 0 0 0 0 0 0 0 0 127 0" result="hardAlpha"/>
<feOffset dx="1.87611" dy="1.87611"/>
<feGaussianBlur stdDeviation="2.34513"/>
<feColorMatrix type="matrix" values="0 0 0 0 0 0 0 0 0 0 0 0 0 0 0 0 0 0 0.15 0"/>
<feBlend mode="normal" in2="BackgroundImageFix" result="effect1_dropShadow_0_71"/>
<feBlend mode="normal" in="SourceGraphic" in2="effect1_dropShadow_0_71" result="shape"/>
</filter>
<linearGradient id="paint0_linear_0_71" x1="28.4297" y1="5.82269" x2="31.6809" y2="5.82269" gradientUnits="userSpaceOnUse">
<stop stop-color="white"/>
<stop offset="1" stop-color="white" stop-opacity="0"/>
</linearGradient>
<linearGradient id="paint1_linear_0_71" x1="0.0255593" y1="17.6076" x2="3.27681" y2="17.6076" gradientUnits="userSpaceOnUse">
<stop stop-color="white"/>
<stop offset="1" stop-color="white" stop-opacity="0"/>
</linearGradient>
<linearGradient id="paint2_linear_0_71" x1="42.8857" y1="55.7274" x2="29.2908" y2="47.0635" gradientUnits="userSpaceOnUse">
<stop stop-color="#8193DF"/>
<stop offset="1" stop-color="#B3C1F7"/>
</linearGradient>
<linearGradient id="paint3_linear_0_71" x1="7.85491" y1="43.4015" x2="10.4848" y2="37.9035" gradientUnits="userSpaceOnUse">
<stop stop-color="#EA6219"/>
<stop offset="1" stop-color="#FE9100"/>
</linearGradient>
<linearGradient id="paint4_linear_0_71" x1="14.3019" y1="40.9947" x2="13.8647" y2="41.4394" gradientUnits="userSpaceOnUse">
<stop stop-color="white" stop-opacity="0.5"/>
<stop offset="1" stop-color="white" stop-opacity="0"/>
</linearGradient>
<linearGradient id="paint5_linear_0_71" x1="19.2911" y1="52.9666" x2="23.398" y2="51.0843" gradientUnits="userSpaceOnUse">
<stop stop-color="#8193DF"/>
<stop offset="1" stop-color="#B3C1F6"/>
</linearGradient>
<linearGradient id="paint6_linear_0_71" x1="22.8846" y1="50.0576" x2="22.029" y2="50.5709" gradientUnits="userSpaceOnUse">
<stop stop-color="white"/>
<stop offset="1" stop-color="white" stop-opacity="0"/>
</linearGradient>
<linearGradient id="paint7_linear_0_71" x1="156.452" y1="11.5057" x2="162.794" y2="11.5057" gradientUnits="userSpaceOnUse">
<stop stop-color="white"/>
<stop offset="1" stop-color="white" stop-opacity="0"/>
</linearGradient>
<linearGradient id="paint8_linear_0_71" x1="101.05" y1="34.4922" x2="107.391" y2="34.4922" gradientUnits="userSpaceOnUse">
<stop stop-color="white"/>
<stop offset="1" stop-color="white" stop-opacity="0"/>
</linearGradient>
<linearGradient id="paint9_linear_0_71" x1="183.771" y1="109.422" x2="156.582" y2="92.0945" gradientUnits="userSpaceOnUse">
<stop stop-color="#8193DF"/>
<stop offset="1" stop-color="#B3C1F7"/>
</linearGradient>
<linearGradient id="paint10_linear_0_71" x1="116.32" y1="84.8042" x2="121.45" y2="74.0803" gradientUnits="userSpaceOnUse">
<stop stop-color="#EA6219"/>
<stop offset="1" stop-color="#FE9100"/>
</linearGradient>
<linearGradient id="paint11_linear_0_71" x1="128.895" y1="80.1098" x2="128.042" y2="80.9772" gradientUnits="userSpaceOnUse">
<stop stop-color="white" stop-opacity="0.5"/>
<stop offset="1" stop-color="white" stop-opacity="0"/>
</linearGradient>
<linearGradient id="paint12_linear_0_71" x1="138.627" y1="103.46" x2="146.638" y2="99.7888" gradientUnits="userSpaceOnUse">
<stop stop-color="#8193DF"/>
<stop offset="1" stop-color="#B3C1F6"/>
</linearGradient>
<linearGradient id="paint13_linear_0_71" x1="145.636" y1="97.7862" x2="143.968" y2="98.7875" gradientUnits="userSpaceOnUse">
<stop stop-color="white"/>
<stop offset="1" stop-color="white" stop-opacity="0"/>
</linearGradient>
<linearGradient id="paint14_linear_0_71" x1="343.703" y1="20.2478" x2="353.203" y2="20.2478" gradientUnits="userSpaceOnUse">
<stop stop-color="white"/>
<stop offset="1" stop-color="white" stop-opacity="0"/>
</linearGradient>
<linearGradient id="paint15_linear_0_71" x1="260.707" y1="54.6826" x2="270.207" y2="54.6826" gradientUnits="userSpaceOnUse">
<stop stop-color="white"/>
<stop offset="1" stop-color="white" stop-opacity="0"/>
</linearGradient>
<linearGradient id="paint16_linear_0_71" x1="385" y1="166" x2="345.348" y2="140.73" gradientUnits="userSpaceOnUse">
<stop stop-color="#8193DF"/>
<stop offset="1" stop-color="#B3C1F7"/>
</linearGradient>
<linearGradient id="paint17_linear_0_71" x1="283.583" y1="130.052" x2="291.267" y2="113.987" gradientUnits="userSpaceOnUse">
<stop stop-color="#EA6219"/>
<stop offset="1" stop-color="#FE9100"/>
</linearGradient>
<linearGradient id="paint18_linear_0_71" x1="302.42" y1="123.02" x2="301.143" y2="124.319" gradientUnits="userSpaceOnUse">
<stop stop-color="white" stop-opacity="0.5"/>
<stop offset="1" stop-color="white" stop-opacity="0"/>
</linearGradient>
<linearGradient id="paint19_linear_0_71" x1="317" y1="158" x2="329" y2="152.5" gradientUnits="userSpaceOnUse">
<stop stop-color="#8193DF"/>
<stop offset="1" stop-color="#B3C1F6"/>
</linearGradient>
<linearGradient id="paint20_linear_0_71" x1="327.5" y1="149.5" x2="325" y2="151" gradientUnits="userSpaceOnUse">
<stop stop-color="white"/>
<stop offset="1" stop-color="white" stop-opacity="0"/>
</linearGradient>
<clipPath id="clip0_0_71">
<rect width="64" height="64" fill="white"/>
</clipPath>
<clipPath id="clip1_0_71">
<rect width="128" height="128" fill="white" transform="translate(100)"/>
</clipPath>
<clipPath id="clip2_0_71">
<rect width="192" height="192" fill="white" transform="translate(257)"/>
</clipPath>
</defs>
</svg>
