<svg width="449" height="192" viewBox="0 0 449 192" fill="none" xmlns="http://www.w3.org/2000/svg">
<g clip-path="url(#clip0_0_1175)">
<rect width="64" height="64" fill="white"/>
<rect width="64" height="64" rx="32" fill="#1A3594"/>
<g filter="url(#filter0_f_0_1175)">
<path d="M44.3035 54.7819L44.6186 12.681C44.629 11.2942 43.5132 10.1616 42.1264 10.1512L19.4485 9.98141L7.4504 17.6185L7.16165 56.1921C7.15076 57.6465 8.37388 58.8059 9.8256 58.7174L21.5426 58.0025L41.8825 57.2726C43.2261 57.2244 44.2934 56.1264 44.3035 54.7819Z" fill="#636C95" fill-opacity="0.15"/>
</g>
<path d="M43.9999 56.3231V13.677C43.9999 12.1986 42.8014 11.0001 41.323 11.0001H9.67687C8.19844 11.0001 6.99994 12.1986 6.99994 13.677V18.3847V56.3231C6.99994 57.8016 8.19844 59.0001 9.67687 59.0001H41.323C42.8014 59.0001 43.9999 57.8016 43.9999 56.3231Z" fill="#F7F9FB"/>
<path fill-rule="evenodd" clip-rule="evenodd" d="M40.6036 53.8618V16.0502C40.6036 14.9413 39.7048 14.0425 38.5959 14.0425H12.1612C11.0524 14.0425 10.1535 14.9413 10.1535 16.0502V53.8618C10.1535 54.9706 11.0524 55.8695 12.1612 55.8695H38.5959C39.7048 55.8695 40.6036 54.9706 40.6036 53.8618ZM41.2729 16.0502V53.8618C41.2729 55.3402 40.0744 56.5387 38.5959 56.5387H12.1612C10.6828 56.5387 9.48431 55.3402 9.48431 53.8618V16.0502C9.48431 14.5717 10.6828 13.3732 12.1612 13.3732H38.5959C40.0744 13.3732 41.2729 14.5717 41.2729 16.0502Z" fill="url(#paint0_linear_0_1175)"/>
<path d="M13.0001 17H37.0001C37.5523 17 38.0001 17.4477 38.0001 18C38.0001 18.5523 37.5523 19 37.0001 19H13.0001C12.4478 19 12.0001 18.5523 12.0001 18C12.0001 17.4477 12.4478 17 13.0001 17Z" fill="url(#paint1_linear_0_1175)"/>
<path d="M13.0001 17H37.0001C37.5523 17 38.0001 17.4477 38.0001 18C38.0001 18.5523 37.5523 19 37.0001 19H13.0001C12.4478 19 12.0001 18.5523 12.0001 18C12.0001 17.4477 12.4478 17 13.0001 17Z" fill="url(#paint2_linear_0_1175)" fill-opacity="0.4"/>
<path d="M17.0501 40L35.9501 40C36.53 40 37.0001 40.4477 37.0001 41C37.0001 41.5523 36.53 42 35.9501 42L17.0501 42C16.4702 42 16.0001 41.5523 16.0001 41C16.0001 40.4477 16.4702 40 17.0501 40Z" fill="#E6ECF8"/>
<path d="M17.0501 37L35.9501 37C36.53 37 37.0001 37.4477 37.0001 38C37.0001 38.5523 36.53 39 35.9501 39L17.0501 39C16.4702 39 16.0001 38.5523 16.0001 38C16.0001 37.4477 16.4702 37 17.0501 37Z" fill="#E6ECF8"/>
<path d="M17.0501 34L35.9501 34C36.53 34 37.0001 34.4477 37.0001 35C37.0001 35.5523 36.53 36 35.9501 36L17.0501 36C16.4702 36 16.0001 35.5523 16.0001 35C16.0001 34.4477 16.4702 34 17.0501 34Z" fill="#E6ECF8"/>
<path d="M17.0501 31L35.9501 31C36.53 31 37.0001 31.4477 37.0001 32C37.0001 32.5523 36.53 33 35.9501 33L17.0501 33C16.4702 33 16.0001 32.5523 16.0001 32C16.0001 31.4477 16.4702 31 17.0501 31Z" fill="#E6ECF8"/>
<path d="M17.0501 28L35.9501 28C36.53 28 37.0001 28.4477 37.0001 29C37.0001 29.5523 36.53 30 35.9501 30L17.0501 30C16.4702 30 16.0001 29.5523 16.0001 29C16.0001 28.4477 16.4702 28 17.0501 28Z" fill="#E6ECF8"/>
<path d="M17.0501 25L35.9501 25C36.53 25 37.0001 25.4477 37.0001 26C37.0001 26.5523 36.53 27 35.9501 27L17.0501 27C16.4702 27 16.0001 26.5523 16.0001 26C16.0001 25.4477 16.4702 25 17.0501 25Z" fill="#E6ECF8"/>
<path d="M17.0501 22L35.9501 22C36.53 22 37.0001 22.4477 37.0001 23C37.0001 23.5523 36.53 24 35.9501 24L17.0501 24C16.4702 24 16.0001 23.5523 16.0001 23C16.0001 22.4477 16.4702 22 17.0501 22Z" fill="#E6ECF8"/>
<path d="M31.0001 46L36.0001 46C36.5523 46 37.0001 46.4477 37.0001 47C37.0001 47.5523 36.5523 48 36.0001 48L31.0001 48C30.4478 48 30.0001 47.5523 30.0001 47C30.0001 46.4477 30.4478 46 31.0001 46Z" fill="#E6ECF8"/>
<path d="M31.0001 49L36.0001 49C36.5523 49 37.0001 49.4477 37.0001 50C37.0001 50.5523 36.5523 51 36.0001 51L31.0001 51C30.4478 51 30.0001 50.5523 30.0001 50C30.0001 49.4477 30.4478 49 31.0001 49Z" fill="#E6ECF8"/>
<path d="M13.0001 46L19.0001 46C19.5523 46 20.0001 46.4477 20.0001 47C20.0001 47.5523 19.5523 48 19.0001 48L13.0001 48C12.4478 48 12.0001 47.5523 12.0001 47C12.0001 46.4477 12.4478 46 13.0001 46Z" fill="#E6ECF8"/>
<path d="M13.0001 49L19.0001 49C19.5523 49 20.0001 49.4477 20.0001 50C20.0001 50.5523 19.5523 51 19.0001 51L13.0001 51C12.4478 51 12.0001 50.5523 12.0001 50C12.0001 49.4477 12.4478 49 13.0001 49Z" fill="#E6ECF8"/>
<g clip-path="url(#clip1_0_1175)">
<path d="M14.505 21.8868C14.4087 21.806 14.2644 21.8214 14.1874 21.9209L13.2552 23.1248L12.7641 22.644C12.6844 22.566 12.557 22.566 12.4774 22.6441C12.3953 22.7244 12.3953 22.8565 12.4774 22.9368L13.208 23.6526C13.2592 23.7027 13.3425 23.6975 13.387 23.6415L14.5361 22.1944C14.6108 22.1003 14.597 21.964 14.505 21.8868Z" fill="url(#paint3_linear_0_1175)"/>
</g>
<g clip-path="url(#clip2_0_1175)">
<path d="M14.505 24.8985C14.4087 24.8176 14.2644 24.8331 14.1874 24.9326L13.2552 26.1364L12.7641 25.6557C12.6844 25.5777 12.557 25.5777 12.4774 25.6557C12.3953 25.7361 12.3953 25.8681 12.4774 25.9485L13.208 26.6643C13.2592 26.7144 13.3425 26.7092 13.387 26.6531L14.5361 25.206C14.6108 25.112 14.597 24.9757 14.505 24.8985Z" fill="url(#paint4_linear_0_1175)"/>
</g>
<g clip-path="url(#clip3_0_1175)">
<path d="M14.505 27.91C14.4087 27.8291 14.2644 27.8446 14.1874 27.9441L13.2552 29.148L12.7641 28.6672C12.6844 28.5892 12.557 28.5892 12.4774 28.6673C12.3953 28.7476 12.3953 28.8797 12.4774 28.96L13.208 29.6758C13.2592 29.7259 13.3425 29.7207 13.387 29.6647L14.5361 28.2175C14.6108 28.1235 14.597 27.9872 14.505 27.91Z" fill="url(#paint5_linear_0_1175)"/>
</g>
<g clip-path="url(#clip4_0_1175)">
<path d="M14.505 30.9216C14.4087 30.8407 14.2644 30.8562 14.1874 30.9557L13.2552 32.1596L12.7641 31.6788C12.6844 31.6008 12.557 31.6008 12.4774 31.6789C12.3953 31.7592 12.3953 31.8913 12.4774 31.9716L13.208 32.6874C13.2592 32.7375 13.3425 32.7323 13.387 32.6762L14.5361 31.2291C14.6108 31.1351 14.597 30.9988 14.505 30.9216Z" fill="url(#paint6_linear_0_1175)"/>
</g>
<g clip-path="url(#clip5_0_1175)">
<path d="M14.505 33.9332C14.4087 33.8523 14.2644 33.8678 14.1874 33.9673L13.2552 35.1712L12.7641 34.6904C12.6844 34.6124 12.557 34.6124 12.4774 34.6905C12.3953 34.7708 12.3953 34.9029 12.4774 34.9832L13.208 35.699C13.2592 35.7491 13.3425 35.7439 13.387 35.6878L14.5361 34.2407C14.6108 34.1467 14.597 34.0104 14.505 33.9332Z" fill="url(#paint7_linear_0_1175)"/>
</g>
<g clip-path="url(#clip6_0_1175)">
<path d="M14.505 36.9444C14.4087 36.8636 14.2644 36.879 14.1874 36.9785L13.2552 38.1824L12.7641 37.7016C12.6844 37.6236 12.557 37.6237 12.4774 37.7017C12.3953 37.782 12.3953 37.9141 12.4774 37.9945L13.208 38.7102C13.2592 38.7604 13.3425 38.7552 13.387 38.6991L14.5361 37.252C14.6108 37.158 14.597 37.0216 14.505 36.9444Z" fill="url(#paint8_linear_0_1175)"/>
</g>
<g clip-path="url(#clip7_0_1175)">
<path d="M14.505 39.956C14.4087 39.8751 14.2644 39.8906 14.1874 39.99L13.2552 41.1939L12.7641 40.7132C12.6844 40.6352 12.557 40.6352 12.4774 40.7132C12.3953 40.7936 12.3953 40.9256 12.4774 41.006L13.208 41.7218C13.2592 41.7719 13.3425 41.7667 13.387 41.7106L14.5361 40.2635C14.6108 40.1695 14.597 40.0331 14.505 39.956Z" fill="url(#paint9_linear_0_1175)"/>
</g>
<g filter="url(#filter1_f_0_1175)">
<path d="M52.5532 47.7114L50.9042 5.26386C50.8516 3.90892 49.7328 2.84049 48.3768 2.8503L27.6792 3.00001L15.8423 10.7579V49.4972C15.8423 50.9525 17.0755 52.103 18.5273 52.0023L30.1115 51.1982L50.1542 50.3176C51.5347 50.2569 52.6068 49.0922 52.5532 47.7114Z" fill="#636C95" fill-opacity="0.15"/>
</g>
<path d="M52.9996 48.3231V5.67699C52.9996 4.19856 51.8011 3.00006 50.3226 3.00006H19.6765C18.1981 3.00006 16.9996 4.19856 16.9996 5.67699V10.3847V48.3231C16.9996 49.8016 18.1981 51.0001 19.6765 51.0001H50.3226C51.8011 51.0001 52.9996 49.8016 52.9996 48.3231Z" fill="#F7F9FB"/>
<path fill-rule="evenodd" clip-rule="evenodd" d="M49.8793 46.3666V8.18038C49.8793 7.06057 48.9829 6.15279 47.877 6.15279H21.5125C20.4067 6.15279 19.5102 7.06057 19.5102 8.18038V46.3666C19.5102 47.4864 20.4067 48.3942 21.5125 48.3942H47.877C48.9828 48.3942 49.8793 47.4864 49.8793 46.3666ZM50.5468 8.18038V46.3666C50.5468 47.8597 49.3515 49.07 47.877 49.07H21.5125C20.038 49.07 18.8427 47.8597 18.8427 46.3666V8.18038C18.8427 6.6873 20.038 5.47693 21.5125 5.47693H47.877C49.3515 5.47693 50.5468 6.6873 50.5468 8.18038Z" fill="#EA6219"/>
<path d="M27.0001 9.00006H42.0001C42.5523 9.00006 43.0001 9.44778 43.0001 10.0001C43.0001 10.5523 42.5523 11.0001 42.0001 11.0001H27.0001C26.4478 11.0001 26.0001 10.5523 26.0001 10.0001C26.0001 9.44778 26.4478 9.00006 27.0001 9.00006Z" fill="#EA6219"/>
<path d="M24.0001 33.0001L46.0001 33.0001C46.5524 33.0001 47.0001 33.4478 47.0001 34.0001C47.0001 34.5523 46.5524 35.0001 46.0001 35.0001L24.0001 35.0001C23.4478 35.0001 23.0001 34.5523 23.0001 34.0001C23.0001 33.4478 23.4478 33.0001 24.0001 33.0001Z" fill="#E6ECF8"/>
<path d="M24.0001 29.0001L46.0001 29.0001C46.5524 29.0001 47.0001 29.4478 47.0001 30.0001C47.0001 30.5523 46.5524 31.0001 46.0001 31.0001L24.0001 31.0001C23.4478 31.0001 23.0001 30.5523 23.0001 30.0001C23.0001 29.4478 23.4478 29.0001 24.0001 29.0001Z" fill="#E6ECF8"/>
<path d="M24.0001 25.0001L46.0001 25.0001C46.5524 25.0001 47.0001 25.4478 47.0001 26.0001C47.0001 26.5523 46.5524 27.0001 46.0001 27.0001L24.0001 27.0001C23.4478 27.0001 23.0001 26.5523 23.0001 26.0001C23.0001 25.4478 23.4478 25.0001 24.0001 25.0001Z" fill="#E6ECF8"/>
<path d="M24.0001 21.0001L46.0001 21.0001C46.5524 21.0001 47.0001 21.4478 47.0001 22.0001C47.0001 22.5523 46.5524 23.0001 46.0001 23.0001L24.0001 23.0001C23.4478 23.0001 23.0001 22.5523 23.0001 22.0001C23.0001 21.4478 23.4478 21.0001 24.0001 21.0001Z" fill="#E6ECF8"/>
<path d="M24.0001 17.0001L46.0001 17.0001C46.5524 17.0001 47.0001 17.4478 47.0001 18.0001C47.0001 18.5523 46.5524 19.0001 46.0001 19.0001L24.0001 19.0001C23.4478 19.0001 23.0001 18.5523 23.0001 18.0001C23.0001 17.4478 23.4478 17.0001 24.0001 17.0001Z" fill="#E6ECF8"/>
<path d="M24.0001 13.0001L46.0001 13.0001C46.5524 13.0001 47.0001 13.4478 47.0001 14.0001C47.0001 14.5523 46.5524 15.0001 46.0001 15.0001L24.0001 15.0001C23.4478 15.0001 23.0001 14.5523 23.0001 14.0001C23.0001 13.4478 23.4478 13.0001 24.0001 13.0001Z" fill="#E6ECF8"/>
<path d="M41.0001 38.0001L46.0001 38.0001C46.5523 38.0001 47.0001 38.4478 47.0001 39.0001C47.0001 39.5523 46.5523 40.0001 46.0001 40.0001L41.0001 40.0001C40.4478 40.0001 40.0001 39.5523 40.0001 39.0001C40.0001 38.4478 40.4478 38.0001 41.0001 38.0001Z" fill="#E6ECF8"/>
<path d="M41.0001 41.0001L46.0001 41.0001C46.5523 41.0001 47.0001 41.4478 47.0001 42.0001C47.0001 42.5523 46.5523 43.0001 46.0001 43.0001L41.0001 43.0001C40.4478 43.0001 40.0001 42.5523 40.0001 42.0001C40.0001 41.4478 40.4478 41.0001 41.0001 41.0001Z" fill="#E6ECF8"/>
<path d="M24.0001 38.0001L28.0001 38.0001C28.5523 38.0001 29.0001 38.4478 29.0001 39.0001C29.0001 39.5523 28.5523 40.0001 28.0001 40.0001L24.0001 40.0001C23.4478 40.0001 23.0001 39.5523 23.0001 39.0001C23.0001 38.4478 23.4478 38.0001 24.0001 38.0001Z" fill="#E6ECF8"/>
<path d="M24.0001 41.0001L28.0001 41.0001C28.5523 41.0001 29.0001 41.4478 29.0001 42.0001C29.0001 42.5523 28.5523 43.0001 28.0001 43.0001L24.0001 43.0001C23.4478 43.0001 23.0001 42.5523 23.0001 42.0001C23.0001 41.4478 23.4478 41.0001 24.0001 41.0001Z" fill="#E6ECF8"/>
<path fill-rule="evenodd" clip-rule="evenodd" d="M34.915 37.8002C32.8822 37.8002 31.2342 39.4482 31.2342 41.481C31.2342 43.5138 32.8822 45.1618 34.915 45.1618C36.9479 45.1618 38.5958 43.5138 38.5958 41.481C38.5958 39.4482 36.9479 37.8002 34.915 37.8002ZM30.565 41.481C30.565 39.0785 32.5126 37.131 34.915 37.131C37.3175 37.131 39.265 39.0785 39.265 41.481C39.265 43.8834 37.3175 45.831 34.915 45.831C32.5126 45.831 30.565 43.8834 30.565 41.481Z" fill="#EA6219"/>
<circle cx="34.9142" cy="41.481" r="2.34231" fill="url(#paint10_linear_0_1175)"/>
<circle cx="34.9142" cy="41.481" r="2.34231" fill="url(#paint11_linear_0_1175)"/>
<path fill-rule="evenodd" clip-rule="evenodd" d="M28.0959 33.4813C28.116 33.3663 28.1261 33.234 28.1254 33.1108C28.1248 32.9915 28.1142 32.862 28.0833 32.7604C28.0691 32.7138 28.0418 32.6417 27.9831 32.586C27.9503 32.5549 27.9034 32.5251 27.8426 32.5144C27.7812 32.5036 27.7253 32.5158 27.6809 32.5362C27.6022 32.5723 27.5482 32.6389 27.5125 32.6913C27.4726 32.7498 27.4336 32.8244 27.3944 32.9133C26.7737 34.3201 26.5159 35.9566 26.2745 37.4885C26.2183 37.8452 26.1629 38.1963 26.1041 38.5374C25.6877 39.6793 25.2391 40.8098 24.788 41.9427L24.7258 42.0988L24.7258 42.0989C24.1887 43.4473 23.6499 44.8001 23.1625 46.1737C23.1219 46.2881 23.1817 46.4138 23.2962 46.4544C23.4106 46.495 23.5362 46.4352 23.5768 46.3207C24.0614 44.9552 24.5974 43.6093 25.1353 42.2588L25.1964 42.1054C25.365 41.682 25.5336 41.2581 25.7006 40.8331C25.6037 41.4288 25.5174 42.0274 25.4532 42.6288C25.4514 42.6462 25.4461 42.6843 25.4388 42.7375L25.4388 42.7375C25.4089 42.955 25.3445 43.4237 25.3358 43.7541C25.3331 43.8582 25.3352 43.9623 25.3489 44.0476C25.3556 44.0893 25.3669 44.1396 25.3893 44.1866C25.41 44.23 25.4589 44.3087 25.5598 44.3391C25.6654 44.3708 25.7531 44.3278 25.7997 44.2954C25.8473 44.2623 25.8864 44.2177 25.9183 44.1753C25.9836 44.0884 26.056 43.9594 26.1382 43.7877L26.1569 43.7486L26.1569 43.7486C26.5823 42.8601 26.9984 41.9908 27.4863 41.1458C27.4935 41.1334 27.5075 41.1052 27.5272 41.0658L27.5272 41.0658C27.5854 40.9489 27.6929 40.7333 27.8153 40.539C27.8029 41.0767 27.7329 41.6182 27.6614 42.1664C27.6554 42.2118 27.6097 42.6447 27.5726 43.0579C27.554 43.265 27.5372 43.4707 27.5286 43.6227C27.5244 43.6977 27.5218 43.7648 27.5225 43.8137C27.5228 43.8351 27.5238 43.8666 27.5293 43.896L27.5295 43.897C27.5311 43.906 27.5392 43.9511 27.5706 43.9944C27.5895 44.0205 27.636 44.0719 27.7176 44.0844C27.8012 44.0972 27.8626 44.0603 27.8905 44.0379C27.9691 43.9751 28.0454 43.8859 28.1151 43.7947C28.1867 43.7009 28.2604 43.5926 28.3323 43.483C28.3813 43.4083 28.4289 43.3339 28.4752 43.2617L28.4752 43.2617C28.5548 43.1375 28.6302 43.0197 28.701 42.9184C28.6979 42.9766 28.6929 43.0434 28.6855 43.1197C28.6588 43.3952 28.6564 43.6097 28.6805 43.767C28.6925 43.8456 28.7131 43.9229 28.7497 43.9896C28.7877 44.0587 28.8495 44.1268 28.9435 44.1583C29.0354 44.1891 29.1221 44.1728 29.1869 44.1475C29.2509 44.1225 29.3086 44.0832 29.3581 44.0425C29.4574 43.9612 29.5589 43.845 29.656 43.7188C29.8191 43.5068 29.9948 43.2321 30.1552 42.9657C30.1542 43.0274 30.1566 43.0875 30.1632 43.1446C30.1754 43.249 30.2038 43.3603 30.2678 43.454C30.3301 43.5452 30.4247 43.5706 30.4885 43.5748C30.5499 43.5788 30.6094 43.5663 30.6569 43.5526C30.7542 43.5246 30.8677 43.4711 30.9836 43.4086C31.2192 43.2814 31.5138 43.0893 31.805 42.8899C32.0455 42.7253 32.2887 42.5523 32.5002 42.4017L32.5003 42.4017L32.6326 42.3076C32.7526 42.2224 32.8573 42.1486 32.9408 42.0918C33.029 42.0318 33.0806 41.9998 33.1006 41.99C33.3945 41.8458 33.6929 41.7087 33.993 41.5708C34.7055 41.2434 35.427 40.9118 36.1178 40.4722C36.2202 40.4071 36.2504 40.2712 36.1852 40.1688C36.12 40.0663 35.9841 40.0361 35.8817 40.1013C35.2172 40.5242 34.5392 40.8356 33.8391 41.1573C33.5328 41.2979 33.2224 41.4405 32.907 41.5953C32.854 41.6213 32.7763 41.672 32.6935 41.7283C32.606 41.7878 32.498 41.864 32.3781 41.9491L32.2442 42.0443L32.2441 42.0444C32.0327 42.1948 31.7935 42.365 31.5567 42.5271C31.267 42.7254 30.9885 42.9063 30.7748 43.0217C30.7053 43.0592 30.6475 43.0871 30.6015 43.1062L30.6 43.0937C30.5923 43.028 30.5928 42.9441 30.6023 42.8431C30.6212 42.641 30.6731 42.3968 30.7395 42.1435C30.8054 41.8917 30.8834 41.6391 30.9517 41.4209L30.9727 41.3537L30.9727 41.3537C31.0307 41.1689 31.0821 41.0049 31.1052 40.9031C31.1321 40.7848 31.058 40.667 30.9396 40.6401C30.8212 40.6132 30.7034 40.6873 30.6765 40.8057C30.6576 40.8889 30.612 41.0345 30.5511 41.2287L30.5511 41.2288L30.5321 41.2896C30.4851 41.4395 30.4324 41.6096 30.3817 41.7865C30.339 41.804 30.3015 41.835 30.2762 41.8778C30.2376 41.9429 30.187 42.0321 30.1275 42.1369C29.9155 42.5106 29.5918 43.0811 29.3075 43.4507C29.2326 43.5481 29.1665 43.6232 29.1116 43.6743C29.0992 43.5693 29.0996 43.4047 29.1231 43.1621C29.1438 42.9476 29.1498 42.7801 29.1393 42.6559C29.1342 42.5942 29.1242 42.5329 29.1046 42.4781C29.086 42.4261 29.0491 42.3528 28.9716 42.3057C28.8844 42.2526 28.7934 42.2602 28.7284 42.283C28.6695 42.3037 28.6217 42.3395 28.5873 42.3695C28.5173 42.4307 28.4474 42.5182 28.383 42.6069C28.294 42.7295 28.1937 42.886 28.0956 43.0391C28.0643 43.0879 28.0333 43.1363 28.0029 43.1832L28.0105 43.0972C28.0476 42.6839 28.0927 42.259 28.0973 42.2232C28.1756 41.6234 28.2569 40.9988 28.2569 40.3736C28.2569 40.2551 28.2464 40.141 28.2071 40.0521C28.1861 40.0048 28.1487 39.9457 28.0816 39.9064C28.0092 39.8639 27.9326 39.862 27.871 39.8774C27.769 39.9028 27.6915 39.9786 27.6464 40.0274C27.5927 40.0857 27.5399 40.1575 27.4913 40.2304C27.3076 40.5061 27.0955 40.9434 27.1056 40.9259C26.6202 41.7667 26.2055 42.629 25.7917 43.4931C25.8125 43.2524 25.8472 42.9982 25.8699 42.8319C25.8796 42.7613 25.8871 42.7065 25.8904 42.6754C26.0155 41.5031 26.2258 40.3407 26.4374 39.1714L26.4952 38.8516C26.5073 38.7848 26.5191 38.7179 26.5308 38.6508C26.6255 38.3905 26.7186 38.1296 26.8098 37.8678L26.9116 37.5758C27.3735 36.2524 27.8506 34.8858 28.0959 33.4813ZM27.6608 33.4173C27.5012 34.326 27.2418 35.2198 26.9494 36.1078C27.1185 35.1774 27.3294 34.262 27.6608 33.4173ZM27.6592 32.8783L27.6583 32.8763C27.6583 32.8763 27.6587 32.8769 27.6592 32.8783Z" fill="#6776B8"/>
<g filter="url(#filter2_d_0_1175)">
<path fill-rule="evenodd" clip-rule="evenodd" d="M48.4804 31.4144C48.2776 31.4627 48.1406 31.6521 48.1583 31.8598L48.3575 34.1924C48.3794 34.4487 48.624 34.6256 48.8743 34.5661L49.0146 34.5327L51.9357 46.8193L53.5739 46.4298L50.6528 34.1433L50.7907 34.1105C51.041 34.051 51.1798 33.7829 51.084 33.5441L50.2121 31.3715C50.1344 31.178 49.9269 31.0705 49.724 31.1188L48.4804 31.4144Z" fill="url(#paint12_linear_0_1175)"/>
<path fill-rule="evenodd" clip-rule="evenodd" d="M48.4804 31.4144C48.2776 31.4627 48.1406 31.6521 48.1583 31.8598L48.3575 34.1924C48.3794 34.4487 48.624 34.6256 48.8743 34.5661L49.0146 34.5327L51.9357 46.8193L53.5739 46.4298L50.6528 34.1433L50.7907 34.1105C51.041 34.051 51.1798 33.7829 51.084 33.5441L50.2121 31.3715C50.1344 31.178 49.9269 31.0705 49.724 31.1188L48.4804 31.4144Z" fill="url(#paint13_linear_0_1175)" fill-opacity="0.5"/>
<path fill-rule="evenodd" clip-rule="evenodd" d="M52.7555 46.6248L49.1041 31.2666L49.7251 31.119C49.9279 31.0707 50.1355 31.1782 50.2132 31.3717L51.0851 33.5443C51.1809 33.7831 51.0421 34.0512 50.7918 34.1107L50.6539 34.1435L53.575 46.43L52.7555 46.6248Z" fill="url(#paint14_linear_0_1175)" fill-opacity="0.5"/>
<g filter="url(#filter3_f_0_1175)">
<path fill-rule="evenodd" clip-rule="evenodd" d="M49.6779 31.1613L50.6849 33.6706C50.7329 33.79 50.6634 33.924 50.5383 33.9538L50.1944 34.0355L50.2918 34.4451L50.6357 34.3633C50.6579 34.358 50.6796 34.3516 50.7007 34.3442L50.6529 34.1435L50.7918 34.1104C51.0421 34.0509 51.1809 33.7828 51.0851 33.5441L50.2132 31.3715C50.1467 31.2058 49.9848 31.1031 49.8123 31.1074L49.6779 31.1613ZM50.7016 34.3481L50.2921 34.4454L53.1646 46.5273L53.574 46.43L50.7016 34.3481Z" fill="url(#paint15_linear_0_1175)" fill-opacity="0.4"/>
</g>
<path fill-rule="evenodd" clip-rule="evenodd" d="M51.2297 45.7355C50.9551 45.8008 50.7854 46.0764 50.8507 46.3511L51.4123 48.7133L51.1639 48.7723C50.3399 48.9682 49.8307 49.795 50.0266 50.619L51.8297 58.2032C52.0256 59.0271 52.8524 59.5363 53.6764 59.3404L57.6549 58.3945C58.4789 58.1986 58.9881 57.3718 58.7922 56.5479L56.9891 48.9637C56.7932 48.1397 55.9664 47.6305 55.1424 47.8264L54.8935 47.8856L54.3319 45.5234C54.2666 45.2488 53.991 45.079 53.7163 45.1443L51.2297 45.7355Z" fill="url(#paint16_linear_0_1175)"/>
<path fill-rule="evenodd" clip-rule="evenodd" d="M51.2297 45.7355C50.9551 45.8008 50.7854 46.0764 50.8507 46.3511L51.4123 48.7133L51.1639 48.7723C50.3399 48.9682 49.8307 49.795 50.0266 50.619L51.8297 58.2032C52.0256 59.0271 52.8524 59.5363 53.6764 59.3404L57.6549 58.3945C58.4789 58.1986 58.9881 57.3718 58.7922 56.5479L56.9891 48.9637C56.7932 48.1397 55.9664 47.6305 55.1424 47.8264L54.8935 47.8856L54.3319 45.5234C54.2666 45.2488 53.991 45.079 53.7163 45.1443L51.2297 45.7355Z" fill="url(#paint17_linear_0_1175)" fill-opacity="0.4"/>
<path fill-rule="evenodd" clip-rule="evenodd" d="M51.2297 45.7355C50.9551 45.8008 50.7854 46.0764 50.8507 46.3511L51.4123 48.7133L51.1639 48.7723C50.3399 48.9682 49.8307 49.795 50.0266 50.619L51.8297 58.2032C52.0256 59.0271 52.8524 59.5363 53.6764 59.3404L57.6549 58.3945C58.4789 58.1986 58.9881 57.3718 58.7922 56.5479L56.9891 48.9637C56.7932 48.1397 55.9664 47.6305 55.1424 47.8264L54.8935 47.8856L54.3319 45.5234C54.2666 45.2488 53.991 45.079 53.7163 45.1443L51.2297 45.7355Z" fill="url(#paint18_linear_0_1175)"/>
</g>
</g>
<g clip-path="url(#clip8_0_1175)">
<rect width="128" height="128" transform="translate(100)" fill="white"/>
<rect x="100" width="128" height="128" rx="64" fill="#1A3594"/>
<g filter="url(#filter4_f_0_1175)">
<path d="M191.399 110.53L192.035 25.5424C192.056 22.7429 189.803 20.4565 187.004 20.4355L141.225 20.0928L117.004 35.5096L116.422 113.377C116.4 116.313 118.869 118.653 121.799 118.475L145.452 117.031L186.511 115.558C189.224 115.461 191.378 113.244 191.399 110.53Z" fill="#636C95" fill-opacity="0.15"/>
</g>
<path d="M189 113.596V27.4039C189 24.4194 186.581 22.0001 183.596 22.0001H122.404C119.419 22.0001 117 24.4194 117 27.4039V36.9231V113.596C117 116.581 119.419 119 122.404 119H183.596C186.581 119 189 116.581 189 113.596Z" fill="#F7F9FB"/>
<path fill-rule="evenodd" clip-rule="evenodd" d="M183.929 108.673V32.3437C183.929 30.1054 182.114 28.2908 179.876 28.2908H126.513C124.275 28.2908 122.46 30.1054 122.46 32.3437V108.673C122.46 110.911 124.275 112.726 126.513 112.726H179.876C182.114 112.726 183.929 110.911 183.929 108.673ZM185.28 32.3437V108.673C185.28 111.657 182.86 114.077 179.876 114.077H126.513C123.529 114.077 121.109 111.657 121.109 108.673V32.3437C121.109 29.3593 123.529 26.9399 126.513 26.9399H179.876C182.86 26.9399 185.28 29.3593 185.28 32.3437Z" fill="url(#paint19_linear_0_1175)"/>
<path d="M127.527 35.0456H176.161C177.467 35.0456 178.525 36.1041 178.525 37.4098C178.525 38.7155 177.467 39.7739 176.161 39.7739H127.527C126.221 39.7739 125.163 38.7155 125.163 37.4098C125.163 36.1041 126.221 35.0456 127.527 35.0456Z" fill="url(#paint20_linear_0_1175)"/>
<path d="M127.527 35.0456H176.161C177.467 35.0456 178.525 36.1041 178.525 37.4098C178.525 38.7155 177.467 39.7739 176.161 39.7739H127.527C126.221 39.7739 125.163 38.7155 125.163 37.4098C125.163 36.1041 126.221 35.0456 127.527 35.0456Z" fill="url(#paint21_linear_0_1175)" fill-opacity="0.4"/>
<path d="M135.572 81.0001L176.429 81.0001C177.297 81.0001 178 81.6716 178 82.5001C178 83.3285 177.297 84.0001 176.429 84.0001L135.572 84.0001C134.704 84.0001 134 83.3285 134 82.5C134 81.6716 134.704 81.0001 135.572 81.0001Z" fill="#E6ECF8"/>
<path d="M135.572 75.0001L176.429 75.0001C177.297 75.0001 178 75.6716 178 76.5001C178 77.3285 177.297 78.0001 176.429 78.0001L135.572 78.0001C134.704 78.0001 134 77.3285 134 76.5C134 75.6716 134.704 75.0001 135.572 75.0001Z" fill="#E6ECF8"/>
<path d="M135.572 69.0001L176.429 69.0001C177.297 69.0001 178 69.6716 178 70.5001C178 71.3285 177.297 72.0001 176.429 72.0001L135.572 72.0001C134.704 72.0001 134 71.3285 134 70.5C134 69.6716 134.704 69.0001 135.572 69.0001Z" fill="#E6ECF8"/>
<path d="M135.572 63.0001L176.429 63.0001C177.297 63.0001 178 63.6716 178 64.5001C178 65.3285 177.297 66.0001 176.429 66.0001L135.572 66.0001C134.704 66.0001 134 65.3285 134 64.5C134 63.6716 134.704 63.0001 135.572 63.0001Z" fill="#E6ECF8"/>
<path d="M135.572 57.0001L176.429 57.0001C177.297 57.0001 178 57.6716 178 58.5001C178 59.3285 177.297 60.0001 176.429 60.0001L135.572 60.0001C134.704 60.0001 134 59.3285 134 58.5C134 57.6716 134.704 57.0001 135.572 57.0001Z" fill="#E6ECF8"/>
<path d="M135.572 51.0001L176.429 51.0001C177.297 51.0001 178 51.6716 178 52.5001C178 53.3285 177.297 54.0001 176.429 54.0001L135.572 54.0001C134.704 54.0001 134 53.3285 134 52.5C134 51.6716 134.704 51.0001 135.572 51.0001Z" fill="#E6ECF8"/>
<path d="M135.572 45.0001L176.429 45.0001C177.297 45.0001 178 45.6716 178 46.5001C178 47.3285 177.297 48.0001 176.429 48.0001L135.572 48.0001C134.704 48.0001 134 47.3285 134 46.5C134 45.6716 134.704 45.0001 135.572 45.0001Z" fill="#E6ECF8"/>
<path d="M164.34 93.8123L178.525 93.8123C179.271 93.8123 179.876 94.4172 179.876 95.1633C179.876 95.9094 179.271 96.5142 178.525 96.5142L164.34 96.5142C163.594 96.5142 162.989 95.9094 162.989 95.1633C162.989 94.4172 163.594 93.8123 164.34 93.8123Z" fill="#E6ECF8"/>
<path d="M165.016 99.8916L178.526 99.8916C179.272 99.8916 179.877 100.496 179.877 101.243C179.877 101.989 179.272 102.594 178.526 102.594L165.016 102.594C164.27 102.594 163.665 101.989 163.665 101.243C163.665 100.496 164.27 99.8916 165.016 99.8916Z" fill="#E6ECF8"/>
<path d="M126.5 94.0001L140.5 94.0001C141.329 94.0001 142 94.6716 142 95.5001C142 96.3285 141.329 97.0001 140.5 97.0001L126.5 97.0001C125.672 97.0001 125 96.3285 125 95.5001C125 94.6716 125.672 94.0001 126.5 94.0001Z" fill="#E6ECF8"/>
<path d="M126.5 100L140.5 100C141.329 100 142 100.672 142 101.5C142 102.328 141.329 103 140.5 103L126.5 103C125.672 103 125 102.328 125 101.5C125 100.672 125.672 100 126.5 100Z" fill="#E6ECF8"/>
<g clip-path="url(#clip9_0_1175)">
<path d="M131.246 44.1261C131.051 43.9628 130.76 43.994 130.604 44.1948L128.723 46.6251L127.731 45.6546C127.57 45.4971 127.313 45.4972 127.152 45.6547C126.987 45.8169 126.987 46.0835 127.152 46.2457L128.627 47.6906C128.731 47.7918 128.899 47.7813 128.989 47.6681L131.308 44.7469C131.459 44.5571 131.431 44.2818 131.246 44.1261Z" fill="url(#paint22_linear_0_1175)"/>
</g>
<g clip-path="url(#clip10_0_1175)">
<path d="M131.246 50.2053C131.051 50.0421 130.76 50.0733 130.604 50.2741L128.723 52.7043L127.731 51.7339C127.57 51.5764 127.313 51.5764 127.152 51.734C126.987 51.8962 126.987 52.1628 127.152 52.325L128.627 53.7699C128.731 53.8711 128.899 53.8606 128.989 53.7474L131.308 50.8261C131.459 50.6364 131.431 50.3611 131.246 50.2053Z" fill="url(#paint23_linear_0_1175)"/>
</g>
<g clip-path="url(#clip11_0_1175)">
<path d="M131.246 56.2848C131.051 56.1215 130.76 56.1527 130.604 56.3535L128.723 58.7838L127.731 57.8133C127.57 57.6558 127.313 57.6559 127.152 57.8134C126.987 57.9756 126.987 58.2422 127.152 58.4044L128.627 59.8493C128.731 59.9505 128.899 59.94 128.989 59.8268L131.308 56.9056C131.459 56.7158 131.431 56.4405 131.246 56.2848Z" fill="url(#paint24_linear_0_1175)"/>
</g>
<g clip-path="url(#clip12_0_1175)">
<path d="M131.246 62.364C131.051 62.2008 130.76 62.232 130.604 62.4328L128.723 64.863L127.731 63.8925C127.57 63.7351 127.313 63.7351 127.152 63.8926C126.987 64.0549 126.987 64.3215 127.152 64.4837L128.627 65.9286C128.731 66.0298 128.899 66.0193 128.989 65.9061L131.308 62.9848C131.459 62.7951 131.431 62.5198 131.246 62.364Z" fill="url(#paint25_linear_0_1175)"/>
</g>
<g clip-path="url(#clip13_0_1175)">
<path d="M131.246 68.4433C131.051 68.28 130.76 68.3112 130.604 68.512L128.723 70.9423L127.731 69.9718C127.57 69.8143 127.313 69.8144 127.152 69.9719C126.987 70.1341 126.987 70.4007 127.152 70.5629L128.627 72.0078C128.731 72.109 128.899 72.0985 128.989 71.9853L131.308 69.0641C131.459 68.8743 131.431 68.599 131.246 68.4433Z" fill="url(#paint26_linear_0_1175)"/>
</g>
<g clip-path="url(#clip14_0_1175)">
<path d="M131.246 74.5226C131.051 74.3593 130.76 74.3906 130.604 74.5914L128.723 77.0216L127.731 76.0511C127.57 75.8937 127.313 75.8937 127.152 76.0512C126.987 76.2134 126.987 76.48 127.152 76.6422L128.627 78.0872C128.731 78.1883 128.899 78.1778 128.989 78.0646L131.308 75.1434C131.459 74.9536 131.431 74.6784 131.246 74.5226Z" fill="url(#paint27_linear_0_1175)"/>
</g>
<g clip-path="url(#clip15_0_1175)">
<path d="M131.246 80.602C131.051 80.4387 130.76 80.4699 130.604 80.6707L128.723 83.101L127.731 82.1305C127.57 81.973 127.313 81.9731 127.152 82.1306C126.987 82.2928 126.987 82.5594 127.152 82.7216L128.627 84.1665C128.731 84.2677 128.899 84.2572 128.989 84.144L131.308 81.2228C131.459 81.033 131.431 80.7577 131.246 80.602Z" fill="url(#paint28_linear_0_1175)"/>
</g>
<g filter="url(#filter5_f_0_1175)">
<path d="M208.05 96.2574L204.721 10.57C204.615 7.83482 202.357 5.67802 199.619 5.69782L157.838 6.00003L133.943 21.6607V99.8624C133.943 102.8 136.432 105.123 139.363 104.919L162.748 103.296L203.207 101.518C205.994 101.396 208.158 99.0449 208.05 96.2574Z" fill="#636C95" fill-opacity="0.15"/>
</g>
<path d="M208 97.5961V12.4038C208 9.41932 205.58 6.99994 202.596 6.99994H141.404C138.419 6.99994 136 9.41932 136 12.4038V21.7692V97.5961C136 100.581 138.419 103 141.404 103H202.596C205.58 103 208 100.581 208 97.5961Z" fill="#F7F9FB"/>
<path fill-rule="evenodd" clip-rule="evenodd" d="M202.652 93.5426V16.4573C202.652 14.1968 200.843 12.3643 198.61 12.3643H145.389C143.157 12.3643 141.347 14.1968 141.347 16.4573V93.5426C141.347 95.8031 143.157 97.6356 145.389 97.6356H198.61C200.843 97.6356 202.652 95.8031 202.652 93.5426ZM204 16.4573V93.5426C204 96.5566 201.587 98.9999 198.61 98.9999H145.389C142.413 98.9999 140 96.5566 140 93.5426V16.4573C140 13.4433 142.413 10.9999 145.389 10.9999H198.61C201.587 10.9999 204 13.4433 204 16.4573Z" fill="#EA6219"/>
<path d="M158 19.9999H186C187.657 19.9999 189 21.3431 189 22.9999C189 24.6568 187.657 25.9999 186 25.9999H158C156.343 25.9999 155 24.6568 155 22.9999C155 21.3431 156.343 19.9999 158 19.9999Z" fill="#EA6219"/>
<path fill-rule="evenodd" clip-rule="evenodd" d="M146 43.4999C146 42.6715 146.485 41.9999 147.083 41.9999L196.917 41.9999C197.515 41.9999 198 42.6715 198 43.4999C198 44.3284 197.515 44.9999 196.917 44.9999L147.083 44.9999C146.485 44.9999 146 44.3284 146 43.4999Z" fill="#E6ECF8"/>
<path fill-rule="evenodd" clip-rule="evenodd" d="M146 37.4999C146 36.6715 146.485 35.9999 147.083 35.9999L196.917 35.9999C197.515 35.9999 198 36.6715 198 37.4999C198 38.3284 197.515 38.9999 196.917 38.9999L147.083 38.9999C146.485 38.9999 146 38.3284 146 37.4999Z" fill="#E6ECF8"/>
<path fill-rule="evenodd" clip-rule="evenodd" d="M146 31.4999C146 30.6715 146.485 29.9999 147.083 29.9999L196.917 29.9999C197.515 29.9999 198 30.6715 198 31.4999C198 32.3284 197.515 32.9999 196.917 32.9999L147.083 32.9999C146.485 32.9999 146 32.3284 146 31.4999Z" fill="#E6ECF8"/>
<path fill-rule="evenodd" clip-rule="evenodd" d="M146 49.4999C146 48.6715 146.485 47.9999 147.083 47.9999L196.917 47.9999C197.515 47.9999 198 48.6715 198 49.4999C198 50.3284 197.515 50.9999 196.917 50.9999L147.083 50.9999C146.485 50.9999 146 50.3284 146 49.4999Z" fill="#E6ECF8"/>
<path fill-rule="evenodd" clip-rule="evenodd" d="M146 55.4999C146 54.6715 146.485 53.9999 147.083 53.9999L196.917 53.9999C197.515 53.9999 198 54.6715 198 55.4999C198 56.3284 197.515 56.9999 196.917 56.9999L147.083 56.9999C146.485 56.9999 146 56.3284 146 55.4999Z" fill="#E6ECF8"/>
<path fill-rule="evenodd" clip-rule="evenodd" d="M146 61.4999C146 60.6715 146.485 59.9999 147.083 59.9999L196.917 59.9999C197.515 59.9999 198 60.6715 198 61.4999C198 62.3284 197.515 62.9999 196.917 62.9999L147.083 62.9999C146.485 62.9999 146 62.3284 146 61.4999Z" fill="#E6ECF8"/>
<path fill-rule="evenodd" clip-rule="evenodd" d="M146 67.4999C146 66.6715 146.485 65.9999 147.083 65.9999L196.917 65.9999C197.515 65.9999 198 66.6715 198 67.4999C198 68.3284 197.515 68.9999 196.917 68.9999L147.083 68.9999C146.485 68.9999 146 68.3284 146 67.4999Z" fill="#E6ECF8"/>
<path d="M184.5 77.9999L196.5 77.9999C197.328 77.9999 198 78.6715 198 79.4999C198 80.3284 197.328 80.9999 196.5 80.9999L184.5 80.9999C183.672 80.9999 183 80.3284 183 79.4999C183 78.6715 183.672 77.9999 184.5 77.9999Z" fill="#E6ECF8"/>
<path d="M184.5 83.9999L196.5 83.9999C197.328 83.9999 198 84.6715 198 85.4999C198 86.3284 197.328 86.9999 196.5 86.9999L184.5 86.9999C183.672 86.9999 183 86.3284 183 85.4999C183 84.6715 183.672 83.9999 184.5 83.9999Z" fill="#E6ECF8"/>
<path d="M147.5 77.9999L159.5 77.9999C160.328 77.9999 161 78.6715 161 79.4999C161 80.3284 160.328 80.9999 159.5 80.9999L147.5 80.9999C146.672 80.9999 146 80.3284 146 79.4999C146 78.6715 146.672 77.9999 147.5 77.9999Z" fill="#E6ECF8"/>
<path d="M147.5 83.9999L159.5 83.9999C160.328 83.9999 161 84.6715 161 85.4999C161 86.3284 160.328 86.9999 159.5 86.9999L147.5 86.9999C146.672 86.9999 146 86.3284 146 85.4999C146 84.6715 146.672 83.9999 147.5 83.9999Z" fill="#E6ECF8"/>
<path fill-rule="evenodd" clip-rule="evenodd" d="M172.445 76.2498C168.341 76.2498 165.015 79.5765 165.015 83.6801C165.015 87.7837 168.341 91.1104 172.445 91.1104C176.548 91.1104 179.875 87.7837 179.875 83.6801C179.875 79.5765 176.548 76.2498 172.445 76.2498ZM163.664 83.6801C163.664 78.8304 167.595 74.8989 172.445 74.8989C177.295 74.8989 181.226 78.8304 181.226 83.6801C181.226 88.5298 177.295 92.4613 172.445 92.4613C167.595 92.4613 163.664 88.5298 163.664 83.6801Z" fill="#EA6219"/>
<circle cx="172.444" cy="83.68" r="4.72836" fill="url(#paint29_linear_0_1175)"/>
<circle cx="172.444" cy="83.68" r="4.72836" fill="url(#paint30_linear_0_1175)"/>
<path fill-rule="evenodd" clip-rule="evenodd" d="M157.32 71.2075C157.355 71.0085 157.372 70.7795 157.371 70.5662C157.37 70.3597 157.352 70.1356 157.298 69.9597C157.274 69.879 157.226 69.7543 157.125 69.658C157.068 69.6042 156.987 69.5525 156.882 69.534C156.775 69.5153 156.679 69.5365 156.602 69.5717C156.466 69.6342 156.372 69.7494 156.31 69.8401C156.241 69.9414 156.174 70.0704 156.106 70.2243C155.032 72.6591 154.585 75.4915 154.168 78.1427L154.168 78.1427C154.07 78.76 153.975 79.3676 153.873 79.958C153.152 81.9343 152.376 83.8908 151.595 85.8516L151.487 86.1218C150.558 88.4555 149.625 90.7969 148.782 93.1742C148.712 93.3722 148.815 93.5897 149.013 93.66C149.211 93.7302 149.429 93.6267 149.499 93.4287C150.337 91.0653 151.265 88.736 152.196 86.3987L152.302 86.1331C152.594 85.4003 152.885 84.6667 153.174 83.9312C153.007 84.9622 152.857 85.9981 152.746 87.0389C152.743 87.0692 152.734 87.1352 152.721 87.2272C152.67 87.6036 152.558 88.4147 152.543 88.9866C152.538 89.1668 152.542 89.3468 152.566 89.4945C152.577 89.5667 152.597 89.6537 152.636 89.7351C152.672 89.8101 152.756 89.9465 152.931 89.999C153.114 90.054 153.265 89.9795 153.346 89.9234C153.428 89.8661 153.496 89.7889 153.551 89.7155C153.664 89.5652 153.789 89.3419 153.932 89.0448L153.964 88.9771C154.7 87.4393 155.421 85.9349 156.265 84.4723C156.277 84.4509 156.302 84.4021 156.336 84.3339C156.437 84.1316 156.623 83.7585 156.834 83.4222C156.813 84.3527 156.692 85.2899 156.568 86.2387C156.558 86.3173 156.479 87.0666 156.414 87.7817C156.382 88.1401 156.353 88.4961 156.338 88.7592C156.331 88.8889 156.326 89.0051 156.328 89.0898C156.328 89.1268 156.33 89.1813 156.339 89.2322L156.34 89.2338C156.343 89.2494 156.357 89.3275 156.411 89.4025C156.444 89.4477 156.524 89.5367 156.665 89.5582C156.81 89.5803 156.916 89.5164 156.965 89.4777C157.101 89.369 157.233 89.2147 157.353 89.0568C157.477 88.8945 157.605 88.707 157.729 88.5173C157.814 88.3881 157.896 88.2594 157.976 88.1344L157.977 88.1343C158.114 87.9194 158.245 87.7156 158.367 87.5402C158.362 87.6409 158.353 87.7565 158.34 87.8887C158.294 88.3653 158.29 88.7366 158.332 89.0089C158.353 89.1449 158.388 89.2788 158.452 89.3941C158.517 89.5138 158.624 89.6317 158.787 89.6862C158.946 89.7395 159.096 89.7112 159.208 89.6674C159.319 89.6241 159.419 89.5561 159.505 89.4858C159.676 89.345 159.852 89.1439 160.02 88.9254C160.302 88.5583 160.607 88.0827 160.884 87.6214C160.883 87.7286 160.887 87.8328 160.898 87.9319C160.919 88.1127 160.969 88.3053 161.079 88.4675C161.187 88.6254 161.351 88.6692 161.461 88.6765C161.568 88.6834 161.67 88.6619 161.753 88.6382C161.921 88.5896 162.118 88.4971 162.318 88.3888C162.726 88.1688 163.236 87.8362 163.74 87.4912C164.156 87.2064 164.577 86.9069 164.943 86.6463L164.943 86.6463L165.172 86.4834C165.38 86.336 165.561 86.2082 165.705 86.1099C165.858 86.0061 165.947 85.9507 165.982 85.9337C166.491 85.6842 167.007 85.4468 167.526 85.2082L167.526 85.2082C168.76 84.6415 170.008 84.0677 171.204 83.3069C171.381 83.1941 171.433 82.959 171.321 82.7817C171.208 82.6044 170.973 82.5521 170.795 82.665C169.645 83.3968 168.472 83.9358 167.26 84.4925L167.26 84.4925L167.26 84.4925C166.73 84.7359 166.193 84.9828 165.647 85.2506C165.555 85.2955 165.421 85.3833 165.277 85.4808C165.126 85.5838 164.939 85.7156 164.732 85.863L164.5 86.0277L164.5 86.0278C164.134 86.2882 163.72 86.5828 163.31 86.8633C162.809 87.2065 162.327 87.5195 161.957 87.7192C161.836 87.7841 161.736 87.8324 161.657 87.8654L161.654 87.8439C161.641 87.7302 161.642 87.585 161.658 87.4103C161.691 87.0605 161.781 86.6378 161.896 86.1995C162.01 85.7636 162.145 85.3264 162.263 84.9487L162.299 84.8326C162.4 84.5126 162.489 84.2288 162.529 84.0527C162.575 83.8478 162.447 83.6439 162.242 83.5974C162.037 83.5508 161.833 83.6792 161.787 83.8841C161.754 84.028 161.675 84.28 161.57 84.6162L161.537 84.7215C161.455 84.9808 161.364 85.275 161.277 85.5811C161.203 85.6113 161.137 85.6651 161.093 85.7392C161.027 85.8518 160.939 86.0063 160.836 86.1875L160.836 86.1876C160.469 86.8345 159.909 87.8218 159.417 88.4615C159.287 88.6301 159.173 88.7601 159.078 88.8485C159.056 88.6667 159.057 88.3819 159.098 87.962C159.134 87.5908 159.144 87.3008 159.126 87.0859C159.117 86.9791 159.1 86.873 159.066 86.7782C159.034 86.6882 158.97 86.5614 158.836 86.4798C158.685 86.3879 158.527 86.4011 158.415 86.4406C158.313 86.4764 158.23 86.5383 158.171 86.5903C158.049 86.6961 157.928 86.8475 157.817 87.0011C157.663 87.2134 157.489 87.4842 157.319 87.7492C157.265 87.8336 157.212 87.9174 157.159 87.9985L157.172 87.8498C157.237 87.1344 157.314 86.399 157.323 86.3371C157.458 85.2989 157.599 84.218 157.599 83.1359C157.599 82.9309 157.581 82.7334 157.512 82.5795C157.476 82.4976 157.411 82.3954 157.295 82.3273C157.17 82.2538 157.037 82.2506 156.931 82.2772C156.754 82.3212 156.62 82.4523 156.542 82.5369C156.449 82.6376 156.358 82.762 156.274 82.8881C155.956 83.3652 155.589 84.1221 155.606 84.0919C154.766 85.5469 154.048 87.0393 153.332 88.5349C153.368 88.1184 153.428 87.6784 153.468 87.3906L153.468 87.3906C153.484 87.2683 153.497 87.1735 153.503 87.1197C153.72 85.0908 154.084 83.0791 154.45 81.0552L154.55 80.5017C154.571 80.3863 154.591 80.2704 154.611 80.1543C154.775 79.7038 154.936 79.2522 155.094 78.7991C155.153 78.6312 155.211 78.463 155.27 78.2943L155.27 78.2937C156.07 76.0033 156.895 73.6382 157.32 71.2075ZM156.567 71.0967C156.291 72.6693 155.842 74.2163 155.336 75.7532C155.629 74.1429 155.993 72.5585 156.567 71.0967ZM156.563 70.1604C156.563 70.1603 156.563 70.1614 156.564 70.1638C156.563 70.1617 156.563 70.1605 156.563 70.1604Z" fill="#6776B8"/>
<g filter="url(#filter6_d_0_1175)">
<path fill-rule="evenodd" clip-rule="evenodd" d="M199.832 63.3588C199.423 63.4562 199.146 63.8385 199.182 64.2579L199.584 68.9665C199.628 69.484 200.122 69.8411 200.627 69.721L200.909 69.654L206.806 94.4569L210.113 93.6706L204.216 68.8678L204.496 68.8013C205.001 68.6811 205.282 68.1399 205.088 67.658L203.328 63.2722C203.171 62.8816 202.752 62.6646 202.343 62.762L199.832 63.3588Z" fill="url(#paint31_linear_0_1175)"/>
<path fill-rule="evenodd" clip-rule="evenodd" d="M199.832 63.3588C199.423 63.4562 199.146 63.8385 199.182 64.2579L199.584 68.9665C199.628 69.484 200.122 69.8411 200.627 69.721L200.909 69.654L206.806 94.4569L210.113 93.6706L204.216 68.8678L204.496 68.8013C205.001 68.6811 205.282 68.1399 205.088 67.658L203.328 63.2722C203.171 62.8816 202.752 62.6646 202.343 62.762L199.832 63.3588Z" fill="url(#paint32_linear_0_1175)" fill-opacity="0.5"/>
<path fill-rule="evenodd" clip-rule="evenodd" d="M208.46 94.0639L201.089 63.0603L202.343 62.762C202.753 62.6647 203.172 62.8817 203.329 63.2723L205.089 67.658C205.282 68.14 205.002 68.6812 204.497 68.8013L204.217 68.8678L210.113 93.6707L208.46 94.0639Z" fill="url(#paint33_linear_0_1175)" fill-opacity="0.5"/>
<g filter="url(#filter7_f_0_1175)">
<path fill-rule="evenodd" clip-rule="evenodd" d="M202.248 62.8489L204.281 67.9143C204.378 68.1553 204.238 68.4259 203.985 68.486L203.291 68.651L203.488 69.4776L203.487 69.4778L209.285 93.8673L210.112 93.6708L204.313 69.2812L204.203 69.3076C204.24 69.298 204.277 69.2868 204.313 69.2742L204.216 68.8679L204.497 68.8011C205.002 68.681 205.282 68.1398 205.089 67.6578L203.329 63.2721C203.195 62.9385 202.87 62.7315 202.523 62.7389L202.248 62.8489Z" fill="url(#paint34_linear_0_1175)" fill-opacity="0.4"/>
</g>
<path fill-rule="evenodd" clip-rule="evenodd" d="M205.381 92.2686C204.826 92.4004 204.484 92.9568 204.616 93.5112L205.749 98.2799L205.247 98.3992C203.584 98.7947 202.556 100.464 202.952 102.127L206.591 117.437C206.987 119.1 208.656 120.128 210.319 119.733L218.351 117.823C220.014 117.428 221.042 115.759 220.646 114.095L217.007 98.7855C216.611 97.1222 214.942 96.0943 213.279 96.4898L212.777 96.6091L211.643 91.8405C211.511 91.286 210.955 90.9434 210.4 91.0752L205.381 92.2686Z" fill="url(#paint35_linear_0_1175)"/>
<path fill-rule="evenodd" clip-rule="evenodd" d="M205.381 92.2686C204.826 92.4004 204.484 92.9568 204.616 93.5112L205.749 98.2799L205.247 98.3992C203.584 98.7947 202.556 100.464 202.952 102.127L206.591 117.437C206.987 119.1 208.656 120.128 210.319 119.733L218.351 117.823C220.014 117.428 221.042 115.759 220.646 114.095L217.007 98.7855C216.611 97.1222 214.942 96.0943 213.279 96.4898L212.777 96.6091L211.643 91.8405C211.511 91.286 210.955 90.9434 210.4 91.0752L205.381 92.2686Z" fill="url(#paint36_linear_0_1175)" fill-opacity="0.4"/>
<path fill-rule="evenodd" clip-rule="evenodd" d="M205.381 92.2686C204.826 92.4004 204.484 92.9568 204.616 93.5112L205.749 98.2799L205.247 98.3992C203.584 98.7947 202.556 100.464 202.952 102.127L206.591 117.437C206.987 119.1 208.656 120.128 210.319 119.733L218.351 117.823C220.014 117.428 221.042 115.759 220.646 114.095L217.007 98.7855C216.611 97.1222 214.942 96.0943 213.279 96.4898L212.777 96.6091L211.643 91.8405C211.511 91.286 210.955 90.9434 210.4 91.0752L205.381 92.2686Z" fill="url(#paint37_linear_0_1175)"/>
</g>
</g>
<g clip-path="url(#clip16_0_1175)">
<rect width="192" height="192" transform="translate(257)" fill="white"/>
<rect x="257" width="192" height="192" rx="96" fill="#1A3594"/>
<g filter="url(#filter8_f_0_1175)">
<path d="M387.058 166.75L388 40.9311C388.031 36.7867 384.696 33.4018 380.552 33.3708L312.779 32.8634L276.923 55.6868L276.06 170.964C276.027 175.31 279.683 178.775 284.021 178.511L319.037 176.374L379.823 174.193C383.839 174.049 387.028 170.767 387.058 166.75Z" fill="#636C95" fill-opacity="0.15"/>
</g>
<path d="M383.5 171V44C383.5 39.5817 379.918 36 375.5 36H285.5C281.082 36 277.5 39.5817 277.5 44V58V171C277.5 175.418 281.082 179 285.5 179H375.5C379.918 179 383.5 175.418 383.5 171Z" fill="#F7F9FB"/>
<path fill-rule="evenodd" clip-rule="evenodd" d="M376 164V51C376 47.6863 373.314 45 370 45H291C287.686 45 285 47.6863 285 51V164C285 167.314 287.686 170 291 170H370C373.314 170 376 167.314 376 164ZM378 51V164C378 168.418 374.418 172 370 172H291C286.582 172 283 168.418 283 164V51C283 46.5817 286.582 43 291 43H370C374.418 43 378 46.5817 378 51Z" fill="url(#paint38_linear_0_1175)"/>
<path d="M292.5 55H364.5C366.433 55 368 56.567 368 58.5C368 60.433 366.433 62 364.5 62H292.5C290.567 62 289 60.433 289 58.5C289 56.567 290.567 55 292.5 55Z" fill="url(#paint39_linear_0_1175)"/>
<path d="M292.5 55H364.5C366.433 55 368 56.567 368 58.5C368 60.433 366.433 62 364.5 62H292.5C290.567 62 289 60.433 289 58.5C289 56.567 290.567 55 292.5 55Z" fill="url(#paint40_linear_0_1175)" fill-opacity="0.4"/>
<path fill-rule="evenodd" clip-rule="evenodd" d="M303 72C303 70.8954 303.616 70 304.375 70L367.625 70C368.384 70 369 70.8954 369 72C369 73.1046 368.384 74 367.625 74L304.375 74C303.616 74 303 73.1046 303 72Z" fill="#E6ECF8"/>
<path fill-rule="evenodd" clip-rule="evenodd" d="M303 81C303 79.8954 303.606 79 304.354 79L366.646 79C367.394 79 368 79.8954 368 81C368 82.1046 367.394 83 366.646 83L304.354 83C303.606 83 303 82.1046 303 81Z" fill="#E6ECF8"/>
<path fill-rule="evenodd" clip-rule="evenodd" d="M303 90C303 88.8954 303.606 88 304.354 88L366.646 88C367.394 88 368 88.8954 368 90C368 91.1046 367.394 92 366.646 92L304.354 92C303.606 92 303 91.1046 303 90Z" fill="#E6ECF8"/>
<path fill-rule="evenodd" clip-rule="evenodd" d="M303 99C303 97.8954 303.606 97 304.354 97L366.646 97C367.394 97 368 97.8954 368 99C368 100.105 367.394 101 366.646 101L304.354 101C303.606 101 303 100.105 303 99Z" fill="#E6ECF8"/>
<path fill-rule="evenodd" clip-rule="evenodd" d="M303 108C303 106.895 303.606 106 304.354 106L366.646 106C367.394 106 368 106.895 368 108C368 109.105 367.394 110 366.646 110L304.354 110C303.606 110 303 109.105 303 108Z" fill="#E6ECF8"/>
<path fill-rule="evenodd" clip-rule="evenodd" d="M303 117C303 115.895 303.606 115 304.354 115L366.646 115C367.394 115 368 115.895 368 117C368 118.105 367.394 119 366.646 119L304.354 119C303.606 119 303 118.105 303 117Z" fill="#E6ECF8"/>
<path fill-rule="evenodd" clip-rule="evenodd" d="M303 126C303 124.895 303.606 124 304.354 124L366.646 124C367.394 124 368 124.895 368 126C368 127.105 367.394 128 366.646 128L304.354 128C303.606 128 303 127.105 303 126Z" fill="#E6ECF8"/>
<path d="M347 142L368 142C369.105 142 370 142.895 370 144C370 145.105 369.105 146 368 146L347 146C345.895 146 345 145.105 345 144C345 142.895 345.895 142 347 142Z" fill="#E6ECF8"/>
<path d="M348 151L368 151C369.105 151 370 151.895 370 153C370 154.105 369.105 155 368 155L348 155C346.895 155 346 154.105 346 153C346 151.895 346.895 151 348 151Z" fill="#E6ECF8"/>
<path d="M291 142L312 142C313.105 142 314 142.895 314 144C314 145.105 313.105 146 312 146L291 146C289.895 146 289 145.105 289 144C289 142.895 289.895 142 291 142Z" fill="#E6ECF8"/>
<path d="M291 151L312 151C313.105 151 314 151.895 314 153C314 154.105 313.105 155 312 155L291 155C289.895 155 289 154.105 289 153C289 151.895 289.895 151 291 151Z" fill="#E6ECF8"/>
<path d="M298.006 68.4428C297.718 68.2012 297.287 68.2474 297.057 68.5447L294.271 72.1424L292.804 70.7057C292.565 70.4726 292.185 70.4727 291.947 70.7058C291.701 70.946 291.701 71.3407 291.947 71.5808L294.13 73.7199C294.283 73.8697 294.532 73.8541 294.665 73.6866L298.099 69.3619C298.322 69.081 298.281 68.6735 298.006 68.4428Z" fill="url(#paint41_linear_0_1175)"/>
<path d="M298.006 77.4428C297.718 77.2012 297.287 77.2474 297.057 77.5447L294.271 81.1424L292.804 79.7057C292.565 79.4726 292.185 79.4727 291.947 79.7058C291.701 79.946 291.701 80.3407 291.947 80.5808L294.13 82.7199C294.283 82.8697 294.532 82.8541 294.665 82.6866L298.099 78.3619C298.322 78.081 298.281 77.6735 298.006 77.4428Z" fill="url(#paint42_linear_0_1175)"/>
<path d="M298.006 86.4428C297.718 86.2012 297.287 86.2474 297.057 86.5447L294.271 90.1424L292.804 88.7057C292.565 88.4726 292.185 88.4727 291.947 88.7058C291.701 88.946 291.701 89.3407 291.947 89.5808L294.13 91.7199C294.283 91.8697 294.532 91.8541 294.665 91.6866L298.099 87.3619C298.322 87.081 298.281 86.6735 298.006 86.4428Z" fill="url(#paint43_linear_0_1175)"/>
<path d="M298.006 95.4428C297.718 95.2012 297.287 95.2474 297.057 95.5447L294.271 99.1424L292.804 97.7057C292.565 97.4726 292.185 97.4727 291.947 97.7058C291.701 97.946 291.701 98.3407 291.947 98.5808L294.13 100.72C294.283 100.87 294.532 100.854 294.665 100.687L298.099 96.3619C298.322 96.081 298.281 95.6735 298.006 95.4428Z" fill="url(#paint44_linear_0_1175)"/>
<path d="M298.006 104.443C297.718 104.201 297.287 104.247 297.057 104.545L294.271 108.142L292.804 106.706C292.565 106.473 292.185 106.473 291.947 106.706C291.701 106.946 291.701 107.341 291.947 107.581L294.13 109.72C294.283 109.87 294.532 109.854 294.665 109.687L298.099 105.362C298.322 105.081 298.281 104.673 298.006 104.443Z" fill="url(#paint45_linear_0_1175)"/>
<path d="M298.006 113.443C297.718 113.201 297.287 113.247 297.057 113.545L294.271 117.142L292.804 115.706C292.565 115.473 292.185 115.473 291.947 115.706C291.701 115.946 291.701 116.341 291.947 116.581L294.13 118.72C294.283 118.87 294.532 118.854 294.665 118.687L298.099 114.362C298.322 114.081 298.281 113.673 298.006 113.443Z" fill="url(#paint46_linear_0_1175)"/>
<path d="M298.006 122.443C297.718 122.201 297.287 122.247 297.057 122.545L294.271 126.142L292.804 124.706C292.565 124.473 292.185 124.473 291.947 124.706C291.701 124.946 291.701 125.341 291.947 125.581L294.13 127.72C294.283 127.87 294.532 127.854 294.665 127.687L298.099 123.362C298.322 123.081 298.281 122.673 298.006 122.443Z" fill="url(#paint47_linear_0_1175)"/>
<g filter="url(#filter9_f_0_1175)">
<path d="M411.71 145.62L406.782 18.7655C406.625 14.7163 403.281 11.5233 399.229 11.5526L337.374 12L302 35.1846V150.957C302 155.306 305.685 158.744 310.024 158.443L344.643 156.04L404.541 153.408C408.667 153.227 411.87 149.746 411.71 145.62Z" fill="#636C95" fill-opacity="0.15"/>
</g>
<path d="M411.5 148V21C411.5 16.5817 407.918 13 403.5 13H313.5C309.082 13 305.5 16.5817 305.5 21V35V148C305.5 152.418 309.082 156 313.5 156H403.5C407.918 156 411.5 152.418 411.5 148Z" fill="#F7F9FB"/>
<path fill-rule="evenodd" clip-rule="evenodd" d="M404 141V28C404 24.6863 401.314 22 398 22H319C315.686 22 313 24.6863 313 28V141C313 144.314 315.686 147 319 147H398C401.314 147 404 144.314 404 141ZM406 28V141C406 145.418 402.418 149 398 149H319C314.582 149 311 145.418 311 141V28C311 23.5817 314.582 20 319 20H398C402.418 20 406 23.5817 406 28Z" fill="#EA6219"/>
<path d="M338 32H378C380.761 32 383 34.2386 383 37C383 39.7614 380.761 42 378 42H338C335.239 42 333 39.7614 333 37C333 34.2386 335.239 32 338 32Z" fill="#EA6219"/>
<path fill-rule="evenodd" clip-rule="evenodd" d="M320 49C320 47.8954 320.718 47 321.604 47L395.396 47C396.282 47 397 47.8954 397 49C397 50.1046 396.282 51 395.396 51L321.604 51C320.718 51 320 50.1046 320 49Z" fill="#E6ECF8"/>
<path fill-rule="evenodd" clip-rule="evenodd" d="M320 58C320 56.8954 320.709 56 321.583 56L394.417 56C395.291 56 396 56.8954 396 58C396 59.1046 395.291 60 394.417 60L321.583 60C320.709 60 320 59.1046 320 58Z" fill="#E6ECF8"/>
<path fill-rule="evenodd" clip-rule="evenodd" d="M320 67C320 65.8954 320.709 65 321.583 65L394.417 65C395.291 65 396 65.8954 396 67C396 68.1046 395.291 69 394.417 69L321.583 69C320.709 69 320 68.1046 320 67Z" fill="#E6ECF8"/>
<path fill-rule="evenodd" clip-rule="evenodd" d="M320 76C320 74.8954 320.709 74 321.583 74L394.417 74C395.291 74 396 74.8954 396 76C396 77.1046 395.291 78 394.417 78L321.583 78C320.709 78 320 77.1046 320 76Z" fill="#E6ECF8"/>
<path fill-rule="evenodd" clip-rule="evenodd" d="M320 85C320 83.8954 320.709 83 321.583 83L394.417 83C395.291 83 396 83.8954 396 85C396 86.1046 395.291 87 394.417 87L321.583 87C320.709 87 320 86.1046 320 85Z" fill="#E6ECF8"/>
<path fill-rule="evenodd" clip-rule="evenodd" d="M320 94C320 92.8954 320.709 92 321.583 92L394.417 92C395.291 92 396 92.8954 396 94C396 95.1046 395.291 96 394.417 96L321.583 96C320.709 96 320 95.1046 320 94Z" fill="#E6ECF8"/>
<path fill-rule="evenodd" clip-rule="evenodd" d="M320 103C320 101.895 320.709 101 321.583 101L394.417 101C395.291 101 396 101.895 396 103C396 104.105 395.291 105 394.417 105L321.583 105C320.709 105 320 104.105 320 103Z" fill="#E6ECF8"/>
<path d="M375 119L394 119C395.105 119 396 119.895 396 121C396 122.105 395.105 123 394 123L375 123C373.895 123 373 122.105 373 121C373 119.895 373.895 119 375 119Z" fill="#E6ECF8"/>
<path d="M376 128L394 128C395.105 128 396 128.895 396 130C396 131.105 395.105 132 394 132L376 132C374.895 132 374 131.105 374 130C374 128.895 374.895 128 376 128Z" fill="#E6ECF8"/>
<path d="M322 119L340 119C341.105 119 342 119.895 342 121C342 122.105 341.105 123 340 123L322 123C320.895 123 320 122.105 320 121C320 119.895 320.895 119 322 119Z" fill="#E6ECF8"/>
<path d="M322 128L340 128C341.105 128 342 128.895 342 130C342 131.105 341.105 132 340 132L322 132C320.895 132 320 131.105 320 130C320 128.895 320.895 128 322 128Z" fill="#E6ECF8"/>
<path fill-rule="evenodd" clip-rule="evenodd" d="M359 116C352.925 116 348 120.925 348 127C348 133.075 352.925 138 359 138C365.075 138 370 133.075 370 127C370 120.925 365.075 116 359 116ZM346 127C346 119.82 351.82 114 359 114C366.18 114 372 119.82 372 127C372 134.18 366.18 140 359 140C351.82 140 346 134.18 346 127Z" fill="#EA6219"/>
<circle cx="359" cy="127" r="7" fill="url(#paint48_linear_0_1175)"/>
<circle cx="359" cy="127" r="7" fill="url(#paint49_linear_0_1175)"/>
<path fill-rule="evenodd" clip-rule="evenodd" d="M335.25 112.208C335.295 111.947 335.318 111.646 335.317 111.366C335.316 111.094 335.291 110.8 335.221 110.569C335.189 110.463 335.127 110.299 334.993 110.172C334.919 110.101 334.812 110.033 334.674 110.009C334.534 109.985 334.407 110.012 334.306 110.059C334.127 110.141 334.004 110.292 333.923 110.411C333.832 110.545 333.743 110.714 333.654 110.916C332.243 114.116 331.656 117.838 331.107 121.322C330.979 122.134 330.853 122.932 330.72 123.708C329.772 126.305 328.752 128.877 327.726 131.453L327.585 131.809L327.585 131.809C326.363 134.875 325.138 137.952 324.029 141.077C323.937 141.337 324.073 141.623 324.333 141.715C324.593 141.807 324.879 141.671 324.971 141.411C326.073 138.305 327.293 135.244 328.516 132.173L328.516 132.172L328.655 131.823C329.039 130.86 329.422 129.896 329.802 128.93C329.581 130.285 329.385 131.646 329.239 133.014C329.235 133.054 329.223 133.14 329.206 133.261L329.206 133.261C329.138 133.756 328.992 134.822 328.972 135.573C328.966 135.81 328.971 136.047 329.002 136.241C329.017 136.336 329.043 136.45 329.094 136.557C329.141 136.656 329.252 136.835 329.481 136.904C329.722 136.976 329.921 136.878 330.027 136.805C330.135 136.729 330.224 136.628 330.297 136.531C330.445 136.334 330.61 136.04 330.797 135.65L330.839 135.561C331.807 133.54 332.754 131.563 333.863 129.641C333.88 129.613 333.911 129.549 333.956 129.459L333.956 129.459C334.089 129.193 334.333 128.703 334.611 128.261C334.583 129.484 334.424 130.715 334.261 131.962C334.248 132.066 334.144 133.05 334.06 133.99C334.017 134.461 333.979 134.929 333.959 135.275C333.95 135.445 333.944 135.598 333.946 135.709C333.946 135.758 333.949 135.829 333.961 135.896L333.961 135.898C333.965 135.919 333.984 136.021 334.055 136.12C334.098 136.179 334.204 136.296 334.389 136.325C334.58 136.354 334.719 136.27 334.783 136.219C334.961 136.076 335.135 135.873 335.293 135.666C335.456 135.452 335.624 135.206 335.787 134.957C335.899 134.787 336.007 134.618 336.113 134.453L336.113 134.453C336.294 134.171 336.465 133.903 336.626 133.673C336.619 133.805 336.608 133.957 336.591 134.131C336.53 134.757 336.524 135.245 336.579 135.603C336.607 135.782 336.653 135.957 336.737 136.109C336.823 136.266 336.964 136.421 337.178 136.493C337.387 136.563 337.584 136.526 337.731 136.468C337.877 136.411 338.008 136.322 338.121 136.229C338.346 136.044 338.577 135.78 338.798 135.493C339.169 135.011 339.569 134.385 339.934 133.779C339.932 133.92 339.937 134.057 339.952 134.187C339.98 134.425 340.045 134.678 340.19 134.891C340.332 135.099 340.547 135.156 340.692 135.166C340.832 135.175 340.967 135.147 341.075 135.115C341.297 135.052 341.555 134.93 341.818 134.788C342.354 134.499 343.024 134.062 343.687 133.608C344.234 133.234 344.787 132.84 345.268 132.498L345.268 132.498L345.569 132.284C345.842 132.09 346.08 131.922 346.27 131.793C346.47 131.656 346.588 131.584 346.633 131.561C347.302 131.233 347.981 130.921 348.663 130.608L348.663 130.608C350.284 129.863 351.925 129.109 353.496 128.109C353.729 127.961 353.797 127.652 353.649 127.419C353.501 127.186 353.192 127.117 352.959 127.266C351.448 128.227 349.905 128.936 348.313 129.667C347.617 129.987 346.91 130.312 346.193 130.664C346.072 130.723 345.896 130.838 345.707 130.966C345.508 131.102 345.263 131.275 344.99 131.468L344.686 131.685L344.685 131.685C344.204 132.027 343.66 132.414 343.122 132.783C342.463 133.234 341.83 133.645 341.343 133.908C341.185 133.993 341.054 134.057 340.949 134.1C340.948 134.091 340.947 134.081 340.946 134.072C340.928 133.922 340.93 133.731 340.951 133.502C340.994 133.042 341.112 132.487 341.263 131.911C341.413 131.338 341.59 130.763 341.746 130.267L341.794 130.114L341.794 130.114C341.925 129.694 342.042 129.321 342.095 129.089C342.156 128.82 341.988 128.552 341.718 128.491C341.449 128.43 341.181 128.598 341.12 128.868C341.077 129.057 340.973 129.388 340.835 129.83L340.835 129.83L340.791 129.968C340.685 130.309 340.565 130.696 340.45 131.098C340.352 131.138 340.267 131.208 340.209 131.306C340.121 131.454 340.006 131.657 339.871 131.895L339.871 131.895L339.871 131.895C339.388 132.745 338.652 134.043 338.006 134.883C337.835 135.105 337.685 135.276 337.56 135.392C337.532 135.153 337.533 134.779 337.586 134.227C337.633 133.739 337.647 133.358 337.623 133.076C337.611 132.935 337.589 132.796 337.544 132.671C337.502 132.553 337.418 132.386 337.242 132.279C337.043 132.158 336.836 132.176 336.688 132.227C336.554 132.275 336.446 132.356 336.367 132.424C336.208 132.563 336.049 132.762 335.903 132.964C335.7 133.243 335.472 133.599 335.249 133.947C335.178 134.058 335.107 134.168 335.038 134.275L335.056 134.079C335.14 133.139 335.242 132.173 335.253 132.092C335.431 130.727 335.616 129.307 335.616 127.885C335.616 127.615 335.592 127.356 335.503 127.153C335.455 127.046 335.37 126.911 335.217 126.822C335.053 126.725 334.878 126.721 334.738 126.756C334.506 126.814 334.33 126.986 334.227 127.097C334.105 127.23 333.985 127.393 333.875 127.559C333.457 128.186 332.974 129.181 332.997 129.141C331.893 131.053 330.95 133.014 330.009 134.98C330.056 134.432 330.135 133.854 330.187 133.476C330.209 133.315 330.226 133.191 330.233 133.12C330.518 130.454 330.996 127.81 331.478 125.15L331.609 124.423C331.636 124.271 331.663 124.119 331.69 123.966C331.905 123.374 332.117 122.781 332.324 122.185C332.401 121.965 332.478 121.744 332.556 121.522L332.556 121.521L332.556 121.521C333.607 118.511 334.692 115.403 335.25 112.208ZM334.26 112.063C333.897 114.129 333.307 116.163 332.642 118.182C333.027 116.066 333.506 113.984 334.26 112.063ZM334.784 110.929C334.784 110.929 334.784 110.928 334.785 110.928L334.784 110.929ZM334.254 110.832C334.255 110.832 334.255 110.834 334.257 110.837C334.255 110.834 334.254 110.832 334.254 110.832Z" fill="#6776B8"/>
<g filter="url(#filter10_d_0_1175)">
<path fill-rule="evenodd" clip-rule="evenodd" d="M399.545 96.9153C398.939 97.0594 398.53 97.6255 398.583 98.2463L399.178 105.217C399.243 105.983 399.974 106.512 400.722 106.334L401.138 106.235L409.868 142.954L414.764 141.79L406.034 105.071L406.449 104.972C407.197 104.795 407.612 103.993 407.326 103.28L404.72 96.7871C404.488 96.2088 403.868 95.8876 403.262 96.0317L399.545 96.9153Z" fill="url(#paint50_linear_0_1175)"/>
<path fill-rule="evenodd" clip-rule="evenodd" d="M399.545 96.9153C398.939 97.0594 398.53 97.6255 398.583 98.2463L399.178 105.217C399.243 105.983 399.974 106.512 400.722 106.334L401.138 106.235L409.868 142.954L414.764 141.79L406.034 105.071L406.449 104.972C407.197 104.795 407.612 103.993 407.326 103.28L404.72 96.7871C404.488 96.2088 403.868 95.8876 403.262 96.0317L399.545 96.9153Z" fill="url(#paint51_linear_0_1175)" fill-opacity="0.5"/>
<path fill-rule="evenodd" clip-rule="evenodd" d="M412.316 142.372L401.404 96.4733L403.262 96.0316C403.868 95.8875 404.489 96.2088 404.721 96.787L407.326 103.28C407.613 103.993 407.198 104.795 406.45 104.972L406.034 105.071L414.764 141.79L412.316 142.372Z" fill="url(#paint52_linear_0_1175)" fill-opacity="0.5"/>
<g filter="url(#filter11_f_0_1175)">
<path fill-rule="evenodd" clip-rule="evenodd" d="M403.121 96.1609L406.131 103.66C406.274 104.017 406.066 104.417 405.692 104.506L404.665 104.75L404.956 105.974L404.955 105.974L413.54 142.081L414.763 141.79L406.179 105.683L406.004 105.725C406.063 105.71 406.121 105.693 406.177 105.673L406.033 105.071L406.449 104.973C407.197 104.795 407.612 103.994 407.326 103.28L404.72 96.7872C404.522 96.2937 404.041 95.9873 403.527 95.9978L403.121 96.1609Z" fill="url(#paint53_linear_0_1175)" fill-opacity="0.4"/>
</g>
<path fill-rule="evenodd" clip-rule="evenodd" d="M407.758 139.715C406.938 139.91 406.43 140.733 406.626 141.554L408.304 148.614L407.561 148.791C405.098 149.376 403.577 151.847 404.162 154.309L409.551 176.975C410.136 179.437 412.607 180.959 415.069 180.373L426.959 177.547C429.422 176.961 430.944 174.49 430.358 172.028L424.97 149.363C424.384 146.9 421.913 145.378 419.451 145.964L418.708 146.141L417.029 139.081C416.834 138.26 416.011 137.753 415.19 137.948L407.758 139.715Z" fill="url(#paint54_linear_0_1175)"/>
<path fill-rule="evenodd" clip-rule="evenodd" d="M407.758 139.715C406.938 139.91 406.43 140.733 406.626 141.554L408.304 148.614L407.561 148.791C405.098 149.376 403.577 151.847 404.162 154.309L409.551 176.975C410.136 179.437 412.607 180.959 415.069 180.373L426.959 177.547C429.422 176.961 430.944 174.49 430.358 172.028L424.97 149.363C424.384 146.9 421.913 145.378 419.451 145.964L418.708 146.141L417.029 139.081C416.834 138.26 416.011 137.753 415.19 137.948L407.758 139.715Z" fill="url(#paint55_linear_0_1175)" fill-opacity="0.4"/>
<path fill-rule="evenodd" clip-rule="evenodd" d="M407.758 139.715C406.938 139.91 406.43 140.733 406.626 141.554L408.304 148.614L407.561 148.791C405.098 149.376 403.577 151.847 404.162 154.309L409.551 176.975C410.136 179.437 412.607 180.959 415.069 180.373L426.959 177.547C429.422 176.961 430.944 174.49 430.358 172.028L424.97 149.363C424.384 146.9 421.913 145.378 419.451 145.964L418.708 146.141L417.029 139.081C416.834 138.26 416.011 137.753 415.19 137.948L407.758 139.715Z" fill="url(#paint56_linear_0_1175)"/>
</g>
</g>
<defs>
<filter id="filter0_f_0_1175" x="5.82309" y="8.64292" width="40.1341" height="51.4177" filterUnits="userSpaceOnUse" color-interpolation-filters="sRGB">
<feFlood flood-opacity="0" result="BackgroundImageFix"/>
<feBlend mode="normal" in="SourceGraphic" in2="BackgroundImageFix" result="shape"/>
<feGaussianBlur stdDeviation="0.669233" result="effect1_foregroundBlur_0_1175"/>
</filter>
<filter id="filter1_f_0_1175" x="14.5039" y="1.51175" width="39.3897" height="51.8351" filterUnits="userSpaceOnUse" color-interpolation-filters="sRGB">
<feFlood flood-opacity="0" result="BackgroundImageFix"/>
<feBlend mode="normal" in="SourceGraphic" in2="BackgroundImageFix" result="shape"/>
<feGaussianBlur stdDeviation="0.669233" result="effect1_foregroundBlur_0_1175"/>
</filter>
<filter id="filter2_d_0_1175" x="46.4729" y="31.1072" width="12.3613" height="29.959" filterUnits="userSpaceOnUse" color-interpolation-filters="sRGB">
<feFlood flood-opacity="0" result="BackgroundImageFix"/>
<feColorMatrix in="SourceAlpha" type="matrix" values="0 0 0 0 0 0 0 0 0 0 0 0 0 0 0 0 0 0 127 0" result="hardAlpha"/>
<feOffset dx="-0.841949" dy="0.841949"/>
<feGaussianBlur stdDeviation="0.420975"/>
<feColorMatrix type="matrix" values="0 0 0 0 0.101961 0 0 0 0 0.207843 0 0 0 0 0.580392 0 0 0 0.15 0"/>
<feBlend mode="normal" in2="BackgroundImageFix" result="effect1_dropShadow_0_1175"/>
<feBlend mode="normal" in="SourceGraphic" in2="effect1_dropShadow_0_1175" result="shape"/>
</filter>
<filter id="filter3_f_0_1175" x="49.2569" y="30.6863" width="4.73801" height="16.2621" filterUnits="userSpaceOnUse" color-interpolation-filters="sRGB">
<feFlood flood-opacity="0" result="BackgroundImageFix"/>
<feBlend mode="normal" in="SourceGraphic" in2="BackgroundImageFix" result="shape"/>
<feGaussianBlur stdDeviation="0.210487" result="effect1_foregroundBlur_0_1175"/>
</filter>
<filter id="filter4_f_0_1175" x="113.719" y="17.3909" width="81.0173" height="103.795" filterUnits="userSpaceOnUse" color-interpolation-filters="sRGB">
<feFlood flood-opacity="0" result="BackgroundImageFix"/>
<feBlend mode="normal" in="SourceGraphic" in2="BackgroundImageFix" result="shape"/>
<feGaussianBlur stdDeviation="1.35096" result="effect1_foregroundBlur_0_1175"/>
</filter>
<filter id="filter5_f_0_1175" x="131.241" y="2.99578" width="79.5147" height="104.638" filterUnits="userSpaceOnUse" color-interpolation-filters="sRGB">
<feFlood flood-opacity="0" result="BackgroundImageFix"/>
<feBlend mode="normal" in="SourceGraphic" in2="BackgroundImageFix" result="shape"/>
<feGaussianBlur stdDeviation="1.35096" result="effect1_foregroundBlur_0_1175"/>
</filter>
<filter id="filter6_d_0_1175" x="195.78" y="62.7386" width="24.9513" height="60.4779" filterUnits="userSpaceOnUse" color-interpolation-filters="sRGB">
<feFlood flood-opacity="0" result="BackgroundImageFix"/>
<feColorMatrix in="SourceAlpha" type="matrix" values="0 0 0 0 0 0 0 0 0 0 0 0 0 0 0 0 0 0 127 0" result="hardAlpha"/>
<feOffset dx="-1.69962" dy="1.69962"/>
<feGaussianBlur stdDeviation="0.849808"/>
<feColorMatrix type="matrix" values="0 0 0 0 0.101961 0 0 0 0 0.207843 0 0 0 0 0.580392 0 0 0 0.15 0"/>
<feBlend mode="normal" in2="BackgroundImageFix" result="effect1_dropShadow_0_1175"/>
<feBlend mode="normal" in="SourceGraphic" in2="effect1_dropShadow_0_1175" result="shape"/>
</filter>
<filter id="filter7_f_0_1175" x="201.399" y="61.8888" width="9.56314" height="32.8283" filterUnits="userSpaceOnUse" color-interpolation-filters="sRGB">
<feFlood flood-opacity="0" result="BackgroundImageFix"/>
<feBlend mode="normal" in="SourceGraphic" in2="BackgroundImageFix" result="shape"/>
<feGaussianBlur stdDeviation="0.424904" result="effect1_foregroundBlur_0_1175"/>
</filter>
<filter id="filter8_f_0_1175" x="272.06" y="28.8634" width="119.94" height="153.661" filterUnits="userSpaceOnUse" color-interpolation-filters="sRGB">
<feFlood flood-opacity="0" result="BackgroundImageFix"/>
<feBlend mode="normal" in="SourceGraphic" in2="BackgroundImageFix" result="shape"/>
<feGaussianBlur stdDeviation="2" result="effect1_foregroundBlur_0_1175"/>
</filter>
<filter id="filter9_f_0_1175" x="298" y="7.55237" width="117.716" height="154.909" filterUnits="userSpaceOnUse" color-interpolation-filters="sRGB">
<feFlood flood-opacity="0" result="BackgroundImageFix"/>
<feBlend mode="normal" in="SourceGraphic" in2="BackgroundImageFix" result="shape"/>
<feGaussianBlur stdDeviation="2" result="effect1_foregroundBlur_0_1175"/>
</filter>
<filter id="filter10_d_0_1175" x="393.546" y="95.9973" width="36.9377" height="89.5337" filterUnits="userSpaceOnUse" color-interpolation-filters="sRGB">
<feFlood flood-opacity="0" result="BackgroundImageFix"/>
<feColorMatrix in="SourceAlpha" type="matrix" values="0 0 0 0 0 0 0 0 0 0 0 0 0 0 0 0 0 0 127 0" result="hardAlpha"/>
<feOffset dx="-2.51616" dy="2.51616"/>
<feGaussianBlur stdDeviation="1.25808"/>
<feColorMatrix type="matrix" values="0 0 0 0 0.101961 0 0 0 0 0.207843 0 0 0 0 0.580392 0 0 0 0.15 0"/>
<feBlend mode="normal" in2="BackgroundImageFix" result="effect1_dropShadow_0_1175"/>
<feBlend mode="normal" in="SourceGraphic" in2="effect1_dropShadow_0_1175" result="shape"/>
</filter>
<filter id="filter11_f_0_1175" x="401.863" y="94.7395" width="14.1583" height="48.5999" filterUnits="userSpaceOnUse" color-interpolation-filters="sRGB">
<feFlood flood-opacity="0" result="BackgroundImageFix"/>
<feBlend mode="normal" in="SourceGraphic" in2="BackgroundImageFix" result="shape"/>
<feGaussianBlur stdDeviation="0.629041" result="effect1_foregroundBlur_0_1175"/>
</filter>
<linearGradient id="paint0_linear_0_1175" x1="10.9901" y1="55.3676" x2="42.1094" y2="13.3732" gradientUnits="userSpaceOnUse">
<stop stop-color="#8193DF"/>
<stop offset="1" stop-color="#B3C1F6"/>
</linearGradient>
<linearGradient id="paint1_linear_0_1175" x1="21.5589" y1="19" x2="21.8405" y2="16.0877" gradientUnits="userSpaceOnUse">
<stop stop-color="#8193DF"/>
<stop offset="1" stop-color="#B3C1F6"/>
</linearGradient>
<linearGradient id="paint2_linear_0_1175" x1="38.6857" y1="17.6604" x2="31.1553" y2="14.8036" gradientUnits="userSpaceOnUse">
<stop stop-color="white"/>
<stop offset="1" stop-color="white" stop-opacity="0"/>
</linearGradient>
<linearGradient id="paint3_linear_0_1175" x1="13.4991" y1="21.7386" x2="13.4991" y2="23.7463" gradientUnits="userSpaceOnUse">
<stop stop-color="#B3C1F6"/>
<stop offset="1" stop-color="#8193DF"/>
</linearGradient>
<linearGradient id="paint4_linear_0_1175" x1="13.4991" y1="24.7503" x2="13.4991" y2="26.758" gradientUnits="userSpaceOnUse">
<stop stop-color="#B3C1F6"/>
<stop offset="1" stop-color="#8193DF"/>
</linearGradient>
<linearGradient id="paint5_linear_0_1175" x1="13.4991" y1="27.7618" x2="13.4991" y2="29.7695" gradientUnits="userSpaceOnUse">
<stop stop-color="#B3C1F6"/>
<stop offset="1" stop-color="#8193DF"/>
</linearGradient>
<linearGradient id="paint6_linear_0_1175" x1="13.4991" y1="30.7734" x2="13.4991" y2="32.7811" gradientUnits="userSpaceOnUse">
<stop stop-color="#B3C1F6"/>
<stop offset="1" stop-color="#8193DF"/>
</linearGradient>
<linearGradient id="paint7_linear_0_1175" x1="13.4991" y1="33.785" x2="13.4991" y2="35.7927" gradientUnits="userSpaceOnUse">
<stop stop-color="#B3C1F6"/>
<stop offset="1" stop-color="#8193DF"/>
</linearGradient>
<linearGradient id="paint8_linear_0_1175" x1="13.4991" y1="36.7963" x2="13.4991" y2="38.804" gradientUnits="userSpaceOnUse">
<stop stop-color="#B3C1F6"/>
<stop offset="1" stop-color="#8193DF"/>
</linearGradient>
<linearGradient id="paint9_linear_0_1175" x1="13.4991" y1="39.8078" x2="13.4991" y2="41.8155" gradientUnits="userSpaceOnUse">
<stop stop-color="#B3C1F6"/>
<stop offset="1" stop-color="#8193DF"/>
</linearGradient>
<linearGradient id="paint10_linear_0_1175" x1="34.1187" y1="43.332" x2="37.3896" y2="38.8982" gradientUnits="userSpaceOnUse">
<stop stop-color="#EA6219"/>
<stop offset="1" stop-color="#FE9100"/>
</linearGradient>
<linearGradient id="paint11_linear_0_1175" x1="37.7647" y1="41.3336" x2="36.508" y2="41.2444" gradientUnits="userSpaceOnUse">
<stop stop-color="white" stop-opacity="0.5"/>
<stop offset="1" stop-color="white" stop-opacity="0"/>
</linearGradient>
<linearGradient id="paint12_linear_0_1175" x1="48.7197" y1="37.8481" x2="51.5867" y2="37.1665" gradientUnits="userSpaceOnUse">
<stop stop-color="#EA6219"/>
<stop offset="1" stop-color="#FE9100"/>
</linearGradient>
<linearGradient id="paint13_linear_0_1175" x1="51.2323" y1="32.491" x2="48.0582" y2="33.2456" gradientUnits="userSpaceOnUse">
<stop stop-color="white" stop-opacity="0.72"/>
<stop offset="1" stop-color="white" stop-opacity="0"/>
</linearGradient>
<linearGradient id="paint14_linear_0_1175" x1="52.0847" y1="38.3466" x2="50.5498" y2="38.7115" gradientUnits="userSpaceOnUse">
<stop stop-color="white"/>
<stop offset="1" stop-color="white" stop-opacity="0"/>
</linearGradient>
<linearGradient id="paint15_linear_0_1175" x1="51.2333" y1="32.4907" x2="48.0595" y2="33.2452" gradientUnits="userSpaceOnUse">
<stop stop-color="white" stop-opacity="0.72"/>
<stop offset="1" stop-color="white" stop-opacity="0"/>
</linearGradient>
<linearGradient id="paint16_linear_0_1175" x1="50.5703" y1="51.7759" x2="56.1723" y2="48.2014" gradientUnits="userSpaceOnUse">
<stop stop-color="#8193DF"/>
<stop offset="1" stop-color="#B3C1F6"/>
</linearGradient>
<linearGradient id="paint17_linear_0_1175" x1="57.4703" y1="49.5817" x2="53.2224" y2="50.4807" gradientUnits="userSpaceOnUse">
<stop stop-color="white"/>
<stop offset="1" stop-color="white" stop-opacity="0"/>
</linearGradient>
<linearGradient id="paint18_linear_0_1175" x1="50.9762" y1="56.3712" x2="53.3185" y2="55.702" gradientUnits="userSpaceOnUse">
<stop stop-color="#6B7BBE"/>
<stop offset="1" stop-color="#8E9FE5" stop-opacity="0"/>
</linearGradient>
<linearGradient id="paint19_linear_0_1175" x1="124.149" y1="111.713" x2="186.968" y2="26.9399" gradientUnits="userSpaceOnUse">
<stop stop-color="#8193DF"/>
<stop offset="1" stop-color="#B3C1F6"/>
</linearGradient>
<linearGradient id="paint20_linear_0_1175" x1="144.781" y1="39.7739" x2="145.546" y2="32.9095" gradientUnits="userSpaceOnUse">
<stop stop-color="#8193DF"/>
<stop offset="1" stop-color="#B3C1F6"/>
</linearGradient>
<linearGradient id="paint21_linear_0_1175" x1="179.933" y1="36.6069" x2="163.983" y2="31.3539" gradientUnits="userSpaceOnUse">
<stop stop-color="white"/>
<stop offset="1" stop-color="white" stop-opacity="0"/>
</linearGradient>
<linearGradient id="paint22_linear_0_1175" x1="129.215" y1="43.8269" x2="129.215" y2="47.8798" gradientUnits="userSpaceOnUse">
<stop stop-color="#B3C1F6"/>
<stop offset="1" stop-color="#8193DF"/>
</linearGradient>
<linearGradient id="paint23_linear_0_1175" x1="129.215" y1="49.9062" x2="129.215" y2="53.9591" gradientUnits="userSpaceOnUse">
<stop stop-color="#B3C1F6"/>
<stop offset="1" stop-color="#8193DF"/>
</linearGradient>
<linearGradient id="paint24_linear_0_1175" x1="129.215" y1="55.9856" x2="129.215" y2="60.0385" gradientUnits="userSpaceOnUse">
<stop stop-color="#B3C1F6"/>
<stop offset="1" stop-color="#8193DF"/>
</linearGradient>
<linearGradient id="paint25_linear_0_1175" x1="129.215" y1="62.0649" x2="129.215" y2="66.1178" gradientUnits="userSpaceOnUse">
<stop stop-color="#B3C1F6"/>
<stop offset="1" stop-color="#8193DF"/>
</linearGradient>
<linearGradient id="paint26_linear_0_1175" x1="129.215" y1="68.1441" x2="129.215" y2="72.197" gradientUnits="userSpaceOnUse">
<stop stop-color="#B3C1F6"/>
<stop offset="1" stop-color="#8193DF"/>
</linearGradient>
<linearGradient id="paint27_linear_0_1175" x1="129.215" y1="74.2235" x2="129.215" y2="78.2764" gradientUnits="userSpaceOnUse">
<stop stop-color="#B3C1F6"/>
<stop offset="1" stop-color="#8193DF"/>
</linearGradient>
<linearGradient id="paint28_linear_0_1175" x1="129.215" y1="80.3028" x2="129.215" y2="84.3557" gradientUnits="userSpaceOnUse">
<stop stop-color="#B3C1F6"/>
<stop offset="1" stop-color="#8193DF"/>
</linearGradient>
<linearGradient id="paint29_linear_0_1175" x1="170.838" y1="87.4164" x2="177.441" y2="78.4661" gradientUnits="userSpaceOnUse">
<stop stop-color="#EA6219"/>
<stop offset="1" stop-color="#FE9100"/>
</linearGradient>
<linearGradient id="paint30_linear_0_1175" x1="178.198" y1="83.3824" x2="175.662" y2="83.2023" gradientUnits="userSpaceOnUse">
<stop stop-color="white" stop-opacity="0.5"/>
<stop offset="1" stop-color="white" stop-opacity="0"/>
</linearGradient>
<linearGradient id="paint31_linear_0_1175" x1="200.315" y1="76.3463" x2="206.103" y2="74.9704" gradientUnits="userSpaceOnUse">
<stop stop-color="#EA6219"/>
<stop offset="1" stop-color="#FE9100"/>
</linearGradient>
<linearGradient id="paint32_linear_0_1175" x1="205.387" y1="65.5321" x2="198.98" y2="67.0554" gradientUnits="userSpaceOnUse">
<stop stop-color="white" stop-opacity="0.72"/>
<stop offset="1" stop-color="white" stop-opacity="0"/>
</linearGradient>
<linearGradient id="paint33_linear_0_1175" x1="207.107" y1="77.3524" x2="204.007" y2="78.0894" gradientUnits="userSpaceOnUse">
<stop stop-color="white"/>
<stop offset="1" stop-color="white" stop-opacity="0"/>
</linearGradient>
<linearGradient id="paint34_linear_0_1175" x1="205.389" y1="65.5318" x2="198.978" y2="67.0559" gradientUnits="userSpaceOnUse">
<stop stop-color="white" stop-opacity="0.72"/>
<stop offset="1" stop-color="white" stop-opacity="0"/>
</linearGradient>
<linearGradient id="paint35_linear_0_1175" x1="204.049" y1="104.462" x2="215.358" y2="97.2465" gradientUnits="userSpaceOnUse">
<stop stop-color="#8193DF"/>
<stop offset="1" stop-color="#B3C1F6"/>
</linearGradient>
<linearGradient id="paint36_linear_0_1175" x1="217.978" y1="100.033" x2="209.403" y2="101.848" gradientUnits="userSpaceOnUse">
<stop stop-color="white"/>
<stop offset="1" stop-color="white" stop-opacity="0"/>
</linearGradient>
<linearGradient id="paint37_linear_0_1175" x1="204.869" y1="113.739" x2="209.597" y2="112.388" gradientUnits="userSpaceOnUse">
<stop stop-color="#6B7BBE"/>
<stop offset="1" stop-color="#8E9FE5" stop-opacity="0"/>
</linearGradient>
<linearGradient id="paint38_linear_0_1175" x1="287.5" y1="168.5" x2="380.5" y2="43" gradientUnits="userSpaceOnUse">
<stop stop-color="#8193DF"/>
<stop offset="1" stop-color="#B3C1F6"/>
</linearGradient>
<linearGradient id="paint39_linear_0_1175" x1="318.044" y1="62" x2="319.176" y2="51.8376" gradientUnits="userSpaceOnUse">
<stop stop-color="#8193DF"/>
<stop offset="1" stop-color="#B3C1F6"/>
</linearGradient>
<linearGradient id="paint40_linear_0_1175" x1="370.083" y1="57.3114" x2="346.471" y2="49.5348" gradientUnits="userSpaceOnUse">
<stop stop-color="white"/>
<stop offset="1" stop-color="white" stop-opacity="0"/>
</linearGradient>
<linearGradient id="paint41_linear_0_1175" x1="295" y1="68" x2="295" y2="74" gradientUnits="userSpaceOnUse">
<stop stop-color="#B3C1F6"/>
<stop offset="1" stop-color="#8193DF"/>
</linearGradient>
<linearGradient id="paint42_linear_0_1175" x1="295" y1="77" x2="295" y2="83" gradientUnits="userSpaceOnUse">
<stop stop-color="#B3C1F6"/>
<stop offset="1" stop-color="#8193DF"/>
</linearGradient>
<linearGradient id="paint43_linear_0_1175" x1="295" y1="86" x2="295" y2="92" gradientUnits="userSpaceOnUse">
<stop stop-color="#B3C1F6"/>
<stop offset="1" stop-color="#8193DF"/>
</linearGradient>
<linearGradient id="paint44_linear_0_1175" x1="295" y1="95" x2="295" y2="101" gradientUnits="userSpaceOnUse">
<stop stop-color="#B3C1F6"/>
<stop offset="1" stop-color="#8193DF"/>
</linearGradient>
<linearGradient id="paint45_linear_0_1175" x1="295" y1="104" x2="295" y2="110" gradientUnits="userSpaceOnUse">
<stop stop-color="#B3C1F6"/>
<stop offset="1" stop-color="#8193DF"/>
</linearGradient>
<linearGradient id="paint46_linear_0_1175" x1="295" y1="113" x2="295" y2="119" gradientUnits="userSpaceOnUse">
<stop stop-color="#B3C1F6"/>
<stop offset="1" stop-color="#8193DF"/>
</linearGradient>
<linearGradient id="paint47_linear_0_1175" x1="295" y1="122" x2="295" y2="128" gradientUnits="userSpaceOnUse">
<stop stop-color="#B3C1F6"/>
<stop offset="1" stop-color="#8193DF"/>
</linearGradient>
<linearGradient id="paint48_linear_0_1175" x1="356.623" y1="132.531" x2="366.398" y2="119.281" gradientUnits="userSpaceOnUse">
<stop stop-color="#EA6219"/>
<stop offset="1" stop-color="#FE9100"/>
</linearGradient>
<linearGradient id="paint49_linear_0_1175" x1="367.519" y1="126.559" x2="363.763" y2="126.293" gradientUnits="userSpaceOnUse">
<stop stop-color="white" stop-opacity="0.5"/>
<stop offset="1" stop-color="white" stop-opacity="0"/>
</linearGradient>
<linearGradient id="paint50_linear_0_1175" x1="400.26" y1="116.142" x2="408.828" y2="114.105" gradientUnits="userSpaceOnUse">
<stop stop-color="#EA6219"/>
<stop offset="1" stop-color="#FE9100"/>
</linearGradient>
<linearGradient id="paint51_linear_0_1175" x1="407.769" y1="100.133" x2="398.284" y2="102.388" gradientUnits="userSpaceOnUse">
<stop stop-color="white" stop-opacity="0.72"/>
<stop offset="1" stop-color="white" stop-opacity="0"/>
</linearGradient>
<linearGradient id="paint52_linear_0_1175" x1="410.314" y1="117.632" x2="405.724" y2="118.723" gradientUnits="userSpaceOnUse">
<stop stop-color="white"/>
<stop offset="1" stop-color="white" stop-opacity="0"/>
</linearGradient>
<linearGradient id="paint53_linear_0_1175" x1="407.769" y1="100.133" x2="398.284" y2="102.388" gradientUnits="userSpaceOnUse">
<stop stop-color="white" stop-opacity="0.72"/>
<stop offset="1" stop-color="white" stop-opacity="0"/>
</linearGradient>
<linearGradient id="paint54_linear_0_1175" x1="405.787" y1="157.767" x2="422.529" y2="147.084" gradientUnits="userSpaceOnUse">
<stop stop-color="#8193DF"/>
<stop offset="1" stop-color="#B3C1F6"/>
</linearGradient>
<linearGradient id="paint55_linear_0_1175" x1="426.408" y1="151.209" x2="413.713" y2="153.896" gradientUnits="userSpaceOnUse">
<stop stop-color="white"/>
<stop offset="1" stop-color="white" stop-opacity="0"/>
</linearGradient>
<linearGradient id="paint56_linear_0_1175" x1="407" y1="171.5" x2="414" y2="169.5" gradientUnits="userSpaceOnUse">
<stop stop-color="#6B7BBE"/>
<stop offset="1" stop-color="#8E9FE5" stop-opacity="0"/>
</linearGradient>
<clipPath id="clip0_0_1175">
<rect width="64" height="64" fill="white"/>
</clipPath>
<clipPath id="clip1_0_1175">
<rect width="2.67693" height="2.67693" fill="white" transform="translate(12.1614 21.4041)"/>
</clipPath>
<clipPath id="clip2_0_1175">
<rect width="2.67693" height="2.67693" fill="white" transform="translate(12.1614 24.4156)"/>
</clipPath>
<clipPath id="clip3_0_1175">
<rect width="2.67693" height="2.67693" fill="white" transform="translate(12.1614 27.4272)"/>
</clipPath>
<clipPath id="clip4_0_1175">
<rect width="2.67693" height="2.67693" fill="white" transform="translate(12.1614 30.4388)"/>
</clipPath>
<clipPath id="clip5_0_1175">
<rect width="2.67693" height="2.67693" fill="white" transform="translate(12.1614 33.4503)"/>
</clipPath>
<clipPath id="clip6_0_1175">
<rect width="2.67693" height="2.67693" fill="white" transform="translate(12.1614 36.4618)"/>
</clipPath>
<clipPath id="clip7_0_1175">
<rect width="2.67693" height="2.67693" fill="white" transform="translate(12.1614 39.4733)"/>
</clipPath>
<clipPath id="clip8_0_1175">
<rect width="128" height="128" fill="white" transform="translate(100)"/>
</clipPath>
<clipPath id="clip9_0_1175">
<rect width="5.40383" height="5.40383" fill="white" transform="translate(126.513 43.1514)"/>
</clipPath>
<clipPath id="clip10_0_1175">
<rect width="5.40383" height="5.40383" fill="white" transform="translate(126.513 49.2307)"/>
</clipPath>
<clipPath id="clip11_0_1175">
<rect width="5.40383" height="5.40383" fill="white" transform="translate(126.513 55.3101)"/>
</clipPath>
<clipPath id="clip12_0_1175">
<rect width="5.40383" height="5.40383" fill="white" transform="translate(126.513 61.3893)"/>
</clipPath>
<clipPath id="clip13_0_1175">
<rect width="5.40383" height="5.40383" fill="white" transform="translate(126.513 67.4686)"/>
</clipPath>
<clipPath id="clip14_0_1175">
<rect width="5.40383" height="5.40383" fill="white" transform="translate(126.513 73.548)"/>
</clipPath>
<clipPath id="clip15_0_1175">
<rect width="5.40383" height="5.40383" fill="white" transform="translate(126.513 79.6273)"/>
</clipPath>
<clipPath id="clip16_0_1175">
<rect width="192" height="192" fill="white" transform="translate(257)"/>
</clipPath>
</defs>
</svg>
